<svg width="24" height="15" viewBox="0 0 24 15" fill="none" xmlns="http://www.w3.org/2000/svg">
<path fill-rule="evenodd" clip-rule="evenodd" d="M0.964073 0.0630007C0.612219 0.174478 0.360752 0.357897 0.172574 0.640351C0.0252531 0.861481 0 0.960738 0 1.31845C0 1.68844 0.0222455 1.76928 0.189619 2.00822C0.307175 2.17599 0.495916 2.34254 0.686036 2.44628L0.992773 2.6136H12H23.0072L23.314 2.44628C23.5041 2.34254 23.6928 2.17599 23.8104 2.00822C23.9782 1.76862 24 1.68888 24 1.31414C24 0.939394 23.9782 0.859656 23.8104 0.620057C23.6928 0.452287 23.5041 0.285735 23.314 0.181999L23.0072 0.0146716L12.0989 0.00294889C3.29051 -0.0065068 1.14699 0.00505007 0.964073 0.0630007ZM0.964073 6.2562C0.612219 6.36768 0.360752 6.5511 0.172574 6.83355C0.0252531 7.05468 0 7.15394 0 7.51165C0 7.88164 0.0222455 7.96248 0.189619 8.20142C0.307175 8.36919 0.495916 8.53574 0.686036 8.63947L0.992773 8.8068H12H23.0072L23.314 8.63947C23.5041 8.53574 23.6928 8.36919 23.8104 8.20142C23.9782 7.96182 24 7.88208 24 7.50734C24 7.13259 23.9782 7.05286 23.8104 6.81326C23.6928 6.64549 23.5041 6.47893 23.314 6.3752L23.0072 6.20787L12.0989 6.19615C3.29051 6.18669 1.14699 6.19825 0.964073 6.2562ZM0.964073 12.4494C0.612219 12.5609 0.360752 12.7443 0.172574 13.0267C0.0252531 13.2479 0 13.3471 0 13.7048C0 14.0748 0.0222455 14.1557 0.189619 14.3946C0.307175 14.5624 0.495916 14.7289 0.686036 14.8327L0.992773 15H12H23.0072L23.314 14.8327C23.5041 14.7289 23.6928 14.5624 23.8104 14.3946C23.9782 14.155 24 14.0753 24 13.7005C24 13.3258 23.9782 13.2461 23.8104 13.0065C23.6928 12.8387 23.5041 12.6721 23.314 12.5684L23.0072 12.4011L12.0989 12.3893C3.29051 12.3799 1.14699 12.3914 0.964073 12.4494Z" fill="black"/>
</svg>
