<svg width="14" height="12" viewBox="0 0 14 12" fill="none" xmlns="http://www.w3.org/2000/svg">
<path d="M13.6894 0.275313C13.2753 -0.0796357 12.6064 -0.0796357 12.1923 0.275313L7 4.71672L1.80774 0.266212C1.39363 -0.0887372 0.724687 -0.0887372 0.31058 0.266212C-0.103527 0.62116 -0.103527 1.19454 0.31058 1.54949L5.50285 6L0.31058 10.4505C-0.103527 10.8055 -0.103527 11.3788 0.31058 11.7338C0.724687 12.0887 1.39363 12.0887 1.80774 11.7338L7 7.28328L12.1923 11.7338C12.6064 12.0887 13.2753 12.0887 13.6894 11.7338C14.1035 11.3788 14.1035 10.8055 13.6894 10.4505L8.49716 6L13.6894 1.54949C14.0929 1.20364 14.0929 0.621161 13.6894 0.275313V0.275313Z" fill="#0F0F10"/>
</svg>
