<svg width="146" height="79" viewBox="0 0 146 79" fill="none" xmlns="http://www.w3.org/2000/svg">
<path d="M133.822 39.4739C127.297 48.2538 118.927 55.462 109.315 60.5799C99.703 65.6978 89.0876 68.5979 78.2336 69.0716C61.8963 69.0716 50.3612 58.5199 50.3612 46.3853C50.3817 43.3784 50.9878 40.4049 52.1452 37.6348C53.3026 34.8646 54.9887 32.3522 57.1067 30.2406C59.2248 28.1291 61.7335 26.4599 64.4898 25.3285C67.2461 24.197 70.1959 23.6254 73.1707 23.6463C78.5617 23.6105 83.7885 25.5193 87.912 29.0297C92.0355 32.5401 94.7853 37.4217 95.6672 42.7976L58.8169 46.4908L95.7716 49.1816L105.428 49.8675C105.428 48.7068 105.428 47.546 105.428 46.3325C105.429 44.8321 105.324 43.3334 105.115 41.848C103.961 34.0747 100.076 26.9813 94.1721 21.8658C88.2677 16.7504 80.7384 13.955 72.9621 13.9913C68.7328 13.9635 64.5394 14.7779 60.6216 16.3882C56.7038 17.9985 53.1382 20.3731 50.1283 23.3763C47.1184 26.3794 44.7232 29.9525 43.0794 33.8913C41.4357 37.8302 40.5756 42.0577 40.5483 46.3325C40.5483 69.5992 63.9842 78.7264 77.6595 78.7264C103.757 78.7264 123.435 66.6975 139.303 47.8098C141.533 45.1699 143.591 42.3853 145.462 39.4739C143.561 36.5836 141.505 33.8007 139.303 31.1379C131.127 21.4306 120.957 13.6408 109.5 8.31063C98.0428 2.98044 85.5744 0.23787 72.9621 0.273949C60.3445 0.23724 47.8709 2.98488 36.4125 8.3248C24.9541 13.6647 14.7871 21.4683 6.62099 31.1908C4.42337 33.8389 2.36744 36.6039 0.461914 39.4739C2.3672 42.361 4.4231 45.1436 6.62099 47.8098C15.8385 58.7885 27.6021 67.2894 40.8615 72.5537C27.8294 65.2268 17.7192 53.5527 12.2582 39.5266C19.4908 30.2731 28.7081 22.8009 39.2147 17.6737C49.7214 12.5465 61.2428 9.89833 72.9098 9.92892C84.6159 9.85588 96.1847 12.4783 106.739 17.5974C117.293 22.7165 126.555 30.1979 133.822 39.4739Z" fill="#007DFF"/>
</svg>
