<svg width="170" height="60" viewBox="0 0 170 60" fill="none" xmlns="http://www.w3.org/2000/svg">
    <mask id="mask0_144_1758" style="mask-type:alpha" maskUnits="userSpaceOnUse" x="0" y="0" width="170" height="60">
    <path fill-rule="evenodd" clip-rule="evenodd" d="M13.0628 0.684134C12.5399 0.959522 11.8796 1.47389 11.5956 1.82718C11.2299 2.28222 9.92618 5.6544 7.12761 13.3851C4.9542 19.3887 3.04309 24.5584 2.88083 24.8739C2.45845 25.6944 1.18534 26.7277 0.230235 27.0253C-0.499661 27.2526 0.211964 27.2768 6.72314 27.2466L14.0357 27.2128L16.8684 19.3861C18.4264 15.0815 19.8414 11.2885 20.0127 10.957C20.4376 10.1349 21.4882 8.99237 22.3735 8.39008C23.7175 7.47528 24.5939 7.22737 26.8787 7.11471L29.0221 7.00914L29.8958 4.64295C30.6834 2.51029 30.8578 2.19467 31.6639 1.44514C32.1557 0.987734 32.833 0.525235 33.1691 0.417118C33.6235 0.271142 31.2478 0.215992 23.8968 0.202159L14.0136 0.183594L13.0628 0.684134ZM24.5993 9.18003C23.8575 9.44631 22.7499 10.2142 22.242 10.8143C21.5772 11.5995 21.0602 12.9246 16.5631 25.3693C14.0295 32.3807 11.8465 38.3821 11.7119 38.7059C11.1897 39.9638 9.4971 41.4119 8.00294 41.8793C7.75422 41.957 13.086 42.0062 19.8513 41.9883L32.1519 41.9559L33.0678 41.4696C34.146 40.897 35.2274 39.7534 35.6845 38.7019C35.864 38.2892 38.0976 32.1772 40.6482 25.1196C43.1986 18.062 45.4836 11.9472 45.7258 11.5313C46.2649 10.6054 47.3451 9.72061 48.4829 9.27322C49.3261 8.9414 49.1879 8.9374 37.3073 8.93686C27.715 8.93631 25.1406 8.98563 24.5993 9.18003ZM55.7582 12.0145V15.1088H56.2104H56.6626V12.4696V9.83036H58.2907H59.9187V12.4696V15.1088H60.3709H60.8231V12.0145V8.92029H58.2907H55.7582V12.0145ZM62.4512 12.0145V15.1088H62.9034C63.3254 15.1088 63.3556 15.0482 63.3556 14.1987V13.2886H64.4468C66.359 13.2886 67.3352 12.5952 67.3352 11.237C67.3352 9.56553 66.4082 8.92029 64.0066 8.92029H62.4512V12.0145ZM68.6015 12.0145V15.1088H69.1271C69.5904 15.1088 69.8427 14.8472 71.2526 12.9055L72.8524 10.7022L72.9032 12.9055L72.9541 15.1088H73.4007H73.8473V12.0145C73.8473 8.92593 73.8466 8.92029 73.4403 8.92411C73.1286 8.92721 72.6312 9.48435 71.3148 11.3047L69.5964 13.6812L69.5459 11.3007L69.4954 8.92029H69.0484H68.6015V12.0145ZM78.1887 12.0145V15.1088H78.6409H79.0931V12.4696V9.83036H80.7212H82.3492V12.4696V15.1088H82.8919H83.4345V12.0145V8.92029H80.8116H78.1887V12.0145ZM86.1338 9.33419C85.1217 10.0204 84.7008 10.8182 84.7008 12.0506C84.7008 12.649 84.8209 13.3584 84.9719 13.6523C86.0021 15.6568 89.1954 15.8452 90.5157 13.9794C91.1512 13.0813 91.213 11.2355 90.6363 10.3808C89.9245 9.32582 89.1552 8.92029 87.8664 8.92029C86.9986 8.92029 86.6057 9.01421 86.1338 9.33419ZM93.5608 9.78486C93.5554 11.0895 93.2349 13.0622 92.9326 13.6503C92.7848 13.9377 92.5003 14.2251 92.3002 14.2892C91.9896 14.3882 91.9364 14.5631 91.9364 15.485C91.9364 16.5085 91.9596 16.5649 92.3778 16.5649C92.7571 16.5649 92.8269 16.4692 92.8752 15.8823L92.9313 15.1998L95.2688 15.1486C97.7924 15.0933 97.8979 15.1301 97.9031 16.0644C97.9051 16.4304 97.9965 16.5649 98.243 16.5649C98.5071 16.5649 98.6051 16.3816 98.6952 15.7204C98.8685 14.4486 98.8513 14.3807 98.358 14.3807H97.9058V11.6505V8.92029H95.7351H93.5644L93.5608 9.78486ZM101.162 10.2765C101.162 12.2264 100.86 13.4503 100.234 14.0389C99.7818 14.4637 99.7147 14.6585 99.7147 15.5458C99.7147 16.428 99.7612 16.5649 100.061 16.5649C100.323 16.5649 100.436 16.3894 100.529 15.8368L100.651 15.1088H103.077H105.503V15.8368C105.503 16.4921 105.548 16.5649 105.955 16.5649C106.388 16.5649 106.408 16.5163 106.408 15.4728C106.408 14.4293 106.388 14.3807 105.955 14.3807H105.503V11.6505V8.92029H103.333H101.162V10.2765ZM107.674 12.0145V15.1088H109.935C112.076 15.1088 112.196 15.0893 112.196 14.7448C112.196 14.4049 112.076 14.3807 110.387 14.3807H108.578V13.3796V12.3786H110.116C111.635 12.3786 111.654 12.3733 111.654 11.9235C111.654 11.4738 111.635 11.4685 110.116 11.4685H108.578V10.6494V9.83036H110.297C112.009 9.83036 112.015 9.82873 112.015 9.37533V8.92029H109.845H107.674V12.0145ZM113.462 12.0145V15.1088H114.005C114.536 15.1088 114.548 15.0886 114.548 14.1987V13.2886H115.651C117.533 13.2886 118.527 12.5133 118.527 11.0471C118.527 10.2863 117.958 9.51238 117.146 9.17129C116.797 9.02458 115.908 8.92029 115.006 8.92029H113.462V12.0145ZM119.36 9.14781C119.431 9.27304 119.879 9.92064 120.355 10.5872L121.221 11.7992L120.145 13.3498C119.554 14.2027 119.07 14.9473 119.07 15.0047C119.07 15.062 119.304 15.1088 119.59 15.1088C120.04 15.1088 120.238 14.9128 121.066 13.6434C121.897 12.3696 122.083 12.1851 122.491 12.2328C122.945 12.2859 122.961 12.3318 123.012 13.6982C123.063 15.0606 123.08 15.1088 123.51 15.1088C123.945 15.1088 123.954 15.0778 123.954 13.6527C123.954 12.2177 123.961 12.1966 124.41 12.1966C124.783 12.1966 125.034 12.4621 125.785 13.6527C126.588 14.9255 126.77 15.1088 127.228 15.1088C127.517 15.1088 127.753 15.06 127.753 15.0005C127.753 14.9408 127.305 14.238 126.758 13.4388C126.211 12.6394 125.763 11.9011 125.763 11.7979C125.763 11.6947 126.17 11.0473 126.668 10.3591C127.165 9.67092 127.572 9.06572 127.572 9.01403C127.572 8.96252 127.336 8.92029 127.048 8.92029C126.603 8.92029 126.396 9.11104 125.66 10.1944C125.007 11.1565 124.692 11.4685 124.374 11.4685C123.975 11.4685 123.954 11.4062 123.954 10.1944C123.954 8.95669 123.941 8.92029 123.502 8.92029C123.063 8.92029 123.05 8.95669 123.05 10.1944V11.4685H122.534C122.095 11.4685 121.89 11.2763 121.175 10.1944C120.439 9.08046 120.264 8.92029 119.782 8.92029C119.391 8.92029 119.268 8.98691 119.36 9.14781ZM128.838 12.0145V15.1088H129.283C129.712 15.1088 129.729 15.0606 129.78 13.6982C129.831 12.3332 129.848 12.2876 130.281 12.2876C130.626 12.2876 130.973 12.6097 131.8 13.6982C132.775 14.9794 132.931 15.1088 133.501 15.1088C133.973 15.1088 134.086 15.0525 133.957 14.8813C133.863 14.7562 133.283 14.0245 132.667 13.2555L131.548 11.8571L132.501 10.7073C134.102 8.77559 134.035 8.91938 133.337 8.92684C132.801 8.93249 132.607 9.08683 131.732 10.1989C130.935 11.2133 130.639 11.4652 130.24 11.4667C129.745 11.4685 129.743 11.4634 129.743 10.1944C129.743 8.95669 129.73 8.92029 129.29 8.92029H128.838V12.0145ZM135.35 12.0145V15.1088H137.611C139.752 15.1088 139.873 15.0893 139.873 14.7448C139.873 14.4049 139.752 14.3807 138.064 14.3807H136.255V13.3796V12.3786H137.792C139.312 12.3786 139.33 12.3733 139.33 11.9235C139.33 11.4738 139.312 11.4685 137.792 11.4685H136.255V10.6494V9.83036H137.973C139.686 9.83036 139.692 9.82873 139.692 9.37533V8.92029H137.521H135.35V12.0145ZM89.0581 10.0633C89.8079 10.5719 90.1213 11.1613 90.1248 12.0691C90.1302 13.4854 89.2277 14.4111 87.841 14.4111C86.3552 14.4111 85.4976 13.3877 85.6495 11.7965C85.8237 9.97197 87.595 9.07136 89.0581 10.0633ZM66.0558 10.31C67.0107 11.5313 66.0892 12.5566 64.034 12.5595L63.3556 12.5606V11.1955V9.83036H64.5182C65.5589 9.83036 65.7202 9.88078 66.0558 10.31ZM96.9617 12.06L96.9109 14.2897L95.3059 14.3427C93.8244 14.3915 93.7111 14.3705 93.8325 14.0697C94.1408 13.3052 94.2706 12.6561 94.3895 11.2856L94.5156 9.83036H95.7641H97.0126L96.9617 12.06ZM104.599 12.1055V14.3807H102.98H101.361L101.647 13.6982C101.804 13.3229 101.974 12.299 102.024 11.423L102.116 9.83036H103.358H104.599V12.1055ZM117.053 10.1489C117.651 10.6585 117.718 11.3367 117.227 11.9112C116.878 12.3198 116.61 12.423 115.676 12.5082L114.548 12.6112V11.2208V9.83036H115.613C116.364 9.83036 116.789 9.92428 117.053 10.1489ZM59.376 22.1163V22.7534L58.4263 22.7543C57.3269 22.7554 56.3061 23.2796 55.7497 24.1291C55.2768 24.8506 55.2676 26.6128 55.732 27.4841C56.1779 28.3205 57.3576 28.9419 58.5 28.9419C59.3527 28.9419 59.376 28.9565 59.376 29.4879C59.376 30.0218 59.3961 30.034 60.2805 30.034C61.1648 30.034 61.1849 30.0218 61.1849 29.4879C61.1849 28.9785 61.2303 28.9419 61.8633 28.9408C63.0181 28.9392 63.829 28.6081 64.4947 27.8667C64.8424 27.4794 65.1841 26.9002 65.2542 26.5793C65.5475 25.2355 64.92 23.6862 63.8335 23.0723C63.6204 22.9518 62.9577 22.8104 62.3607 22.7578C61.2911 22.6638 61.2745 22.6538 61.2188 22.0708C61.1632 21.4911 61.1442 21.4793 60.2691 21.4793H59.376V22.1163ZM70.139 21.6569C69.0711 21.8167 67.8766 22.5575 67.2583 23.4438C66.8094 24.087 66.7007 24.4461 66.643 25.4749C66.5597 26.9561 66.8101 27.8318 67.5633 28.6953C68.4676 29.7315 69.3854 30.1159 70.9672 30.1208C72.1815 30.1244 72.4392 30.062 73.2236 29.5742C73.7724 29.2327 74.3173 28.6845 74.6566 28.1323C75.141 27.3436 75.204 27.0812 75.204 25.8476C75.204 24.6152 75.1412 24.3526 74.6613 23.5776C73.7619 22.1247 72.0035 21.3779 70.139 21.6569ZM76.7416 25.8476V30.034H77.7365H78.7314V28.3958V26.7577H80.5403H82.3492V28.3958V30.034H83.2536H84.1581V25.8476V21.6613H83.2536H82.3492V23.2994V24.9376H80.5403H78.7314V23.2994V21.6613H77.7365H76.7416V25.8476ZM87.5936 22.6169C87.5912 24.1287 87.2506 26.7275 86.9644 27.4166C86.7908 27.8352 86.5189 28.111 86.154 28.2389C85.6166 28.4275 85.6052 28.4566 85.6077 29.6423C85.6115 31.5223 85.6863 31.6721 86.6213 31.6721H87.4141V30.853V30.034H90.2179H93.0218V30.853V31.6721H93.9262H94.8307L94.8327 30.7165C94.8337 30.1911 94.8842 29.4597 94.9446 29.0915C95.0519 28.4388 95.0396 28.4208 94.4452 28.3634L93.8358 28.3048L93.7864 24.9831L93.7372 21.6613H90.666H87.595L87.5936 22.6169ZM99.2983 21.7893C99.2097 21.938 96.8729 27.617 96.2617 29.1694L95.9213 30.034H96.9643H98.0075L98.2732 29.2604L98.5389 28.4869H100.333H102.127L102.383 29.2604L102.639 30.034H103.704C104.548 30.034 104.748 29.9806 104.67 29.7761C104.616 29.6341 103.852 27.7708 102.972 25.6352L101.372 21.7523L100.378 21.6983C99.8319 21.6684 99.3459 21.7094 99.2983 21.7893ZM72.2121 23.5972C73.6934 24.4776 73.8046 27.0255 72.4058 28.0278C70.2315 29.5857 67.6174 27.224 68.6811 24.6627C69.1834 23.4529 71.0312 22.8952 72.2121 23.5972ZM91.8964 25.8931L91.846 28.3048L90.2487 28.3576C88.7862 28.406 88.6594 28.3829 88.7455 28.0846C89.0445 27.0506 89.2051 26.1465 89.3133 24.8921L89.4349 23.4815H90.6908H91.9469L91.8964 25.8931ZM100.891 25.122C101.14 25.8564 101.343 26.5249 101.343 26.6075C101.343 26.6902 100.859 26.7577 100.268 26.7577H99.1936L99.616 25.5291C100.17 23.9174 100.288 23.634 100.371 23.7172C100.409 23.7552 100.643 24.3873 100.891 25.122ZM59.376 25.7566V27.3038H58.7673C57.8554 27.3038 57.2053 26.7068 57.2053 25.8693C57.2053 24.8608 57.8469 24.2264 58.8786 24.215L59.376 24.2095V25.7566ZM63.0201 24.6908C63.6293 25.2406 63.5371 26.5313 62.8511 27.0557C62.6809 27.1858 62.2365 27.2948 61.8633 27.2979L61.1849 27.3038V25.878C61.1849 25.0937 61.2446 24.3921 61.3177 24.3185C61.5114 24.1238 62.6731 24.3779 63.0201 24.6908ZM82.2358 36.8426C81.7255 37.0816 81.2609 37.3542 81.2031 37.4483C81.1452 37.5424 81.323 37.8906 81.5981 38.2223C82.0849 38.8091 82.1104 38.8171 82.5521 38.526C83.2748 38.0495 84.6025 37.936 85.1593 38.3031C86.1609 38.9634 85.3545 39.8551 83.7511 39.86L82.8919 39.8628V40.5908V41.3189H84.0273C85.3321 41.3189 85.967 41.6487 85.967 42.3261C85.967 43.3716 83.9712 43.647 82.3931 42.8194L81.6585 42.4341L81.1917 43.1439L80.7248 43.8538L81.561 44.3471C82.2182 44.7346 82.6972 44.8576 83.7967 44.9217C85.3693 45.0132 86.245 44.7957 87.0516 44.1128C88.084 43.2388 88.124 41.3454 87.124 40.6862L86.6564 40.3779L87.0354 39.9722C87.5999 39.3673 87.5579 38.0605 86.9503 37.3339C86.0974 36.314 83.8613 36.0811 82.2358 36.8426ZM136.836 36.6225C135.922 36.9338 134.694 38.1253 134.348 39.0375C134.132 39.6061 134.063 40.2142 134.113 41.1019C134.197 42.5981 134.741 43.577 135.927 44.366C136.619 44.8263 136.826 44.8682 138.413 44.8682C139.982 44.8682 140.224 44.8207 141.003 44.36C141.476 44.0804 141.862 43.7746 141.862 43.6803C141.862 43.5859 141.632 43.2491 141.35 42.9319L140.838 42.3549L140.306 42.7506C139.553 43.3105 138.15 43.435 137.344 43.0132C135.14 41.8609 135.58 38.5734 137.999 38.1167C138.708 37.9829 140.124 38.3262 140.439 38.7084C140.615 38.9217 140.735 38.8646 141.159 38.3671C141.438 38.0384 141.67 37.6689 141.674 37.5457C141.678 37.4227 141.335 37.1429 140.913 36.9241C140.019 36.4613 137.793 36.2967 136.836 36.6225ZM55.7582 40.6818V44.7772H56.6585H57.5588L57.6082 41.5464L57.6575 38.3156L59.3308 38.2632L61.004 38.211V41.494V44.7772H61.9989H62.9938V40.6818V36.5865H59.376H55.7582V40.6818ZM64.8027 40.6818V44.7772H65.7072H66.6117V43.6851V42.593H67.8837C69.3057 42.593 70.24 42.279 71.0012 41.5455C72.3302 40.2645 71.927 37.8218 70.2438 36.9578C69.6251 36.6402 69.1789 36.5865 67.1616 36.5865H64.8027V40.6818ZM73.3046 40.6818V44.7772H76.4702H79.6358V43.9581V43.139H77.3647H75.0936L75.1488 42.2745L75.204 41.4099L77.1486 41.3582L79.0931 41.3065V40.5908V39.8751L77.1486 39.8234L75.204 39.7718L75.1485 38.9982L75.0927 38.2246H77.2739H79.4549V37.4056V36.5865H76.3798H73.3046V40.6818ZM89.4039 40.6818V44.7772L90.3536 44.7684L91.3033 44.7599L92.9313 42.4792C93.8267 41.225 94.6612 40.1132 94.7855 40.0086C94.9645 39.8578 95.0116 40.334 95.0116 42.2978V44.7772H95.916H96.8205V40.6818V36.5865H95.9576H95.0948L93.199 39.2314L91.3033 41.876L91.2532 39.2314L91.2033 36.5865H90.3035H89.4039V40.6818ZM100.256 37.4511C100.253 38.8903 99.905 41.49 99.6239 42.1671C99.4519 42.5812 99.1683 42.8767 98.8134 43.0114C98.2714 43.2175 98.2676 43.2284 98.2676 44.6201C98.2676 46.4943 98.3199 46.5973 99.2719 46.5973H100.057L100.112 45.7327L100.167 44.8682L102.926 44.8179L105.684 44.7677V45.6825V46.5973H106.589H107.493V45.437C107.493 44.7988 107.544 44.0207 107.606 43.7078C107.716 43.1545 107.701 43.139 107.063 43.139H106.408V39.8628V36.5865H103.333H100.257L100.256 37.4511ZM109.121 40.6818V44.7772H112.287H115.452V43.9581V43.139H113.191H110.93V42.229V41.3189H112.829H114.729V40.5908V39.8628H112.829H110.93V39.0437V38.2246H113.101H115.271V37.4056V36.5865H112.196H109.121V40.6818ZM117.08 40.6818V44.7772H117.985H118.889V43.139V41.5009H120.698H122.507V43.139V44.7772H123.411H124.316V40.6818V36.5865H123.411H122.507V38.2312V39.8759L120.743 39.8238L118.98 39.7718L118.927 38.1791L118.875 36.5865H117.978H117.08V40.6818ZM125.763 37.4056V38.2246H127.21H128.657V41.5009V44.7772H129.562H130.466V41.5009V38.2246H131.913H133.36V37.4056V36.5865H129.562H125.763V37.4056ZM143.49 40.6818V44.7772H144.395H145.299V43.048C145.299 41.3688 145.311 41.3189 145.712 41.3189C146.028 41.3189 146.414 41.7277 147.347 43.048L148.568 44.7772H149.748C150.644 44.7772 150.896 44.7224 150.793 44.5496C150.718 44.4246 150.021 43.4907 149.245 42.4745C148.467 41.4581 147.832 40.5318 147.832 40.4157C147.832 40.2996 148.487 39.3906 149.288 38.3955L150.744 36.5865H149.574H148.404L147.204 38.1336C146.43 39.1311 145.878 39.6807 145.651 39.6807C145.33 39.6807 145.299 39.545 145.299 38.1336V36.5865H144.395H143.49V40.6818ZM152.354 40.6818V44.7772L153.304 44.7693L154.253 44.7617L155.6 42.8545C156.341 41.8056 157.172 40.6829 157.447 40.3597L157.947 39.7718L157.954 42.2745L157.962 44.7772H158.866H159.771V40.6818V36.5865H158.908H158.045L156.149 39.2314L154.253 41.876L154.203 39.2314L154.153 36.5865H153.254H152.354V40.6818ZM162.48 38.4916C163.179 39.5393 163.75 40.4419 163.75 40.4973C163.75 40.5526 163.139 41.5178 162.392 42.6419L161.033 44.6861L162.055 44.7415C162.617 44.7719 163.168 44.7617 163.279 44.7185C163.391 44.6754 163.848 43.9761 164.294 43.1645C164.741 42.3529 165.148 41.688 165.197 41.6871C165.247 41.686 165.68 42.3809 166.159 43.2313L167.03 44.7772H168.194C168.834 44.7772 169.358 44.7326 169.358 44.6781C169.358 44.6235 168.743 43.6843 167.992 42.5908L166.625 40.6026L167.505 39.2772C167.989 38.5481 168.57 37.6446 168.796 37.2691L169.206 36.5865H168.058H166.909L166.295 37.7241C165.211 39.7317 165.349 39.7079 164.4 38.0523L163.56 36.5865H162.385H161.21L162.48 38.4916ZM69.6141 38.6735C69.9936 39.1957 69.9305 40.1132 69.4871 40.5171C69.1932 40.7848 68.8326 40.8638 67.9043 40.8638H66.7021L66.6486 39.5238L66.595 38.184L67.9777 38.2543C69.0801 38.3104 69.412 38.3954 69.6141 38.6735ZM104.599 40.6818V43.139H102.951C101.708 43.139 101.325 43.0833 101.391 42.9115C101.571 42.4388 101.881 40.636 101.986 39.4532L102.095 38.2246H103.347H104.599V40.6818ZM101.021 51.4043C98.529 52.2225 97.3868 54.9969 98.5274 57.4618C99.6105 59.8025 102.926 60.5682 105.104 58.9808C107.527 57.2148 107.229 53.0441 104.584 51.6859C103.655 51.2094 102.011 51.0794 101.021 51.4043ZM55.7582 55.516V59.7023H56.6585H57.559L57.6082 56.3806L57.6575 53.0588L59.783 53.0075L61.9085 52.9563V52.1429V51.3297H58.8333H55.7582V55.516ZM63.3556 55.516V59.7023H64.2514H65.1473L65.2011 58.5648L65.255 57.4272L66.7925 57.3338C69.3746 57.1771 70.351 56.2392 70.1949 54.0655C70.1202 53.0266 70.0493 52.8571 69.4643 52.3177C68.6015 51.5221 67.8168 51.3319 65.3906 51.3308L63.3556 51.3297V55.516ZM74.0447 51.7392C73.9591 51.9645 73.2285 53.7696 72.4212 55.7508C71.6137 57.7319 70.953 59.4313 70.953 59.5276C70.953 59.6237 71.3941 59.7023 71.9329 59.7023H72.9126L73.1686 58.9288L73.4244 58.1552L75.2223 58.1039L77.02 58.0524L77.2879 58.832L77.5556 59.6113L78.6189 59.6667C79.5794 59.7165 79.6702 59.6902 79.56 59.3937C79.4929 59.2131 78.7296 57.3252 77.8636 55.1988L76.2893 51.332L75.2447 51.331C74.3276 51.3299 74.1812 51.3795 74.0447 51.7392ZM81.0829 55.516V59.7023H81.9805H82.8783L82.9302 58.0187L82.9823 56.3351L84.746 56.283L86.5097 56.231V57.9667V59.7023H87.4141H88.3186V55.516V51.3297H87.4141H86.5097V52.9678V54.6059H84.7008H82.8919V52.9678V51.3297H81.9874H81.0829V55.516ZM89.9466 52.1487V52.9678H91.3033H92.66V56.3351V59.7023H93.5603H94.4608L94.5099 56.3806L94.5593 53.0588L95.9612 53.0057L97.3631 52.9525V52.1411V51.3297H93.6549H89.9466V52.1487ZM108.398 55.4982V59.7023L110.613 59.7013C113.17 59.7002 114.046 59.5076 114.76 58.7892C115.2 58.346 115.271 58.1316 115.271 57.2508C115.271 56.407 115.193 56.1492 114.827 55.7808C114.583 55.5351 114.284 55.334 114.163 55.334C114.041 55.334 114.133 55.13 114.365 54.8804C114.673 54.5513 114.789 54.2141 114.789 53.6511C114.789 51.867 114.07 51.4551 110.794 51.3621L108.398 51.294V55.4982ZM103.875 53.3087C105.367 54.3708 105.224 56.9954 103.629 57.8252C101.924 58.7122 99.8962 57.4574 99.8962 55.516C99.8962 53.4523 102.246 52.1487 103.875 53.3087ZM68.083 53.4987C68.5741 54.109 68.5163 54.8677 67.9439 55.3207C67.5751 55.6127 67.2068 55.698 66.3159 55.698H65.1645V54.4543C65.1645 53.7701 65.2255 53.1482 65.3002 53.0719C65.3749 52.9957 65.9556 52.9662 66.5907 53.0062C67.5264 53.0654 67.8093 53.1587 68.083 53.4987ZM112.817 53.369C113.054 53.7104 113.059 53.8253 112.851 54.1425C112.652 54.4443 112.379 54.5251 111.406 54.5688L110.206 54.6225V53.7952V52.9678H111.372C112.368 52.9678 112.578 53.0261 112.817 53.369ZM75.8512 54.8875C76.1119 55.6305 76.2832 56.2807 76.2318 56.3322C76.0846 56.4805 74.2091 56.4414 74.2091 56.2901C74.2091 55.9241 75.1658 53.3238 75.264 53.4227C75.3264 53.4853 75.5905 54.1445 75.8512 54.8875ZM112.92 56.2965C113.493 56.587 113.641 57.4829 113.172 57.8278C112.978 57.9707 112.328 58.0642 111.529 58.0642H110.206V57.0631V56.0621L111.337 56.0648C111.959 56.0662 112.671 56.1705 112.92 56.2965Z" fill="black"/>
    </mask>
    <g mask="url(#mask0_144_1758)">
    <rect x="54.6895" y="19.6602" width="114.668" height="42.9321" fill="black"/>
    <rect x="54.6895" y="6.10547" width="88.3586" height="12.1672" fill="black"/>
    <path d="M22.7912 9.55164L27.0688 8.60325L49.6299 7.95557L35.1411 42.3059H7.54346L15.8688 26.4608L20.2384 13.8772L22.7912 9.55164Z" fill="#CAAD78"/>
    <path d="M11.522 0.762122L14.5578 0.0913086H35.0491L29.1616 7.63218L22.3311 8.88128L19.5024 13.045L14.5578 27.2014L-5.97949 30.0003L-0.0919857 26.7157L2.66778 21.1178L8.07233 7.63218L11.522 0.762122Z" fill="#E0D2B5"/>
    </g>
    </svg>
    