<svg width="128" height="105" viewBox="0 0 128 105" fill="none" xmlns="http://www.w3.org/2000/svg">
<path d="M107.747 9.22071L63.7302 38.1842L63.9168 104.958L84.4597 89.7983L98.6401 78.9577L112.571 13.1665L107.747 9.22071Z" fill="url(#paint0_linear_143_1653)"/>
<path d="M20.1532 9.24675L64.1702 38.2102L63.9836 104.985L43.4407 89.8243L29.2603 78.9837L15.3294 13.1926L20.1532 9.24675Z" fill="white"/>
<path d="M30.7737 0L64.0415 21.3074L63.9168 40.538L19.13 9.96836L30.7737 0Z" fill="#E31E25"/>
<path d="M97.0272 0.0136994L63.7594 21.3211L63.9168 40.538L108.671 9.98205L97.0272 0.0136994Z" fill="url(#paint1_linear_143_1653)"/>
<path d="M0.5 25.8762L18.5894 10.3837L30.4826 79.8299L23.3716 74.5135L0.5 25.8762Z" fill="#E31E25"/>
<path d="M127.5 25.8762L109.411 10.3837L97.5174 79.8299L104.628 74.5135L127.5 25.8762Z" fill="url(#paint2_linear_143_1653)"/>
<path d="M36.6372 35.0138L63.9168 52.4169V105L43.3739 89.8398L36.6372 35.0138Z" fill="#E31E25"/>
<path d="M91.1965 34.9723L63.9168 52.3754V105L84.4597 89.7983L91.1965 34.9723Z" fill="url(#paint3_linear_143_1653)"/>
<defs>
<linearGradient id="paint0_linear_143_1653" x1="90.4098" y1="29.2462" x2="12.7913" y2="49.7262" gradientUnits="userSpaceOnUse">
<stop stop-color="#9C9C9C"/>
<stop offset="1" stop-color="white"/>
</linearGradient>
<linearGradient id="paint1_linear_143_1653" x1="64.3181" y1="79.9334" x2="161.356" y2="43.4386" gradientUnits="userSpaceOnUse">
<stop stop-color="#9D2225"/>
<stop offset="1" stop-color="#E31E25"/>
</linearGradient>
<linearGradient id="paint2_linear_143_1653" x1="237.238" y1="72.5957" x2="-15.4945" y2="-15.2146" gradientUnits="userSpaceOnUse">
<stop stop-color="#9D2225"/>
<stop offset="1" stop-color="#E31E25"/>
</linearGradient>
<linearGradient id="paint3_linear_143_1653" x1="66.6785" y1="70.3949" x2="99.0968" y2="70.3162" gradientUnits="userSpaceOnUse">
<stop stop-color="#9D2225"/>
<stop offset="1" stop-color="#E31E25"/>
</linearGradient>
</defs>
</svg>
