<svg width="355" height="26" viewBox="0 0 355 26" fill="none" xmlns="http://www.w3.org/2000/svg">
<path d="M333.949 12.9048C333.463 12.9262 332.972 12.9412 332.496 12.9728C332.187 12.9926 332.053 12.9363 331.847 12.9071C331.778 12.897 331.704 12.8766 331.64 12.8792C331.159 12.9006 330.678 12.9246 330.197 12.9485C330.05 12.9989 329.958 13.0659 329.732 13.0907C329.511 13.1142 329.251 13.1146 329.006 13.1266C328.682 13.1413 328.358 13.156 328.034 13.1694C327.872 13.1761 327.739 13.2007 327.686 13.2471C327.676 13.2548 327.784 13.2739 327.844 13.2853C328.04 13.3235 328.233 13.3669 328.449 13.396C328.656 13.424 328.91 13.3773 329.132 13.4129C329.629 13.4929 329.634 13.4916 330.012 13.4756C330.336 13.4609 330.66 13.4449 330.984 13.4341C331.048 13.4314 331.121 13.4505 331.19 13.4607C331.397 13.4886 331.53 13.5526 331.835 13.5276C332.065 13.508 332.321 13.5037 332.561 13.493C332.763 13.5299 332.95 13.5719 333.166 13.6011C333.368 13.629 333.427 13.6508 333.32 13.6882C333.222 13.7231 333.085 13.7374 332.903 13.7403C332.741 13.7419 332.579 13.7537 332.417 13.7604C332.334 13.7644 332.255 13.7671 332.176 13.7711C331.867 13.7858 331.867 13.7858 331.301 13.7046C331.08 13.6728 330.83 13.7182 330.619 13.6878C330.476 13.6674 330.353 13.6368 330.215 13.6152C330.156 13.6063 330.063 13.6052 329.989 13.6079C329.743 13.6173 329.498 13.6242 329.262 13.6413C329.096 13.6531 328.998 13.6893 329.018 13.7252C329.023 13.7393 329.141 13.7597 329.21 13.7609C329.367 13.7632 329.534 13.7449 329.686 13.7536C329.834 13.7623 329.986 13.7878 330.095 13.8158C330.316 13.8745 330.566 13.8215 330.777 13.8365C330.999 13.8528 331.181 13.9039 331.393 13.9344C331.447 13.942 331.55 13.9289 331.633 13.9249C331.874 13.9155 332.114 13.9074 332.355 13.898C332.557 13.9349 332.773 13.9679 332.955 14.01C333.285 14.0865 333.639 14.1154 334.066 14.0774C334.307 14.0565 334.542 14.0638 334.735 14.1135C334.932 14.1646 335.158 14.159 335.408 14.1483C335.639 14.1377 335.874 14.109 336.11 14.1445C336.622 14.2233 336.627 14.2272 337.231 14.1953C337.412 14.186 337.55 14.1832 337.688 14.2125C337.816 14.2392 337.953 14.2621 338.086 14.2876C338.327 14.2782 338.572 14.2687 338.813 14.258C339.122 14.2434 339.294 14.2611 339.369 14.3329C339.413 14.3765 339.434 14.4163 339.542 14.4456C339.67 14.4814 339.808 14.4798 339.994 14.4692C340.171 14.4599 340.298 14.4456 340.371 14.3992C340.401 14.3799 340.459 14.3618 340.513 14.3463C340.557 14.3347 340.626 14.3166 340.665 14.3191C340.739 14.3241 340.837 14.338 340.862 14.3547C341.105 14.5097 341.105 14.511 341.351 14.5555C341.621 14.6052 341.902 14.6496 342.148 14.7057C342.37 14.7554 342.59 14.7332 342.831 14.7328C343.013 14.7325 343.131 14.7657 343.117 14.7991C343.107 14.8184 343.039 14.8468 342.98 14.8494C342.499 14.876 342.013 14.8987 341.527 14.9175C341.468 14.9201 341.394 14.8972 341.325 14.8857C341.187 14.8628 341.064 14.8271 340.917 14.8196C340.769 14.8122 340.598 14.8317 340.436 14.8384C340.274 14.8451 340.102 14.8622 339.955 14.8521C339.807 14.8421 339.689 14.8051 339.551 14.7809C339.487 14.7694 339.398 14.7529 339.344 14.7568C338.986 14.7883 338.721 14.7464 338.464 14.6903C338.41 14.6788 338.317 14.6713 338.248 14.674C337.679 14.6968 337.114 14.7234 336.545 14.7488C336.314 14.7595 336.127 14.7149 336.077 14.6392C336.052 14.5968 336.002 14.5545 336.002 14.5121C336.001 14.4351 335.73 14.3931 335.534 14.4025C335.21 14.4159 334.881 14.4267 334.562 14.4465C334.302 14.4624 334.08 14.4474 333.903 14.4014C333.696 14.3491 333.461 14.3598 333.225 14.3744C333.048 14.3849 333 14.4274 333.011 14.534C333.022 14.6201 332.939 14.6472 332.619 14.6619C332.217 14.6806 331.81 14.6993 331.402 14.7141C331.338 14.7168 331.264 14.6951 331.2 14.6836C331.063 14.6607 330.939 14.6237 330.792 14.6162C330.644 14.6075 330.473 14.6271 330.311 14.6351C330.149 14.6418 329.977 14.66 329.83 14.6513C329.682 14.6426 329.559 14.6043 329.426 14.5801C329.362 14.5686 329.283 14.5521 329.219 14.5547C328.895 14.5656 328.572 14.5816 328.248 14.5963C327.884 14.6123 327.884 14.6123 327.368 14.5335C327.131 14.498 326.896 14.5267 326.665 14.5373C326.42 14.548 326.189 14.5536 325.997 14.5025C325.869 14.4693 325.726 14.449 325.574 14.4557C325.167 14.4718 324.764 14.4918 324.357 14.5079C324.288 14.5106 324.195 14.5044 324.14 14.4929C323.879 14.4394 323.624 14.3974 323.26 14.4251C322.946 14.4487 322.608 14.4506 322.293 14.473C322.122 14.4848 322.044 14.5261 322.078 14.5581C322.098 14.5748 322.202 14.5939 322.27 14.5938C322.428 14.5948 322.599 14.5752 322.747 14.5827C323.051 14.5976 323.205 14.7052 323.602 14.675C323.838 14.6566 324.083 14.6497 324.329 14.6442C324.393 14.6428 324.462 14.667 324.531 14.6798C324.727 14.7141 324.9 14.7588 325.185 14.7352C325.42 14.7168 325.67 14.7112 325.911 14.7005C326.294 14.6831 326.294 14.6844 326.791 14.7619C327.027 14.7988 327.262 14.7688 327.493 14.7594C327.665 14.7527 327.827 14.7396 327.965 14.7573C328.176 14.7839 328.329 14.8453 328.589 14.841C328.835 14.8367 329.075 14.8183 329.321 14.8115C329.473 14.8074 329.616 14.8277 329.739 14.8621C329.867 14.8966 330.005 14.9118 330.172 14.9038C330.412 14.8931 330.658 14.8798 330.903 14.873C330.972 14.8716 331.051 14.883 331.115 14.8932C331.252 14.916 331.385 14.9428 331.518 14.967C331.759 14.9588 332.004 14.9558 332.24 14.94C332.421 14.9281 332.549 14.9331 332.697 14.9585C332.884 14.9929 333.037 15.0543 333.341 15.0242C333.493 15.0098 333.67 15.0133 333.822 15.0002C334.008 14.9832 334.136 14.9894 334.269 15.0277C334.521 15.1005 334.835 15.1012 335.159 15.0724C335.512 15.041 335.778 15.0765 336.044 15.1325C336.324 15.1912 336.324 15.1899 336.542 15.3321C336.606 15.3731 336.788 15.392 336.94 15.3841C337.196 15.3708 337.417 15.3768 337.604 15.4253C337.801 15.4776 338.037 15.4708 338.277 15.4562C338.596 15.4364 338.915 15.4192 339.177 15.4932C339.305 15.529 339.442 15.5377 339.614 15.5284C340.1 15.5045 340.591 15.4895 341.067 15.4604C341.357 15.4419 341.524 15.4827 341.721 15.5171C341.987 15.5641 342.277 15.606 342.278 15.7075C342.278 15.7242 342.347 15.7434 342.407 15.7561C342.535 15.7829 342.672 15.8057 342.805 15.8312C343.002 15.8694 343.194 15.9012 343.464 15.8802C343.7 15.8631 343.95 15.8575 344.19 15.8455C344.431 15.8335 344.652 15.8267 344.869 15.8752C345.12 15.93 345.386 15.9822 345.671 16.0228C345.873 16.052 346.137 16.0014 346.354 16.0409C346.487 16.065 346.615 16.0931 346.757 16.1134C346.816 16.1223 346.91 16.1157 346.988 16.113C347.15 16.1076 347.317 16.1034 347.474 16.0903C347.656 16.0759 347.793 16.0782 347.931 16.1075C348.059 16.1343 348.187 16.1713 348.335 16.1787C348.556 16.1899 348.801 16.1381 349.023 16.1968C349.136 16.2262 349.279 16.2542 349.426 16.2629C349.574 16.2717 349.745 16.2521 349.903 16.2531C349.971 16.253 350.055 16.2734 350.094 16.29C350.119 16.299 350.085 16.3234 350.051 16.3363C350.007 16.3518 349.943 16.3725 349.879 16.3752C349.393 16.3991 348.907 16.4193 348.422 16.4419C348.132 16.4553 348.132 16.4553 347.546 16.3754C347.409 16.3563 347.257 16.3604 347.085 16.3697C346.854 16.3817 346.619 16.404 346.378 16.3813C346.062 16.2944 345.674 16.2874 345.262 16.3215C345.09 16.3359 344.933 16.3362 344.805 16.312C344.534 16.2637 344.249 16.2192 344.008 16.1618C343.821 16.1172 343.732 16.1135 343.654 16.1753C343.63 16.1946 343.606 16.2152 343.611 16.2332C343.641 16.2974 343.696 16.3602 343.726 16.4244C343.736 16.4424 343.697 16.463 343.673 16.4823C343.595 16.5364 343.492 16.5327 343.319 16.488C343.147 16.4434 342.94 16.4142 342.665 16.4352C342.43 16.4536 342.174 16.4515 341.939 16.4712C341.576 16.5001 341.32 16.4594 341.059 16.4046C341.005 16.3931 340.911 16.3869 340.843 16.3896C340.111 16.4204 339.385 16.455 338.653 16.4859C338.496 16.4926 338.354 16.4735 338.23 16.4391C338.102 16.4046 337.96 16.3869 337.802 16.3936C337.154 16.4217 336.507 16.4472 335.859 16.4817C335.594 16.4963 335.382 16.48 335.2 16.4353C335.062 16.4022 334.934 16.3921 334.762 16.3963C334.576 16.4004 334.443 16.4135 334.351 16.4509C334.263 16.4871 334.327 16.5088 334.523 16.5367C334.735 16.5672 334.932 16.6067 335.134 16.6423C335.296 16.6369 335.458 16.6263 335.615 16.6273C335.684 16.6272 335.748 16.6502 335.817 16.6629C336.014 16.6998 336.196 16.7368 336.475 16.7157C336.711 16.6973 336.961 16.6931 337.202 16.6811C337.536 16.6664 337.536 16.6664 338.077 16.7464C338.215 16.7667 338.362 16.7651 338.539 16.7533C338.691 16.744 338.848 16.7617 338.957 16.8001C339.001 16.8154 338.987 16.8411 338.894 16.9261C338.895 16.989 338.998 16.9606 339.032 16.9194C339.085 16.8602 338.982 16.8411 338.786 16.8736C338.648 16.897 338.58 16.9305 338.615 16.9574C338.635 16.9715 338.728 16.9893 338.894 16.9261C339.326 16.8483 339.655 16.8387 339.969 16.8176C340.155 16.8057 340.273 16.8106 340.421 16.8438C340.598 16.8833 340.775 16.9254 341.065 16.9043C341.379 16.8807 341.713 16.8775 342.032 16.8577C342.326 16.8392 342.479 16.8954 342.666 16.9285C342.893 16.9679 343.143 16.9226 343.349 16.9453C343.566 16.9681 343.719 17.0243 343.969 17.0342C344.332 16.9988 344.564 17.0627 344.839 17.1046C345.056 17.1363 345.311 17.1076 345.542 17.0931C345.802 17.0772 346.018 17.091 346.2 17.1369C346.407 17.1892 346.638 17.1773 346.873 17.1653C347.423 17.1387 347.443 17.1348 347.763 17.2049C347.994 17.2558 348.215 17.2323 348.446 17.2255C348.648 17.2599 348.845 17.2968 349.056 17.3272C349.11 17.3348 349.213 17.3218 349.297 17.3178C349.537 17.3071 349.783 17.2964 350.023 17.2857C350.185 17.279 350.357 17.2595 350.504 17.2669C350.652 17.2756 350.775 17.3127 350.908 17.3369C351.041 17.361 351.179 17.3852 351.307 17.4107C351.504 17.4489 351.69 17.4807 351.965 17.4609C352.201 17.4438 352.446 17.4382 352.692 17.4263C353.001 17.4116 352.991 17.4155 353.567 17.4915C353.877 17.5334 354.195 17.4815 354.509 17.4758C354.667 17.4729 354.819 17.4868 354.928 17.5239C354.972 17.5392 354.958 17.5649 354.973 17.5867C354.163 17.6228 353.348 17.6538 352.548 17.6976C352.238 17.7148 352.076 17.6688 351.908 17.6306C351.633 17.5694 351.27 17.6599 351.009 17.5808C350.851 17.5335 350.625 17.5069 350.355 17.5305C350.198 17.5436 350.031 17.5426 349.869 17.5545C349.457 17.5835 349.079 17.5854 348.749 17.4973C348.635 17.4667 348.473 17.4503 348.355 17.4209C348.217 17.3891 348.084 17.3713 347.922 17.378C347.191 17.4101 346.464 17.4422 345.738 17.4769C345.674 17.4795 345.61 17.4989 345.556 17.5131C345.419 17.5493 345.464 17.5775 345.685 17.6003C345.759 17.6079 345.818 17.6244 345.887 17.6372C346.02 17.6613 346.143 17.6997 346.291 17.7084C346.438 17.7172 346.61 17.6989 346.772 17.6922C346.934 17.6855 347.106 17.6659 347.253 17.6733C347.4 17.6821 347.524 17.7191 347.661 17.742C347.725 17.7535 347.804 17.7726 347.868 17.7712C348.192 17.7629 348.511 17.7482 348.835 17.7361C349.037 17.7705 349.209 17.8203 349.45 17.8314C349.603 17.8388 349.764 17.8244 349.922 17.8267C349.99 17.8279 350.079 17.847 350.114 17.8636C350.133 17.8739 350.07 17.8997 350.021 17.9126C349.835 17.9618 349.579 17.9532 349.349 17.969C349.099 17.9862 348.873 17.9814 348.68 17.9317C348.552 17.8985 348.41 17.8807 348.252 17.8874C347.845 17.9048 347.443 17.9248 347.035 17.9397C346.966 17.9423 346.883 17.9309 346.819 17.922C346.302 17.8446 346.302 17.842 345.939 17.8593C345.404 17.8847 345.404 17.8847 345.045 17.8172C344.976 17.8045 344.902 17.7802 344.843 17.7816C344.273 17.8031 343.709 17.8247 343.144 17.8552C342.958 17.8645 342.83 17.8647 342.692 17.8316C342.574 17.8035 342.436 17.7716 342.289 17.7642C342.136 17.7567 341.969 17.7763 341.807 17.783C341.645 17.7897 341.474 17.8067 341.331 17.7967C341.184 17.7867 341.056 17.7509 340.928 17.7254C340.795 17.6987 340.652 17.7002 340.471 17.7108C339.911 17.7413 339.906 17.7375 339.35 17.6588C339.286 17.6499 339.203 17.6398 339.134 17.6425C338.727 17.6586 338.324 17.6786 337.917 17.6947C337.76 17.7014 337.607 17.685 337.499 17.6479C337.454 17.6325 337.469 17.6068 337.439 17.5568C337.404 17.5453 337.443 17.5658 337.453 17.585C337.527 17.5823 337.616 17.5847 337.67 17.5744C337.807 17.5497 337.875 17.5175 337.84 17.4906C337.821 17.4765 337.727 17.4586 337.668 17.4587C337.56 17.4589 337.467 17.4874 337.439 17.5568C337.13 17.5997 336.801 17.6093 336.482 17.6304C336.295 17.6435 336.177 17.6373 336.029 17.6042C335.852 17.5634 335.67 17.5239 335.38 17.5449C335.066 17.5686 334.732 17.573 334.409 17.5916C334.036 17.6128 333.872 17.4974 333.558 17.5006C333.234 17.5037 332.91 17.5261 332.586 17.5421C332.301 17.5554 332.301 17.5554 331.711 17.4729C331.494 17.4425 331.239 17.4879 331.028 17.4561C330.885 17.4358 330.762 17.4052 330.624 17.3836C330.565 17.3747 330.472 17.3749 330.398 17.3776C329.991 17.3937 329.578 17.4047 329.186 17.4336C328.739 17.4678 328.4 17.4324 328.08 17.3572C327.677 17.372 327.27 17.3804 326.872 17.4055C326.583 17.424 326.415 17.3819 326.218 17.3476C326.149 17.3361 326.09 17.317 326.017 17.312C325.943 17.307 325.854 17.3174 325.776 17.3214C325.452 17.3361 325.118 17.3431 324.804 17.3667C324.416 17.397 324.268 17.2919 323.968 17.2795C323.767 17.3428 323.66 17.4291 323.263 17.4362C322.939 17.4419 322.615 17.463 322.291 17.4777C322.129 17.4844 321.967 17.4924 321.805 17.4991C321.545 17.5111 321.422 17.5614 321.477 17.6384C321.507 17.6808 321.532 17.7231 321.558 17.7655C321.608 17.8412 321.486 17.9056 321.279 17.915C320.71 17.9404 320.145 17.967 319.576 17.9899C319.424 17.9965 319.276 17.975 319.153 17.9405C319.025 17.906 318.882 17.8909 318.725 17.8976C318.156 17.923 317.591 17.9496 317.022 17.9725C316.958 17.9751 316.874 17.9624 316.811 17.9523C316.673 17.9294 316.54 17.9026 316.407 17.8785C316.083 17.8906 315.764 17.8988 315.445 17.9148C314.929 17.9388 314.929 17.9401 314.55 17.8701C314.481 17.8574 314.412 17.8331 314.348 17.8345C314.103 17.8401 313.862 17.8533 313.617 17.8653C312.895 17.9 312.895 17.9 312.684 17.8618C312.492 17.8262 312.319 17.7828 312.03 17.8038C311.716 17.8275 311.382 17.8358 311.058 17.8492C310.817 17.8586 310.577 17.8693 310.336 17.8723C310.272 17.8737 310.203 17.8494 310.134 17.8367C309.938 17.7972 309.746 17.7654 309.476 17.7877C309.319 17.8008 309.152 17.8037 308.99 17.8104C308.568 17.8291 308.568 17.8291 307.874 17.7532C307.805 17.7457 307.722 17.7368 307.653 17.7408C307.084 17.7649 306.519 17.7916 305.95 17.8144C305.881 17.8171 305.797 17.8095 305.729 17.8032C304.952 17.73 304.952 17.7301 304.127 17.7675C303.813 17.7808 303.803 17.786 303.473 17.7185C303.325 17.6892 303.202 17.6753 303.031 17.6846C302.383 17.7165 301.73 17.7382 301.087 17.7753C300.797 17.7912 300.63 17.753 300.433 17.7186C300.364 17.7072 300.29 17.6816 300.231 17.683C299.583 17.7085 298.935 17.7392 298.287 17.7647C298.228 17.7674 298.154 17.7419 298.085 17.7304C297.953 17.7075 297.824 17.6731 297.677 17.6656C297.525 17.6582 297.358 17.6777 297.191 17.6844C296.784 17.7018 296.784 17.7006 296.311 17.6256C296.247 17.6154 296.163 17.6014 296.1 17.6041C295.452 17.6309 294.799 17.6539 294.156 17.6923C293.788 17.7135 293.537 17.6766 293.276 17.6231C293.222 17.6117 293.128 17.6067 293.06 17.6094C292.328 17.6402 291.602 17.6749 290.87 17.7057C290.718 17.7124 290.57 17.6908 290.447 17.6576C290.25 17.6053 290.02 17.6121 289.774 17.6241C289.21 17.652 289.205 17.6508 288.87 17.5897C288.801 17.577 288.742 17.5604 288.668 17.5541C288.599 17.5478 288.511 17.5518 288.437 17.5545C288.113 17.5679 287.789 17.5826 287.465 17.5972C287.141 17.6119 286.812 17.6202 286.493 17.6426C286.101 17.6703 285.913 17.5871 285.638 17.549C285.235 17.5664 284.823 17.5774 284.425 17.6051C284.121 17.6262 283.978 17.5699 283.776 17.5407C283.707 17.5305 283.633 17.5088 283.57 17.5115C282.838 17.541 282.107 17.5731 281.38 17.6091C281.204 17.6171 281.086 17.607 280.938 17.5765C280.608 17.5077 280.593 17.5103 280.043 17.5369C279.803 17.5489 279.572 17.5596 279.365 17.5073C279.183 17.46 278.962 17.4489 278.702 17.4647C278.383 17.4845 278.054 17.4954 277.73 17.5088C277.406 17.5235 277.082 17.5433 276.758 17.5503C276.498 17.5572 276.34 17.4971 276.133 17.4666C276.069 17.4577 275.981 17.4566 275.907 17.4593C275.583 17.4714 275.249 17.481 274.935 17.5034C274.553 17.531 274.34 17.4607 274.07 17.4201C274.011 17.4112 273.913 17.4165 273.839 17.4205C273.269 17.4446 272.705 17.4713 272.136 17.4967C271.934 17.4623 271.727 17.4293 271.525 17.395C271.201 17.4084 270.877 17.4231 270.553 17.4365C270.308 17.4472 270.058 17.4515 269.827 17.4711C269.528 17.4973 269.38 17.4372 269.178 17.408C269.109 17.3979 269.035 17.3762 268.971 17.3788C268.564 17.3937 268.156 17.4098 267.754 17.4323C267.371 17.4548 267.217 17.3395 266.903 17.3413C266.579 17.3432 266.245 17.3604 265.931 17.3841C265.568 17.4117 265.312 17.3711 265.051 17.3163C264.997 17.3048 264.904 17.2985 264.835 17.3012C264.427 17.3174 264.025 17.3373 263.618 17.3534C263.549 17.3561 263.465 17.3499 263.396 17.3423C262.619 17.2678 262.619 17.2665 262.281 17.2825C262.04 17.2932 261.795 17.3065 261.549 17.3134C261.481 17.316 261.397 17.3046 261.333 17.2945C260.821 17.217 260.821 17.2157 260.453 17.2318C260.129 17.2465 259.805 17.2611 259.481 17.2758C259.279 17.2415 259.073 17.2085 258.871 17.1741C258.468 17.1915 258.056 17.2051 257.658 17.2289C257.472 17.2395 257.349 17.2359 257.206 17.204C257.029 17.1658 256.852 17.1211 256.557 17.1435C256.243 17.1671 255.909 17.1703 255.59 17.1901C255.207 17.2139 255.049 17.0973 254.739 17.0991C254.415 17.1009 254.082 17.1182 253.768 17.1419C253.404 17.1695 253.149 17.1288 252.888 17.074C252.833 17.0626 252.74 17.0563 252.671 17.059C251.778 17.0978 250.889 17.1366 249.996 17.178C249.446 17.2033 249.446 17.2046 248.399 17.1358C248.326 17.1308 248.247 17.1258 248.173 17.1285C247.849 17.1406 247.515 17.1502 247.201 17.1725C246.819 17.2002 246.607 17.1312 246.336 17.0892C246.277 17.0804 246.184 17.0857 246.105 17.0884C245.86 17.0978 245.619 17.1098 245.374 17.1205C245.05 17.1352 244.726 17.1499 244.402 17.1646C244.2 17.1315 243.993 17.0972 243.791 17.0641C243.389 17.0815 242.977 17.0912 242.579 17.1189C242.275 17.14 242.132 17.0863 241.93 17.0558C241.861 17.0456 241.787 17.0239 241.723 17.0253C240.992 17.0549 240.26 17.0857 239.534 17.1229C239.235 17.1388 239.096 17.0813 238.895 17.0521C238.826 17.0432 238.747 17.0266 238.683 17.0293C238.197 17.0481 237.711 17.0708 237.225 17.0935C236.95 17.1068 236.95 17.1068 236.35 17.0282C236.281 17.0193 236.203 17.0105 236.134 17.0132C234.593 17.0801 233.056 17.1508 231.515 17.2177C231.358 17.2244 231.215 17.2054 231.092 17.1709C230.964 17.1365 230.821 17.1187 230.664 17.1254C230.016 17.1535 229.363 17.1791 228.72 17.2136C228.455 17.2282 228.244 17.2119 228.061 17.1672C227.924 17.134 227.796 17.1214 227.624 17.1294C227.3 17.1454 226.976 17.1588 226.652 17.1735C226.328 17.1882 226.004 17.2029 225.68 17.2176C225.356 17.2323 225.027 17.2406 224.708 17.263C224.316 17.2906 224.123 17.2113 223.853 17.172C223.367 17.1921 222.88 17.2122 222.399 17.2336C221.751 17.2617 221.104 17.2923 220.456 17.3192C220.397 17.3218 220.323 17.2988 220.254 17.2874C220.052 17.2556 219.904 17.2109 219.605 17.2256C218.152 17.2962 216.689 17.3565 215.231 17.4259C214.927 17.4405 214.794 17.3855 214.587 17.3563C214.518 17.3474 214.439 17.3296 214.375 17.3323C213.565 17.3658 212.756 17.4032 211.946 17.4393C211.617 17.454 211.617 17.454 211.066 17.3753C211.002 17.3664 210.918 17.355 210.849 17.3577C209.794 17.4032 208.743 17.4512 207.688 17.498C207.531 17.5047 207.388 17.487 207.26 17.4525C207.137 17.4181 206.989 17.399 206.837 17.4057C205.865 17.4485 204.889 17.49 203.922 17.5367C203.661 17.55 203.445 17.5388 203.258 17.4929C203.125 17.4597 202.992 17.4458 202.825 17.4538C201.367 17.5193 199.909 17.5822 198.452 17.6515C198.172 17.6649 197.975 17.6408 197.798 17.5987C197.655 17.5655 197.532 17.5593 197.355 17.5648C197.169 17.5715 197.056 17.5858 196.953 17.6246C196.821 17.6749 196.739 17.738 196.424 17.7424C196.1 17.7468 195.771 17.7628 195.452 17.7852C195.148 17.8076 195.005 17.75 194.813 17.7156C194.67 17.6915 194.538 17.6879 194.356 17.6997C194.189 17.7103 194.086 17.7323 193.989 17.7736C193.774 17.8613 193.754 17.8613 193.488 17.8066C193.345 17.7773 193.217 17.7544 193.06 17.7598C192.412 17.7866 191.764 17.816 191.116 17.8467C190.743 17.864 190.738 17.8666 190.458 17.8028C190.32 17.771 190.187 17.7558 190.025 17.7638C188.243 17.8439 186.461 17.9215 184.679 18.0056C184.405 18.0189 184.218 17.9922 184.021 17.954C183.957 17.9413 183.893 17.9234 183.819 17.9184C183.745 17.9134 183.662 17.9187 183.583 17.9214C182.287 17.9789 180.986 18.0338 179.695 18.0977C179.401 18.1124 179.243 18.0715 179.042 18.0385C178.973 18.027 178.913 18.0091 178.84 18.0041C178.766 18.0004 178.678 18.0095 178.599 18.0135C177.303 18.071 176.002 18.126 174.712 18.1899C174.402 18.2045 174.269 18.1508 174.067 18.1229C173.998 18.1127 173.925 18.0936 173.861 18.0963C173.453 18.1111 173.051 18.1311 172.643 18.1485C171.671 18.1926 170.699 18.2341 169.727 18.2794C169.354 18.2968 169.191 18.1827 168.877 18.1884C168.469 18.1955 168.067 18.2219 167.659 18.2406C167.335 18.2553 167.011 18.2687 166.687 18.2847C166.368 18.2994 166.368 18.2994 165.572 18.2263C165.503 18.22 165.419 18.2111 165.351 18.2138C164.217 18.2633 163.078 18.3128 161.949 18.3662C161.689 18.3782 161.473 18.3721 161.285 18.3249C161.152 18.2918 161.015 18.2753 160.853 18.2833C159.149 18.3595 157.451 18.4356 155.747 18.5105C155.684 18.5132 155.6 18.5005 155.536 18.4903C155.398 18.4675 155.265 18.4407 155.132 18.4165C155.035 18.4463 154.907 18.4734 154.844 18.507C154.756 18.5521 154.638 18.5651 154.452 18.5732C154.265 18.5812 154.147 18.5788 154 18.5457C153.822 18.5049 153.64 18.4731 153.35 18.4864C151.569 18.5704 149.787 18.6468 148.005 18.7295C147.71 18.7429 147.572 18.6866 147.366 18.6574C147.297 18.6485 147.218 18.6345 147.154 18.6372C146.423 18.668 145.696 18.7014 144.965 18.7335C142.937 18.8244 140.91 18.9114 138.888 19.0074C138.52 19.0247 138.269 18.993 138.008 18.9383C137.954 18.9268 137.86 18.9205 137.792 18.9232C134.954 19.0489 132.117 19.1759 129.285 19.3028C129.133 19.3095 128.985 19.2892 128.862 19.256C128.734 19.2216 128.591 19.2051 128.434 19.2118C127.138 19.2693 125.842 19.3268 124.546 19.3856C124.222 19.4002 124.217 19.4015 123.883 19.3404C123.814 19.3277 123.74 19.3034 123.686 19.3061C123.573 19.3127 123.465 19.345 123.387 19.3888C123.309 19.4352 123.186 19.4483 123.005 19.4576C122.818 19.4669 122.696 19.4633 122.553 19.4327C122.371 19.3945 122.203 19.3575 121.909 19.3709C118.183 19.5418 114.457 19.7062 110.731 19.8758C110.432 19.8892 110.294 19.8355 110.087 19.8063C110.018 19.7974 109.949 19.7847 109.876 19.7823C109.797 19.7798 109.714 19.7877 109.635 19.7917C103.558 20.063 97.4812 20.3356 91.4042 20.6069C91.0409 20.623 91.0458 20.623 90.6494 20.7418C90.6005 20.7561 90.5368 20.7754 90.4681 20.7781C88.6077 20.8636 86.7424 20.9464 84.8771 21.0293C84.0672 21.0654 83.2573 21.1028 82.4473 21.1376C82.1577 21.1497 82.1577 21.1497 81.4669 21.2896C81.4081 21.3013 81.3394 21.3168 81.2707 21.3195C78.031 21.4651 74.7912 21.6108 71.5465 21.7539C71.2912 21.7646 71.0853 21.7881 70.9681 21.8499C70.8852 21.8938 70.7775 21.9196 70.6155 21.9276C68.3476 22.0292 66.0799 22.132 63.8071 22.2311C63.5371 22.2431 63.3754 22.2793 63.2435 22.3335C63.1995 22.3516 63.1604 22.3722 63.0967 22.3851C63.0379 22.3968 62.9496 22.4008 62.876 22.4048C60.9321 22.4917 58.9883 22.5811 57.0395 22.6642C56.7499 22.6762 56.6326 22.724 56.4907 22.7743C56.4418 22.7911 56.4077 22.8143 56.344 22.8259C56.2803 22.8363 56.187 22.8365 56.1084 22.8392C54.4885 22.9114 52.8687 22.9848 51.2488 23.057C50.9344 23.0511 50.8665 23.1258 50.7148 23.171C50.661 23.1865 50.622 23.2071 50.5583 23.2175C50.4897 23.2279 50.4012 23.2268 50.3177 23.2295C49.0218 23.287 47.7259 23.3483 46.4251 23.402C46.1256 23.414 46.0675 23.4797 45.9059 23.5249C45.8521 23.5391 45.7984 23.5611 45.7346 23.565C44.9247 23.6037 44.1148 23.6398 43.3048 23.6746C43.0348 23.6866 43.0348 23.6853 42.56 23.8133C42.5061 23.8276 42.4424 23.8431 42.3737 23.8471C41.1612 23.9031 39.9439 23.9566 38.7265 24.0114C38.5694 24.0181 38.4618 24.0491 38.3837 24.0929C38.3057 24.1367 38.1931 24.1652 38.036 24.1719C37.0641 24.216 36.0921 24.2613 35.1201 24.3015C34.8501 24.3123 34.6738 24.3447 34.5566 24.4027C34.4687 24.4466 34.3609 24.4686 34.1891 24.4766C33.2172 24.5194 32.2453 24.566 31.2684 24.6037C30.9837 24.6145 30.8368 24.6584 30.7196 24.7126C30.6268 24.7564 30.519 24.772 30.3373 24.78C28.5554 24.8576 26.7687 24.9352 24.9918 25.0205C24.6924 25.0352 24.5395 24.9905 24.3427 24.9587C24.0622 24.9142 23.8014 24.8659 23.8002 24.7657C23.8 24.7503 23.7162 24.7324 23.6571 24.7197C23.2189 24.6241 23.2189 24.6241 23.1488 24.5214C23.1088 24.4586 23.0638 24.3944 23.0286 24.3302C22.9635 24.225 22.806 24.1983 22.3544 24.2184C22.1924 24.2251 22.0304 24.2343 21.8684 24.2398C21.6279 24.2492 21.4456 24.2071 21.4005 24.1301C21.3754 24.0877 21.3455 24.0454 21.3204 24.0031C21.5659 23.9924 21.5609 23.9911 21.9912 23.8349C22.1721 23.7691 22.1722 23.7691 21.8227 23.7042C21.6898 23.68 21.5617 23.6532 21.419 23.6303C21.355 23.6202 21.2715 23.6139 21.2028 23.6166C20.7953 23.6327 20.3928 23.6514 19.9903 23.6701C19.3423 23.6995 19.3423 23.6995 18.6826 23.5696C18.6284 23.5594 18.5447 23.5403 18.5544 23.53C18.6078 23.4824 18.7402 23.4616 18.9071 23.4561C19.1526 23.448 19.393 23.4347 19.6336 23.424C19.7956 23.4173 19.9575 23.4094 20.1195 23.4027C20.2712 23.3536 20.4279 23.3058 20.5697 23.2554C20.7947 23.178 20.7945 23.1754 20.4845 23.122C20.2876 23.0863 20.076 23.0546 19.8742 23.0215C19.6337 23.0322 19.3883 23.0442 19.1478 23.0536C18.8434 23.0657 18.7203 23.0415 18.6407 22.9582C18.571 22.8851 18.6538 22.822 18.8893 22.8061C19.1298 22.7903 19.3557 22.7797 19.4777 22.7139C19.5948 22.6508 19.8007 22.626 20.0561 22.6204C20.2181 22.6163 20.38 22.607 20.542 22.599C20.7531 22.5884 20.8653 22.5227 20.8202 22.4495C20.795 22.402 20.7454 22.3623 20.5538 22.3524C19.7036 22.3089 19.6937 22.3102 19.2703 22.2235C19.2309 22.2159 19.2012 22.1928 19.2158 22.1813C19.2401 22.1619 19.2938 22.1336 19.3527 22.1296C19.9171 22.1004 20.4816 22.0737 21.0462 22.0535C21.2327 22.0467 21.3702 22.0375 21.4334 21.9898C21.521 21.9242 21.481 21.8639 21.3086 21.8192C21.2544 21.8052 21.1657 21.7873 21.1067 21.7887C20.4587 21.813 19.8157 21.8436 19.1677 21.8679C19.1088 21.8706 19.0006 21.8489 18.9758 21.8323C18.9263 21.8015 18.9994 21.7603 19.1711 21.7458C19.3968 21.7262 19.6276 21.7245 19.7791 21.66C19.9892 21.5684 20.2484 21.4845 20.4831 21.3967C20.5222 21.3812 20.5858 21.3516 20.571 21.349C20.4479 21.321 20.3052 21.2994 20.1772 21.2726C19.9605 21.228 19.9597 21.1651 20.0081 21.1046C20.0468 21.0558 20.1939 21.0362 20.3756 21.0359C20.4542 21.0358 20.5524 21.0356 20.6161 21.0239C20.7828 20.9954 20.8364 20.9593 20.7525 20.9325C20.7032 20.9172 20.6146 20.8955 20.5557 20.8982C19.5052 20.9424 18.4497 20.9853 17.4042 21.0398C17.095 21.0557 16.9521 21.0072 16.765 20.9728C16.6223 20.9461 16.4895 20.936 16.3129 20.9556C16.1461 20.9739 15.984 20.9639 15.8803 20.9217C15.7964 20.8871 15.9434 20.8573 16.3408 20.8233C16.4144 20.8167 16.4978 20.8127 16.5516 20.7998C17.1197 20.66 17.1196 20.6588 17.5123 20.6401C17.8952 20.6227 17.8953 20.6214 18.0957 20.5466C18.1886 20.5117 18.2912 20.4769 18.3792 20.4407C18.4134 20.4266 18.4721 20.4008 18.4524 20.3931C18.3438 20.3535 18.1963 20.3447 18.0245 20.354C17.6417 20.3765 17.1897 20.3593 16.9899 20.4817C16.9118 20.5281 16.7892 20.5411 16.6125 20.5492C14.8355 20.6268 13.0585 20.7095 11.2766 20.7845C10.987 20.7966 10.855 20.8443 10.7427 20.8972C10.645 20.941 10.5371 20.9541 10.3506 20.9621C10.164 20.9701 10.0167 20.9743 9.90809 20.9321C9.84393 20.9065 9.89753 20.8704 10.0444 20.8342C10.255 20.7824 10.2149 20.7183 10.1454 20.658C10.0958 20.6183 9.94322 20.5903 9.78118 20.5931C9.54059 20.5987 9.30999 20.6132 9.108 20.5622C8.98977 20.5328 8.84215 20.5125 8.70923 20.4871C8.4532 20.4348 8.19715 20.3813 7.83904 20.4166C7.59332 20.4042 7.42086 20.3583 7.22397 20.3227C6.8942 20.2641 6.86462 20.2552 7.09959 20.1918C7.36394 20.1207 7.1565 20.0286 7.303 19.959C7.45925 19.8842 7.67462 19.8183 7.86532 19.7486C7.91421 19.7305 7.95823 19.7138 8.00712 19.6957C7.89385 19.6702 7.79034 19.6383 7.65752 19.6205C7.48534 19.5977 7.39659 19.5696 7.40544 19.4899C7.37092 19.4784 7.38591 19.5079 7.4253 19.5156C7.46959 19.5232 7.57765 19.5166 7.63156 19.5075C7.76878 19.4829 7.83707 19.4506 7.80237 19.4237C7.78255 19.4096 7.68909 19.3918 7.63015 19.3919C7.5221 19.3921 7.42915 19.4205 7.40052 19.4899C6.8511 19.5435 6.28161 19.5702 5.71215 19.5918C5.65324 19.5944 5.5793 19.5689 5.51039 19.5561C5.28394 19.5129 5.28392 19.5141 4.62074 19.5024C4.55197 19.5013 4.45848 19.4835 4.42388 19.4655C4.2805 19.3874 4.2844 19.3013 4.21463 19.218C4.34166 19.1638 4.46861 19.1109 4.60058 19.058C4.86449 18.9509 5.20721 18.8565 5.41207 18.7393C5.3671 18.6764 5.30739 18.6136 5.52286 18.5618C6.13599 18.4965 6.13111 18.4965 6.29735 18.4346C6.77162 18.259 7.24093 18.0822 7.73487 17.9092C7.86693 17.864 7.86665 17.8396 7.63068 17.8208C7.55694 17.8158 7.47824 17.8146 7.39969 17.8173C7.15424 17.8267 6.90896 17.8503 6.66824 17.8456C6.42754 17.8421 6.25004 17.7859 6.05317 17.7516C5.85137 17.716 5.64956 17.6791 5.44774 17.6421C5.21696 17.6464 4.98661 17.6828 4.75507 17.6254C4.57772 17.5807 4.35633 17.549 4.15451 17.5121C4.30557 17.4142 4.58957 17.3392 4.80953 17.2527C5.00993 17.174 5.01475 17.1753 5.55426 17.114C5.8093 17.0853 5.89594 16.94 5.67933 16.8979C5.4184 16.847 5.14285 16.8 4.87704 16.7516C4.64626 16.7559 4.41099 16.791 4.18927 16.7335C4.01685 16.6902 3.81999 16.6609 3.53534 16.6781C3.05438 16.7072 2.56343 16.7222 2.0775 16.7462C1.91061 16.7542 1.72877 16.7494 1.65457 16.7058C1.60508 16.6751 1.747 16.6324 1.90897 16.6232C2.15438 16.6099 2.37517 16.5941 2.49717 16.5296C2.61426 16.4652 2.8301 16.4456 3.08538 16.4361C3.15411 16.4334 3.23256 16.4179 3.26675 16.4024C3.44265 16.3276 3.63833 16.263 4.01653 16.2649C4.17338 16.239 4.25643 16.2067 4.20694 16.176C4.17727 16.1593 4.07392 16.1377 4.01502 16.1403C3.60753 16.1539 3.20007 16.1674 2.80253 16.1913C2.61603 16.2019 2.47355 16.2047 2.35521 16.1663C2.27141 16.1408 2.31518 16.106 2.47189 16.0685C2.60902 16.0361 2.6479 15.9988 2.63754 15.9552C2.61175 15.8537 2.46402 15.8244 1.99261 15.8317C1.65379 15.8374 1.57009 15.8208 1.49536 15.7336C1.47546 15.7131 1.42609 15.6849 1.4603 15.6707C1.67042 15.583 1.80663 15.4749 2.20395 15.4331C2.36092 15.4174 2.52784 15.4171 2.62566 15.3835C2.72348 15.35 2.81146 15.3113 2.9142 15.279C3.04143 15.2402 3.12931 15.2041 3.07007 15.1798C2.97131 15.1363 2.81416 15.1327 2.63263 15.1484C2.47562 15.1616 2.30866 15.1631 2.14668 15.1711C1.85708 15.1857 1.62099 15.1528 1.58592 15.0963C1.49079 14.9474 1.39073 14.7999 1.30543 14.651C1.29539 14.6331 1.31959 14.6099 1.3587 14.5944C1.49555 14.5402 1.64233 14.4886 1.78411 14.4357C1.95036 14.375 2.21576 14.3861 2.44153 14.3741C2.76057 14.3569 2.76047 14.3582 3.18625 14.2341C3.35264 14.185 3.64266 14.2038 3.81402 14.1598C3.86787 14.1456 3.95108 14.1223 3.93619 14.1095C3.91635 14.0928 3.81802 14.0801 3.74425 14.0726C3.6754 14.065 3.59188 14.0613 3.51826 14.0652C2.62485 14.104 1.73642 14.1454 0.842996 14.1829C0.690824 14.1896 0.523491 14.1617 0.468981 14.1219C0.414503 14.0848 0.428641 14.0398 0.418302 13.9974C0.560088 13.9445 0.721504 13.8954 0.843598 13.8386C0.936381 13.7948 1.04421 13.7753 1.23081 13.7725C1.47633 13.7682 1.71682 13.7523 1.99171 13.7403C2.5002 13.5519 2.99873 13.3545 3.54651 13.166C3.7666 13.0898 3.71172 13.0128 3.75493 12.9318C3.79823 12.8572 4.12741 12.8682 4.34815 12.846C4.52474 12.8277 4.5831 12.7865 4.51399 12.7583C4.4745 12.7417 4.38591 12.7226 4.31715 12.7227C4.15508 12.723 3.99315 12.7348 3.83116 12.7415C3.66916 12.7482 3.48249 12.7447 3.35016 12.7668C3.22271 12.7876 3.1397 12.8314 3.05667 12.8688C2.96385 12.91 2.84133 12.9244 2.65473 12.9273C2.41411 12.9303 2.17361 12.9422 1.93306 12.9516C1.66724 12.902 1.39156 12.8537 1.13553 12.8015C1.08629 12.7913 1.07605 12.7617 1.08073 12.7425C1.08994 12.6923 1.01592 12.6616 0.853545 12.6375C0.715778 12.6172 0.602449 12.5878 0.474442 12.5624C0.572245 12.5275 0.679925 12.4939 0.758052 12.4565C0.928993 12.3779 1.14443 12.321 1.51772 12.3229C1.66445 12.2726 1.78153 12.2107 1.97265 12.1757C2.15396 12.142 2.4638 12.1748 2.60039 12.0988C2.66869 12.0614 2.77137 12.0188 2.90379 12.0032C3.11468 11.9784 3.38986 11.9908 3.51177 11.9186C3.58494 11.8774 3.69249 11.84 3.83479 11.8294C3.99673 11.8176 4.16363 11.8147 4.28121 11.7901C4.3449 11.7772 4.41342 11.7565 4.4132 11.7385C4.41306 11.727 4.31469 11.7091 4.24584 11.7016C4.18188 11.6927 4.09821 11.6864 4.02457 11.6891C3.7791 11.6972 3.53863 11.7118 3.29316 11.7199C3.22443 11.7226 3.14576 11.7137 3.072 11.7062C2.85565 11.686 2.87004 11.6603 3.04137 11.6137C3.21272 11.5685 3.33487 11.5104 3.47665 11.4575C3.63371 11.4483 3.83018 11.4518 3.93793 11.4272C4.11916 11.387 4.24612 11.329 4.39285 11.2786C4.55483 11.2707 4.72177 11.2678 4.87385 11.2534C4.93763 11.2482 4.96678 11.2198 5.0206 11.2031C5.11844 11.1708 5.20143 11.1244 5.33385 11.1087C5.54966 11.0852 5.81498 11.0938 5.94181 11.0229C6.01498 10.9817 6.12737 10.9378 6.26485 10.935C6.64787 10.9292 6.80909 10.8582 7.00473 10.7911C7.15146 10.7407 7.4661 10.7659 7.62756 10.7155C7.73522 10.6832 7.81337 10.6432 7.92104 10.6122C7.96508 10.5993 8.05829 10.5927 8.13191 10.5887C8.5344 10.5688 8.94185 10.5539 9.34433 10.5327C9.40813 10.5287 9.46688 10.5094 9.51581 10.4939C9.61854 10.4603 9.68175 10.4139 9.80918 10.3919C9.9366 10.3698 10.1183 10.3695 10.2754 10.3628C10.781 10.3426 10.8204 10.3477 11.0499 10.2381C11.2355 10.1491 11.693 10.2113 11.8441 10.1134C11.9318 10.0567 12.0932 10.0102 12.3829 10.0033C12.7905 9.99359 13.1929 9.96848 13.6003 9.95107C13.9636 9.93502 13.9587 9.93503 14.3501 9.81488C14.5263 9.76062 14.7867 9.76788 15.0174 9.7572C15.2629 9.7465 15.4886 9.7307 15.6057 9.66626C15.7228 9.60312 15.9386 9.58217 16.1889 9.57275C16.4197 9.56336 16.6801 9.56934 16.8612 9.51764C17.3017 9.39355 17.2968 9.39226 17.606 9.37888C18.092 9.35748 18.578 9.33609 19.0639 9.31341C19.3879 9.29871 19.7267 9.29556 20.0309 9.26677C20.2516 9.24583 20.349 9.17373 20.4908 9.12338C20.8933 9.10341 21.2958 9.08343 21.6983 9.06475C22.2627 9.03808 22.8322 9.01398 23.4016 8.98858C23.6466 8.93934 23.6797 8.83137 24.0922 8.82552C24.3377 8.82252 24.5782 8.80541 24.8236 8.7947C25.231 8.77601 25.6335 8.75219 26.041 8.74249C26.3503 8.73553 26.4034 8.66606 26.565 8.6221C26.6188 8.60659 26.6677 8.58468 26.7315 8.58071C27.3695 8.54364 28.0275 8.53479 28.6506 8.48104C28.7144 8.47579 28.773 8.4487 28.7875 8.42941C28.7972 8.41912 28.7135 8.4 28.6593 8.3911C28.5953 8.38094 28.5118 8.3708 28.443 8.37349C26.4157 8.46308 24.3885 8.55395 22.3611 8.64354C22.0764 8.65688 22.0764 8.65559 21.3857 8.7981C21.3269 8.80976 21.2582 8.82272 21.1846 8.8267C20.8606 8.84268 20.5317 8.85226 20.2127 8.87208C19.9525 8.88795 19.7363 8.87289 19.5491 8.82697C19.4161 8.7938 19.2784 8.78377 19.1115 8.78663C18.9249 8.79081 18.8023 8.80515 18.6947 8.84003C18.5529 8.8878 18.4799 8.94959 18.1805 8.96295C16.8011 9.02058 15.4217 9.08464 14.0472 9.14612C13.8555 9.12847 13.7618 9.10165 13.8106 9.06945C13.8398 9.05013 13.8984 9.02434 13.9573 9.02167C14.5218 8.99371 15.0912 8.9696 15.6557 8.94293C15.7343 8.93894 15.8423 8.94131 15.8864 8.92839C16.1018 8.87021 16.1793 8.7763 16.5868 8.76917C16.8225 8.7649 17.0629 8.74522 17.2886 8.72685C17.3524 8.7216 17.411 8.69452 17.4255 8.67522C17.4303 8.66494 17.3515 8.6458 17.2924 8.63691C17.0759 8.60003 16.826 8.64544 16.6096 8.62012C16.5358 8.61126 16.4325 8.59859 16.4175 8.5832C16.4076 8.56908 16.4908 8.54581 16.5495 8.53158C16.6034 8.51864 16.6769 8.50695 16.7505 8.50297C17.3984 8.4723 18.0465 8.44034 18.6945 8.41609C18.9596 8.40664 19.1458 8.3742 19.2629 8.3149C19.3508 8.27107 19.4586 8.24777 19.6255 8.24106C20.7594 8.19156 21.8932 8.13692 23.0321 8.09127C23.3169 8.0805 23.4637 8.03785 23.5809 7.98241C23.6737 7.93857 23.7816 7.92297 23.9632 7.91494C25.588 7.84532 27.2029 7.76802 28.8278 7.70097C29.1272 7.68889 29.215 7.63349 29.3667 7.5857C29.4205 7.5689 29.4545 7.54829 29.5232 7.5379C29.5918 7.5275 29.6802 7.52862 29.7637 7.52591C31.0596 7.46842 32.3555 7.40709 33.6564 7.35344C33.9608 7.34135 34.0188 7.27701 34.1754 7.23178C34.2293 7.21756 34.2782 7.19435 34.342 7.19039C35.3139 7.14503 36.2858 7.10223 37.2577 7.05815C37.9057 7.02877 38.5536 6.99938 39.2016 6.97128C39.5206 6.95788 39.5206 6.95658 39.9513 6.8338C40.0003 6.81958 40.0689 6.80276 40.1327 6.7988C41.998 6.71334 43.8584 6.63177 45.7237 6.5476C45.8808 6.5409 45.9933 6.51115 46.0714 6.46733C46.1494 6.42352 46.2621 6.39378 46.4143 6.38709C47.8722 6.32033 49.33 6.25486 50.7929 6.19194C51.058 6.18121 51.2442 6.15005 51.3613 6.09204C51.4492 6.04821 51.557 6.02491 51.7239 6.01819C53.1818 5.954 54.6397 5.88595 56.1026 5.82431C56.3824 5.81227 56.5193 5.76836 56.6562 5.71674C56.7051 5.69867 56.744 5.66905 56.8029 5.66638C57.5294 5.62915 58.2509 5.59064 58.9823 5.56496C59.2867 5.55416 59.3892 5.50002 59.5114 5.44843C59.6091 5.40715 59.7219 5.39282 59.9085 5.38736C60.316 5.37509 60.7184 5.35257 61.116 5.33004C61.1749 5.32608 61.2482 5.29769 61.2529 5.2797C61.2623 5.24628 61.149 5.22335 60.9623 5.21211C59.0184 5.29899 57.0697 5.38586 55.1258 5.47274C54.8068 5.48742 54.8068 5.48743 54.3761 5.61022C54.3271 5.62443 54.2585 5.64125 54.1898 5.64523C52.3245 5.72939 50.4641 5.81227 48.5988 5.89644C48.4417 5.90313 48.3291 5.93288 48.2511 5.97669C48.173 6.0205 48.0603 6.05024 47.9082 6.05693C46.1263 6.1371 44.3445 6.21856 42.5577 6.29488C42.2926 6.30562 42.1064 6.33547 41.9892 6.39477C41.9013 6.4386 41.7936 6.46192 41.6267 6.46863C39.9233 6.54353 38.2249 6.62226 36.5166 6.69459C36.3448 6.70132 36.2167 6.66428 36.2261 6.62958C36.2308 6.61159 36.304 6.58193 36.3629 6.57926C37.2513 6.53532 38.1349 6.49011 39.0284 6.45644C39.3278 6.44564 39.4155 6.38897 39.5671 6.34117C39.6161 6.32439 39.6551 6.30248 39.7188 6.29338C39.7875 6.28298 39.8759 6.28412 39.9594 6.2814C42.0652 6.18654 44.1711 6.0904 46.2819 6.00066C46.5862 5.98729 46.6443 5.92423 46.8009 5.879C46.8548 5.86349 46.9036 5.84029 46.9675 5.83761C47.6154 5.80565 48.2633 5.77755 48.9113 5.74945C50.0452 5.69866 51.1791 5.64788 52.3179 5.59709C52.6468 5.58238 52.6468 5.58238 53.0677 5.46089C53.1167 5.44668 53.1853 5.42859 53.2491 5.42591C56.2483 5.29095 59.2476 5.156 62.2468 5.02233C62.4039 5.01564 62.5165 4.9859 62.5945 4.94208C62.6726 4.89956 62.7852 4.86853 62.9373 4.86056C66.9919 4.67881 71.0416 4.49707 75.0963 4.31789C75.3613 4.30587 75.5476 4.27857 75.6647 4.21799C75.7477 4.17416 75.8604 4.15085 76.0273 4.14285C80.4844 3.94371 84.9415 3.74457 89.4036 3.54413C92.4028 3.41047 95.4021 3.27423 98.4013 3.14313C98.6762 3.13109 98.823 3.09101 98.9599 3.0381C99.0039 3.02004 99.0477 2.99041 99.1066 2.98774C99.7496 2.95451 100.393 2.92385 101.036 2.89319C101.237 2.92753 101.439 2.96058 101.641 2.99492C101.793 2.94584 101.939 2.89548 102.091 2.8464C103.063 2.80746 104.02 2.74799 105.002 2.7283C105.066 2.72691 105.135 2.7512 105.204 2.76392C105.662 2.84406 105.922 2.83719 106.21 2.72878C106.313 2.69006 106.401 2.65522 106.558 2.64853C107.044 2.62456 107.535 2.60829 108.016 2.58048C108.276 2.5659 108.492 2.57837 108.679 2.62429C108.812 2.65746 108.95 2.67136 109.112 2.66337C110.006 2.62328 110.894 2.58448 111.787 2.54182C111.851 2.53914 111.91 2.51719 111.959 2.50169C112.061 2.46811 112.15 2.432 112.247 2.39714C112.38 2.41875 112.528 2.4352 112.636 2.46327C112.774 2.49643 112.902 2.4962 113.088 2.48689C116.652 2.32526 120.221 2.16749 123.784 2.00458C124.089 1.9912 124.222 2.04493 124.429 2.07284C124.497 2.08299 124.566 2.09571 124.64 2.09816C124.719 2.10059 124.802 2.09274 124.881 2.08875C127.556 1.96849 130.231 1.84951 132.906 1.72925C133.26 1.71322 133.26 1.71322 133.786 1.79196C133.85 1.80212 133.934 1.81354 134.003 1.80957C135.22 1.75736 136.437 1.70129 137.65 1.6478C137.807 1.64111 137.94 1.66143 138.083 1.69073C138.363 1.74805 138.383 1.74802 138.588 1.66288C138.686 1.62288 138.789 1.59829 138.951 1.58644C139.127 1.57329 139.27 1.57691 139.408 1.5998C139.604 1.63157 139.748 1.68527 140.047 1.67062C141.343 1.60799 142.644 1.55564 143.935 1.49174C144.229 1.47709 144.387 1.52049 144.584 1.55227C144.653 1.56371 144.717 1.58159 144.79 1.58531C144.864 1.58904 144.952 1.57988 145.031 1.57589C146.651 1.50371 148.275 1.43282 149.89 1.35551C150.195 1.34085 150.328 1.39585 150.535 1.42375C150.604 1.43391 150.682 1.45177 150.746 1.44909C151.718 1.40758 152.695 1.36348 153.667 1.3194C154.015 1.30338 154.015 1.30466 154.547 1.3821C154.611 1.39227 154.694 1.4024 154.763 1.39971C155.897 1.35021 157.036 1.29942 158.17 1.24864C158.518 1.23262 158.518 1.23262 159.526 1.29767C159.6 1.30268 159.678 1.31026 159.752 1.30757C161.048 1.25008 162.349 1.19386 163.645 1.13252C163.905 1.12051 164.121 1.1304 164.308 1.17633C164.441 1.2095 164.579 1.2234 164.741 1.21541C166.199 1.14993 167.662 1.08702 169.114 1.01769C169.394 1.00436 169.576 1.0323 169.773 1.06921C169.837 1.08194 169.901 1.09982 169.975 1.10483C170.049 1.10984 170.132 1.10456 170.211 1.10057C171.669 1.03509 173.131 0.973461 174.584 0.902854C174.879 0.888213 175.037 0.931614 175.233 0.963388C175.302 0.97483 175.376 0.997826 175.435 0.996439C176.005 0.973612 176.574 0.953362 177.138 0.920267C177.443 0.901754 177.576 0.960605 177.783 0.988508C177.852 0.997381 177.93 1.01652 177.994 1.01384C179.212 0.96163 180.429 0.906851 181.641 0.850793C181.813 0.842787 181.941 0.854116 182.079 0.887277C182.261 0.931923 182.473 0.949542 182.738 0.934951C183.302 0.904425 183.872 0.882888 184.441 0.857492C184.775 0.842782 184.775 0.842787 185.797 0.907813C185.871 0.912824 185.95 0.920389 186.023 0.917692C186.995 0.874898 187.972 0.833382 188.939 0.786742C189.199 0.773444 189.415 0.784627 189.603 0.830549C189.736 0.863718 189.868 0.877626 190.035 0.869629C190.929 0.82954 191.817 0.789456 192.711 0.749367C193.035 0.734674 193.358 0.709698 193.683 0.709135C193.918 0.710011 194.091 0.771371 194.303 0.801835C194.362 0.810725 194.46 0.800289 194.538 0.797584C195.672 0.7468 196.811 0.699858 197.94 0.64266C198.234 0.628018 198.392 0.671419 198.589 0.703193C198.658 0.714635 198.732 0.737631 198.791 0.736245C199.198 0.721407 199.601 0.701437 200.008 0.68403C200.494 0.662632 200.985 0.646365 201.466 0.617269C201.859 0.593464 202.007 0.704965 202.322 0.708273C202.562 0.711709 202.808 0.689449 203.048 0.678754C203.534 0.657357 204.02 0.633393 204.506 0.614565C204.678 0.607844 204.81 0.587051 204.864 0.540712C204.873 0.531702 204.79 0.512586 204.736 0.501119C204.081 0.371223 204.081 0.371217 203.423 0.40062C203.016 0.419312 202.613 0.437998 202.206 0.454121C202.137 0.456809 202.058 0.44667 201.989 0.439081C201.793 0.417584 201.812 0.39186 201.978 0.345325C202.145 0.29879 202.272 0.242051 202.414 0.189135C202.615 0.222185 202.812 0.255232 203.014 0.288282C203.176 0.281578 203.338 0.2736 203.5 0.266896C204.31 0.23209 205.12 0.195997 205.93 0.163761C205.989 0.161089 206.063 0.186657 206.132 0.199384C206.329 0.236296 206.506 0.268096 206.79 0.253471C207.517 0.214956 208.248 0.18671 208.975 0.153333C209.294 0.138649 209.294 0.13865 209.855 0.217324C209.919 0.226205 210.002 0.236338 210.071 0.233649C210.802 0.202834 211.529 0.169461 212.26 0.137361C212.417 0.130665 212.57 0.1471 212.683 0.184157C212.728 0.199496 212.718 0.2252 212.907 0.43555C213.489 0.605396 213.887 0.58673 214.289 0.570616C214.461 0.563895 214.613 0.557202 214.726 0.531314C214.784 0.517081 214.858 0.496396 214.858 0.479697C214.858 0.466851 214.749 0.446481 214.681 0.444031C214.194 0.419182 213.733 0.473944 213.257 0.486332C213.036 0.491854 212.844 0.447225 212.803 0.374071C212.793 0.353534 212.778 0.331723 212.763 0.311195C212.748 0.290667 212.738 0.268847 212.723 0.248319C212.532 0.242228 212.419 0.265543 212.336 0.309365C212.268 0.345453 212.17 0.386731 212.038 0.40623C211.905 0.427013 211.724 0.423482 211.562 0.430186C211.404 0.436882 211.233 0.453878 211.085 0.445141C210.938 0.43512 210.82 0.398065 210.682 0.375181C210.618 0.36373 210.539 0.347173 210.475 0.349853C209.911 0.372672 209.351 0.395473 208.792 0.424706C208.497 0.440632 208.349 0.386943 208.162 0.353867C208.014 0.328431 207.867 0.335102 207.843 0.394236C207.781 0.535653 208.008 0.594349 208.508 0.566503C208.921 0.542664 209.294 0.538175 209.619 0.624965C209.663 0.63645 209.767 0.641407 209.83 0.638727C210.233 0.622613 210.63 0.602652 211.033 0.586538C211.107 0.583841 211.185 0.588835 211.254 0.593854C212.257 0.661484 212.257 0.662775 212.596 0.646772C212.758 0.638783 212.915 0.632087 212.898 0.436853C213.204 0.226927 213.695 0.211946 214.171 0.180289C214.481 0.160483 214.614 0.216778 214.816 0.245974C214.884 0.256132 214.958 0.276554 215.022 0.273874C216.078 0.22965 217.128 0.182859 218.179 0.133505C218.355 0.12549 218.483 0.132978 218.621 0.166139C218.798 0.208224 218.995 0.234865 219.275 0.218964C219.834 0.187162 220.404 0.166909 220.973 0.140228C221.263 0.126879 221.263 0.126866 221.848 0.205497C221.912 0.214379 221.996 0.224511 222.064 0.221823C222.634 0.198996 223.198 0.171047 223.763 0.146944C223.92 0.140248 224.063 0.157984 224.186 0.192455C224.309 0.226926 224.457 0.244653 224.609 0.237966C225.178 0.213854 225.743 0.18719 226.307 0.163088C226.376 0.160399 226.46 0.169246 226.524 0.178127C227.124 0.256733 227.124 0.256719 227.399 0.243396C227.801 0.223428 228.213 0.21373 228.611 0.187348C228.999 0.160983 229.201 0.235134 229.467 0.275781C230.193 0.244974 230.925 0.219303 231.646 0.182081C231.941 0.166155 232.098 0.20827 232.295 0.241329C232.364 0.252771 232.433 0.277061 232.497 0.275666C232.742 0.270101 232.983 0.255556 233.224 0.244861C233.464 0.234167 233.71 0.223465 233.95 0.212771C234.226 0.249547 234.408 0.336583 234.801 0.306355C235.036 0.287962 235.287 0.283673 235.527 0.272979C235.768 0.262285 236.013 0.251583 236.254 0.240889C236.416 0.234184 236.583 0.230035 236.74 0.218201C237.029 0.198429 237.173 0.261135 237.379 0.289038C237.448 0.297911 237.527 0.31318 237.591 0.3105C238.077 0.291672 238.567 0.275406 239.044 0.245033C239.412 0.221271 239.663 0.25938 239.924 0.312881C239.978 0.324349 240.071 0.330609 240.14 0.327921C240.709 0.305094 241.274 0.27713 241.838 0.253027C241.99 0.24634 242.138 0.266637 242.261 0.299823C242.389 0.334286 242.532 0.350751 242.689 0.344056C243.253 0.319953 243.823 0.293264 244.388 0.269161C244.456 0.266473 244.54 0.276607 244.604 0.286773C245.155 0.365463 245.155 0.366749 245.479 0.350772C245.557 0.346781 245.641 0.344057 245.719 0.340067C246.122 0.321384 246.539 0.314245 246.932 0.282733C247.383 0.247265 247.713 0.290372 248.033 0.36304C248.435 0.346926 248.848 0.337216 249.24 0.310843C249.535 0.291062 249.693 0.339602 249.89 0.371376C249.958 0.382818 250.032 0.405813 250.091 0.403142C250.661 0.380315 251.23 0.360064 251.79 0.326977C252.094 0.308465 252.227 0.366031 252.434 0.395219C252.503 0.405376 252.577 0.423242 252.64 0.420562C252.964 0.409723 253.289 0.393738 253.612 0.379044C253.99 0.361688 253.99 0.362972 254.492 0.440463C254.728 0.477308 254.964 0.447351 255.195 0.437959C255.44 0.427256 255.671 0.41915 255.868 0.471478C255.991 0.504664 256.139 0.524963 256.291 0.51956C256.615 0.507436 256.944 0.49531 257.263 0.475487C257.518 0.459628 257.739 0.469516 257.926 0.516722C258.059 0.549892 258.197 0.566363 258.359 0.558374C259.086 0.526282 259.817 0.492886 260.543 0.462078C260.607 0.459398 260.696 0.470811 260.755 0.48227C260.893 0.505154 261.026 0.53061 261.159 0.556072C261.478 0.543957 261.807 0.538261 262.121 0.519731C262.454 0.501167 262.759 0.494214 263.02 0.564415C263.074 0.579736 263.153 0.601426 263.217 0.600031C263.462 0.594467 263.703 0.581207 263.943 0.570512C264.184 0.559818 264.429 0.549116 264.67 0.538422C264.95 0.570051 265.128 0.662234 265.521 0.632006C265.756 0.613613 266.007 0.609324 266.247 0.59863C266.488 0.587936 266.733 0.575949 266.974 0.56654C267.052 0.563834 267.141 0.557254 267.209 0.562273C267.283 0.567283 267.347 0.585161 267.411 0.597896C267.608 0.634809 267.79 0.671751 268.07 0.649427C268.306 0.631034 268.556 0.626744 268.796 0.614765C269.125 0.600063 269.125 0.600066 269.672 0.68005C269.893 0.713066 270.143 0.668957 270.354 0.696851C270.497 0.715873 270.62 0.747768 270.758 0.769368C270.817 0.778258 270.91 0.781944 270.979 0.779255C271.303 0.767131 271.632 0.755005 271.951 0.735182C272.211 0.719315 272.427 0.734353 272.61 0.780283C272.743 0.813453 272.876 0.827361 273.042 0.819364C273.852 0.781989 274.662 0.749742 275.467 0.708522C275.742 0.693914 275.963 0.715374 276.116 0.761356C276.377 0.840549 276.745 0.746136 277.016 0.809897C277.183 0.84943 277.351 0.895388 277.655 0.875591C278.214 0.84122 278.784 0.822237 279.348 0.798134C279.55 0.832469 279.752 0.866811 279.959 0.901137C280.283 0.886444 280.607 0.871742 280.931 0.858334C281.171 0.847639 281.417 0.835653 281.657 0.826243C281.736 0.823538 281.819 0.818253 281.893 0.824548C281.967 0.830844 282.026 0.847445 282.095 0.860171C282.434 0.922529 282.434 0.92382 282.994 0.897156C283.234 0.885177 283.465 0.877069 283.667 0.928103C283.854 0.97531 284.075 0.983913 284.331 0.969339C284.812 0.942812 285.298 0.9227 285.789 0.903864C285.941 0.897177 286.083 0.918768 286.212 0.951946C286.404 1.00428 286.639 0.998736 286.88 0.984188C287.199 0.96565 287.513 0.947124 287.784 1.01859C287.838 1.03391 287.922 1.0556 287.981 1.05421C288.384 1.04323 288.791 1.03482 289.184 1.00973C289.576 0.984645 289.769 1.06396 290.039 1.10202C290.442 1.08463 290.849 1.06722 291.252 1.04982C291.33 1.04583 291.424 1.03411 291.492 1.04042C291.782 1.06689 291.951 1.16294 292.348 1.13271C292.579 1.11561 292.829 1.11004 293.07 1.10577C293.134 1.10437 293.217 1.12605 293.262 1.14268C293.286 1.15163 293.262 1.17608 293.233 1.18897C293.145 1.22509 293.037 1.25869 292.959 1.29608C292.949 1.30124 293.043 1.32419 293.097 1.33437C293.23 1.35726 293.382 1.35316 293.559 1.34257C293.711 1.33331 293.868 1.35103 293.977 1.38938C294.021 1.40471 294.007 1.43043 293.915 1.51538C293.915 1.57832 294.018 1.54987 294.052 1.50871C294.105 1.44952 294.002 1.43043 293.806 1.46289C293.669 1.48625 293.6 1.51977 293.635 1.54669C293.655 1.56079 293.748 1.57861 293.915 1.51538C294.346 1.43755 294.67 1.42286 294.994 1.40817C295.077 1.40417 295.175 1.39115 295.234 1.39875C295.446 1.42922 295.643 1.46613 295.85 1.50046C296.085 1.49234 296.306 1.47268 296.537 1.52238C296.862 1.59247 296.877 1.58603 297.191 1.57135C297.353 1.56336 297.515 1.55667 297.677 1.54996C297.839 1.54326 297.967 1.5623 298.11 1.5916C298.4 1.65147 298.425 1.65142 298.615 1.56888C298.728 1.51858 298.806 1.50175 298.949 1.52463C299.421 1.60217 299.426 1.60729 299.829 1.58347C300.162 1.56362 300.477 1.55794 300.723 1.63074C300.891 1.68183 300.945 1.67018 301.077 1.616C301.429 1.47279 301.591 1.47507 302.255 1.57669C302.565 1.62497 302.884 1.57175 303.198 1.56478C303.463 1.55919 303.65 1.58969 303.671 1.67058C303.686 1.72066 303.731 1.75655 303.908 1.77295C303.976 1.77925 304.06 1.78809 304.129 1.78541C304.536 1.76928 304.939 1.7506 305.346 1.73191C305.552 1.72256 305.664 1.66199 305.624 1.58242C305.579 1.49771 305.657 1.46673 305.952 1.44181C306.128 1.42738 306.271 1.42971 306.413 1.45259C306.571 1.478 306.527 1.5012 306.39 1.54769C306.062 1.6613 306.102 1.73059 306.526 1.80822C306.673 1.83494 306.792 1.85915 306.826 1.89892C306.846 1.91944 306.827 1.94645 306.871 1.96178C307.113 2.04743 307.448 2.1021 307.821 2.14256C308.18 2.10725 308.426 2.16462 308.701 2.21039C308.918 2.24598 309.173 2.21472 309.404 2.20147C309.664 2.18689 309.88 2.19679 310.067 2.24399C310.2 2.27716 310.338 2.29233 310.5 2.28563C310.824 2.27094 311.153 2.26138 311.472 2.24027C311.747 2.22181 311.953 2.24715 312.126 2.29052C312.342 2.34539 312.583 2.30771 312.809 2.31502C313.113 2.32349 313.267 2.43755 313.664 2.40603C313.9 2.38764 314.145 2.38079 314.391 2.37522C314.455 2.37383 314.534 2.39553 314.588 2.41086C314.849 2.48106 315.153 2.47667 315.487 2.45554C315.718 2.44101 315.944 2.42778 316.17 2.4762C316.544 2.55777 316.958 2.62899 317.352 2.7041C317.406 2.7631 317.368 2.83252 317.648 2.86672C317.796 2.88445 317.934 2.9112 318.047 2.94055C318.185 2.97499 318.313 2.98377 318.489 2.97447C318.808 2.95593 319.142 2.95148 319.456 2.92782C319.746 2.90676 319.928 2.94885 320.105 2.98836C320.248 3.02023 320.381 3.03541 320.553 3.01199C320.729 2.98984 320.857 3.00375 321 3.03819C321.202 3.08537 321.217 3.08021 321.885 3.09318C321.953 3.09435 322.037 3.11346 322.077 3.13009C322.096 3.13905 322.053 3.16483 322.018 3.17774C321.974 3.19323 321.906 3.21132 321.842 3.21529C321.115 3.24995 320.384 3.28077 319.658 3.31543C319.584 3.31941 319.506 3.32855 319.452 3.34149C319.393 3.35572 319.319 3.3751 319.32 3.39309C319.32 3.40593 319.418 3.42118 319.487 3.43006C319.703 3.45923 319.958 3.41382 320.17 3.44686C320.313 3.46845 320.431 3.49907 320.574 3.51937C320.633 3.52826 320.726 3.52682 320.8 3.52413C321.045 3.51471 321.286 3.50145 321.531 3.49331C321.6 3.49191 321.678 3.50462 321.742 3.51479C322.215 3.59105 322.215 3.59104 322.622 3.57364C322.784 3.56693 322.956 3.54736 323.108 3.55481C323.256 3.56226 323.384 3.59672 323.517 3.61833C323.792 3.6641 324.053 3.70861 324.074 3.80877C324.084 3.84729 324.247 3.8804 324.409 3.88269C324.566 3.88499 324.733 3.87058 324.895 3.86259C325.278 3.84651 325.278 3.84651 325.775 3.92401C325.913 3.94561 326.06 3.94792 326.237 3.93477C326.305 3.92951 326.389 3.93451 326.463 3.9408C326.704 3.95965 326.704 3.98406 326.547 4.03057C326.327 4.09904 326.347 4.10543 326.966 4.16217C327.202 4.1836 327.384 4.22439 327.581 4.26002C327.901 4.31727 327.896 4.31727 327.686 4.39343C327.637 4.41021 327.593 4.42828 327.544 4.44635C327.403 4.49669 327.29 4.55084 326.996 4.55649C326.671 4.56219 326.348 4.58331 326.024 4.59801C325.709 4.61268 325.626 4.64365 325.657 4.73095C325.693 4.83623 325.757 4.84768 326.321 4.84542C326.483 4.84513 326.626 4.85516 326.749 4.88963C326.691 4.93084 326.583 4.96314 326.426 4.97112C326.024 4.99109 325.616 5.0085 325.214 5.0259C324.89 5.0406 324.566 5.05528 324.242 5.06998C324.04 5.07932 323.914 5.14634 323.968 5.22076C323.998 5.2631 324.023 5.30545 324.049 5.34779C324.104 5.43248 324.207 5.45415 324.536 5.44973C324.619 5.4483 324.698 5.43787 324.777 5.44031C325.096 5.44875 325.249 5.5551 325.632 5.5326C325.951 5.51406 326.285 5.50963 326.599 5.48596C326.889 5.4649 327.051 5.51088 327.253 5.54522C327.322 5.55666 327.396 5.58092 327.455 5.57954C327.863 5.5647 328.27 5.54987 328.667 5.52477C328.854 5.51417 328.967 5.52168 329.115 5.55226C329.469 5.62615 329.479 5.62228 330.004 5.59824C330.387 5.57959 330.392 5.58215 330.884 5.65966C331.022 5.68126 331.169 5.681 331.346 5.67042C331.577 5.65717 331.817 5.6362 332.058 5.65505C332.132 5.66006 332.225 5.67532 332.25 5.69198C332.265 5.70351 332.196 5.7319 332.138 5.74099C331.706 5.80854 331.2 5.79786 330.729 5.82565C330.582 5.83362 330.434 5.80946 330.311 5.77499C330.183 5.74053 330.045 5.72664 329.878 5.73335C329.554 5.74805 329.225 5.75761 328.906 5.77871C328.632 5.79718 328.44 5.76796 328.248 5.72847C328.184 5.71573 328.11 5.69145 328.046 5.69285C327.319 5.7198 326.588 5.74677 325.866 5.78399C325.577 5.79991 325.409 5.75909 325.212 5.72475C325.143 5.71331 325.074 5.68902 325.011 5.69041C324.765 5.69598 324.525 5.71052 324.279 5.72123C323.386 5.76132 322.497 5.8014 321.604 5.83892C321.545 5.84159 321.471 5.81474 321.402 5.80329C321.269 5.7804 321.131 5.7588 320.993 5.7372C320.748 5.7479 320.508 5.76116 320.262 5.7693C320.085 5.77474 319.928 5.79301 319.904 5.84186C319.89 5.87401 320.053 5.90326 320.224 5.9004C320.391 5.89754 320.558 5.88183 320.696 5.89829C321.38 5.97932 321.38 5.98061 321.807 5.96317C322.18 5.94711 322.14 5.93432 322.47 6.0044C322.613 6.03499 322.741 6.05276 322.903 6.04477C323.305 6.02609 323.713 6.00739 324.12 5.99127C324.184 5.98859 324.268 6.0013 324.332 6.01146C324.814 6.0877 324.814 6.09027 325.212 6.07031C325.732 6.04628 325.751 6.03983 326.101 6.11758C326.342 6.17112 326.563 6.13348 326.794 6.13051C327.06 6.18015 327.35 6.22461 327.591 6.28072C327.877 6.34702 328.176 6.33493 328.5 6.3151C328.741 6.30055 328.976 6.295 329.174 6.34733C329.361 6.39582 329.587 6.40058 329.842 6.38729C330.073 6.37533 330.308 6.3505 330.549 6.37834C330.613 6.38594 330.711 6.40505 330.707 6.41662C330.702 6.43461 330.638 6.46042 330.575 6.46823C330.124 6.52169 329.628 6.52126 329.151 6.54649C329.088 6.55046 329.004 6.53647 328.94 6.5263C328.802 6.50342 328.669 6.47668 328.536 6.4525C328.296 6.46062 328.05 6.46361 327.815 6.47944C327.633 6.49131 327.496 6.49028 327.363 6.45968C327.239 6.43163 327.106 6.39717 326.959 6.38843C326.812 6.3797 326.64 6.39927 326.478 6.40725C326.316 6.41524 326.129 6.41171 326.002 6.43248C325.874 6.45326 325.796 6.49836 325.713 6.53447C325.62 6.57446 325.493 6.58753 325.306 6.59171C325.134 6.59586 324.997 6.59096 324.869 6.55521C324.815 6.53989 324.741 6.52845 324.667 6.5183C324.598 6.50943 324.519 6.49543 324.455 6.49811C323.724 6.52893 322.998 6.56231 322.266 6.59441C321.903 6.61046 321.908 6.61044 321.151 6.53596C321.082 6.52966 320.998 6.52081 320.929 6.5235C320.522 6.53962 320.119 6.55831 319.712 6.577C319.3 6.5957 319.305 6.59312 318.601 6.51341C318.473 6.49822 318.287 6.5191 318.135 6.51679C317.815 6.51092 317.657 6.40329 317.284 6.42449C316.965 6.44303 316.631 6.44746 316.312 6.47114C316.022 6.4922 315.855 6.44753 315.658 6.41319C315.589 6.40174 315.515 6.37618 315.456 6.37885C314.725 6.40838 313.998 6.44176 313.026 6.4473C312.785 6.44772 312.894 6.47451 313.051 6.48323C313.277 6.49697 313.35 6.46986 313.227 6.41869C313.138 6.38288 313.01 6.3651 312.907 6.37427C312.853 6.3795 312.785 6.40404 313.026 6.4473C313.282 6.49567 313.268 6.52267 313.312 6.538C313.421 6.57507 313.573 6.59022 313.73 6.58481C313.976 6.57539 314.216 6.56213 314.461 6.554C314.53 6.55131 314.614 6.56016 314.678 6.57032C315.219 6.64903 315.224 6.65417 315.798 6.62234C315.98 6.61303 316.112 6.6128 316.255 6.63696C316.452 6.67002 316.595 6.72629 316.895 6.70778C317.292 6.68268 317.699 6.66786 318.107 6.65302C318.171 6.65034 318.24 6.67334 318.314 6.68349C318.515 6.71397 318.663 6.77152 318.963 6.7466C319.193 6.72693 319.444 6.72134 319.689 6.71706C319.753 6.71567 319.851 6.73605 319.881 6.7527C319.94 6.78214 319.867 6.81696 319.701 6.84166C319.632 6.85206 319.539 6.84965 319.46 6.85364C319.136 6.86833 318.812 6.8843 318.488 6.89642C318.316 6.90315 318.154 6.9227 318.135 6.97027C318.121 7.00241 318.298 7.03036 318.465 7.0275C318.711 7.02322 318.956 7.01252 319.192 6.99541C319.609 6.96642 319.972 6.9735 320.312 7.05384C320.553 7.10994 320.538 7.08942 320.796 7.25598C320.86 7.29826 321.052 7.30178 321.219 7.29892C321.622 7.2918 321.808 7.31075 321.774 7.35063C321.731 7.39952 321.589 7.41517 321.407 7.42191C321.083 7.43275 320.759 7.45002 320.435 7.46471C320.356 7.4687 320.268 7.47656 320.194 7.47412C320.121 7.47168 320.052 7.45638 319.988 7.44493C319.85 7.42076 319.732 7.38371 319.584 7.37497C319.437 7.36624 319.265 7.3858 319.103 7.39379C318.941 7.4005 318.77 7.42007 318.622 7.41133C318.475 7.40259 318.351 7.36428 318.218 7.34138C318.154 7.32993 318.076 7.31207 318.012 7.31347C317.688 7.32431 317.364 7.34158 317.04 7.35499C316.642 7.37238 316.642 7.37238 316.16 7.29357C316.022 7.27068 315.88 7.27222 315.698 7.28281C315.306 7.30405 315.301 7.30019 314.583 7.22693C314.514 7.21934 314.43 7.2105 314.361 7.21447C313.63 7.24529 312.904 7.27866 312.177 7.31075C311.554 7.33881 311.554 7.33882 311.211 7.46788C310.957 7.56338 310.952 7.56338 311.203 7.60662C311.405 7.64224 311.587 7.69459 311.809 7.71348C312.015 7.73111 312.27 7.67286 312.497 7.73156C312.61 7.76091 312.757 7.79277 312.9 7.79766C313.126 7.80369 313.366 7.76601 313.583 7.82216C313.691 7.85024 313.854 7.87951 313.991 7.88056C314.232 7.88271 314.477 7.86172 314.718 7.85231C314.792 7.84961 314.875 7.84947 314.944 7.85577C315.018 7.86335 315.082 7.87866 315.146 7.8914C315.343 7.93473 315.554 7.95491 315.809 7.93263C316.226 7.89594 316.6 7.91328 316.925 7.99493C316.969 8.00641 317.077 8.00752 317.146 8.00226C317.323 7.98911 317.475 7.98755 317.608 8.01173C317.662 8.02191 317.741 8.03975 317.731 8.05133C317.717 8.07062 317.658 8.09642 317.594 8.10296C317.133 8.14743 316.637 8.15344 316.161 8.17739C316.097 8.18007 316.018 8.1635 315.954 8.15205C315.817 8.12916 315.698 8.09084 315.551 8.0821C315.403 8.07336 315.232 8.09036 315.07 8.09707C314.908 8.10377 314.736 8.12334 314.589 8.11589C314.441 8.10715 314.303 8.07527 314.185 8.04721C314.047 8.01534 313.914 8.01172 313.733 8.02488C313.497 8.04199 313.252 8.04498 313.011 8.05439C312.878 8.03022 312.745 8.00346 312.608 7.98057C312.544 7.96912 312.465 7.95514 312.396 7.95654C312.072 7.96738 311.748 7.98335 311.424 7.99804C311.1 8.01274 311.1 8.01275 310.549 7.93406C310.485 7.92518 310.402 7.91505 310.333 7.91773C309.925 7.93386 309.523 7.95381 309.115 7.96993C308.958 7.97663 308.816 7.95889 308.688 7.92443C308.564 7.88996 308.417 7.87095 308.265 7.87764C307.617 7.90574 306.969 7.93256 306.321 7.9658C306.061 7.9791 305.839 7.96792 305.662 7.92198C305.455 7.86967 305.225 7.88292 304.984 7.89362C304.439 7.92025 304.434 7.91897 304.085 7.85406C304.016 7.84133 303.947 7.81704 303.883 7.81844C303.318 7.83868 302.749 7.85766 302.189 7.88946C301.895 7.90667 301.737 7.86199 301.54 7.82893C301.471 7.81749 301.398 7.79321 301.339 7.79588C300.931 7.81072 300.524 7.82427 300.126 7.85066C299.729 7.87704 299.575 7.75784 299.275 7.75964C298.868 7.76164 298.465 7.79188 298.063 7.81056C297.739 7.82526 297.415 7.83994 297.091 7.85464C296.767 7.86933 296.443 7.88145 296.119 7.89871C295.947 7.908 295.819 7.89666 295.677 7.86479C295.494 7.82272 295.278 7.7897 295.081 7.75151C294.781 7.69679 294.781 7.69678 294.417 7.71283C294.339 7.71682 294.255 7.71953 294.177 7.72352C293.583 7.75281 293.583 7.75025 292.826 7.67063C292.791 7.66684 292.703 7.68113 292.669 7.69146C292.566 7.72504 292.473 7.76116 292.38 7.79601C292.247 7.77569 292.085 7.76441 291.996 7.73502C291.745 7.65195 291.353 7.76696 291.097 7.68519C291.003 7.65452 290.841 7.62782 290.693 7.62037C290.541 7.61293 290.369 7.63121 290.212 7.63919C289.805 7.65917 289.805 7.65789 289.458 7.77282C289.281 7.82965 289.026 7.81981 288.795 7.83306C288.555 7.84761 288.324 7.85572 288.122 7.8034C287.94 7.75618 287.719 7.74501 287.459 7.76088C287.14 7.7807 286.811 7.79283 286.487 7.80495C286.418 7.80764 286.334 7.80137 286.265 7.79378C285.513 7.71929 285.513 7.71801 285.15 7.73534C284.988 7.74333 284.821 7.74618 284.664 7.75801C284.399 7.77902 284.197 7.7524 284.005 7.71162C283.941 7.69889 283.867 7.67462 283.803 7.67602C283.479 7.683 283.16 7.69511 282.841 7.70723C282.596 7.71665 282.35 7.72221 282.115 7.74061C281.722 7.77083 281.53 7.68765 281.259 7.64959C280.856 7.66698 280.449 7.67926 280.046 7.70308C279.86 7.71368 279.737 7.71005 279.594 7.67946C279.412 7.64124 279.245 7.59785 278.95 7.61763C278.558 7.64401 278.145 7.65372 277.743 7.66983C277.472 7.63048 277.275 7.54988 276.887 7.5801C276.651 7.59849 276.401 7.60278 276.16 7.61347C275.837 7.62817 275.513 7.64159 275.189 7.65756C274.84 7.67358 274.845 7.66972 274.309 7.59486C273.999 7.55043 273.68 7.60109 273.366 7.60934C273.12 7.61619 272.998 7.67549 273.058 7.75118C273.118 7.82687 272.986 7.88619 272.76 7.89686C272.196 7.92225 271.626 7.94892 271.062 7.97174C270.993 7.97443 270.91 7.96558 270.846 7.9567C270.241 7.87682 270.241 7.87811 269.971 7.89014C269.568 7.91011 269.156 7.92109 268.758 7.94619C268.483 7.96337 268.282 7.93675 268.104 7.89338C267.966 7.86022 267.839 7.85273 267.662 7.86075C265.718 7.95019 263.774 8.03321 261.835 8.12521C261.546 8.13856 261.378 8.1016 261.181 8.06726C261.112 8.05582 261.048 8.03152 260.979 8.03163C260.817 8.03192 260.655 8.04376 260.493 8.05175C259.767 8.08384 259.041 8.12235 258.309 8.14674C258 8.15756 257.917 8.2168 257.785 8.26585C257.682 8.30328 257.565 8.31889 257.383 8.32434C257.206 8.32979 257.078 8.32359 256.941 8.29042C256.763 8.24706 256.562 8.22042 256.287 8.23889C255.968 8.25999 255.644 8.26956 255.315 8.28426C255.148 8.29097 255.02 8.31431 254.967 8.36065C254.957 8.36838 255.061 8.38747 255.12 8.39893C255.317 8.43713 255.504 8.48177 255.725 8.50836C255.951 8.53494 256.197 8.50367 256.432 8.49556C256.516 8.49284 256.594 8.48501 256.673 8.48616C256.746 8.48731 256.835 8.49359 256.889 8.50505C257.145 8.56242 257.416 8.60177 257.769 8.56647C258.074 8.58264 258.232 8.68899 258.62 8.66006C258.855 8.64295 259.101 8.63481 259.346 8.62797C259.41 8.62657 259.479 8.64957 259.548 8.66102C259.745 8.69279 259.903 8.7439 260.197 8.72155C260.511 8.69788 260.845 8.69345 261.164 8.67491C261.341 8.66433 261.469 8.6731 261.606 8.70626C261.784 8.74835 261.986 8.7801 262.26 8.75907C262.496 8.74068 262.746 8.73639 262.987 8.72441C263.301 8.70973 263.301 8.71102 263.862 8.78969C263.926 8.79858 264.009 8.80871 264.078 8.80602C264.486 8.7899 264.888 8.76993 265.296 8.7538C265.453 8.74711 265.605 8.76354 265.714 8.80061C265.758 8.81595 265.744 8.84168 265.759 8.86349C264.949 8.89958 264.139 8.93053 263.334 8.97432C263.029 8.99155 262.891 8.93912 262.689 8.90992C262.621 8.89976 262.547 8.87805 262.483 8.88073C261.913 8.90356 261.349 8.92766 260.784 8.9569C260.608 8.9662 260.475 8.96129 260.342 8.92426C260.002 8.82594 259.59 8.88061 259.207 8.8954C258.913 8.90619 258.82 8.94618 258.855 9.03091C258.901 9.13103 259.078 9.16155 259.529 9.14278C259.691 9.13608 259.853 9.1268 260.015 9.12138C260.172 9.11597 260.315 9.13242 260.443 9.16689C260.566 9.20136 260.714 9.21908 260.866 9.21368C261.19 9.20156 261.519 9.18943 261.833 9.16962C262.093 9.15375 262.31 9.16622 262.492 9.21343C262.694 9.26575 262.929 9.25378 263.165 9.24181C263.715 9.21516 263.72 9.21645 264.064 9.28008C264.133 9.2928 264.202 9.3171 264.266 9.3157C264.831 9.29545 265.4 9.27776 265.955 9.24597C266.244 9.23005 266.412 9.27086 266.604 9.30393C266.673 9.31537 266.742 9.34095 266.806 9.33827C267.213 9.32343 267.62 9.30859 268.018 9.28349C268.204 9.2716 268.318 9.27911 268.47 9.30968C268.835 9.38484 268.844 9.38225 269.36 9.35695C269.517 9.34897 269.688 9.33454 269.836 9.34457C269.983 9.35459 270.102 9.39164 270.24 9.41453C270.304 9.42469 270.382 9.43868 270.451 9.43599C270.775 9.42515 271.099 9.40918 271.423 9.39449C271.727 9.37983 271.727 9.38111 272.298 9.45977C272.529 9.49277 272.77 9.46409 273 9.45341C273.251 9.44141 273.477 9.44103 273.669 9.49079C273.861 9.54056 274.092 9.53758 274.337 9.52688C274.568 9.5162 274.803 9.48754 275.039 9.52182C275.581 9.60052 275.581 9.60179 275.914 9.5858C276.4 9.56312 276.881 9.54173 277.372 9.52161C277.436 9.51893 277.52 9.53421 277.584 9.54437C277.722 9.56726 277.84 9.60558 277.987 9.61432C278.135 9.62434 278.306 9.60863 278.464 9.60065C278.969 9.57536 279.003 9.56631 279.343 9.65051C279.629 9.71938 279.981 9.61857 280.248 9.69776C280.4 9.74245 280.607 9.77806 280.892 9.75573C281.127 9.73733 281.373 9.73177 281.618 9.72107C282.006 9.70369 282.006 9.70499 282.498 9.78121C282.562 9.79138 282.646 9.80407 282.709 9.80139C283.033 9.79055 283.362 9.78099 283.677 9.75732C284.045 9.72971 284.281 9.77812 284.556 9.82517C284.773 9.86205 285.028 9.83077 285.259 9.81753C285.509 9.80424 285.735 9.8077 285.922 9.85747C286.119 9.90852 286.35 9.9017 286.596 9.89099C286.826 9.8816 287.062 9.85164 287.298 9.8872C287.805 9.96597 287.805 9.96597 288.173 9.94992C288.497 9.93522 288.821 9.91925 289.145 9.90841C289.209 9.90573 289.287 9.92229 289.351 9.93374C289.489 9.95663 289.607 9.99497 289.755 10.0037C289.902 10.0124 290.074 9.99544 290.236 9.98874C290.398 9.98203 290.57 9.96246 290.717 9.96992C290.865 9.97737 291.002 10.0092 291.121 10.0373C291.259 10.0705 291.386 10.0741 291.573 10.0609C291.808 10.0438 292.054 10.0395 292.294 10.0301C292.427 10.0543 292.565 10.0785 292.693 10.1052C292.826 10.1333 292.968 10.1304 293.15 10.1211C293.754 10.0893 293.759 10.0931 294.266 10.1719C294.497 10.2074 294.737 10.1775 294.968 10.1681C295.213 10.1574 295.444 10.1518 295.636 10.2029C295.823 10.2514 296.054 10.2574 296.3 10.2416C296.457 10.231 296.624 10.2243 296.786 10.2202C296.859 10.2188 296.948 10.2237 297.002 10.2339C297.263 10.2874 297.519 10.3358 297.877 10.3005C298.192 10.3102 298.35 10.4153 298.728 10.3941C299.047 10.3755 299.381 10.3711 299.695 10.3474C299.984 10.3264 300.191 10.362 300.339 10.4067C300.605 10.4859 300.977 10.3773 301.243 10.4552C301.396 10.4999 301.593 10.5356 301.887 10.5158C302.211 10.4947 302.315 10.5214 302.409 10.6022C302.464 10.6484 302.454 10.6856 302.357 10.7218C302.259 10.7592 302.151 10.753 301.993 10.7109C301.811 10.6636 301.594 10.655 301.334 10.6657C301.079 10.6765 300.921 10.6099 300.709 10.5846C300.498 10.558 300.248 10.6034 300.027 10.5691C299.505 10.4891 299.505 10.4891 299.152 10.5051C298.911 10.5158 298.661 10.5214 298.425 10.5398C298.146 10.5621 297.963 10.5226 297.771 10.4869C297.702 10.4742 297.633 10.4499 297.574 10.4513C297.01 10.4716 296.44 10.4905 295.881 10.5236C295.586 10.5408 295.429 10.4949 295.232 10.4631C295.163 10.4516 295.089 10.4287 295.03 10.4313C294.544 10.4502 294.063 10.4741 293.577 10.4968C293.484 10.5316 293.381 10.5652 293.293 10.6026C293.201 10.6413 293.073 10.6582 292.887 10.6573C292.577 10.6578 292.273 10.7123 291.963 10.6448C291.643 10.5759 291.618 10.5798 291.309 10.5971C290.917 10.6196 290.499 10.6152 290.131 10.6659C290.068 10.675 289.999 10.6995 289.999 10.7175C289.995 10.7291 290.098 10.7456 290.162 10.7558C290.378 10.7862 290.628 10.7408 290.845 10.7726C290.987 10.7929 291.106 10.8235 291.248 10.8451C291.307 10.854 291.396 10.8526 291.474 10.8511C291.558 10.8497 291.636 10.8406 291.715 10.8417C291.789 10.8429 291.867 10.8505 291.926 10.8619C292.197 10.9103 292.482 10.9547 292.724 11.0121C292.96 11.0682 293.181 11.0293 293.416 11.0263C294.361 11.1146 294.361 11.1159 294.994 11.0865C295.151 11.0798 295.313 11.0719 295.475 11.0729C295.544 11.0727 295.608 11.0957 295.677 11.1085C295.874 11.1467 296.061 11.181 296.336 11.16C296.571 11.1416 296.822 11.1373 297.062 11.1253C297.386 11.1106 297.386 11.1107 297.937 11.1906C298.075 11.2109 298.222 11.2081 298.399 11.1975C298.551 11.1883 298.708 11.2073 298.817 11.2443C298.861 11.2597 298.847 11.2854 298.862 11.3072C298.376 11.3286 297.885 11.3436 297.414 11.3752C297.11 11.395 296.971 11.34 296.77 11.3108C296.701 11.3007 296.627 11.279 296.563 11.2817C296.082 11.3018 295.601 11.3244 295.12 11.351C295.061 11.3536 294.988 11.3833 294.983 11.4013C294.974 11.4347 295.097 11.4666 295.273 11.465C295.509 11.4633 295.74 11.4411 295.952 11.4934C296.129 11.5393 296.35 11.5595 296.61 11.5385C296.767 11.5267 296.934 11.5264 297.091 11.5158C297.508 11.4843 297.887 11.49 298.202 11.5768C298.443 11.5995 298.678 11.5773 298.909 11.5653C299.081 11.5561 299.248 11.5468 299.371 11.571C299.632 11.6219 299.888 11.6728 300.246 11.6375C300.634 11.6728 300.93 11.7481 301.255 11.8092C301.407 11.8385 301.526 11.855 301.702 11.8354C301.776 11.8276 301.864 11.8274 301.943 11.8234C302.105 11.8167 302.276 11.7971 302.424 11.8046C302.571 11.8133 302.694 11.8504 302.827 11.8733C302.891 11.8847 302.965 11.9039 303.029 11.9025C303.274 11.8956 303.515 11.8824 303.755 11.8717C303.996 11.8623 304.237 11.8528 304.477 11.8434C304.679 11.8765 304.886 11.9095 305.087 11.9426C305.411 11.9279 305.735 11.9132 306.054 11.8998C306.413 11.8837 306.413 11.885 306.929 11.9638C307.161 11.9994 307.406 11.9758 307.627 11.9587C307.995 11.9311 308.241 11.9795 308.502 12.0304C308.556 12.0406 308.654 12.0469 308.718 12.0416C308.973 12.0232 309.194 12.0369 309.382 12.0841C309.515 12.1173 309.647 12.1325 309.809 12.1258C310.374 12.1004 310.938 12.0737 311.503 12.0509C311.572 12.0482 311.65 12.0597 311.714 12.0698C312.216 12.1473 312.221 12.1511 312.589 12.13C312.918 12.1114 313.223 12.1032 313.484 12.1734C313.538 12.1887 313.622 12.2104 313.681 12.209C314.083 12.1955 314.491 12.1806 314.888 12.1581C315.07 12.1475 315.198 12.1511 315.34 12.1804C315.523 12.2174 315.685 12.262 315.985 12.2448C316.814 12.1959 316.819 12.2035 317.802 12.2905C317.871 12.2968 317.964 12.2863 318.043 12.2811C318.21 12.2679 318.333 12.2857 318.48 12.315C318.81 12.3812 318.82 12.3774 319.134 12.3627C319.375 12.3507 319.625 12.3477 319.861 12.328C320.224 12.2991 320.465 12.3488 320.736 12.3959C320.952 12.4328 321.202 12.4015 321.433 12.3895C321.683 12.3762 321.909 12.3797 322.097 12.4282C322.225 12.4614 322.362 12.4791 322.524 12.4724C323.089 12.4483 323.653 12.4216 324.218 12.3975C324.287 12.3948 324.37 12.405 324.434 12.4139C324.995 12.4925 324.995 12.4964 325.55 12.4659C325.726 12.4566 325.874 12.4538 326.007 12.4805C326.135 12.506 326.273 12.5301 326.405 12.5543C326.646 12.5449 326.892 12.5419 327.127 12.5261C327.309 12.5142 327.436 12.5191 327.579 12.5459C327.766 12.5802 327.924 12.6403 328.218 12.6103C328.37 12.5959 328.547 12.5994 328.699 12.5863C328.881 12.5693 329.004 12.5794 329.147 12.6125C329.324 12.652 329.506 12.6928 329.791 12.6718C330.105 12.6481 330.439 12.6437 330.758 12.6251C330.934 12.6145 331.057 12.6246 331.2 12.6578C331.378 12.6998 331.579 12.7265 331.854 12.7093C332.414 12.6762 332.419 12.6826 332.965 12.7626C333.102 12.7829 333.25 12.7801 333.427 12.7695C333.579 12.7603 333.736 12.7793 333.844 12.8163C333.948 12.8572 333.939 12.8829 333.949 12.9048ZM290.043 1.39492C289.881 1.40162 289.719 1.40961 289.482 1.29826C289.467 1.27901 289.476 1.25588 289.442 1.23924C289.363 1.20469 289.24 1.1805 289.092 1.1769C288.827 1.17222 288.508 1.21644 288.514 1.24984C288.519 1.27809 288.603 1.30235 288.765 1.32519C288.834 1.33406 288.888 1.34938 288.952 1.35955C289.139 1.38877 289.287 1.44633 289.557 1.41632C289.532 1.37654 289.507 1.33676 289.557 1.41632C289.533 1.46518 289.607 1.49973 289.784 1.51356C289.833 1.51733 289.907 1.51462 289.946 1.50685C290.098 1.47832 290.122 1.43975 290.008 1.33846C289.988 1.3552 290.004 1.38471 290.048 1.39234C290.092 1.39997 290.2 1.39337 290.254 1.38428C290.391 1.35963 290.46 1.3274 290.425 1.30048C290.405 1.28638 290.311 1.26856 290.253 1.26866C290.149 1.26884 290.056 1.29726 290.043 1.39492ZM329.937 16.2235C329.579 16.2485 329.166 16.2403 328.808 16.291C328.745 16.3001 328.681 16.3233 328.676 16.3413C328.672 16.3529 328.77 16.3694 328.829 16.3783C328.962 16.3986 329.109 16.3919 329.281 16.3852C329.541 16.3758 329.694 16.4346 329.896 16.4638C329.96 16.4727 330.043 16.479 330.112 16.4763C330.51 16.4602 330.902 16.4428 331.3 16.4241C331.369 16.4201 331.442 16.411 331.501 16.3994C331.697 16.3618 331.677 16.3374 331.485 16.3095C331.274 16.279 331.106 16.2279 330.89 16.2039C330.58 16.1697 330.266 16.2165 329.937 16.2235ZM302.057 17.2097C301.817 17.2204 301.581 17.231 301.341 17.2417C301.262 17.2457 301.179 17.2472 301.105 17.2524C300.953 17.2617 300.84 17.2888 300.767 17.3314C300.88 17.3646 301.018 17.3836 301.17 17.3795C301.411 17.3714 301.647 17.3543 301.887 17.35C302.147 17.3444 302.3 17.4019 302.502 17.4311C302.566 17.44 302.645 17.4412 302.718 17.4423C303.082 17.4468 303.302 17.3796 303.232 17.286C303.182 17.2129 302.995 17.1695 302.769 17.1789C302.534 17.1883 302.293 17.199 302.057 17.2097ZM331.594 14.3219C331.652 14.3 331.716 14.2845 331.745 14.2652C331.833 14.1995 331.798 14.1507 331.635 14.0996C331.438 14.037 331.198 14.0798 330.977 14.0866C330.923 14.088 330.864 14.1151 330.835 14.1319C330.816 14.1435 330.816 14.1679 330.845 14.1742C331.087 14.2252 331.343 14.2723 331.594 14.3219ZM288.942 10.6012C288.706 10.6119 288.466 10.62 288.23 10.6345C288.171 10.6385 288.118 10.663 288.083 10.6797C288.02 10.7107 288.089 10.753 288.291 10.7565C288.522 10.7612 288.762 10.7389 289.002 10.7283C289.307 10.7149 289.488 10.667 289.374 10.6261C289.266 10.5865 289.119 10.579 288.942 10.6012ZM30.3822 8.30461C30.5393 8.29791 30.7013 8.29249 30.8583 8.28322C31.0055 8.27398 31.1182 8.24552 31.1914 8.203C31.0682 8.16981 30.9304 8.15207 30.7782 8.15619C30.5377 8.16431 30.3021 8.175 30.0665 8.18825C29.9192 8.19621 29.7772 8.22472 29.7433 8.26846C29.7094 8.30192 30.0386 8.32062 30.3822 8.30461ZM268.136 7.6942C268.2 7.70565 268.264 7.72867 268.328 7.72856C268.485 7.72828 268.647 7.72029 268.795 7.70719C268.858 7.70194 268.907 7.67873 268.936 7.6607C268.956 7.6491 268.951 7.62856 268.921 7.61834C268.778 7.55692 268.208 7.57975 268.116 7.65056C268.106 7.66343 268.131 7.68008 268.136 7.6942ZM252.555 0.686621C252.57 0.707149 252.575 0.727691 252.595 0.748211C252.635 0.786681 252.743 0.81476 252.901 0.833756C253.023 0.801428 253.087 0.765354 253.081 0.726825C253.076 0.70628 253.061 0.685739 253.041 0.665219C253.001 0.626749 252.893 0.598686 252.736 0.579689C252.613 0.610733 252.555 0.646798 252.555 0.686621ZM342.981 17.3622C342.937 17.379 342.893 17.3957 342.844 17.4112C342.977 17.4483 343.1 17.4596 343.193 17.4389C343.252 17.4259 343.286 17.4066 343.33 17.3898C343.197 17.3528 343.079 17.3427 342.981 17.3622ZM339.928 17.5422C339.992 17.5536 340.052 17.5689 340.12 17.5765C340.233 17.5892 340.336 17.5672 340.414 17.5208C340.35 17.5093 340.291 17.494 340.222 17.4864C340.109 17.4738 340.006 17.4958 339.928 17.5422ZM341.861 17.3037C341.827 17.3346 341.896 17.3602 342.078 17.3817C342.122 17.365 342.18 17.3494 342.21 17.3314C342.258 17.3018 342.175 17.2749 341.997 17.2547C341.949 17.2702 341.905 17.287 341.861 17.3037ZM331.476 15.9369C331.442 15.9678 331.511 15.9934 331.693 16.0149C331.737 15.9981 331.796 15.9826 331.825 15.9646C331.874 15.935 331.79 15.9081 331.613 15.8879C331.564 15.9034 331.52 15.9202 331.476 15.9369ZM317.24 6.87162C317.196 6.88839 317.152 6.90517 317.103 6.92067C317.236 6.9577 317.359 6.96904 317.452 6.94832C317.511 6.93538 317.545 6.91605 317.589 6.89927C317.456 6.86225 317.338 6.85218 317.24 6.87162ZM303.651 2.0727C303.769 2.08149 303.867 2.06335 303.95 2.01567C303.886 2.00422 303.827 1.9889 303.758 1.98132C303.645 1.96867 303.542 1.99069 303.464 2.03707C303.528 2.04981 303.592 2.06125 303.651 2.0727ZM296.462 1.7833C296.418 1.80007 296.374 1.81685 296.325 1.83235C296.458 1.86937 296.581 1.88072 296.674 1.86C296.733 1.84705 296.767 1.82772 296.811 1.81095C296.678 1.77392 296.56 1.76514 296.462 1.7833ZM247.723 0.693721C247.679 0.710498 247.635 0.727275 247.586 0.742775C247.719 0.779798 247.842 0.791143 247.935 0.770427C247.994 0.757479 248.028 0.73815 248.072 0.721373C247.939 0.68435 247.821 0.675566 247.723 0.693721ZM5.23618 11.5662C5.17219 11.5548 5.10826 11.5433 5.04917 11.5306C4.90717 11.5655 4.86337 11.5977 4.94225 11.622C4.99155 11.6373 5.06527 11.6462 5.12926 11.6576C5.27618 11.6227 5.31017 11.5918 5.23618 11.5662Z" fill="#14BEB6"/>
</svg>
