<svg width="483" height="30" viewBox="0 0 483 30" fill="none" xmlns="http://www.w3.org/2000/svg">
<path d="M453.879 15.3726C453.218 15.3983 452.551 15.4164 451.903 15.4543C451.482 15.4781 451.301 15.4109 451.02 15.3761C450.927 15.3639 450.826 15.3395 450.739 15.3428C450.085 15.3685 449.43 15.3972 448.776 15.426C448.576 15.4862 448.45 15.5663 448.144 15.596C447.843 15.6241 447.489 15.6247 447.155 15.6391C446.715 15.6568 446.274 15.6744 445.833 15.6905C445.613 15.6986 445.433 15.7281 445.36 15.7835C445.347 15.7927 445.494 15.8155 445.574 15.8291C445.842 15.8747 446.103 15.9265 446.398 15.9613C446.679 15.9945 447.025 15.9387 447.326 15.9811C448.002 16.0767 448.009 16.0751 448.523 16.0558C448.964 16.0382 449.405 16.019 449.845 16.0059C449.932 16.0027 450.033 16.0256 450.126 16.0377C450.407 16.071 450.589 16.1474 451.003 16.1175C451.316 16.094 451.664 16.0888 451.991 16.0759C452.265 16.1199 452.52 16.1702 452.814 16.205C453.088 16.2383 453.169 16.2642 453.022 16.309C452.889 16.3507 452.702 16.3679 452.455 16.3714C452.235 16.3733 452.015 16.3875 451.794 16.3955C451.681 16.4003 451.574 16.4036 451.467 16.4084C451.046 16.426 451.046 16.426 450.277 16.3291C449.976 16.2912 449.636 16.3456 449.348 16.3092C449.154 16.285 448.987 16.2485 448.799 16.2227C448.719 16.2121 448.592 16.2108 448.492 16.214C448.158 16.2253 447.824 16.2336 447.504 16.2541C447.277 16.2683 447.143 16.3115 447.171 16.3544C447.178 16.3713 447.338 16.3956 447.432 16.397C447.645 16.3997 447.872 16.3778 448.08 16.3882C448.28 16.3986 448.488 16.4289 448.635 16.4624C448.937 16.5325 449.276 16.469 449.564 16.4869C449.865 16.5064 450.113 16.5673 450.4 16.6037C450.474 16.6128 450.614 16.5972 450.728 16.5924C451.055 16.581 451.382 16.5713 451.709 16.56C451.984 16.604 452.278 16.6434 452.526 16.6936C452.975 16.785 453.456 16.8194 454.037 16.7739C454.364 16.7488 454.685 16.7574 454.946 16.8168C455.214 16.8778 455.521 16.8711 455.862 16.8582C456.176 16.8454 456.496 16.8111 456.817 16.8535C457.513 16.9475 457.52 16.9521 458.341 16.9138C458.588 16.9026 458.775 16.8992 458.962 16.9342C459.137 16.9661 459.324 16.9934 459.505 17.0238C459.832 17.0125 460.166 17.0012 460.493 16.9884C460.914 16.9707 461.148 16.9918 461.249 17.0776C461.31 17.1297 461.337 17.1772 461.484 17.2123C461.659 17.255 461.846 17.2531 462.099 17.2404C462.34 17.2292 462.513 17.212 462.613 17.1566C462.653 17.1335 462.733 17.1119 462.806 17.0933C462.866 17.0794 462.959 17.0578 463.013 17.0607C463.113 17.0667 463.247 17.0833 463.28 17.1032C463.61 17.2884 463.61 17.29 463.945 17.3431C464.313 17.4023 464.694 17.4554 465.029 17.5224C465.33 17.5817 465.631 17.5551 465.958 17.5545C466.205 17.5541 466.366 17.5937 466.346 17.6337C466.333 17.6567 466.24 17.6906 466.16 17.6939C465.506 17.7257 464.845 17.7529 464.184 17.7756C464.104 17.7788 464.003 17.7513 463.909 17.7377C463.722 17.7104 463.554 17.6677 463.354 17.6588C463.153 17.6499 462.92 17.6734 462.699 17.6814C462.479 17.6895 462.246 17.7099 462.045 17.6979C461.844 17.686 461.683 17.6418 461.496 17.6129C461.409 17.5993 461.289 17.5795 461.215 17.5843C460.728 17.6219 460.367 17.5719 460.018 17.505C459.945 17.4913 459.818 17.4823 459.724 17.4855C458.95 17.513 458.182 17.545 457.407 17.5755C457.093 17.5883 456.839 17.535 456.771 17.4446C456.737 17.394 456.669 17.3434 456.669 17.2928C456.668 17.2007 456.3 17.1507 456.032 17.1619C455.592 17.178 455.144 17.191 454.71 17.2148C454.357 17.2339 454.056 17.216 453.814 17.1611C453.533 17.0987 453.213 17.1115 452.892 17.1289C452.652 17.1416 452.586 17.1924 452.6 17.3198C452.615 17.4226 452.502 17.4551 452.068 17.4727C451.52 17.4951 450.966 17.5176 450.412 17.5354C450.325 17.5387 450.224 17.5127 450.137 17.4991C449.95 17.4718 449.782 17.4275 449.582 17.4187C449.381 17.4083 449.148 17.4317 448.928 17.4413C448.707 17.4494 448.474 17.4713 448.273 17.4609C448.073 17.4505 447.905 17.4047 447.724 17.3759C447.637 17.3622 447.53 17.3424 447.443 17.3456C447.002 17.3587 446.562 17.3779 446.121 17.3955C445.627 17.4148 445.627 17.4148 444.924 17.3209C444.603 17.2784 444.283 17.3128 443.969 17.3256C443.635 17.3384 443.321 17.3451 443.06 17.2842C442.886 17.2446 442.692 17.2203 442.485 17.2284C441.931 17.2478 441.383 17.2717 440.829 17.2911C440.735 17.2943 440.608 17.2869 440.535 17.2732C440.18 17.2093 439.832 17.1593 439.338 17.1924C438.911 17.2208 438.45 17.2231 438.022 17.2499C437.789 17.2641 437.682 17.3135 437.73 17.3518C437.757 17.3717 437.897 17.3945 437.991 17.3943C438.205 17.3955 438.438 17.372 438.639 17.3809C439.053 17.3986 439.262 17.5272 439.802 17.4909C440.123 17.4689 440.457 17.4606 440.791 17.4539C440.877 17.4522 440.971 17.4812 441.065 17.4964C441.333 17.5374 441.567 17.5907 441.954 17.5624C442.275 17.5403 442.615 17.5336 442.943 17.5208C443.463 17.4999 443.463 17.5015 444.139 17.5939C444.461 17.6379 444.781 17.602 445.095 17.5907C445.328 17.5826 445.549 17.5669 445.736 17.5881C446.024 17.6198 446.232 17.6931 446.586 17.6879C446.92 17.6827 447.247 17.6607 447.581 17.6524C447.788 17.6475 447.982 17.6717 448.149 17.7128C448.323 17.754 448.511 17.7721 448.738 17.7625C449.065 17.7496 449.399 17.7337 449.733 17.7254C449.826 17.7237 449.933 17.7374 450.02 17.7495C450.208 17.7768 450.388 17.8087 450.569 17.8376C450.896 17.8278 451.23 17.8242 451.551 17.8052C451.798 17.7909 451.972 17.7968 452.172 17.8271C452.427 17.8681 452.635 17.9415 453.049 17.9054C453.255 17.8882 453.496 17.8924 453.703 17.8767C453.957 17.8563 454.13 17.8636 454.311 17.9094C454.653 17.9963 455.081 17.9971 455.521 17.9625C456.002 17.9249 456.363 17.9672 456.725 18.0341C457.106 18.1041 457.106 18.1026 457.402 18.2724C457.49 18.3214 457.737 18.344 457.944 18.3344C458.291 18.3185 458.592 18.3256 458.847 18.3835C459.115 18.446 459.435 18.4378 459.762 18.4203C460.196 18.3965 460.63 18.3758 460.985 18.4643C461.16 18.5069 461.347 18.5173 461.58 18.5062C462.242 18.4774 462.909 18.4594 463.557 18.4245C463.951 18.4023 464.178 18.451 464.446 18.492C464.808 18.5482 465.203 18.5982 465.204 18.7194C465.204 18.7394 465.298 18.7622 465.378 18.7775C465.552 18.8094 465.74 18.8367 465.921 18.8671C466.188 18.9127 466.449 18.9506 466.816 18.9254C467.137 18.9049 467.478 18.8982 467.805 18.8838C468.132 18.8694 468.433 18.8612 468.727 18.919C469.069 18.9844 469.43 19.0467 469.818 19.0952C470.093 19.13 470.453 19.0695 470.747 19.1166C470.928 19.1455 471.102 19.1789 471.296 19.2031C471.376 19.2138 471.503 19.2059 471.61 19.2026C471.83 19.1961 472.058 19.1911 472.271 19.1754C472.518 19.1581 472.705 19.1608 472.893 19.1958C473.067 19.2277 473.241 19.2719 473.442 19.2808C473.742 19.2941 474.076 19.2321 474.377 19.3022C474.531 19.3372 474.725 19.3707 474.926 19.3811C475.126 19.3915 475.36 19.368 475.574 19.3692C475.667 19.369 475.781 19.3934 475.835 19.4133C475.868 19.4239 475.822 19.4532 475.775 19.4686C475.715 19.4871 475.629 19.5119 475.542 19.5151C474.881 19.5439 474.22 19.568 473.559 19.5953C473.165 19.6113 473.165 19.6113 472.369 19.516C472.181 19.4933 471.974 19.4982 471.741 19.5094C471.427 19.5238 471.107 19.5504 470.779 19.5234C470.35 19.4197 469.822 19.4114 469.261 19.4523C469.028 19.4696 468.814 19.47 468.64 19.4411C468.272 19.3834 467.884 19.3304 467.556 19.2618C467.301 19.2086 467.181 19.2042 467.075 19.278C467.042 19.3011 467.008 19.3257 467.015 19.3472C467.056 19.4239 467.131 19.499 467.172 19.5757C467.185 19.5971 467.132 19.6218 467.099 19.6449C466.993 19.7095 466.853 19.7052 466.618 19.6518C466.384 19.5985 466.103 19.5637 465.729 19.5889C465.409 19.611 465.061 19.6085 464.741 19.6321C464.247 19.6667 463.899 19.6182 463.544 19.5528C463.47 19.5391 463.343 19.5316 463.25 19.5349C462.255 19.5719 461.267 19.6135 460.272 19.6506C460.058 19.6586 459.864 19.6359 459.696 19.5948C459.522 19.5536 459.328 19.5325 459.114 19.5405C458.233 19.5743 457.352 19.605 456.47 19.6464C456.11 19.6639 455.822 19.6445 455.574 19.5912C455.387 19.5516 455.213 19.5396 454.979 19.5446C454.725 19.5497 454.545 19.5653 454.419 19.6101C454.299 19.6533 454.386 19.6792 454.654 19.7125C454.942 19.7489 455.209 19.796 455.484 19.8385C455.704 19.832 455.924 19.8193 456.138 19.8205C456.232 19.8203 456.319 19.8478 456.413 19.863C456.681 19.907 456.928 19.9511 457.309 19.9259C457.629 19.9038 457.97 19.8986 458.297 19.8843C458.751 19.8666 458.751 19.8666 459.487 19.962C459.674 19.9863 459.875 19.9844 460.115 19.9701C460.322 19.959 460.536 19.9801 460.684 20.0259C460.744 20.0443 460.724 20.075 460.599 20.1765C460.6 20.2518 460.739 20.2177 460.786 20.1685C460.858 20.0978 460.718 20.075 460.451 20.1139C460.264 20.1418 460.171 20.1819 460.218 20.214C460.245 20.2309 460.373 20.2522 460.599 20.1765C461.186 20.0834 461.633 20.0719 462.06 20.0466C462.314 20.0323 462.474 20.0382 462.675 20.0778C462.916 20.1249 463.157 20.1752 463.551 20.1499C463.978 20.1216 464.433 20.1177 464.867 20.0939C465.267 20.0717 465.475 20.1389 465.73 20.1784C466.037 20.2254 466.377 20.1711 466.658 20.1983C466.953 20.2254 467.16 20.2926 467.501 20.3042C467.995 20.2619 468.31 20.3382 468.685 20.3882C468.979 20.426 469.326 20.3916 469.64 20.3742C469.994 20.3552 470.288 20.3716 470.536 20.4264C470.817 20.4889 471.131 20.4745 471.452 20.4601C472.199 20.4281 472.226 20.4235 472.661 20.5071C472.976 20.568 473.276 20.5398 473.59 20.5316C473.865 20.5726 474.132 20.6166 474.42 20.653C474.494 20.6621 474.634 20.6465 474.747 20.6417C475.075 20.6288 475.408 20.616 475.736 20.6031C475.956 20.5951 476.19 20.5716 476.39 20.5805C476.591 20.5909 476.758 20.6351 476.939 20.664C477.12 20.6928 477.307 20.7217 477.481 20.7521C477.749 20.7977 478.003 20.8356 478.377 20.8119C478.697 20.7914 479.031 20.7847 479.365 20.7703C479.786 20.7527 479.773 20.7573 480.555 20.8481C480.977 20.898 481.41 20.8358 481.838 20.8289C482.052 20.8255 482.259 20.842 482.406 20.8863C482.467 20.9046 482.447 20.9353 482.468 20.9614C481.366 21.0048 480.257 21.042 479.169 21.0945C478.748 21.1152 478.527 21.0603 478.299 21.0147C477.924 20.9416 477.431 21.05 477.076 20.9554C476.862 20.899 476.554 20.8673 476.187 20.8955C475.973 20.9113 475.746 20.9101 475.526 20.9243C474.965 20.9591 474.451 20.9615 474.002 20.8564C473.848 20.8198 473.627 20.8002 473.466 20.7652C473.279 20.7271 473.098 20.7059 472.878 20.714C471.883 20.7526 470.894 20.7911 469.906 20.8327C469.819 20.836 469.733 20.8591 469.659 20.8762C469.473 20.9195 469.533 20.9531 469.834 20.9803C469.935 20.9893 470.015 21.0091 470.109 21.0243C470.29 21.0531 470.457 21.0989 470.658 21.1093C470.858 21.1197 471.092 21.0978 471.312 21.0897C471.533 21.0817 471.766 21.0583 471.967 21.0671C472.167 21.0775 472.335 21.1217 472.522 21.1491C472.609 21.1627 472.716 21.1856 472.803 21.1839C473.244 21.1739 473.678 21.1563 474.119 21.1417C474.393 21.1826 474.628 21.2421 474.955 21.2554C475.163 21.2642 475.383 21.2469 475.597 21.2496C475.69 21.251 475.811 21.2738 475.858 21.2937C475.884 21.3059 475.798 21.3368 475.731 21.3523C475.478 21.411 475.131 21.4009 474.817 21.4198C474.477 21.4404 474.169 21.4348 473.908 21.3754C473.734 21.3358 473.54 21.3146 473.326 21.3227C472.772 21.3436 472.224 21.3676 471.67 21.3854C471.576 21.3886 471.463 21.375 471.376 21.3644C470.673 21.272 470.673 21.2689 470.179 21.2897C469.451 21.3202 469.451 21.3202 468.963 21.2396C468.869 21.2245 468.768 21.1955 468.688 21.1972C467.913 21.2231 467.145 21.2489 466.378 21.2856C466.124 21.2968 465.95 21.2971 465.763 21.2575C465.602 21.224 465.414 21.1859 465.214 21.1771C465.007 21.1682 464.78 21.1917 464.559 21.1997C464.339 21.2078 464.106 21.2281 463.912 21.2162C463.711 21.2043 463.537 21.1616 463.363 21.1312C463.182 21.0993 462.988 21.1011 462.741 21.1138C461.98 21.1504 461.973 21.1459 461.217 21.052C461.13 21.0414 461.017 21.0293 460.923 21.0326C460.369 21.0519 459.821 21.0759 459.267 21.0953C459.053 21.1033 458.846 21.0838 458.699 21.0395C458.638 21.0212 458.658 20.9904 458.617 20.9306C458.57 20.9169 458.624 20.9414 458.637 20.9644C458.738 20.9611 458.858 20.964 458.931 20.9516C459.118 20.9221 459.211 20.8835 459.164 20.8514C459.137 20.8345 459.01 20.8133 458.93 20.8134C458.783 20.8137 458.656 20.8477 458.617 20.9306C458.197 20.982 457.749 20.9935 457.315 21.0189C457.062 21.0347 456.901 21.0273 456.7 20.9877C456.459 20.939 456.211 20.8918 455.818 20.9171C455.39 20.9454 454.936 20.9508 454.496 20.9731C453.988 20.9985 453.766 20.8608 453.338 20.8646C452.898 20.8684 452.457 20.8953 452.016 20.9145C451.629 20.9305 451.629 20.9305 450.826 20.8321C450.532 20.7958 450.185 20.8501 449.897 20.8122C449.703 20.788 449.536 20.7514 449.348 20.7257C449.268 20.7151 449.141 20.7153 449.041 20.7185C448.487 20.7379 447.926 20.7512 447.392 20.7859C446.784 20.8268 446.323 20.7846 445.887 20.6948C445.34 20.7127 444.786 20.7228 444.245 20.7529C443.851 20.7751 443.623 20.7249 443.355 20.6839C443.262 20.6702 443.181 20.6473 443.081 20.6414C442.981 20.6354 442.86 20.6479 442.754 20.6527C442.313 20.6703 441.859 20.6788 441.431 20.7072C440.904 20.7434 440.702 20.6179 440.294 20.6032C440.022 20.6789 439.876 20.782 439.335 20.7906C438.894 20.7975 438.453 20.8229 438.013 20.8405C437.792 20.8486 437.572 20.8582 437.352 20.8662C436.998 20.8807 436.831 20.9408 436.906 21.0328C436.947 21.0834 436.981 21.134 437.015 21.1846C437.083 21.275 436.917 21.3521 436.636 21.3633C435.861 21.3938 435.094 21.4258 434.319 21.4533C434.112 21.4613 433.911 21.4356 433.744 21.3944C433.569 21.3533 433.376 21.3352 433.162 21.3432C432.387 21.3737 431.619 21.4058 430.845 21.4332C430.758 21.4364 430.644 21.4213 430.557 21.4092C430.37 21.3818 430.189 21.3499 430.008 21.3211C429.568 21.3357 429.133 21.3456 428.699 21.3648C427.998 21.3936 427.998 21.3952 427.483 21.3116C427.389 21.2964 427.295 21.2675 427.209 21.2691C426.875 21.2759 426.547 21.2918 426.214 21.3062C425.232 21.3478 425.232 21.3478 424.944 21.3022C424.683 21.2597 424.449 21.2079 424.055 21.2332C423.627 21.2615 423.173 21.2715 422.733 21.2876C422.405 21.299 422.078 21.3118 421.751 21.3154C421.664 21.3171 421.57 21.2881 421.476 21.2729C421.209 21.2258 420.948 21.1879 420.58 21.2146C420.367 21.2303 420.14 21.2338 419.919 21.2419C419.345 21.2644 419.345 21.2643 418.402 21.1739C418.308 21.1648 418.195 21.1543 418.101 21.1591C417.327 21.188 416.559 21.2201 415.784 21.2475C415.691 21.2507 415.577 21.2417 415.483 21.2342C414.427 21.147 414.427 21.147 413.305 21.1919C412.878 21.208 412.864 21.2142 412.416 21.1336C412.215 21.0987 412.048 21.0821 411.814 21.0932C410.933 21.1316 410.044 21.1577 409.17 21.2022C408.776 21.2213 408.548 21.1756 408.28 21.1346C408.187 21.121 408.086 21.0905 408.006 21.0922C407.125 21.1228 406.243 21.1597 405.362 21.1904C405.281 21.1936 405.181 21.1631 405.087 21.1494C404.906 21.1221 404.732 21.0809 404.532 21.0721C404.324 21.0632 404.098 21.0866 403.871 21.0947C403.316 21.1156 403.316 21.1141 402.674 21.0247C402.587 21.0125 402.473 20.9958 402.386 20.999C401.505 21.0313 400.617 21.0589 399.742 21.105C399.241 21.1304 398.9 21.0865 398.545 21.0226C398.472 21.0089 398.345 21.003 398.251 21.0062C397.256 21.0433 396.268 21.0849 395.273 21.1219C395.066 21.1299 394.865 21.1042 394.698 21.0646C394.43 21.0021 394.116 21.0103 393.782 21.0247C393.014 21.0583 393.007 21.0568 392.552 20.9839C392.458 20.9687 392.378 20.9489 392.278 20.9414C392.184 20.9339 392.064 20.9387 391.964 20.9419C391.523 20.958 391.082 20.9757 390.642 20.9933C390.201 21.011 389.753 21.021 389.319 21.0478C388.785 21.081 388.53 20.9816 388.156 20.9362C387.608 20.9571 387.047 20.9704 386.506 21.0036C386.092 21.0289 385.898 20.9616 385.624 20.9268C385.53 20.9147 385.429 20.8888 385.343 20.892C384.348 20.9275 383.353 20.9661 382.364 21.0092C382.124 21.0188 381.964 21.0068 381.763 20.9704C381.314 20.8882 381.294 20.8913 380.546 20.9233C380.219 20.9377 379.905 20.9506 379.624 20.8881C379.376 20.8317 379.075 20.8184 378.721 20.8375C378.287 20.8612 377.84 20.8743 377.399 20.8904C376.958 20.9081 376.518 20.9319 376.077 20.9403C375.723 20.9486 375.508 20.8768 375.227 20.8405C375.14 20.8299 375.02 20.8285 374.92 20.8318C374.479 20.8464 374.025 20.8579 373.598 20.8847C373.077 20.9179 372.789 20.834 372.421 20.7855C372.341 20.7749 372.207 20.7812 372.107 20.786C371.332 20.815 370.564 20.847 369.79 20.8775C369.515 20.8366 369.234 20.7972 368.96 20.7562C368.519 20.7723 368.078 20.7899 367.638 20.8061C367.304 20.8189 366.963 20.8241 366.649 20.8477C366.242 20.8791 366.041 20.8073 365.767 20.7725C365.673 20.7603 365.572 20.7344 365.486 20.7376C364.931 20.7555 364.377 20.7749 363.83 20.8019C363.309 20.8289 363.1 20.6911 362.673 20.6934C362.232 20.6957 361.778 20.7164 361.35 20.7448C360.856 20.7779 360.508 20.7294 360.154 20.664C360.08 20.6503 359.953 20.6428 359.859 20.6461C359.305 20.6655 358.758 20.6894 358.203 20.7088C358.11 20.7121 357.996 20.7046 357.903 20.6955C356.846 20.6068 356.846 20.6053 356.385 20.6245C356.058 20.6373 355.724 20.6533 355.39 20.6615C355.297 20.6648 355.183 20.6511 355.096 20.639C354.4 20.5466 354.4 20.545 353.899 20.5643C353.458 20.582 353.018 20.5996 352.577 20.6173C352.303 20.5763 352.021 20.5369 351.747 20.4959C351.2 20.5168 350.639 20.5331 350.098 20.5617C349.844 20.5744 349.677 20.5701 349.483 20.5321C349.242 20.4864 349.001 20.4331 348.6 20.4599C348.173 20.4883 347.719 20.4922 347.285 20.5159C346.764 20.5445 346.548 20.4052 346.128 20.4074C345.687 20.4097 345.233 20.4305 344.805 20.4588C344.311 20.4919 343.963 20.4434 343.609 20.378C343.535 20.3643 343.408 20.3569 343.314 20.3601C342.099 20.4067 340.891 20.4533 339.675 20.503C338.927 20.5335 338.927 20.535 337.503 20.4531C337.403 20.4471 337.296 20.4412 337.196 20.4444C336.755 20.459 336.301 20.4705 335.874 20.4974C335.353 20.5305 335.065 20.4481 334.697 20.3981C334.616 20.3875 334.49 20.3938 334.383 20.3971C334.049 20.4084 333.722 20.4228 333.388 20.4357C332.947 20.4533 332.506 20.471 332.066 20.4886C331.791 20.4492 331.51 20.4082 331.236 20.3688C330.688 20.3897 330.127 20.4014 329.586 20.4346C329.173 20.4599 328.978 20.3957 328.704 20.3594C328.61 20.3472 328.51 20.3213 328.423 20.323C327.428 20.3585 326.433 20.3955 325.445 20.4402C325.037 20.4594 324.849 20.3906 324.575 20.3558C324.481 20.3452 324.374 20.3254 324.287 20.3286C323.626 20.3513 322.965 20.3785 322.304 20.4058C321.93 20.4218 321.93 20.4218 321.114 20.328C321.02 20.3174 320.913 20.3069 320.82 20.3101C318.723 20.3905 316.633 20.4755 314.536 20.5559C314.323 20.5639 314.129 20.5412 313.961 20.5001C313.787 20.4589 313.593 20.4378 313.379 20.4458C312.498 20.4796 311.61 20.5103 310.735 20.5517C310.374 20.5692 310.087 20.5498 309.839 20.4965C309.651 20.4569 309.478 20.4418 309.244 20.4515C308.803 20.4706 308.363 20.4868 307.922 20.5044C307.481 20.5221 307.04 20.5397 306.6 20.5574C306.159 20.575 305.712 20.585 305.278 20.6119C304.744 20.645 304.482 20.5503 304.114 20.5034C303.453 20.5275 302.792 20.5517 302.137 20.5774C301.256 20.6112 300.374 20.648 299.493 20.6802C299.413 20.6834 299.312 20.656 299.219 20.6423C298.944 20.6044 298.743 20.551 298.336 20.5686C296.359 20.6534 294.369 20.726 292.386 20.8092C291.972 20.8268 291.791 20.7611 291.51 20.7263C291.416 20.7157 291.309 20.6944 291.222 20.6977C290.121 20.7379 289.019 20.7828 287.917 20.8262C287.47 20.8438 287.47 20.8438 286.72 20.75C286.633 20.7394 286.519 20.7258 286.426 20.729C284.99 20.7837 283.561 20.8414 282.126 20.8976C281.912 20.9057 281.718 20.8845 281.544 20.8434C281.376 20.8022 281.176 20.7796 280.969 20.7876C279.646 20.839 278.318 20.8889 277.002 20.9449C276.648 20.9609 276.354 20.9476 276.1 20.8928C275.919 20.8532 275.738 20.8366 275.511 20.8462C273.528 20.9248 271.545 21.0004 269.562 21.0837C269.181 21.0997 268.913 21.071 268.672 21.0208C268.478 20.9812 268.311 20.9738 268.07 20.9804C267.817 20.9885 267.663 21.0056 267.524 21.0519C267.344 21.1121 267.231 21.1875 266.804 21.1929C266.363 21.1982 265.916 21.2174 265.482 21.2443C265.068 21.2711 264.873 21.2024 264.612 21.1614C264.418 21.1325 264.238 21.1282 263.991 21.1425C263.764 21.1552 263.624 21.1815 263.491 21.2308C263.198 21.3357 263.171 21.3358 262.81 21.2704C262.615 21.2354 262.441 21.2081 262.228 21.2146C261.346 21.2469 260.465 21.2822 259.583 21.319C259.076 21.3398 259.069 21.3429 258.688 21.2668C258.5 21.2288 258.319 21.2107 258.099 21.2202C255.675 21.3166 253.251 21.4098 250.827 21.5107C250.454 21.5267 250.199 21.4949 249.931 21.4493C249.844 21.4341 249.757 21.4128 249.657 21.4068C249.557 21.4009 249.443 21.4072 249.336 21.4105C247.574 21.4795 245.804 21.5455 244.048 21.6223C243.647 21.6399 243.433 21.5911 243.159 21.5517C243.065 21.538 242.984 21.5167 242.884 21.5107C242.784 21.5063 242.664 21.5172 242.557 21.522C240.794 21.5911 239.024 21.6571 237.268 21.7338C236.848 21.7514 236.666 21.6873 236.392 21.654C236.298 21.6419 236.198 21.619 236.111 21.6222C235.557 21.6401 235.009 21.664 234.455 21.685C233.133 21.7379 231.811 21.7878 230.489 21.8423C229.981 21.8631 229.759 21.7269 229.332 21.7338C228.777 21.7424 228.23 21.7741 227.675 21.7965C227.235 21.8142 226.794 21.8303 226.353 21.8495C225.919 21.8671 225.919 21.8671 224.836 21.7799C224.742 21.7724 224.629 21.7619 224.535 21.7651C222.993 21.8246 221.444 21.8841 219.908 21.9482C219.554 21.9626 219.26 21.9554 219.005 21.8991C218.824 21.8595 218.637 21.8398 218.417 21.8494C216.1 21.9409 213.789 22.0325 211.472 22.1224C211.385 22.1257 211.272 22.1105 211.185 22.0984C210.997 22.0711 210.816 22.0392 210.636 22.0103C210.502 22.0458 210.329 22.0784 210.243 22.1184C210.123 22.1724 209.963 22.188 209.709 22.1976C209.456 22.2073 209.295 22.2045 209.094 22.1649C208.853 22.1162 208.606 22.0783 208.212 22.0943C205.788 22.1952 203.364 22.287 200.94 22.3863C200.539 22.4024 200.351 22.3351 200.07 22.3003C199.977 22.2897 199.87 22.2731 199.783 22.2763C198.788 22.3133 197.799 22.3534 196.805 22.392C194.047 22.5011 191.289 22.6057 188.538 22.721C188.037 22.7418 187.696 22.704 187.341 22.6387C187.267 22.625 187.14 22.6175 187.047 22.6207C183.187 22.7717 179.328 22.9243 175.475 23.0768C175.268 23.0848 175.067 23.0606 174.899 23.021C174.725 22.9798 174.531 22.9602 174.318 22.9683C172.555 23.0373 170.792 23.1064 169.029 23.177C168.588 23.1947 168.582 23.1962 168.127 23.1233C168.033 23.1081 167.932 23.0791 167.859 23.0823C167.705 23.0903 167.559 23.1289 167.452 23.1813C167.346 23.2367 167.179 23.2524 166.932 23.2635C166.679 23.2747 166.512 23.2704 166.317 23.2339C166.07 23.1883 165.842 23.1442 165.441 23.1602C160.373 23.3655 155.305 23.5631 150.237 23.7668C149.829 23.7829 149.642 23.7188 149.361 23.6839C149.267 23.6734 149.173 23.6582 149.073 23.6553C148.966 23.6524 148.853 23.6618 148.746 23.6666C140.479 23.9926 132.212 24.3201 123.946 24.646C123.451 24.6653 123.458 24.6653 122.919 24.8075C122.852 24.8245 122.765 24.8476 122.672 24.8509C120.141 24.9535 117.604 25.0531 115.066 25.1527C113.965 25.196 112.863 25.2409 111.761 25.2827C111.367 25.2972 111.367 25.2973 110.427 25.4647C110.347 25.4786 110.254 25.4972 110.16 25.5004C105.753 25.6754 101.346 25.8504 96.9321 26.0223C96.5849 26.0352 96.3047 26.0633 96.1452 26.1373C96.0323 26.1896 95.8857 26.2206 95.6654 26.2302C92.5804 26.3522 89.4955 26.4758 86.4037 26.5947C86.0365 26.6092 85.8165 26.6526 85.6369 26.7173C85.577 26.7389 85.5238 26.7636 85.4372 26.7791C85.3572 26.793 85.237 26.7978 85.1369 26.8026C82.4926 26.907 79.8484 27.0144 77.1974 27.1142C76.8034 27.1287 76.6436 27.1858 76.4506 27.246C76.3841 27.2661 76.3376 27.2938 76.2509 27.3077C76.1642 27.3202 76.0373 27.3204 75.9305 27.3237C73.7269 27.4104 71.5234 27.4986 69.3198 27.5853C68.8922 27.5784 68.7997 27.6676 68.5932 27.7217C68.52 27.7402 68.4669 27.7649 68.3802 27.7773C68.2869 27.7898 68.1664 27.7884 68.0529 27.7917C66.2901 27.8608 64.5273 27.9344 62.7577 27.9989C62.3503 28.0134 62.2711 28.0919 62.0513 28.146C61.978 28.163 61.9049 28.1892 61.8181 28.194C60.7164 28.2404 59.6146 28.2838 58.5128 28.3256C58.1456 28.34 58.1455 28.3385 57.4994 28.4916C57.4261 28.5086 57.3394 28.5272 57.2459 28.532C55.5966 28.5993 53.9406 28.6636 52.2846 28.7294C52.0709 28.7374 51.9244 28.7745 51.8182 28.8269C51.7119 28.8793 51.5587 28.9133 51.345 28.9214C50.0229 28.9743 48.7006 29.0288 47.3784 29.0771C47.0112 29.0901 46.7712 29.1289 46.6117 29.1982C46.4921 29.2506 46.3454 29.277 46.1117 29.2866C44.7896 29.338 43.4675 29.394 42.1386 29.4393C41.7513 29.4523 41.5514 29.5048 41.3919 29.5695C41.2656 29.622 41.1188 29.6406 40.8717 29.6503C38.4478 29.7435 36.0172 29.8368 33.6 29.9392C33.1927 29.9568 32.9849 29.9034 32.7172 29.8655C32.3358 29.8124 31.9811 29.7547 31.9797 29.635C31.9794 29.6166 31.8656 29.5953 31.7852 29.5801C31.1893 29.466 31.1892 29.466 31.0942 29.3433C31.0398 29.2682 30.9788 29.1916 30.9311 29.1149C30.8427 28.9892 30.6285 28.9573 30.0141 28.9814C29.7938 28.9895 29.5734 29.0006 29.3531 29.0071C29.0258 29.0184 28.7781 28.9682 28.7168 28.8762C28.6828 28.8256 28.6422 28.775 28.6082 28.7244C28.942 28.7115 28.9352 28.71 29.5209 28.5233C29.7671 28.4446 29.7672 28.4445 29.2919 28.3671C29.1112 28.3382 28.9371 28.3063 28.743 28.279C28.656 28.2669 28.5424 28.2594 28.4489 28.2626C27.8946 28.282 27.3471 28.3044 26.7995 28.3269C25.9181 28.3622 25.918 28.3622 25.0209 28.2072C24.9473 28.195 24.8334 28.1722 24.8466 28.1599C24.9194 28.103 25.0995 28.0781 25.3266 28.0715C25.6605 28.0617 25.9876 28.0458 26.3148 28.033C26.5352 28.0249 26.7555 28.0153 26.9759 28.0073C27.1823 27.9486 27.3955 27.8914 27.5885 27.8312C27.8947 27.7386 27.8945 27.7355 27.4728 27.6718C27.2051 27.6292 26.9174 27.5914 26.643 27.5519C26.3158 27.5648 25.9819 27.5792 25.6547 27.5905C25.2407 27.605 25.0733 27.5761 24.9652 27.4766C24.8706 27.3892 24.9833 27.3138 25.3037 27.2948C25.6308 27.2758 25.9381 27.263 26.1042 27.1845C26.2636 27.109 26.5438 27.0793 26.8911 27.0726C27.1115 27.0676 27.3318 27.0565 27.5522 27.0469C27.8393 27.0341 27.992 26.9555 27.9308 26.8681C27.8967 26.8114 27.8293 26.7639 27.5686 26.7521C26.4122 26.7004 26.3988 26.7019 25.823 26.5985C25.7695 26.5894 25.7291 26.5619 25.749 26.548C25.7821 26.5249 25.8552 26.491 25.9353 26.4863C26.7032 26.4512 27.4711 26.4191 28.239 26.3948C28.4928 26.3867 28.6798 26.3756 28.7659 26.3186C28.8852 26.2401 28.8309 26.1681 28.5964 26.1148C28.5227 26.098 28.4021 26.0767 28.322 26.0784C27.4405 26.1076 26.5658 26.1444 25.6843 26.1736C25.6041 26.1768 25.4569 26.1509 25.4233 26.131C25.356 26.0943 25.4556 26.045 25.6892 26.0277C25.9962 26.0042 26.3102 26.0021 26.5163 25.925C26.8023 25.8155 27.1551 25.7151 27.4745 25.6102C27.5277 25.5916 27.6142 25.5562 27.5942 25.5531C27.4267 25.5196 27.2326 25.4939 27.0586 25.462C26.764 25.4087 26.763 25.3335 26.8289 25.2613C26.8816 25.2028 27.0818 25.1795 27.329 25.179C27.4358 25.1789 27.5695 25.1786 27.6561 25.1647C27.8829 25.1305 27.9558 25.0874 27.8419 25.0553C27.7749 25.037 27.6543 25.0112 27.5742 25.0144C26.1452 25.0675 24.7094 25.1191 23.2872 25.1845C22.8665 25.2037 22.6722 25.1457 22.4178 25.1047C22.2237 25.0728 22.0431 25.0608 21.8028 25.0842C21.576 25.1061 21.3554 25.0942 21.2145 25.0438C21.1005 25.0026 21.3004 24.9669 21.841 24.9261C21.9412 24.9182 22.0546 24.9134 22.1279 24.8979C22.9009 24.7308 22.9008 24.7293 23.435 24.7068C23.9558 24.686 23.9559 24.6845 24.2288 24.595C24.3552 24.5533 24.4949 24.5116 24.6146 24.4684C24.6611 24.4514 24.741 24.4206 24.7142 24.4114C24.5666 24.3641 24.366 24.3537 24.1323 24.3649C23.6116 24.3919 22.9968 24.3714 22.7247 24.5177C22.6184 24.5732 22.4516 24.5888 22.2112 24.5985C19.7939 24.6917 17.3766 24.7911 14.9527 24.8812C14.5587 24.8957 14.3791 24.9528 14.2262 25.016C14.0932 25.0685 13.9464 25.0841 13.6927 25.0937C13.4389 25.1034 13.2385 25.1083 13.0909 25.0579C13.0036 25.0274 13.0766 24.9843 13.2765 24.9409C13.563 24.879 13.5086 24.8024 13.4142 24.7304C13.3468 24.6829 13.1393 24.6495 12.9189 24.653C12.5916 24.6597 12.2779 24.6771 12.0033 24.6162C11.8425 24.5811 11.6418 24.5569 11.461 24.5265C11.1129 24.4642 10.7647 24.4003 10.2775 24.4426C9.94328 24.4278 9.70879 24.373 9.44105 24.3305C8.99259 24.2606 8.95237 24.25 9.27212 24.1742C9.63185 24.0891 9.34986 23.9791 9.54927 23.8958C9.76196 23.8064 10.0551 23.7277 10.3146 23.6443C10.3811 23.6227 10.441 23.6026 10.5076 23.581C10.3536 23.5506 10.2128 23.5125 10.0322 23.4913C9.79803 23.4641 9.67736 23.4305 9.68956 23.3353C9.64263 23.3216 9.66296 23.3568 9.71652 23.366C9.77676 23.3751 9.92375 23.3671 9.9971 23.3563C10.1838 23.3268 10.2768 23.2882 10.2296 23.2561C10.2027 23.2392 10.0756 23.218 9.99542 23.2181C9.84845 23.2184 9.72195 23.2524 9.68287 23.3353C8.93542 23.3996 8.16072 23.4316 7.38607 23.4575C7.30595 23.4607 7.20542 23.4302 7.11171 23.415C6.80377 23.3633 6.80374 23.3649 5.90168 23.3511C5.80813 23.3497 5.68101 23.3285 5.63398 23.307C5.4391 23.2137 5.44458 23.1109 5.34984 23.0113C5.52275 22.9465 5.69554 22.8832 5.87515 22.82C6.23435 22.692 6.70073 22.5791 6.97961 22.4389C6.91857 22.3638 6.83747 22.2887 7.13067 22.2268C7.9648 22.1486 7.95817 22.1486 8.18442 22.0746C8.82989 21.8647 9.46862 21.6532 10.1409 21.4464C10.3206 21.3923 10.3202 21.3632 9.99929 21.3407C9.89901 21.3347 9.79196 21.3334 9.68511 21.3366C9.35121 21.348 9.01753 21.3762 8.6901 21.3706C8.3627 21.3666 8.12138 21.2994 7.85365 21.2584C7.57922 21.2159 7.30479 21.1719 7.03034 21.1279C6.71641 21.133 6.40301 21.1765 6.08818 21.108C5.84703 21.0547 5.54595 21.0168 5.27151 20.9728C5.47718 20.8558 5.86363 20.7661 6.163 20.6627C6.43577 20.5686 6.44231 20.5701 7.1763 20.4967C7.52328 20.4623 7.64142 20.2886 7.34686 20.2385C6.99204 20.1777 6.61731 20.1216 6.25585 20.0638C5.94192 20.069 5.62182 20.111 5.32036 20.0425C5.0859 19.9907 4.8182 19.9558 4.43097 19.9764C3.77668 20.0114 3.10885 20.0294 2.44781 20.0582C2.22079 20.0678 1.97346 20.0621 1.87261 20.0101C1.80536 19.9733 1.99849 19.9223 2.21882 19.9112C2.55266 19.8953 2.85303 19.8763 3.01911 19.7993C3.17851 19.7223 3.47214 19.6987 3.8194 19.6874C3.91289 19.6841 4.01963 19.6655 4.06617 19.647C4.30559 19.5576 4.57189 19.4804 5.08633 19.4826C5.29974 19.4515 5.41277 19.4129 5.34551 19.3762C5.30519 19.3563 5.16465 19.3304 5.08452 19.3337C4.53022 19.35 3.97594 19.3663 3.43515 19.3949C3.18144 19.4076 2.98763 19.411 2.82674 19.3652C2.7128 19.3347 2.77241 19.2931 2.98565 19.2483C3.17223 19.2096 3.2252 19.1649 3.2112 19.1128C3.17632 18.9916 2.97543 18.9566 2.33419 18.9654C1.87331 18.9723 1.75949 18.9526 1.65801 18.8484C1.63099 18.8239 1.56389 18.7902 1.61044 18.7732C1.89644 18.6683 2.08193 18.5391 2.62246 18.489C2.83602 18.4702 3.06306 18.4698 3.19619 18.4297C3.32931 18.3896 3.44906 18.3433 3.58889 18.3047C3.76202 18.2583 3.88163 18.2151 3.80111 18.1861C3.66686 18.1341 3.4531 18.1299 3.20614 18.1488C2.99255 18.1645 2.76544 18.1664 2.54509 18.176C2.15114 18.1936 1.83006 18.1542 1.78247 18.0868C1.65337 17.9089 1.51757 17.7326 1.40183 17.5547C1.38821 17.5333 1.42118 17.5056 1.4744 17.4871C1.66067 17.4223 1.86042 17.3605 2.05339 17.2972C2.27965 17.2247 2.64063 17.2379 2.94777 17.2235C3.38176 17.2028 3.38163 17.2044 3.96104 17.056C4.18747 16.9973 4.58193 17.0196 4.81511 16.967C4.88839 16.95 5.00162 16.9222 4.98139 16.9069C4.95443 16.8869 4.8207 16.8718 4.72038 16.8628C4.62674 16.8537 4.51314 16.8493 4.41299 16.8541C3.19767 16.9007 1.9891 16.9504 0.773759 16.9955C0.566755 17.0036 0.339198 16.9702 0.265132 16.9227C0.191104 16.8783 0.210425 16.8246 0.196447 16.7739C0.389417 16.7107 0.60908 16.6519 0.775271 16.5841C0.901566 16.5317 1.04828 16.5084 1.30211 16.5049C1.63608 16.4997 1.96324 16.4807 2.33718 16.4663C3.02923 16.2409 3.70774 16.0049 4.45323 15.7795C4.75275 15.6884 4.67826 15.5964 4.73721 15.4996C4.79625 15.4105 5.24399 15.4235 5.5443 15.3969C5.78454 15.375 5.864 15.3257 5.77006 15.2921C5.71637 15.2722 5.59591 15.2494 5.50238 15.2496C5.28192 15.25 5.06164 15.2642 4.84127 15.2722C4.62091 15.2803 4.367 15.2761 4.18694 15.3025C4.01355 15.3274 3.90055 15.3798 3.78752 15.4245C3.66119 15.4738 3.4945 15.491 3.24068 15.4945C2.91337 15.4982 2.58621 15.5125 2.25899 15.5239C1.89751 15.4646 1.52261 15.4069 1.17445 15.3446C1.1075 15.3324 1.09363 15.2972 1.10003 15.2741C1.11267 15.2142 1.01203 15.1776 0.79122 15.1488C0.603865 15.1245 0.449769 15.0895 0.2757 15.0591C0.408807 15.0174 0.555345 14.9773 0.661692 14.9325C0.894371 14.8385 1.18753 14.7705 1.69529 14.7727C1.89497 14.7124 2.05436 14.6385 2.3144 14.5966C2.56109 14.5562 2.98248 14.5954 3.16843 14.5045C3.26141 14.4598 3.40117 14.4089 3.58132 14.3902C3.86823 14.3605 4.24252 14.3753 4.40849 14.289C4.5081 14.2397 4.65447 14.1949 4.84805 14.1823C5.06834 14.1681 5.29539 14.1647 5.45537 14.1352C5.54203 14.1197 5.63527 14.095 5.63501 14.0735C5.63484 14.0597 5.50107 14.0384 5.40743 14.0294C5.32045 14.0188 5.20666 14.0113 5.10649 14.0145C4.77257 14.0243 4.44543 14.0418 4.11152 14.0516C4.01803 14.0548 3.91104 14.0442 3.81072 14.0352C3.51648 14.0112 3.5361 13.9804 3.76925 13.9248C4.00242 13.8706 4.16868 13.8012 4.36165 13.738C4.5753 13.7269 4.84254 13.731 4.98915 13.7016C5.23575 13.6536 5.40856 13.5842 5.60825 13.524C5.8286 13.5144 6.05568 13.5109 6.26258 13.4937C6.34935 13.4874 6.38905 13.4535 6.4623 13.4335C6.59544 13.3948 6.70843 13.3394 6.88858 13.3207C7.18219 13.2925 7.54306 13.3026 7.71573 13.2179C7.81534 13.1686 7.9683 13.1162 8.15531 13.1128C8.67632 13.1057 8.89576 13.0209 9.16201 12.9406C9.3617 12.8804 9.78964 12.9104 10.0094 12.8501C10.1559 12.8115 10.2623 12.7637 10.4088 12.7266C10.4687 12.7111 10.5955 12.7033 10.6957 12.6985C11.2432 12.6745 11.7974 12.6567 12.3449 12.6311C12.4317 12.6264 12.5117 12.6032 12.5783 12.5847C12.7181 12.5445 12.8042 12.4891 12.9775 12.4627C13.1509 12.4363 13.3981 12.4359 13.6117 12.4279C14.2996 12.4036 14.3531 12.4097 14.6655 12.2786C14.9181 12.1723 15.5404 12.2464 15.7461 12.1294C15.8655 12.0617 16.0852 12.006 16.4792 11.9977C17.0336 11.9859 17.581 11.9558 18.1353 11.9349C18.6294 11.9156 18.6228 11.9156 19.1555 11.772C19.3952 11.7071 19.7494 11.7157 20.0633 11.7028C20.3971 11.69 20.7042 11.671 20.8636 11.594C21.023 11.5185 21.3166 11.4934 21.6572 11.4821C21.971 11.4708 22.3253 11.4779 22.5717 11.416C23.1712 11.2676 23.1645 11.2661 23.5852 11.25C24.2463 11.2243 24.9073 11.1986 25.5684 11.1714C26.0091 11.1537 26.47 11.1498 26.8838 11.1153C27.1841 11.0903 27.3166 11.0041 27.5096 10.9439C28.0572 10.9199 28.6047 10.8959 29.1522 10.8735C29.9201 10.8414 30.6947 10.8125 31.4693 10.782C31.8026 10.723 31.8479 10.594 32.409 10.5869C32.743 10.5833 33.0701 10.5627 33.4039 10.5499C33.9582 10.5274 34.5056 10.4988 35.06 10.4871C35.4808 10.4787 35.5531 10.3957 35.7729 10.3431C35.8462 10.3246 35.9128 10.2984 35.9995 10.2936C36.8675 10.2491 37.7625 10.2384 38.6102 10.1739C38.697 10.1677 38.7767 10.1353 38.7965 10.1122C38.8097 10.0999 38.6959 10.0771 38.6222 10.0665C38.5352 10.0543 38.4216 10.0423 38.3281 10.0455C35.5703 10.1531 32.8125 10.2623 30.0547 10.3699C29.6674 10.386 29.6674 10.3844 28.7275 10.5549C28.6475 10.5689 28.5541 10.5844 28.4539 10.5892C28.0132 10.6083 27.5658 10.6199 27.1318 10.6437C26.778 10.6627 26.4839 10.6448 26.2294 10.5899C26.0485 10.5503 25.8612 10.5384 25.6341 10.5419C25.3803 10.5469 25.2136 10.5641 25.0671 10.6058C24.8741 10.6629 24.7747 10.7368 24.3674 10.7528C22.491 10.8221 20.6145 10.899 18.7448 10.9729C18.484 10.9519 18.3567 10.9198 18.423 10.8813C18.4628 10.8583 18.5427 10.8274 18.6228 10.8242C19.3907 10.7906 20.1653 10.7617 20.9331 10.7296C21.04 10.7248 21.187 10.7276 21.2469 10.7122C21.54 10.6426 21.6456 10.5304 22.2 10.5217C22.5207 10.5166 22.8477 10.493 23.1547 10.4709C23.2415 10.4647 23.3213 10.4323 23.341 10.4092C23.3476 10.3969 23.2404 10.3741 23.1601 10.3635C22.8656 10.3195 22.5256 10.3738 22.2313 10.3436C22.131 10.333 21.9904 10.3179 21.9701 10.2995C21.9566 10.2827 22.0698 10.2548 22.1498 10.2378C22.2231 10.2223 22.3231 10.2084 22.4232 10.2036C23.3046 10.1667 24.1861 10.1284 25.0676 10.0992C25.4282 10.0878 25.6816 10.049 25.8411 9.97812C25.9607 9.92572 26.1073 9.89784 26.3343 9.88977C27.8769 9.83029 29.4193 9.76468 30.9685 9.7098C31.3558 9.69685 31.5557 9.64585 31.7153 9.57956C31.8416 9.52715 31.9883 9.50847 32.2354 9.49883C34.4457 9.41517 36.6424 9.32233 38.8528 9.24174C39.2601 9.22722 39.3796 9.161 39.586 9.10384C39.6593 9.08376 39.7056 9.05912 39.799 9.04667C39.8924 9.03423 40.0126 9.03554 40.1262 9.03228C41.889 8.96321 43.652 8.88955 45.4216 8.82507C45.8356 8.81054 45.9147 8.73364 46.1278 8.67954C46.2011 8.66253 46.2676 8.63479 46.3544 8.63003C47.6765 8.57555 48.9987 8.52413 50.3208 8.47118C51.2022 8.43588 52.0836 8.40057 52.9651 8.3668C53.3991 8.3507 53.3991 8.34916 53.9852 8.20231C54.0518 8.1853 54.1452 8.16518 54.232 8.16043C56.7694 8.05778 59.3001 7.95977 61.8375 7.85865C62.0512 7.85061 62.2044 7.81501 62.3107 7.76264C62.4169 7.71026 62.5703 7.67469 62.7773 7.66665C64.7605 7.58646 66.7436 7.5078 68.7336 7.4322C69.0942 7.41929 69.3475 7.38201 69.507 7.31265C69.6266 7.26025 69.7733 7.23238 70.0003 7.22431C71.9835 7.14718 73.9668 7.06544 75.9568 6.99137C76.3374 6.97689 76.5237 6.92438 76.71 6.86266C76.7766 6.84105 76.8296 6.80565 76.9098 6.80244C77.898 6.75774 78.8794 6.71152 79.8745 6.68063C80.2885 6.66763 80.4281 6.60291 80.5943 6.54122C80.7274 6.49186 80.8808 6.47472 81.1346 6.46814C81.689 6.45336 82.2364 6.42632 82.7772 6.39929C82.8573 6.39454 82.9571 6.3606 82.9636 6.33909C82.9764 6.29916 82.8224 6.27179 82.5684 6.25841C79.9241 6.36278 77.2732 6.46716 74.6289 6.57153C74.1949 6.58917 74.1948 6.58917 73.6087 6.73602C73.5421 6.75303 73.4488 6.77315 73.3553 6.77792C70.8178 6.87903 68.2871 6.9786 65.7497 7.07971C65.536 7.08776 65.3828 7.12333 65.2766 7.17571C65.1703 7.22808 65.017 7.26365 64.81 7.27169C62.386 7.368 59.9622 7.46585 57.5315 7.55757C57.1709 7.57048 56.9176 7.60621 56.7581 7.6771C56.6385 7.7295 56.4919 7.75739 56.2648 7.76546C53.9477 7.85545 51.6372 7.95002 49.3134 8.03695C49.0797 8.04503 48.9055 8.00081 48.9184 7.95934C48.9248 7.93784 49.0245 7.90238 49.1046 7.89917C50.3131 7.84641 51.5151 7.79213 52.7305 7.75164C53.1379 7.73865 53.2572 7.6709 53.4636 7.61374C53.5302 7.59367 53.5833 7.56748 53.6701 7.55659C53.7634 7.54414 53.8837 7.54548 53.9972 7.54221C56.8619 7.42825 59.7266 7.31275 62.598 7.20492C63.012 7.18885 63.0911 7.11348 63.3042 7.05939C63.3775 7.04084 63.444 7.0131 63.5308 7.00988C64.4122 6.97151 65.2936 6.93774 66.1751 6.90397C67.7176 6.84296 69.26 6.78195 70.8092 6.72093C71.2566 6.70326 71.2566 6.70326 71.8294 6.55796C71.896 6.54096 71.9893 6.51933 72.0761 6.5161C76.1561 6.35398 80.2361 6.19185 84.316 6.03127C84.5297 6.02322 84.6829 5.98765 84.7892 5.93527C84.8954 5.88443 85.0486 5.84732 85.2556 5.83775C90.7712 5.61941 96.2801 5.40107 101.796 5.18579C102.156 5.17135 102.41 5.13867 102.569 5.06625C102.682 5.01386 102.835 4.98597 103.062 4.97636C109.126 4.73711 115.189 4.49787 121.259 4.25707C125.339 4.09648 129.419 3.93282 133.499 3.77531C133.873 3.76084 134.072 3.7129 134.259 3.64964C134.318 3.62804 134.378 3.59263 134.458 3.58942C135.333 3.54952 136.208 3.5127 137.082 3.47588C137.357 3.51685 137.631 3.55629 137.906 3.59727C138.112 3.53857 138.312 3.47836 138.518 3.41966C139.84 3.37285 141.142 3.30151 142.478 3.2777C142.565 3.27602 142.659 3.30503 142.752 3.32021C143.375 3.41584 143.729 3.40755 144.121 3.27793C144.261 3.23163 144.381 3.18998 144.595 3.18193C145.256 3.15315 145.924 3.13357 146.578 3.1002C146.932 3.0827 147.226 3.09753 147.48 3.15236C147.661 3.19195 147.849 3.20852 148.069 3.19893C149.284 3.15077 150.493 3.10415 151.708 3.05292C151.795 3.0497 151.875 3.02345 151.941 3.00492C152.081 2.96476 152.201 2.92158 152.334 2.8799C152.515 2.90569 152.715 2.9253 152.863 2.95881C153.05 2.9984 153.224 2.99809 153.478 2.9869C158.325 2.79275 163.18 2.60318 168.028 2.40749C168.442 2.39142 168.623 2.45559 168.904 2.48887C168.998 2.50099 169.091 2.51617 169.192 2.51907C169.299 2.52195 169.412 2.51255 169.519 2.50776C173.158 2.36329 176.797 2.22034 180.437 2.07587C180.917 2.05661 180.917 2.05661 181.633 2.15054C181.72 2.16267 181.834 2.1763 181.928 2.17153C183.584 2.10879 185.24 2.04144 186.889 1.97718C187.103 1.96913 187.283 1.99338 187.477 2.02835C187.859 2.09676 187.886 2.09672 188.165 1.99492C188.298 1.9471 188.438 1.91768 188.658 1.90348C188.899 1.88771 189.093 1.892 189.28 1.91931C189.548 1.95722 189.742 2.02134 190.149 2.00375C191.912 1.92854 193.682 1.86561 195.438 1.78888C195.839 1.7713 196.053 1.82312 196.321 1.86103C196.414 1.87468 196.501 1.89602 196.602 1.90045C196.702 1.90489 196.822 1.89392 196.929 1.88913C199.132 1.80241 201.343 1.71723 203.54 1.62438C203.954 1.60678 204.135 1.67246 204.416 1.70575C204.509 1.71786 204.617 1.73918 204.703 1.73596C206.025 1.68608 207.354 1.6331 208.677 1.58015C209.151 1.5609 209.151 1.56244 209.873 1.65483C209.96 1.66696 210.074 1.67904 210.168 1.67581C211.71 1.61633 213.259 1.55531 214.802 1.4943C215.276 1.47506 215.276 1.47506 216.646 1.55251C216.747 1.55847 216.854 1.56751 216.954 1.56427C218.717 1.4952 220.486 1.42765 222.249 1.35397C222.603 1.33954 222.897 1.35131 223.151 1.40613C223.332 1.44573 223.52 1.4623 223.74 1.45271C225.723 1.37405 227.713 1.29845 229.69 1.21519C230.07 1.19918 230.318 1.23251 230.585 1.27656C230.672 1.29176 230.76 1.31311 230.86 1.31907C230.96 1.32504 231.074 1.3187 231.181 1.31391C233.164 1.23525 235.154 1.16118 237.13 1.07639C237.531 1.05881 237.745 1.11063 238.013 1.14854C238.107 1.1622 238.207 1.18965 238.287 1.18798C239.062 1.16054 239.837 1.13618 240.604 1.09647C241.018 1.07426 241.2 1.14454 241.481 1.17783C241.574 1.18841 241.681 1.21126 241.768 1.20804C243.424 1.1453 245.08 1.07949 246.73 1.01216C246.963 1.00254 247.137 1.01604 247.325 1.05563C247.572 1.10893 247.86 1.12992 248.221 1.11241C248.988 1.07577 249.763 1.04987 250.538 1.01936C250.992 1.00169 250.992 1.00169 252.382 1.0791C252.483 1.08507 252.59 1.09409 252.69 1.09084C254.012 1.03943 255.341 0.989535 256.656 0.933525C257.01 0.91756 257.304 0.930861 257.559 0.985683C257.74 1.02528 257.92 1.04186 258.147 1.03226C259.362 0.984097 260.571 0.935943 261.786 0.887782C262.227 0.870131 262.668 0.840192 263.109 0.839427C263.429 0.840406 263.664 0.91368 263.952 0.950022C264.032 0.960629 264.165 0.948131 264.272 0.944875C265.815 0.883865 267.364 0.827443 268.9 0.75877C269.3 0.741189 269.515 0.793007 269.783 0.830919C269.876 0.844572 269.977 0.872031 270.057 0.870357C270.611 0.852509 271.159 0.82853 271.713 0.807613C272.374 0.781904 273.042 0.762324 273.696 0.727417C274.23 0.698858 274.432 0.832056 274.86 0.835919C275.187 0.839956 275.521 0.813285 275.848 0.800437C276.509 0.774728 277.17 0.745953 277.831 0.723314C278.065 0.715233 278.245 0.690348 278.318 0.634959C278.331 0.62419 278.217 0.601372 278.144 0.587684C277.253 0.43265 277.253 0.432643 276.359 0.467967C275.804 0.49042 275.257 0.512865 274.702 0.532248C274.609 0.53548 274.502 0.523386 274.408 0.514338C274.141 0.488706 274.167 0.457961 274.394 0.402305C274.62 0.346649 274.793 0.278812 274.986 0.215538C275.26 0.254974 275.528 0.294407 275.802 0.333844C276.023 0.325786 276.243 0.316206 276.464 0.308149C277.565 0.266324 278.667 0.222962 279.769 0.184208C279.849 0.180999 279.95 0.211531 280.043 0.226719C280.311 0.270772 280.552 0.30872 280.939 0.291162C281.928 0.24493 282.923 0.210967 283.911 0.170875C284.345 0.153235 284.345 0.153237 285.108 0.247089C285.195 0.257683 285.308 0.269768 285.402 0.266535C286.397 0.229502 287.385 0.189414 288.38 0.150845C288.594 0.142799 288.801 0.162395 288.955 0.206645C289.016 0.224961 289.003 0.255679 289.259 0.506988C290.05 0.709782 290.591 0.687362 291.139 0.667991C291.372 0.65991 291.579 0.651868 291.733 0.6209C291.813 0.603876 291.913 0.579137 291.912 0.559182C291.912 0.543831 291.765 0.519521 291.671 0.516613C291.01 0.487059 290.382 0.55263 289.735 0.56757C289.434 0.574232 289.173 0.520957 289.118 0.433551C289.105 0.409014 289.084 0.382954 289.064 0.358428C289.044 0.333902 289.03 0.307831 289.01 0.283304C288.749 0.276081 288.596 0.303974 288.483 0.356363C288.39 0.399507 288.257 0.448861 288.077 0.4722C287.896 0.497074 287.649 0.492906 287.429 0.500963C287.215 0.50901 286.982 0.529369 286.781 0.518971C286.581 0.507039 286.42 0.462793 286.232 0.435486C286.145 0.421822 286.038 0.402059 285.951 0.40528C285.183 0.432709 284.422 0.460116 283.661 0.495209C283.26 0.514325 283.059 0.450211 282.805 0.41074C282.604 0.380386 282.404 0.3884 282.371 0.45907C282.286 0.628077 282.594 0.698152 283.276 0.664734C283.836 0.636129 284.344 0.630657 284.786 0.734276C284.846 0.747987 284.987 0.753881 285.074 0.75066C285.621 0.731289 286.162 0.707322 286.71 0.687951C286.81 0.684707 286.917 0.690652 287.01 0.69663C288.374 0.777158 288.374 0.778701 288.835 0.75948C289.055 0.749888 289.269 0.741841 289.246 0.508547C289.664 0.257603 290.332 0.239561 290.979 0.201595C291.4 0.177839 291.581 0.245072 291.855 0.279903C291.949 0.292021 292.05 0.316403 292.137 0.313182C293.572 0.260033 295.001 0.203818 296.43 0.14454C296.67 0.134913 296.844 0.143823 297.032 0.18341C297.273 0.233649 297.541 0.265428 297.921 0.246347C298.682 0.208184 299.457 0.183819 300.231 0.151773C300.625 0.135739 300.625 0.135723 301.422 0.229517C301.509 0.240111 301.622 0.252195 301.716 0.248963C302.49 0.221522 303.258 0.187963 304.026 0.158998C304.24 0.150952 304.434 0.172105 304.601 0.213261C304.769 0.254418 304.97 0.275559 305.177 0.267524C305.951 0.238548 306.719 0.206524 307.487 0.17756C307.581 0.174327 307.694 0.184875 307.781 0.19547C308.597 0.289229 308.597 0.289213 308.971 0.273213C309.519 0.249237 310.08 0.23753 310.621 0.205889C311.148 0.174273 311.423 0.262823 311.784 0.311319C312.773 0.274297 313.768 0.243411 314.749 0.198725C315.15 0.179609 315.364 0.22989 315.632 0.269338C315.726 0.282991 315.82 0.311998 315.906 0.310312C316.24 0.303592 316.568 0.286141 316.895 0.273293C317.222 0.260445 317.556 0.247586 317.883 0.234738C318.258 0.278605 318.506 0.382558 319.04 0.346325C319.361 0.324277 319.701 0.319081 320.028 0.306232C320.356 0.293384 320.689 0.280525 321.017 0.267677C321.237 0.259619 321.464 0.254613 321.678 0.240427C322.072 0.216717 322.266 0.291607 322.547 0.324892C322.641 0.335475 322.748 0.353698 322.835 0.350477C323.496 0.327839 324.164 0.30826 324.811 0.27183C325.312 0.243329 325.653 0.288796 326.008 0.352653C326.082 0.366341 326.209 0.373796 326.302 0.370563C327.077 0.343123 327.845 0.309544 328.613 0.28058C328.82 0.272546 329.02 0.296758 329.188 0.336379C329.362 0.377524 329.556 0.397159 329.77 0.389113C330.538 0.360149 331.312 0.328094 332.08 0.29913C332.174 0.295897 332.288 0.307983 332.374 0.320113C333.124 0.413988 333.124 0.415524 333.565 0.396338C333.671 0.391548 333.785 0.388268 333.892 0.383478C334.439 0.361036 335.007 0.352386 335.541 0.314618C336.155 0.272105 336.603 0.323522 337.039 0.410267C337.586 0.390895 338.147 0.379174 338.681 0.347546C339.082 0.323824 339.296 0.381782 339.564 0.419695C339.658 0.433348 339.758 0.460805 339.838 0.457596C340.613 0.430155 341.388 0.405793 342.149 0.366095C342.563 0.343886 342.744 0.412637 343.025 0.447457C343.119 0.459575 343.219 0.480903 343.306 0.477682C343.747 0.464637 344.188 0.445442 344.628 0.427791C345.142 0.406942 345.142 0.408476 345.825 0.500932C346.146 0.544892 346.466 0.509028 346.78 0.497738C347.114 0.484878 347.428 0.475126 347.696 0.537599C347.863 0.577221 348.064 0.601434 348.271 0.594935C348.712 0.580354 349.159 0.565769 349.593 0.541989C349.941 0.522966 350.241 0.534718 350.496 0.591075C350.677 0.630673 350.864 0.650316 351.084 0.640723C352.073 0.602166 353.068 0.562048 354.056 0.525026C354.143 0.521805 354.263 0.535418 354.343 0.549094C354.531 0.5764 354.712 0.606782 354.892 0.63717C355.326 0.622601 355.774 0.615699 356.201 0.593467C356.655 0.571188 357.069 0.562791 357.424 0.646605C357.498 0.664898 357.605 0.690794 357.692 0.689109C358.026 0.682389 358.353 0.666475 358.68 0.653626C359.008 0.640778 359.341 0.627919 359.669 0.615071C360.05 0.652786 360.292 0.762891 360.826 0.726658C361.146 0.70461 361.487 0.699414 361.814 0.686565C362.141 0.673717 362.475 0.659323 362.802 0.64801C362.909 0.644754 363.029 0.636866 363.123 0.642844C363.223 0.64881 363.31 0.670155 363.397 0.685355C363.665 0.729408 363.913 0.7735 364.293 0.746744C364.614 0.724696 364.954 0.719499 365.282 0.705115C365.729 0.687453 365.729 0.687456 366.472 0.782877C366.773 0.822267 367.113 0.769486 367.401 0.802759C367.595 0.825449 367.762 0.863527 367.949 0.889298C368.03 0.899905 368.157 0.904283 368.25 0.90105C368.691 0.88647 369.138 0.871884 369.572 0.848105C369.926 0.82907 370.22 0.846978 370.468 0.901811C370.649 0.94141 370.83 0.957991 371.057 0.948387C372.158 0.903493 373.26 0.864726 374.355 0.815238C374.729 0.797704 375.03 0.823285 375.238 0.878187C375.593 0.972746 376.093 0.85982 376.461 0.935935C376.689 0.983128 376.917 1.038 377.331 1.01425C378.092 0.973021 378.867 0.950173 379.634 0.921209C379.909 0.962181 380.183 1.00316 380.464 1.04412C380.905 1.02647 381.346 1.00881 381.786 0.992693C382.114 0.979844 382.448 0.965451 382.775 0.954137C382.882 0.950882 382.995 0.944543 383.095 0.952044C383.196 0.959546 383.276 0.979367 383.37 0.994555C383.832 1.06897 383.832 1.07052 384.593 1.03849C384.92 1.02411 385.234 1.01435 385.509 1.07528C385.763 1.13164 386.064 1.14185 386.411 1.12437C387.065 1.09253 387.727 1.06836 388.394 1.04571C388.601 1.03767 388.795 1.06343 388.97 1.10304C389.231 1.16553 389.552 1.15883 389.879 1.14138C390.313 1.11913 390.74 1.09691 391.108 1.18223C391.182 1.20052 391.296 1.22641 391.376 1.22474C391.924 1.2115 392.478 1.20134 393.012 1.17124C393.546 1.14115 393.808 1.23587 394.176 1.28128C394.724 1.26038 395.278 1.23946 395.825 1.21855C395.932 1.21376 396.059 1.19973 396.153 1.20725C396.547 1.2388 396.776 1.35353 397.316 1.31728C397.63 1.29678 397.971 1.29006 398.298 1.28489C398.385 1.2832 398.499 1.30909 398.559 1.32894C398.593 1.33963 398.56 1.36885 398.52 1.38427C398.4 1.42746 398.254 1.46764 398.147 1.51234C398.134 1.5185 398.261 1.5459 398.335 1.55805C398.516 1.58537 398.723 1.58042 398.963 1.56772C399.17 1.55662 399.384 1.57773 399.531 1.62353C399.592 1.64185 399.572 1.67258 399.446 1.77411C399.447 1.84933 399.587 1.81531 399.633 1.76611C399.706 1.69537 399.565 1.67259 399.299 1.71143C399.112 1.73938 399.019 1.77946 399.066 1.81161C399.093 1.82845 399.22 1.84973 399.446 1.77411C400.033 1.68099 400.474 1.66335 400.915 1.6457C401.028 1.6409 401.162 1.6253 401.242 1.63437C401.53 1.67072 401.797 1.71478 402.078 1.75574C402.399 1.74597 402.699 1.72241 403.014 1.78173C403.456 1.8654 403.476 1.85769 403.903 1.84006C404.124 1.83047 404.344 1.82242 404.564 1.81437C404.785 1.80631 404.959 1.82903 405.153 1.864C405.548 1.93546 405.581 1.9354 405.841 1.8367C405.994 1.77657 406.1 1.75643 406.294 1.78373C406.937 1.87625 406.943 1.88237 407.491 1.85379C407.945 1.82998 408.372 1.8231 408.708 1.91002C408.935 1.97102 409.009 1.95708 409.188 1.8923C409.667 1.72107 409.888 1.72375 410.791 1.84499C411.213 1.90259 411.646 1.83891 412.074 1.83049C412.434 1.82373 412.689 1.86012 412.717 1.95678C412.737 2.01662 412.798 2.0595 413.039 2.07904C413.132 2.08655 413.246 2.0971 413.339 2.09386C413.894 2.07448 414.441 2.05204 414.995 2.02958C415.276 2.01835 415.429 1.94595 415.374 1.85087C415.313 1.74966 415.419 1.71262 415.82 1.68276C416.06 1.66546 416.254 1.6682 416.448 1.6955C416.662 1.72583 416.602 1.75356 416.416 1.80915C415.97 1.94501 416.024 2.0278 416.6 2.12044C416.801 2.15233 416.961 2.18123 417.009 2.22873C417.036 2.25325 417.01 2.28553 417.07 2.30384C417.399 2.40612 417.854 2.47135 418.362 2.51959C418.849 2.4773 419.184 2.54578 419.559 2.6004C419.853 2.64287 420.2 2.60543 420.514 2.58954C420.868 2.57204 421.162 2.5838 421.416 2.64016C421.597 2.67976 421.785 2.69785 422.005 2.68979C422.446 2.67214 422.893 2.66062 423.327 2.63531C423.701 2.61317 423.982 2.64338 424.216 2.69517C424.511 2.76067 424.838 2.71558 425.145 2.72425C425.56 2.73428 425.768 2.87054 426.309 2.83276C426.63 2.81071 426.963 2.80246 427.297 2.79574C427.384 2.79405 427.491 2.81997 427.565 2.83826C427.92 2.92207 428.334 2.91675 428.788 2.8914C429.102 2.87397 429.409 2.85809 429.717 2.91589C430.226 3.01325 430.788 3.09825 431.324 3.18789C431.398 3.25837 431.346 3.34134 431.727 3.38213C431.928 3.40327 432.115 3.43519 432.269 3.47023C432.457 3.51135 432.631 3.5218 432.871 3.51064C433.305 3.4884 433.759 3.48299 434.187 3.45461C434.58 3.42937 434.828 3.47961 435.069 3.52678C435.263 3.56482 435.444 3.58292 435.678 3.55488C435.918 3.52837 436.092 3.54495 436.286 3.58606C436.56 3.64238 436.58 3.63622 437.489 3.65152C437.583 3.6529 437.697 3.67571 437.75 3.69558C437.777 3.70628 437.717 3.7371 437.671 3.75253C437.611 3.77106 437.518 3.7927 437.431 3.79745C436.443 3.83908 435.448 3.87611 434.459 3.91774C434.359 3.92252 434.253 3.93346 434.179 3.94894C434.099 3.96596 433.999 3.98915 434 4.01064C434 4.02599 434.134 4.04418 434.227 4.05477C434.522 4.08956 434.868 4.03524 435.156 4.07465C435.35 4.10041 435.511 4.13696 435.705 4.16119C435.785 4.17179 435.912 4.17004 436.012 4.1668C436.346 4.15548 436.673 4.13956 437.007 4.12977C437.101 4.12807 437.208 4.14324 437.295 4.15537C437.937 4.24636 437.937 4.24636 438.492 4.22544C438.712 4.21738 438.946 4.19395 439.153 4.2028C439.353 4.21166 439.528 4.25281 439.708 4.27859C440.083 4.3332 440.438 4.38632 440.466 4.506C440.48 4.55203 440.701 4.59155 440.921 4.59424C441.135 4.59694 441.362 4.57968 441.582 4.57008C442.103 4.55076 442.103 4.55076 442.779 4.64322C442.966 4.669 443.167 4.67171 443.407 4.65595C443.501 4.64964 443.614 4.65559 443.715 4.66309C444.042 4.68555 444.043 4.71471 443.829 4.77034C443.53 4.85222 443.557 4.85986 444.399 4.92747C444.72 4.95301 444.968 5.00171 445.236 5.04423C445.671 5.11255 445.664 5.11255 445.378 5.20362C445.311 5.22369 445.252 5.24529 445.185 5.26689C444.992 5.3271 444.839 5.39183 444.438 5.39867C443.997 5.40557 443.557 5.43091 443.116 5.44856C442.689 5.46619 442.576 5.50321 442.617 5.60753C442.665 5.73332 442.752 5.74699 443.521 5.74412C443.741 5.74374 443.935 5.75568 444.102 5.79683C444.023 5.8461 443.876 5.88473 443.663 5.89431C443.115 5.91828 442.561 5.93921 442.013 5.96011C441.573 5.97777 441.132 5.99541 440.691 6.01306C440.418 6.02428 440.245 6.10441 440.319 6.19332C440.36 6.2439 440.394 6.2945 440.428 6.3451C440.503 6.44629 440.643 6.47215 441.091 6.46676C441.204 6.46503 441.311 6.45256 441.418 6.45544C441.853 6.46543 442.061 6.59248 442.582 6.56548C443.016 6.54324 443.47 6.53785 443.897 6.50947C444.291 6.48423 444.512 6.53912 444.787 6.58009C444.88 6.59375 444.981 6.62272 445.061 6.62105C445.616 6.6032 446.17 6.58537 446.711 6.55526C446.964 6.54254 447.118 6.55148 447.319 6.58797C447.801 6.67617 447.814 6.67154 448.529 6.64267C449.05 6.62028 449.056 6.62333 449.726 6.71581C449.913 6.74158 450.113 6.74123 450.354 6.72853C450.667 6.71264 450.994 6.68751 451.322 6.70997C451.422 6.71593 451.55 6.73414 451.583 6.75404C451.603 6.76782 451.51 6.80175 451.43 6.81264C450.843 6.89348 450.155 6.88086 449.514 6.91421C449.314 6.92377 449.113 6.89495 448.945 6.85379C448.771 6.81265 448.584 6.79609 448.357 6.80416C447.916 6.82181 447.469 6.83333 447.035 6.85864C446.661 6.88078 446.4 6.84592 446.139 6.79879C446.052 6.78359 445.951 6.75459 445.865 6.75628C444.876 6.7887 443.881 6.82113 442.9 6.86582C442.506 6.88492 442.278 6.8362 442.01 6.79522C441.917 6.78156 441.823 6.75256 441.736 6.75424C441.402 6.76096 441.075 6.77841 440.741 6.79127C439.526 6.83943 438.317 6.88759 437.102 6.93268C437.021 6.93589 436.921 6.90382 436.827 6.89017C436.646 6.86285 436.459 6.83707 436.272 6.8113C435.938 6.82416 435.611 6.84008 435.277 6.84987C435.036 6.85643 434.823 6.8783 434.79 6.93669C434.771 6.9751 434.992 7.01002 435.225 7.00654C435.452 7.00308 435.679 6.98426 435.867 7.00389C436.796 7.10052 436.796 7.10206 437.377 7.0811C437.885 7.06179 437.831 7.04653 438.28 7.13018C438.474 7.16669 438.648 7.18789 438.868 7.17829C439.416 7.15585 439.97 7.1334 440.524 7.11401C440.611 7.11079 440.725 7.12595 440.812 7.13808C441.468 7.22905 441.468 7.23211 442.009 7.20815C442.716 7.17929 442.743 7.17157 443.219 7.26438C443.547 7.32829 443.847 7.28325 444.161 7.27963C444.522 7.33887 444.917 7.39192 445.245 7.4589C445.634 7.53805 446.041 7.52351 446.482 7.49972C446.809 7.48227 447.129 7.47557 447.397 7.53805C447.652 7.59594 447.959 7.60156 448.306 7.5856C448.62 7.57124 448.941 7.54151 449.268 7.57471C449.355 7.58377 449.489 7.60657 449.483 7.6204C449.476 7.6419 449.39 7.67276 449.303 7.68212C448.689 7.74612 448.014 7.74575 447.367 7.77604C447.28 7.7808 447.166 7.76411 447.079 7.75198C446.892 7.72467 446.711 7.69275 446.53 7.6639C446.203 7.67368 445.869 7.67732 445.549 7.6963C445.302 7.71054 445.114 7.70935 444.934 7.67282C444.766 7.63934 444.585 7.59819 444.385 7.5878C444.184 7.5774 443.951 7.60083 443.73 7.61043C443.51 7.62002 443.256 7.61585 443.083 7.64071C442.909 7.66557 442.803 7.71949 442.69 7.76267C442.564 7.81047 442.39 7.82614 442.136 7.83118C441.903 7.83619 441.716 7.83037 441.541 7.78769C441.468 7.7694 441.367 7.75575 441.267 7.74364C441.173 7.73306 441.066 7.71635 440.979 7.71958C439.984 7.75661 438.996 7.79672 438.001 7.83528C437.507 7.85456 437.514 7.85454 436.484 7.76575C436.39 7.75824 436.276 7.7477 436.183 7.75093C435.629 7.77031 435.081 7.79276 434.527 7.81521C433.966 7.83767 433.973 7.83459 433.016 7.73954C432.842 7.72142 432.589 7.74643 432.382 7.74371C431.947 7.73679 431.732 7.60822 431.225 7.63366C430.791 7.65591 430.336 7.6613 429.902 7.68968C429.508 7.71493 429.281 7.6616 429.013 7.62062C428.919 7.60696 428.819 7.57643 428.738 7.57964C427.744 7.61514 426.755 7.65523 425.433 7.66213C425.105 7.6627 425.253 7.69469 425.467 7.70506C425.774 7.72142 425.874 7.689 425.706 7.62789C425.585 7.58512 425.411 7.56392 425.271 7.5749C425.198 7.58117 425.105 7.61051 425.433 7.66213C425.781 7.71986 425.761 7.75213 425.821 7.77045C425.969 7.81471 426.176 7.83277 426.39 7.82626C426.724 7.81493 427.051 7.79902 427.385 7.78923C427.479 7.78599 427.592 7.79654 427.679 7.80867C428.415 7.90257 428.422 7.90871 429.203 7.87051C429.45 7.85933 429.631 7.85902 429.825 7.88785C430.092 7.9273 430.287 7.99449 430.694 7.9723C431.235 7.94219 431.789 7.92436 432.343 7.90651C432.43 7.90329 432.524 7.93076 432.624 7.94286C432.899 7.97923 433.1 8.04796 433.507 8.01808C433.821 7.99451 434.162 7.98777 434.496 7.98258C434.582 7.9809 434.716 8.00523 434.757 8.02512C434.837 8.06028 434.738 8.10191 434.511 8.13147C434.417 8.14392 434.29 8.14106 434.184 8.14585C433.743 8.1635 433.302 8.18268 432.861 8.19726C432.628 8.20534 432.408 8.22876 432.382 8.2856C432.362 8.32402 432.603 8.35736 432.83 8.3539C433.164 8.34871 433.498 8.33585 433.818 8.31534C434.386 8.28059 434.88 8.28893 435.342 8.38484C435.67 8.45182 435.65 8.4273 436 8.62626C436.087 8.67676 436.348 8.68091 436.575 8.67745C437.123 8.66882 437.377 8.69141 437.331 8.73908C437.271 8.79752 437.078 8.81626 436.831 8.82437C436.39 8.83741 435.949 8.85814 435.509 8.87579C435.402 8.88058 435.282 8.88999 435.181 8.8871C435.081 8.8842 434.987 8.86595 434.9 8.85228C434.713 8.82344 434.552 8.77919 434.351 8.7688C434.151 8.7584 433.917 8.78183 433.697 8.79143C433.477 8.79948 433.243 8.82292 433.043 8.81252C432.842 8.80212 432.674 8.75637 432.494 8.72905C432.407 8.71539 432.3 8.69407 432.213 8.69575C431.772 8.7088 431.331 8.72953 430.891 8.74564C430.35 8.76654 430.35 8.76654 429.694 8.6725C429.506 8.6452 429.313 8.64707 429.066 8.65978C428.532 8.68527 428.525 8.68067 427.548 8.59333C427.455 8.58428 427.341 8.57373 427.248 8.5785C426.253 8.61553 425.264 8.65562 424.276 8.69418C423.428 8.72789 423.428 8.7279 422.962 8.88222C422.616 8.99641 422.61 8.99642 422.951 9.04802C423.225 9.09053 423.473 9.15303 423.774 9.17553C424.055 9.19654 424.402 9.12686 424.71 9.19694C424.864 9.23198 425.065 9.27001 425.258 9.27581C425.566 9.28296 425.893 9.23786 426.188 9.3049C426.335 9.33841 426.556 9.37335 426.743 9.37456C427.07 9.37706 427.404 9.35191 427.731 9.34059C427.831 9.33735 427.945 9.33716 428.039 9.34467C428.139 9.35371 428.226 9.37198 428.313 9.38718C428.581 9.43891 428.868 9.46297 429.216 9.43627C429.783 9.3923 430.291 9.41291 430.733 9.51039C430.793 9.5241 430.94 9.52539 431.034 9.51909C431.274 9.50332 431.481 9.50142 431.662 9.53027C431.735 9.54242 431.843 9.56372 431.829 9.57756C431.81 9.60062 431.73 9.63146 431.643 9.63929C431.016 9.69257 430.341 9.69989 429.693 9.72864C429.607 9.73186 429.5 9.71208 429.412 9.69842C429.225 9.67111 429.064 9.62535 428.864 9.61495C428.663 9.60456 428.43 9.62491 428.209 9.63297C427.989 9.64103 427.755 9.66446 427.555 9.6556C427.354 9.6452 427.167 9.60715 427.006 9.57365C426.818 9.5356 426.638 9.53132 426.391 9.5471C426.071 9.56761 425.737 9.57126 425.409 9.58257C425.229 9.55372 425.048 9.52178 424.86 9.49448C424.773 9.48081 424.666 9.46412 424.573 9.46582C424.132 9.47886 423.691 9.49804 423.25 9.51569C422.81 9.53334 422.81 9.53336 422.061 9.43948C421.974 9.42889 421.86 9.4168 421.766 9.42004C421.212 9.43942 420.664 9.46338 420.11 9.48276C419.897 9.49081 419.703 9.46966 419.528 9.42851C419.361 9.38735 419.16 9.36468 418.953 9.37271C418.072 9.40648 417.19 9.43871 416.309 9.47862C415.955 9.49459 415.654 9.4813 415.413 9.42645C415.132 9.364 414.818 9.3799 414.491 9.39275C413.75 9.42474 413.743 9.4232 413.268 9.34574C413.174 9.33055 413.08 9.30154 412.993 9.30323C412.225 9.32759 411.451 9.35042 410.689 9.38859C410.289 9.40924 410.074 9.35589 409.807 9.31644C409.713 9.30279 409.612 9.27379 409.532 9.277C408.978 9.29485 408.424 9.31117 407.883 9.34281C407.342 9.37445 407.133 9.23205 406.726 9.23429C406.171 9.23679 405.624 9.27305 405.076 9.29549C404.636 9.31314 404.195 9.33078 403.754 9.34843C403.314 9.36608 402.873 9.38066 402.432 9.40138C402.198 9.41253 402.025 9.39901 401.83 9.36097C401.583 9.31075 401.288 9.27136 401.02 9.22577C400.612 9.16047 400.612 9.16046 400.118 9.17974C400.011 9.18453 399.898 9.18779 399.791 9.19258C398.983 9.22776 398.983 9.2247 397.953 9.12978C397.906 9.12525 397.786 9.14235 397.739 9.15471C397.599 9.19487 397.473 9.23806 397.347 9.27973C397.166 9.25548 396.945 9.24205 396.825 9.20695C396.483 9.10776 395.95 9.24531 395.601 9.14767C395.474 9.11105 395.253 9.07919 395.053 9.07033C394.845 9.06148 394.612 9.08337 394.398 9.09296C393.844 9.11694 393.844 9.11541 393.371 9.25286C393.132 9.32082 392.784 9.30913 392.47 9.32503C392.143 9.34248 391.829 9.35224 391.555 9.28978C391.307 9.23341 391.006 9.22012 390.652 9.23915C390.218 9.26293 389.771 9.27752 389.33 9.2921C389.236 9.29533 389.123 9.28786 389.029 9.27881C388.006 9.19002 388.006 9.18849 387.512 9.2093C387.291 9.21889 387.064 9.22235 386.851 9.23653C386.49 9.26172 386.216 9.22996 385.955 9.18129C385.868 9.16609 385.767 9.13711 385.68 9.1388C385.239 9.14724 384.805 9.1618 384.371 9.17637C384.037 9.1877 383.704 9.19442 383.383 9.21646C382.849 9.2527 382.587 9.15336 382.219 9.10794C381.672 9.12885 381.118 9.14363 380.57 9.17221C380.316 9.18493 380.149 9.18063 379.955 9.14412C379.707 9.0985 379.48 9.0467 379.079 9.07043C378.545 9.10205 377.984 9.11377 377.436 9.13315C377.068 9.0862 376.8 8.98994 376.273 9.02616C375.952 9.04821 375.612 9.05341 375.284 9.06625C374.844 9.0839 374.403 9.10003 373.962 9.11922C373.488 9.13846 373.495 9.13384 372.765 9.04454C372.344 8.99154 371.91 9.05216 371.483 9.06211C371.149 9.07037 370.983 9.14127 371.064 9.2317C371.145 9.32212 370.966 9.39305 370.659 9.40586C369.891 9.43636 369.116 9.4684 368.348 9.49583C368.255 9.49906 368.141 9.48851 368.054 9.47792C367.231 9.38264 367.231 9.38419 366.864 9.39864C366.316 9.42261 365.755 9.43586 365.215 9.46596C364.841 9.48657 364.566 9.45482 364.325 9.40304C364.138 9.36346 363.964 9.35455 363.724 9.36417C361.079 9.47161 358.435 9.57138 355.797 9.68187C355.403 9.69791 355.176 9.65379 354.908 9.61281C354.815 9.59915 354.727 9.57014 354.634 9.5703C354.413 9.57068 354.193 9.58488 353.973 9.59447C352.984 9.63303 351.996 9.67926 351.001 9.70862C350.58 9.72163 350.468 9.79244 350.288 9.85109C350.148 9.89585 349.988 9.91454 349.741 9.92111C349.501 9.92767 349.327 9.92029 349.139 9.8807C348.898 9.82893 348.624 9.79716 348.25 9.8193C347.816 9.84462 347.375 9.85614 346.928 9.8738C346.701 9.88187 346.527 9.9098 346.455 9.96519C346.441 9.97442 346.582 9.99721 346.662 10.0109C346.93 10.0565 347.185 10.1098 347.486 10.1415C347.793 10.1732 348.127 10.1357 348.447 10.126C348.561 10.1227 348.668 10.1133 348.775 10.1147C348.875 10.116 348.995 10.1235 349.069 10.1372C349.417 10.2057 349.785 10.2526 350.266 10.2103C350.68 10.2296 350.895 10.3566 351.423 10.3219C351.743 10.3014 352.077 10.2916 352.411 10.2834C352.498 10.2817 352.592 10.3091 352.685 10.3228C352.953 10.3607 353.168 10.4217 353.568 10.3949C353.995 10.3666 354.45 10.3612 354.884 10.3389C355.124 10.3262 355.298 10.3367 355.485 10.3763C355.726 10.4265 356.001 10.4644 356.375 10.4392C356.695 10.4171 357.036 10.4119 357.363 10.3976C357.79 10.3799 357.79 10.3815 358.553 10.4753C358.64 10.4859 358.754 10.498 358.847 10.4948C359.401 10.4754 359.949 10.4514 360.503 10.432C360.717 10.424 360.924 10.4436 361.072 10.4878C361.132 10.5062 361.112 10.5369 361.133 10.563C360.031 10.6063 358.929 10.6435 357.834 10.6961C357.42 10.7168 357.232 10.6542 356.958 10.6193C356.864 10.6072 356.764 10.5813 356.677 10.5845C355.902 10.612 355.134 10.6409 354.367 10.676C354.126 10.6872 353.946 10.6813 353.765 10.6371C353.303 10.5197 352.742 10.5852 352.221 10.603C351.821 10.616 351.694 10.6638 351.742 10.765C351.804 10.8846 352.045 10.9211 352.659 10.8985C352.879 10.8904 353.1 10.8793 353.32 10.8728C353.534 10.8663 353.728 10.8859 353.902 10.927C354.07 10.9682 354.27 10.9893 354.477 10.9828C354.918 10.9683 355.365 10.9537 355.793 10.9299C356.146 10.9109 356.441 10.9257 356.689 10.9821C356.963 11.0445 357.284 11.0302 357.604 11.0158C358.352 10.9838 358.359 10.9853 358.827 11.0613C358.921 11.0765 359.015 11.1055 359.102 11.1038C359.87 11.0794 360.644 11.0581 361.399 11.02C361.793 11.0009 362.021 11.0496 362.282 11.089C362.375 11.1027 362.469 11.1332 362.556 11.13C363.11 11.1122 363.665 11.0943 364.205 11.0642C364.459 11.05 364.613 11.0589 364.82 11.0954C365.316 11.1851 365.329 11.182 366.03 11.1516C366.244 11.142 366.477 11.1247 366.678 11.1367C366.879 11.1486 367.04 11.1928 367.227 11.2202C367.314 11.2323 367.421 11.249 367.514 11.2457C367.955 11.2327 368.396 11.2135 368.837 11.1959C369.251 11.1783 369.251 11.1798 370.027 11.2736C370.341 11.313 370.668 11.2787 370.982 11.2658C371.323 11.2514 371.63 11.2509 371.891 11.3103C372.152 11.3697 372.466 11.3661 372.8 11.3532C373.114 11.3404 373.434 11.3061 373.756 11.347C374.492 11.4409 374.492 11.4424 374.946 11.4232C375.607 11.396 376.261 11.3703 376.929 11.3461C377.016 11.3429 377.129 11.3611 377.216 11.3732C377.404 11.4005 377.565 11.4463 377.765 11.4567C377.966 11.4686 378.199 11.4498 378.413 11.4402C379.101 11.4098 379.147 11.399 379.61 11.4995C379.998 11.5818 380.478 11.4612 380.84 11.5557C381.047 11.6091 381.328 11.6516 381.716 11.6248C382.036 11.6028 382.37 11.5961 382.704 11.5832C383.231 11.5623 383.231 11.5639 383.901 11.6548C383.988 11.667 384.101 11.6821 384.188 11.6789C384.629 11.6658 385.076 11.6543 385.504 11.6259C386.004 11.5928 386.326 11.6506 386.7 11.7068C386.995 11.7508 387.342 11.7133 387.656 11.6974C387.996 11.6815 388.303 11.6855 388.558 11.745C388.826 11.8059 389.14 11.7977 389.474 11.7848C389.788 11.7735 390.108 11.7377 390.429 11.7801C391.118 11.8741 391.118 11.8741 391.619 11.8548C392.06 11.8371 392.501 11.818 392.941 11.8049C393.028 11.8017 393.135 11.8215 393.222 11.8351C393.41 11.8624 393.571 11.9082 393.771 11.9186C393.972 11.929 394.205 11.9086 394.426 11.9006C394.646 11.8925 394.88 11.8691 395.08 11.878C395.281 11.8868 395.468 11.9249 395.629 11.9584C395.816 11.998 395.99 12.0023 396.244 11.9865C396.564 11.9659 396.898 11.9608 397.225 11.9495C397.406 11.9783 397.594 12.0071 397.768 12.0391C397.948 12.0725 398.142 12.0691 398.389 12.058C399.21 12.0197 399.217 12.0243 399.906 12.1183C400.221 12.1607 400.548 12.1248 400.862 12.1135C401.196 12.1007 401.51 12.094 401.771 12.1549C402.025 12.2128 402.34 12.22 402.673 12.201C402.887 12.1883 403.114 12.1802 403.334 12.1753C403.435 12.1736 403.555 12.1795 403.629 12.1916C403.983 12.2555 404.331 12.3132 404.819 12.2709C405.246 12.2825 405.462 12.408 405.976 12.3825C406.41 12.3603 406.864 12.3549 407.291 12.3265C407.685 12.3013 407.966 12.3438 408.167 12.3971C408.529 12.4917 409.035 12.3619 409.397 12.4549C409.605 12.5082 409.873 12.5508 410.273 12.527C410.714 12.5017 410.855 12.5337 410.983 12.6302C411.057 12.6853 411.044 12.7299 410.911 12.7731C410.778 12.8178 410.631 12.8104 410.416 12.7601C410.169 12.7038 409.874 12.6935 409.521 12.7064C409.173 12.7193 408.959 12.6398 408.671 12.6096C408.383 12.5779 408.043 12.6322 407.742 12.5913C407.033 12.4958 407.033 12.4958 406.552 12.5151C406.225 12.5279 405.884 12.5347 405.564 12.5567C405.183 12.5835 404.936 12.5363 404.674 12.4938C404.581 12.4786 404.487 12.4496 404.407 12.4512C403.639 12.4756 402.864 12.4984 402.103 12.5381C401.702 12.5588 401.488 12.5039 401.22 12.466C401.127 12.4523 401.026 12.4249 400.946 12.4281C400.285 12.4507 399.63 12.4795 398.969 12.5067C398.843 12.5484 398.703 12.5886 398.583 12.6333C398.457 12.6795 398.284 12.6998 398.03 12.6987C397.609 12.6994 397.195 12.7646 396.773 12.684C396.338 12.6019 396.305 12.6065 395.884 12.6272C395.35 12.6542 394.782 12.6491 394.282 12.7098C394.195 12.7207 394.102 12.75 394.102 12.7715C394.096 12.7854 394.236 12.8051 394.323 12.8172C394.618 12.8535 394.958 12.7992 395.252 12.8371C395.446 12.8613 395.607 12.8979 395.801 12.9236C395.881 12.9342 396.001 12.9325 396.108 12.9308C396.222 12.929 396.329 12.9181 396.436 12.9195C396.536 12.9208 396.643 12.9298 396.723 12.9435C397.091 13.0012 397.479 13.0543 397.808 13.1228C398.129 13.1898 398.429 13.1432 398.75 13.1396C400.034 13.2448 400.034 13.2463 400.895 13.2111C401.109 13.203 401.329 13.1934 401.55 13.1946C401.643 13.1944 401.73 13.2219 401.824 13.2371C402.092 13.2827 402.346 13.3237 402.72 13.2985C403.041 13.2764 403.381 13.2712 403.708 13.2568C404.149 13.2392 404.149 13.2392 404.899 13.3346C405.086 13.3588 405.286 13.3554 405.527 13.3427C405.734 13.3316 405.947 13.3543 406.095 13.3985C406.155 13.4169 406.136 13.4476 406.156 13.4737C405.495 13.4994 404.827 13.5174 404.186 13.5554C403.772 13.5791 403.584 13.5134 403.31 13.4786C403.216 13.4665 403.116 13.4406 403.029 13.4438C402.375 13.4679 401.72 13.4952 401.066 13.527C400.986 13.5302 400.886 13.5657 400.88 13.5872C400.867 13.6271 401.034 13.6652 401.275 13.6633C401.595 13.6612 401.909 13.6345 402.197 13.697C402.438 13.7518 402.739 13.7759 403.093 13.7507C403.307 13.7365 403.534 13.7361 403.747 13.7234C404.315 13.6856 404.829 13.6924 405.258 13.796C405.586 13.8231 405.906 13.7965 406.22 13.7821C406.454 13.7709 406.681 13.7598 406.848 13.7887C407.203 13.8495 407.551 13.9103 408.038 13.868C408.566 13.91 408.968 13.9999 409.41 14.0728C409.618 14.1078 409.778 14.1275 410.019 14.104C410.119 14.0946 410.239 14.0944 410.346 14.0896C410.566 14.0816 410.8 14.0581 411 14.067C411.201 14.0774 411.368 14.1216 411.549 14.1489C411.636 14.1626 411.736 14.1855 411.823 14.1838C412.157 14.1755 412.484 14.1596 412.812 14.1467C413.139 14.1354 413.466 14.1241 413.793 14.1128C414.068 14.1522 414.349 14.1917 414.623 14.2311C415.064 14.2135 415.505 14.1958 415.939 14.1797C416.426 14.1604 416.426 14.162 417.129 14.2559C417.443 14.2984 417.777 14.2701 418.077 14.2497C418.578 14.2166 418.913 14.2743 419.268 14.3351C419.341 14.3473 419.475 14.3547 419.562 14.3484C419.909 14.3263 420.209 14.3427 420.464 14.399C420.645 14.4386 420.826 14.4568 421.046 14.4487C421.814 14.4182 422.582 14.3862 423.35 14.3587C423.443 14.3555 423.55 14.3691 423.637 14.3813C424.32 14.4737 424.326 14.4783 424.827 14.4529C425.275 14.4306 425.689 14.4207 426.044 14.5045C426.117 14.5228 426.231 14.5487 426.311 14.547C426.859 14.5307 427.413 14.5129 427.954 14.4858C428.201 14.4731 428.375 14.4774 428.569 14.5124C428.817 14.5565 429.038 14.6098 429.445 14.5892C430.574 14.5304 430.58 14.5396 431.918 14.6432C432.011 14.6507 432.138 14.6382 432.245 14.6319C432.472 14.6161 432.639 14.6373 432.84 14.6723C433.289 14.7513 433.302 14.7467 433.729 14.7291C434.056 14.7147 434.397 14.711 434.718 14.6875C435.211 14.6528 435.54 14.7121 435.908 14.7683C436.202 14.8123 436.542 14.7749 436.856 14.7605C437.197 14.7446 437.504 14.7486 437.759 14.8065C437.933 14.8461 438.12 14.8673 438.34 14.8593C439.108 14.8303 439.876 14.7982 440.644 14.7693C440.738 14.766 440.852 14.7781 440.939 14.7887C441.701 14.8826 441.701 14.8872 442.456 14.8506C442.696 14.8394 442.897 14.836 443.077 14.8679C443.251 14.8983 443.439 14.9272 443.62 14.956C443.947 14.9447 444.281 14.941 444.601 14.9221C444.848 14.9078 445.022 14.9137 445.216 14.9456C445.47 14.9866 445.685 15.0583 446.085 15.0223C446.292 15.0051 446.533 15.0093 446.74 14.9936C446.987 14.9732 447.154 14.9852 447.348 15.0248C447.589 15.0719 447.837 15.1206 448.224 15.0954C448.651 15.067 449.106 15.0616 449.54 15.0394C449.78 15.0267 449.947 15.0387 450.141 15.0782C450.383 15.1285 450.657 15.1602 451.031 15.1396C451.792 15.0999 451.798 15.1076 452.541 15.203C452.729 15.2273 452.929 15.2238 453.169 15.2111C453.376 15.2 453.59 15.2227 453.738 15.267C453.879 15.3158 453.866 15.3466 453.879 15.3726ZM394.18 1.63128C393.96 1.63934 393.74 1.64893 393.417 1.51594C393.397 1.49295 393.41 1.4653 393.363 1.44542C393.256 1.40416 393.088 1.37529 392.888 1.37103C392.527 1.36552 392.093 1.41845 392.1 1.45835C392.108 1.49211 392.221 1.52107 392.442 1.54832C392.536 1.55891 392.61 1.5772 392.697 1.58933C392.951 1.6242 393.152 1.69294 393.519 1.65699C393.485 1.60947 393.451 1.56194 393.519 1.65699C393.487 1.71538 393.587 1.75666 393.828 1.77313C393.895 1.77762 393.995 1.77436 394.048 1.76506C394.255 1.73093 394.288 1.68483 394.133 1.56383C394.106 1.58383 394.127 1.61909 394.187 1.6282C394.247 1.6373 394.394 1.62938 394.467 1.61851C394.654 1.58902 394.747 1.55048 394.7 1.51832C394.673 1.50148 394.546 1.48021 394.466 1.48035C394.325 1.48059 394.199 1.51458 394.18 1.63128ZM448.416 19.3396C447.929 19.3696 447.368 19.3598 446.881 19.4205C446.794 19.4314 446.707 19.4592 446.701 19.4807C446.695 19.4945 446.828 19.5143 446.909 19.5249C447.089 19.5491 447.29 19.5411 447.523 19.533C447.877 19.5216 448.085 19.5919 448.36 19.6267C448.447 19.6373 448.56 19.6448 448.654 19.6416C449.195 19.6222 449.729 19.6013 450.27 19.5789C450.363 19.5741 450.463 19.5632 450.543 19.5492C450.81 19.5043 450.783 19.4752 450.522 19.4418C450.234 19.4055 450.006 19.3445 449.712 19.3158C449.291 19.2751 448.864 19.3311 448.416 19.3396ZM410.491 20.526C410.164 20.5388 409.843 20.5517 409.516 20.5645C409.409 20.5693 409.296 20.571 409.195 20.5774C408.988 20.5885 408.835 20.621 408.736 20.6718C408.89 20.7114 409.077 20.7341 409.284 20.7292C409.611 20.7194 409.932 20.6989 410.259 20.6937C410.613 20.687 410.821 20.7557 411.095 20.7905C411.182 20.8011 411.289 20.8024 411.39 20.8038C411.884 20.8091 412.184 20.7288 412.089 20.6169C412.021 20.5295 411.766 20.4777 411.459 20.489C411.139 20.5003 410.812 20.5132 410.491 20.526ZM450.673 17.0668C450.753 17.0405 450.84 17.022 450.88 16.9989C450.999 16.9204 450.951 16.8621 450.73 16.8011C450.462 16.7264 450.135 16.7776 449.835 16.7858C449.761 16.7874 449.682 16.8198 449.642 16.8398C449.615 16.8537 449.616 16.8829 449.656 16.8905C449.984 16.9513 450.332 17.0075 450.673 17.0668ZM392.664 12.6328C392.344 12.6456 392.017 12.6554 391.696 12.6729C391.616 12.6776 391.543 12.7069 391.496 12.7269C391.41 12.7639 391.504 12.8144 391.778 12.8186C392.092 12.8241 392.419 12.7975 392.746 12.7846C393.16 12.7686 393.407 12.7113 393.252 12.6625C393.105 12.6152 392.904 12.6063 392.664 12.6328ZM40.9659 9.96263C41.1796 9.95458 41.4 9.94805 41.6136 9.93694C41.8139 9.92584 41.9673 9.89181 42.0668 9.84098C41.8993 9.80135 41.712 9.78019 41.5049 9.78515C41.1777 9.79493 40.8572 9.80777 40.5367 9.82367C40.3364 9.83323 40.1432 9.86734 40.097 9.91961C40.0508 9.9596 40.4985 9.98186 40.9659 9.96263ZM364.369 9.16502C364.456 9.17869 364.543 9.20617 364.63 9.20602C364.844 9.20565 365.064 9.19605 365.265 9.18035C365.351 9.17406 365.418 9.14632 365.458 9.12476C365.484 9.11089 365.477 9.08635 365.437 9.07414C365.242 9.00079 364.468 9.02823 364.342 9.11288C364.329 9.12826 364.362 9.14815 364.369 9.16502ZM343.19 0.795639C343.21 0.820165 343.217 0.844711 343.244 0.869225C343.298 0.915184 343.445 0.948707 343.659 0.971362C343.826 0.932696 343.912 0.88957 343.905 0.84353C343.898 0.818981 343.878 0.794439 343.851 0.769925C343.797 0.723966 343.649 0.690462 343.435 0.667807C343.269 0.704938 343.189 0.748052 343.19 0.795639ZM466.157 20.6965C466.097 20.7166 466.037 20.7366 465.97 20.7552C466.151 20.7994 466.318 20.8129 466.445 20.7881C466.525 20.7726 466.572 20.7495 466.631 20.7294C466.451 20.6852 466.29 20.6732 466.157 20.6965ZM462.004 20.9125C462.091 20.9261 462.171 20.9444 462.265 20.9535C462.419 20.9686 462.559 20.9422 462.665 20.8868C462.578 20.8731 462.498 20.8548 462.404 20.8458C462.25 20.8307 462.11 20.857 462.004 20.9125ZM464.633 20.627C464.586 20.6639 464.68 20.6945 464.928 20.7201C464.988 20.7001 465.068 20.6815 465.107 20.6599C465.174 20.6245 465.06 20.5925 464.819 20.5683C464.752 20.5869 464.692 20.6069 464.633 20.627ZM450.51 18.9967C450.463 19.0336 450.557 19.0641 450.805 19.0898C450.865 19.0697 450.945 19.0512 450.985 19.0296C451.051 18.9942 450.937 18.9622 450.696 18.938C450.63 18.9566 450.57 18.9766 450.51 18.9967ZM431.164 8.16798C431.104 8.18804 431.044 8.2081 430.978 8.22663C431.159 8.27084 431.326 8.28436 431.452 8.25958C431.532 8.24409 431.579 8.22098 431.639 8.20092C431.458 8.15672 431.297 8.14472 431.164 8.16798ZM412.689 2.43731C412.849 2.44778 412.983 2.42607 413.096 2.36907C413.009 2.35541 412.928 2.33712 412.835 2.32808C412.681 2.31299 412.541 2.33934 412.435 2.39479C412.522 2.40999 412.609 2.42364 412.689 2.43731ZM402.911 2.09354C402.851 2.1136 402.791 2.13366 402.725 2.1522C402.906 2.1964 403.073 2.20992 403.199 2.18514C403.279 2.16965 403.326 2.14654 403.386 2.12648C403.205 2.08228 403.044 2.07182 402.911 2.09354ZM336.616 0.805509C336.556 0.825569 336.496 0.84563 336.43 0.864167C336.611 0.90837 336.778 0.921891 336.904 0.89711C336.984 0.881621 337.031 0.858513 337.091 0.838453C336.91 0.794249 336.749 0.783787 336.616 0.805509ZM6.75481 13.8674C6.66779 13.8537 6.58086 13.8401 6.5005 13.8248C6.30727 13.8666 6.24763 13.9051 6.35488 13.9341C6.42191 13.9524 6.52217 13.963 6.60918 13.9766C6.8091 13.9348 6.85539 13.8979 6.75481 13.8674Z" fill="#14BEB6"/>
</svg>
