<svg width="116" height="116" viewBox="0 0 116 116" fill="none" xmlns="http://www.w3.org/2000/svg">
<path fill-rule="evenodd" clip-rule="evenodd" d="M57.4873 2.10225C57.3307 2.30127 57.1179 2.76599 57.0146 3.13496C56.8118 3.85933 56.7113 3.9325 56.4132 3.57371C56.0938 3.18895 55.1182 2.762 54.3511 2.67127C53.7561 2.60075 53.4854 2.65563 52.819 2.98153C51.1888 3.77878 50.8152 5.61286 52.0066 6.96925C52.5158 7.54889 53.0679 7.71324 54.0245 7.56984C54.9848 7.42585 55.605 6.79147 55.4882 6.07242C55.3806 5.41045 55.1304 5.10728 54.7378 5.16334C54.4847 5.19948 54.4296 5.31161 54.4296 5.79063C54.4296 6.34977 54.4059 6.37883 53.8538 6.49361C52.7998 6.71299 52.2313 5.97741 52.4828 4.72031C52.574 4.26459 53.4925 3.65603 54.0807 3.66149C54.6941 3.66724 55.6645 4.20882 55.9759 4.71928C56.3406 5.31721 56.3511 5.82427 56.0202 6.8735C55.7893 7.60539 55.7036 7.70719 55.0977 7.96861C53.2626 8.7607 51.111 8.37387 45.497 6.24281C44.156 5.73369 42.5775 5.20022 41.989 5.05727C40.9843 4.81325 40.8589 4.81222 39.9314 5.04089C38.157 5.47861 36.7481 6.38252 36.3525 7.33689L36.1744 7.76664L35.5369 7.10158C34.9805 6.52105 34.8605 6.45747 34.5926 6.60072C34.2535 6.78203 34.0596 7.33896 34.1779 7.79143C34.2674 8.13355 34.2757 8.13104 33.7382 7.92435C32.5016 7.44887 30.8385 7.99015 29.543 9.28944C28.4583 10.3775 28.0851 11.1372 27.1998 14.0591C26.3528 16.855 25.7595 18.3295 24.8255 19.961C24.1771 21.0939 23.1255 22.2775 22.4741 22.6078C20.8912 23.4104 19.0793 22.5419 19.0793 20.9806C19.0793 19.784 19.724 19.0013 20.71 19.0013C21.5608 19.0013 22.094 19.7572 21.7941 20.5383C21.734 20.6946 21.5188 20.7717 21.142 20.7717C20.3991 20.7717 20.1125 20.8943 20.1125 21.212C20.1125 21.6226 20.5122 21.8517 21.2102 21.8412C22.0545 21.8284 22.5513 21.4823 22.8509 20.698C23.1575 19.8955 22.9855 19.2686 22.2679 18.5735C20.7602 17.1128 18.2949 18.2349 18.0791 20.4803C18.0403 20.8839 17.9804 21.2142 17.9462 21.2142C17.9119 21.2142 17.6836 21.1108 17.439 20.9842C16.8867 20.6989 16.1366 20.7596 15.9208 21.1071C15.7943 21.311 15.8266 21.4943 16.0672 21.9355L16.376 22.502L15.6631 22.6665C14.0232 23.0449 13.1168 24.1607 13.1066 25.8133C13.1006 26.7957 13.4021 27.3028 14.2961 27.8138C15.7975 28.6719 17.8267 27.778 18.0071 26.1789C18.0715 25.6075 18.029 25.4621 17.7017 25.135C17.0992 24.5328 15.8321 24.6251 15.8321 25.2713C15.8321 25.6316 16.0811 25.7877 16.656 25.7877C17.1738 25.7877 17.1162 26.2646 16.54 26.7493C16.1389 27.0865 15.9682 27.1359 15.4164 27.0737C14.2553 26.9428 13.8247 26.0354 14.3376 24.7991C15.0064 23.1869 17.9795 23.3522 18.858 25.0503C19.2529 25.8136 19.1438 26.5346 18.497 27.4376C17.7897 28.4247 17.1084 28.8843 13.3967 30.877C10.6882 32.3312 9.30518 33.2603 7.55892 34.7986C5.91184 36.2496 5.40527 37.6309 5.83937 39.488L6.0587 40.4269L5.32306 40.3293C4.48572 40.2183 4.17163 40.3829 4.17163 40.9324C4.17163 41.1827 4.32499 41.3786 4.68823 41.5929C4.97236 41.7604 5.20483 41.9429 5.20483 41.9982C5.20483 42.0537 4.90904 42.1863 4.54742 42.293C3.76056 42.5253 2.78271 43.5045 2.24603 44.5977C1.96101 45.178 1.88559 45.5579 1.89238 46.3797C1.89961 47.2709 1.98197 47.5947 2.45459 48.5894C2.75909 49.2304 3.58137 50.6194 4.28189 51.6758C6.74135 55.3858 7.60216 57.4252 7.61427 59.5719C7.62534 61.525 6.99493 62.4949 5.68099 62.5464C5.17664 62.5662 4.95583 62.475 4.39391 62.0147C3.52056 61.2995 3.2509 60.8758 3.23599 60.1958C3.21887 59.4142 3.64071 58.8341 4.2255 58.8348C4.81295 58.8354 5.60276 59.3121 5.8252 59.8001C5.9573 60.0897 5.95435 60.2939 5.81295 60.6849C5.59524 61.2868 5.68512 61.4898 6.16955 61.4898C7.0463 61.4898 7.23788 59.9151 6.48173 58.9241C5.73767 57.9491 4.23421 57.5328 3.26566 58.0333C2.61149 58.3715 2.04515 59.6616 2.18404 60.4974C2.31983 61.3139 2.5557 61.7484 3.19894 62.3664L3.7275 62.8741L2.95318 63.2516C2.10832 63.6635 1.93268 64.0053 2.33651 64.4513C2.51452 64.6479 2.78935 64.7354 3.22876 64.7354H3.86388L3.34034 65.6137C2.65208 66.7687 2.57134 67.4165 2.99363 68.3976C3.73857 70.1282 5.37561 70.7419 6.78504 69.8188C8.28659 68.8354 7.36851 65.2944 5.71922 65.7081C4.78196 65.9433 4.76424 67.0444 5.70062 66.8687C6.1173 66.7907 6.20379 66.8298 6.35685 67.1655C6.84438 68.2348 6.38416 69.1613 5.36557 69.1613C4.90343 69.1613 4.71288 69.0718 4.41015 68.7121C4.20203 68.465 3.95539 68.0078 3.86196 67.6962C3.70801 67.1825 3.73016 67.0596 4.09857 66.383C5.22653 64.3116 6.8522 63.7411 8.04865 64.997C9.18739 66.1924 8.87906 69.7849 7.08999 76.169C6.53678 78.1432 6.46933 78.5569 6.4646 80.0047C6.46018 81.3911 6.50578 81.7136 6.77722 82.2177C7.15877 82.9262 7.57589 83.3299 8.42016 83.8073C8.97972 84.1237 9.02533 84.1875 8.81632 84.3608C8.4519 84.6631 8.14828 85.3432 8.25456 85.6198C8.33308 85.8243 8.48673 85.8546 9.1161 85.7896L9.882 85.7107L9.81174 86.8055C9.72112 88.2175 10.0088 88.9969 10.9787 89.9662C12.5026 91.4896 13.6666 91.9288 17.4319 92.4015C20.7287 92.8153 22.2595 93.1692 23.5324 93.8114C24.5846 94.3422 25.6024 95.2417 25.9287 95.9292C26.4438 97.0143 26.0912 98.5008 25.126 99.3125C24.1897 100.1 22.6376 99.7076 22.0372 98.5313C21.635 97.7432 21.6568 97.4704 22.1612 96.9876C22.4872 96.6753 22.7021 96.5915 23.0837 96.628C23.5478 96.6723 23.5867 96.7178 23.6652 97.3055C23.7677 98.0731 24.0025 98.3569 24.3525 98.1362C24.9739 97.7446 24.8091 96.3675 24.0759 95.8237C23.3547 95.2891 22.0772 95.526 21.3486 96.3296C20.4278 97.3453 20.4859 98.2585 21.5615 99.6728C21.9962 100.244 22.7421 100.656 23.6025 100.799L24.2145 100.901L24.1368 101.479C24.0053 102.459 24.6778 102.828 25.4664 102.208C25.6728 102.046 25.8736 101.913 25.9126 101.913C25.9517 101.913 26.0297 102.158 26.086 102.458C26.2112 103.126 26.7731 104.259 27.1449 104.595C27.6134 105.018 29.0159 105.598 29.574 105.6C30.6048 105.602 31.7788 104.426 31.7664 103.403C31.7551 102.47 31.3081 101.438 30.7548 101.068C30.0878 100.622 28.8785 100.603 28.3356 101.029C27.7216 101.512 27.6258 102.648 28.1811 102.861C28.5014 102.984 28.7679 102.731 28.8732 102.205C28.9496 101.823 29.0254 101.765 29.4533 101.765C30.1198 101.765 30.4349 102.031 30.5967 102.728C30.7902 103.562 30.7818 103.611 30.3576 104.114C29.8868 104.674 29.4944 104.69 28.5104 104.192C27.8959 103.881 27.7051 103.682 27.4097 103.049C26.6881 101.499 27.0525 99.5696 28.1663 99.0413C28.8261 98.7284 29.2087 98.7576 30.1433 99.1926C31.3008 99.731 32.0376 100.388 33.6354 102.306C36.7435 106.038 40.3544 109.651 41.569 110.245C42.5255 110.713 43.7153 110.776 44.7249 110.413L45.3522 110.188V111.002C45.3522 111.868 45.5374 112.387 45.8464 112.387C46.0973 112.387 46.7346 111.695 47.0397 111.09L47.285 110.605L47.7576 111.312C48.5984 112.569 50.1615 113.324 51.373 113.058C52.2859 112.858 53.6178 111.322 53.6178 110.47C53.6178 109.996 53.0792 109.051 52.6249 108.728C52.067 108.332 51.067 108.051 50.6168 108.164C49.7305 108.386 48.9537 109.491 49.3491 109.967C49.5996 110.269 49.7136 110.231 50.2869 109.658C50.5711 109.374 50.8788 109.142 50.9708 109.142C51.321 109.142 52.1343 109.625 52.3576 109.965C52.6829 110.462 52.5188 110.952 51.8134 111.588C51.2778 112.072 51.1628 112.115 50.6322 112.03C49.7702 111.893 49.2406 111.569 48.7309 110.87C48.3178 110.303 48.2828 110.167 48.3348 109.328C48.4254 107.866 49.076 107.236 50.6308 107.105C52.0779 106.983 54.5709 108.074 58.5626 110.574C61.4137 112.36 62.1995 112.766 63.3955 113.072C65.1683 113.526 66.7425 113.027 68.0223 111.604C68.5786 110.985 68.6848 110.921 68.7677 111.156C68.9546 111.683 69.5767 112.387 69.8563 112.387C70.2551 112.387 70.4443 111.945 70.4443 111.013V110.209L71.0716 110.426C72.0087 110.751 73.2632 110.708 74.0589 110.323C75.4069 109.671 78.7344 106.359 82.2123 102.208C83.7413 100.383 84.4442 99.7638 85.6007 99.2229C86.7245 98.6973 87.3828 98.7317 88.0284 99.3498C88.5909 99.8885 88.7981 100.596 88.7111 101.68C88.6064 102.983 88.1729 103.743 87.2733 104.198C86.3883 104.647 85.9534 104.664 85.5292 104.269C84.9667 103.745 84.931 102.883 85.4392 102.097C85.601 101.847 85.7949 101.765 86.2246 101.765C86.7567 101.765 86.8014 101.799 86.8894 102.267C86.9676 102.685 87.203 102.946 87.5009 102.946C87.5329 102.946 87.6663 102.782 87.7973 102.582C87.9955 102.28 88.0066 102.132 87.8632 101.698C87.6302 100.992 87.2104 100.733 86.3003 100.733C85.4165 100.733 84.6649 101.155 84.3239 101.845C84.1996 102.096 84.1055 102.712 84.1025 103.294L84.0974 104.306L84.8128 104.953C85.7243 105.779 86.3453 105.819 87.7055 105.139C88.7601 104.612 89.3426 103.858 89.6352 102.639L89.8107 101.908L90.2924 102.205C91.2144 102.775 91.8242 102.406 91.6344 101.395C91.5445 100.916 91.5537 100.906 92.1743 100.806C93.1171 100.654 93.9636 100.098 94.4833 99.2883C95.2537 98.0883 95.2747 97.3099 94.5594 96.4603C94.0394 95.8426 93.4182 95.5439 92.6287 95.5319C92.0895 95.5238 91.8942 95.6008 91.5298 95.965C90.9447 96.5499 90.8099 97.4156 91.2242 97.927C91.4759 98.2377 91.551 98.2609 91.7556 98.0911C91.8867 97.9824 91.994 97.7313 91.994 97.533C91.994 96.5313 92.8616 96.266 93.629 97.033C94.1571 97.5609 94.1655 97.7981 93.6856 98.6166C93.2368 99.3821 92.6811 99.6999 91.7912 99.6999C90.2431 99.6999 89.1429 97.605 89.8327 95.9701C90.1158 95.2988 91.328 94.2208 92.3349 93.7446C93.6077 93.1428 95.0893 92.8122 98.3404 92.4044C102.1 91.9329 103.276 91.4846 104.808 89.9379C105.741 88.9961 105.943 88.4713 105.939 86.9945L105.936 85.7228L106.677 85.7405C107.349 85.7568 107.423 85.7261 107.468 85.4105C107.5 85.1843 107.37 84.9065 107.099 84.6165C106.868 84.3712 106.748 84.1456 106.831 84.115C107.45 83.8877 108.508 82.9931 108.889 82.376C109.321 81.6751 109.336 81.5908 109.32 80.0155C109.306 78.6134 109.227 78.1127 108.765 76.4814C107.417 71.7196 106.782 68.0634 107.053 66.6331C107.279 65.4443 107.593 64.9319 108.308 64.586C108.789 64.3529 109.085 64.3014 109.497 64.3787C110.524 64.5712 111.95 66.2756 111.95 67.3106C111.95 67.8976 111.593 68.6214 111.15 68.931C110.648 69.2823 109.771 69.2307 109.493 68.8334C109.219 68.4423 109.196 67.7011 109.44 67.1641C109.583 66.8513 109.692 66.7907 110.001 66.8523C110.515 66.9552 110.776 66.7688 110.715 66.3429C110.649 65.8745 109.981 65.5539 109.443 65.7321C108.968 65.8891 108.437 66.6213 108.224 67.4132C107.775 69.0816 109.311 70.6291 110.965 70.1747C111.766 69.9547 112.589 69.0616 112.874 68.1015C113.177 67.082 113.183 67.1232 112.524 65.8499L111.947 64.7354H112.575C113.918 64.7354 114.035 63.6759 112.746 63.1839L112.074 62.9275L112.716 62.2136C113.746 61.0693 113.88 59.8727 113.117 58.6392C112.944 58.3599 112.603 58.0487 112.359 57.9475C111.359 57.5336 109.737 58.1451 109.11 59.1721C108.521 60.1386 108.875 61.5548 109.683 61.4613C110.097 61.4135 110.113 61.3384 109.916 60.3512C109.837 59.9531 109.893 59.8053 110.261 59.4366C111.016 58.6826 112.013 58.6429 112.338 59.354C112.819 60.4091 112.382 61.4048 111.076 62.2327C110.534 62.5766 110.362 62.6154 109.82 62.5163C108.182 62.217 107.645 59.8646 108.585 57.1073C109.101 55.592 109.885 54.1235 111.499 51.6506C113.146 49.127 113.616 48.1956 113.864 46.9592C113.995 46.3065 113.995 45.9496 113.863 45.4575C113.433 43.8495 111.837 42.1634 110.745 42.1634C110.29 42.1634 110.383 41.9755 110.998 41.6471C111.592 41.3303 111.784 40.8366 111.464 40.4512C111.321 40.2792 111.102 40.2528 110.47 40.3317C109.776 40.4183 109.672 40.4002 109.746 40.2066C109.794 40.0822 109.912 39.5799 110.008 39.0905C110.345 37.3795 109.792 36.1751 107.919 34.5428C106.429 33.2439 104.916 32.2564 101.957 30.6511C98.0406 28.5265 97.4348 28.0599 96.8319 26.7038C96.595 26.1709 96.5774 25.9898 96.7204 25.5568C97.1131 24.3674 98.0924 23.675 99.3835 23.6739C100.761 23.6725 101.588 24.4276 101.588 25.6872C101.588 26.4099 101.469 26.6506 100.987 26.8996C100.456 27.1738 99.9153 27.1738 99.3846 26.8996C98.7097 26.5507 98.5421 25.7877 99.1405 25.7877C99.676 25.7877 99.9644 25.6376 99.9644 25.3588C99.9644 24.7082 98.8245 24.522 98.1393 25.0608C97.8298 25.3041 97.7506 25.4923 97.751 25.9828C97.7517 26.809 98.1717 27.4499 98.9634 27.8329C99.8012 28.2383 100.62 28.2328 101.443 27.8162C102.263 27.4005 102.68 26.7131 102.667 25.8002C102.642 24.1666 101.573 22.9215 99.9306 22.6136L99.3939 22.5129L99.6893 21.9466C99.9231 21.4982 99.9507 21.3166 99.8217 21.0759C99.6272 20.7126 98.9026 20.6719 98.3408 20.993C97.8027 21.3004 97.7507 21.2715 97.747 20.661C97.7429 20.0008 97.1033 18.7779 96.5486 18.3694C96.067 18.0148 95.181 17.8448 94.5267 17.9814C93.9606 18.0996 93.1282 18.8442 92.8727 19.4609C92.4849 20.3963 93.2256 21.6883 94.2385 21.8435C94.8881 21.9429 95.684 21.6093 95.684 21.2376C95.684 20.8926 95.4115 20.7717 94.635 20.7717C94.1451 20.7717 94.0301 20.7115 93.9081 20.3904C93.7516 19.9791 93.7962 19.8433 94.2557 19.3332C94.9704 18.5397 96.4227 19.1754 96.649 20.3807C96.9506 21.9877 95.6718 23.2153 94.0703 22.8557C92.0104 22.3932 90.0966 19.3414 88.6002 14.1328C87.8296 11.4506 87.3089 10.3801 86.2705 9.34226C84.9056 7.97791 83.313 7.44193 82.0583 7.92435C81.4866 8.14417 81.4892 8.14624 81.5952 7.58164C81.6687 7.19069 81.6234 7.01292 81.3915 6.78115C80.9955 6.38533 80.5437 6.51589 80.1371 7.14363C79.961 7.41552 79.7759 7.63874 79.7259 7.63977C79.6757 7.64065 79.4572 7.37348 79.2404 7.04596C78.6009 6.07994 76.9851 5.20288 75.2999 4.90708C74.5442 4.77445 73.1953 5.14401 69.8121 6.41055C65.8625 7.88909 64.3654 8.2858 62.6953 8.29672C61.6317 8.30365 61.229 8.24169 60.6752 7.98587C60.0492 7.69686 59.9616 7.59256 59.7527 6.88958C59.3557 5.55355 59.5235 4.76412 60.341 4.12134C61.4984 3.21152 63.3595 3.85741 63.3595 5.16895C63.3595 6.22467 62.8449 6.67788 61.8722 6.47856C61.3993 6.38164 61.3669 6.33738 61.3669 5.79108C61.3669 5.30585 61.3133 5.19963 61.0491 5.16201C60.8498 5.13368 60.6432 5.24227 60.4956 5.45309C59.8923 6.31377 60.5397 7.38513 61.7745 7.57028C62.6792 7.70586 63.4182 7.44326 63.8967 6.81611C65.2194 5.08279 63.9137 2.63704 61.6621 2.63026C61.0259 2.62834 59.7226 3.16299 59.3931 3.56102C59.1183 3.89311 58.9315 3.86892 58.9315 3.50112C58.9315 3.33368 58.7905 2.86896 58.6181 2.46842C58.2615 1.63989 57.9344 1.53397 57.4873 2.10225ZM43.581 6.68304C44.5957 7.03298 46.4629 7.6858 47.7302 8.13399C50.3131 9.04749 51.8596 9.41189 53.1533 9.41189C54.3293 9.41189 55.8503 8.92829 56.3989 8.37978L56.834 7.94486L57.1626 8.75376C57.6727 10.0101 58.438 10.0336 58.8066 8.80422C58.9009 8.48939 59.0072 8.23166 59.0427 8.23166C59.0782 8.23166 59.3064 8.37328 59.5495 8.54634C60.1771 8.99306 61.6265 9.41189 62.5446 9.41189C64.2886 9.41189 65.591 9.04189 72.1417 6.68584C73.4404 6.21862 74.3038 5.99319 74.8133 5.98803C76.3331 5.97254 78.001 6.83677 78.5583 7.92878C78.9521 8.70021 78.9359 9.00117 78.471 9.55337C78.0062 10.1054 77.4961 10.3847 76.5753 10.5908C74.9508 10.9548 73.5126 9.43373 74.7616 8.67262C75.339 8.32076 75.8726 8.29878 76.3154 8.60889C76.5802 8.79419 76.6435 8.98111 76.6435 9.57757C76.6435 10.2968 76.6544 10.3154 77.0494 10.2699C77.3649 10.2338 77.4921 10.1094 77.6205 9.71241C78.133 8.12794 76.4199 6.88471 74.6534 7.55892C72.8505 8.24715 72.7442 10.2391 74.4571 11.2334C75.5427 11.8635 76.4059 11.8646 78.0397 11.2379C78.2237 11.1673 78.2488 11.2367 78.1744 11.6089C78.0068 12.4464 78.7375 12.8127 79.3772 12.212L79.6946 11.914L79.8645 12.4804C80.2223 13.6743 81.7812 14.6973 82.9948 14.5346C83.756 14.4325 84.2104 14.1314 84.7778 13.353C85.1847 12.7949 85.2249 12.6449 85.1714 11.8851C85.101 10.8825 84.7574 10.4325 83.7756 10.0578C83.2575 9.86009 83.0548 9.84504 82.754 9.98195C82.2194 10.2254 82.361 10.6156 83.0811 10.8835C83.9486 11.2063 84.1712 11.4397 84.1712 12.0264C84.1712 12.6385 83.3715 13.5427 82.8304 13.5427C82.282 13.5427 81.3059 12.9917 81.0314 12.5273C80.4032 11.4642 80.8909 9.66048 81.9533 9.11875C83.1133 8.52731 84.2889 8.82664 85.4798 10.0169C86.4101 10.9468 86.7373 11.6104 87.4815 14.076C88.3431 16.9303 88.7602 18.0298 89.5946 19.6451C90.3899 21.1847 91.3116 22.4427 92.0941 23.0562C92.6449 23.4883 93.8822 24.003 94.3925 24.0124C94.6936 24.018 94.7067 24.0797 94.4927 24.4795C94.2428 24.9463 94.6948 25.5388 95.214 25.4249C95.6006 25.3402 95.6105 25.3554 95.6205 26.0578C95.6279 26.5696 95.7525 26.9849 96.0514 27.4949C96.9089 28.9573 97.7913 29.6007 102.105 31.9085C105.382 33.662 107.888 35.5529 108.645 36.8428C109.268 37.906 109.099 39.7164 108.287 40.6815C107.969 41.0584 107.803 41.1307 107.25 41.1307C106.105 41.1307 105.146 40.3679 104.834 39.2068C104.493 37.9429 105.502 37.4316 106.881 38.1691C107.131 38.303 107.197 38.4748 107.197 38.9967C107.197 39.5994 107.228 39.6554 107.562 39.6554C107.793 39.6554 108.021 39.5139 108.18 39.2713C108.909 38.1593 106.984 36.4627 105.343 36.7705C103.758 37.0678 103.232 38.847 104.254 40.4575C104.676 41.1223 105.741 42.0159 106.112 42.0159C106.371 42.0159 106.364 42.1317 106.09 42.4058C105.724 42.7711 105.809 43.1961 106.247 43.1961H106.627L106.326 43.6173C105.628 44.5981 105.811 46.3348 106.707 47.2305C108.178 48.7015 110.113 48.6353 111.181 47.077C111.814 46.1537 111.497 44.6227 110.573 44.1456C110.067 43.8836 109.447 43.9642 109.314 44.3089C109.205 44.5928 109.519 44.9665 109.866 44.9665C110.205 44.9665 110.444 45.3934 110.444 45.9965C110.444 46.5039 109.895 47.1265 109.319 47.2707C108.809 47.3988 108.043 47.0835 107.498 46.5217C107.069 46.0792 107.007 45.9169 106.997 45.2034C106.987 44.5416 107.05 44.3206 107.334 44.0191C107.94 43.3741 109.656 42.9458 110.616 43.2C111.365 43.3983 111.942 43.897 112.484 44.8157C113.332 46.255 112.891 47.7032 110.527 51.2365C108.936 53.6127 107.741 56.0101 107.327 57.6515C106.94 59.1843 107.008 60.8365 107.498 61.7955C107.668 62.1299 107.787 62.4213 107.761 62.443C107.735 62.4648 107.564 62.5603 107.381 62.6553C107.003 62.8518 106.946 63.2861 107.263 63.5493C107.446 63.7004 107.405 63.7991 106.996 64.2089C105.487 65.7167 105.654 69.1101 107.585 76.1666C108.149 78.2276 108.275 78.9146 108.288 80.0047C108.301 81.0963 108.25 81.4241 108.001 81.8469C107.313 83.0192 105.367 83.6552 104.249 83.0741C102.537 82.1854 102.28 79.5099 103.827 78.6824C104.302 78.4281 104.414 78.4172 104.743 78.593C105.458 78.976 105.839 80.4121 105.335 80.8299C105.205 80.9384 104.872 81.0078 104.597 80.9842C103.902 80.9243 103.756 81.3284 104.302 81.7984C104.799 82.2256 105.267 82.2376 105.778 81.8359C106.713 81.1004 106.867 79.8737 106.175 78.6684C105.417 77.3467 104.208 77.0951 102.959 77.9994C102.136 78.5949 101.811 79.3302 101.81 80.5948C101.81 81.1628 101.867 81.7438 101.936 81.8857C102.038 82.0942 101.995 82.1443 101.715 82.146C100.719 82.1517 100.432 82.5779 100.938 83.2992C101.165 83.623 101.147 83.6629 100.44 84.4102C100.036 84.8366 99.5982 85.394 99.4663 85.6489C98.932 86.6818 99.3578 88.4509 100.307 89.1428C100.887 89.5657 102.147 89.563 102.721 89.138C103.299 88.71 103.802 87.9296 103.802 87.461C103.802 86.7204 102.745 86.0137 102.25 86.4239C101.927 86.6921 101.981 86.9517 102.429 87.2775L102.827 87.5672L102.366 88.0275C101.679 88.7147 100.923 88.6045 100.482 87.753C100.03 86.879 100.262 86 101.17 85.1491C102.118 84.2598 102.757 84.1447 103.715 84.6911C104.705 85.256 105.245 86.8771 104.847 88.0843C104.649 88.6839 103.693 89.6862 102.838 90.1918C101.817 90.7952 101.029 90.9912 98.0934 91.3735C94.7625 91.8069 93.3534 92.1387 91.8809 92.836C90.1649 93.6485 88.5992 95.374 88.5992 96.4526C88.5992 96.8243 88.5273 96.8232 87.9945 96.4441C87.7584 96.2762 87.4162 96.1599 87.2336 96.1859C86.9456 96.2268 86.896 96.3333 86.8576 96.9924C86.8156 97.7177 86.7924 97.7559 86.341 97.8407C86.0813 97.8896 85.451 98.1271 84.9406 98.3684C83.8546 98.8821 82.7675 99.9236 80.4242 102.696C78.1377 105.4 74.6558 108.867 73.8294 109.262C72.6279 109.837 70.8498 109.549 70.2425 108.682C69.9498 108.265 69.9295 107.239 70.2009 106.59C70.8256 105.096 73.4717 104.306 73.7771 105.522C73.9734 106.304 73.5703 107.024 72.8582 107.164C72.377 107.258 72.2515 107.174 71.6385 106.349L71.3721 105.99L71.1051 106.397C70.5494 107.245 71.3903 108.183 72.706 108.183C73.639 108.183 74.1491 107.852 74.5897 106.962C75.168 105.795 74.8719 104.665 73.8391 104.096C73.4372 103.875 73.1503 103.831 72.5473 103.896C71.3853 104.023 70.6592 104.376 69.9572 105.157L69.3249 105.86L68.9169 105.509C68.3028 104.981 67.9538 105.05 67.6769 105.755C67.5011 106.202 67.3842 106.326 67.2092 106.251C65.4631 105.504 64.2381 105.648 63.1581 106.728C62.5335 107.352 62.3025 107.907 62.2945 108.802C62.2861 109.729 62.5145 110.123 63.4954 110.875C63.9578 111.23 64.2722 111.355 64.7041 111.355C65.9562 111.355 66.9019 110.592 66.9019 109.583C66.9019 108.561 65.98 108.325 65.8969 109.325C65.8098 110.372 64.775 110.649 63.8812 109.864C63.4495 109.485 63.3595 109.306 63.3595 108.824C63.3595 107.992 63.6963 107.449 64.4352 107.091C65.2361 106.704 65.6119 106.702 66.3961 107.082C67.8362 107.778 68.3318 109.563 67.4048 110.714C67.1537 111.026 66.728 111.431 66.4588 111.614C64.7655 112.766 63.2101 112.333 58.7493 109.468C56.388 107.951 54.5954 107.05 52.6317 106.393C51.2046 105.916 51.0288 105.889 50.3359 106.037C49.9232 106.126 49.3035 106.323 48.9587 106.475L48.3317 106.753L48.2316 106.214C48.0394 105.178 47.4371 104.88 46.834 105.521L46.4932 105.884L45.8501 105.169C45.1659 104.408 44.5101 104.069 43.4021 103.903C41.4507 103.611 40.2963 105.268 41.2076 107.053C41.5881 107.799 42.062 108.126 42.882 108.209C43.6442 108.287 44.4365 107.917 44.7588 107.335C44.9585 106.973 44.9588 106.886 44.7618 106.535C44.4408 105.964 44.2419 105.966 43.968 106.543C43.3851 107.771 41.8483 107.148 41.9831 105.738C42.1212 104.292 44.7714 104.891 45.5572 106.546C45.9306 107.333 45.871 108.342 45.4245 108.788C44.5891 109.623 43.1466 109.823 41.9671 109.267C41.0829 108.85 37.3463 105.102 34.7545 102.031C33.6792 100.758 32.552 99.5109 32.2494 99.2603C31.5434 98.6755 30.0921 97.9474 29.4187 97.8401C28.8969 97.7569 28.8947 97.7535 28.8947 96.9948C28.8947 96.3041 28.8618 96.2282 28.5426 96.1833C28.3483 96.1558 28.0034 96.2716 27.7736 96.4414C27.2646 96.8175 27.1973 96.8223 27.1973 96.4832C27.1973 95.9451 26.415 94.6714 25.6729 94.001C24.1507 92.626 22.0819 91.9233 18.1199 91.4356C16.821 91.2757 15.393 91.0703 14.9465 90.9793C13.3896 90.6617 11.6333 89.5151 11.0984 88.4672C10.4458 87.1885 10.9226 85.3325 12.0683 84.6919C13.1043 84.1125 13.8721 84.302 14.8432 85.3763C15.4572 86.0556 15.6099 86.5028 15.4746 87.2241C15.3478 87.9001 14.9735 88.3198 14.3989 88.4307C14.0024 88.5073 13.8519 88.449 13.4764 88.0737C12.94 87.5376 12.924 87.4228 13.3598 87.2318C13.7519 87.0599 13.7961 86.5938 13.4415 86.3703C13.2547 86.2526 13.0591 86.2755 12.6705 86.4606C11.7592 86.8951 11.7766 87.862 12.7124 88.7975C14.2958 90.38 16.5701 89.1364 16.5701 86.688C16.5701 85.9443 16.2631 85.3679 15.357 84.4102C14.6498 83.6629 14.6319 83.623 14.8588 83.2992C15.3642 82.5779 15.0771 82.1517 14.082 82.146C13.8074 82.1443 13.7573 82.0895 13.8442 81.8857C13.9047 81.7438 13.9862 81.2462 14.0253 80.78C14.1565 79.2131 13.079 77.7038 11.6656 77.4746C10.2212 77.2403 8.77898 79.1207 9.19787 80.6921C9.3651 81.3195 10.2249 82.1439 10.7121 82.1439C11.2145 82.1439 11.6993 81.7358 11.6993 81.3129C11.6993 80.9802 11.6467 80.9455 11.1992 80.9842C10.9241 81.0078 10.592 80.9384 10.4612 80.8299C9.90311 80.3669 10.406 78.711 11.1621 78.5213C12.0072 78.3095 13.0277 79.4437 13.0277 80.5948C13.0277 81.5212 12.14 82.8689 11.3263 83.1781C10.3149 83.5625 8.74961 83.0841 7.96363 82.1504C7.21943 81.2664 7.26002 79.4512 8.08969 76.5143C8.60644 74.6851 9.34695 71.4584 9.64053 69.7557C10.0574 67.3401 9.75506 65.3456 8.8147 64.3052C8.37101 63.8144 8.33278 63.7153 8.5254 63.5556C8.88555 63.2567 8.79389 62.8094 8.33692 62.6371L7.92673 62.4824L8.30002 61.7282C8.62149 61.0791 8.673 60.7788 8.6702 59.5722C8.66489 57.2713 7.74032 55.0132 5.28764 51.3103C3.62462 48.7993 3.19894 47.9849 2.96337 46.8622C2.814 46.1507 2.82551 45.9405 3.04544 45.3651C3.43672 44.341 4.32956 43.4133 5.11391 43.2159C6.18874 42.9453 8.04009 43.4329 8.51596 44.112C8.65455 44.3097 8.74725 44.7521 8.74725 45.2155C8.74725 45.8614 8.67551 46.0706 8.31212 46.4843C8.07286 46.7568 7.60275 47.0701 7.2674 47.1806C6.71685 47.3624 6.60704 47.3543 6.13088 47.098C5.13871 46.5639 5.01709 45.3772 5.91332 44.9768C6.2466 44.8278 6.38564 44.6658 6.38564 44.4264C6.38564 43.6697 4.99081 43.9435 4.56085 44.7846C4.16528 45.5585 4.13399 46.093 4.44366 46.7926C4.99347 48.0348 6.397 48.6208 7.6643 48.137C9.60613 47.3959 10.4452 45.3332 9.47935 43.6756L9.19994 43.1961H9.56407C9.98473 43.1961 10.0692 42.7592 9.70665 42.4585C9.39846 42.2028 9.4299 42.0621 9.81735 41.9631C10.3756 41.8206 11.17 41.0559 11.6219 40.2259C12.6092 38.4126 11.847 36.7829 10.0163 36.7935C8.71596 36.801 7.4212 37.7517 7.41943 38.7005C7.41855 39.1743 7.84762 39.6783 8.20806 39.627C8.46769 39.5899 8.52673 39.4806 8.53057 39.0289C8.53633 38.3598 8.81514 38.0528 9.57174 37.8823C10.4562 37.6828 10.8761 37.9504 10.9337 38.7502C11.0221 39.9806 9.88776 41.1291 8.58282 41.1301C8.0522 41.1306 7.82017 41.049 7.53161 40.7606C6.76202 39.9915 6.51538 37.9751 7.06239 36.9261C7.43036 36.2205 9.23285 34.6247 10.8787 33.5471C11.5329 33.1188 13.0314 32.2496 14.2085 31.6155C18.256 29.435 19.1379 28.7275 19.9104 27.0408C20.1791 26.4545 20.2555 26.1028 20.1847 25.7803C20.0915 25.3564 20.1066 25.338 20.4703 25.4292C20.6964 25.486 20.9445 25.4507 21.0738 25.3435C21.3376 25.1247 21.3628 24.4409 21.1162 24.1943C20.9785 24.0567 21.0053 24.0173 21.2369 24.0173C23.0855 24.0173 25.1531 22.0085 26.6099 18.7971C27.2013 17.4934 27.6326 16.2722 28.3092 13.9853C28.9713 11.747 29.3789 10.9118 30.2181 10.073C31.8949 8.39704 33.8785 8.41341 34.7263 10.1101C35.1546 10.9673 35.0724 12.2008 34.5493 12.7683C34.1678 13.1823 33.4203 13.5427 32.9437 13.5427C32.4243 13.5427 31.6253 12.6267 31.6253 12.0313C31.6253 11.4451 31.9016 11.1491 32.6825 10.8987C33.3075 10.6982 33.4799 10.4015 33.1583 10.0801C32.894 9.81583 32.7635 9.80653 32.0597 10.0019C30.9865 10.2999 30.3136 11.5071 30.6141 12.5951C30.8873 13.5842 32.0379 14.5763 32.9095 14.5745C34.1639 14.572 35.7441 13.4284 35.9559 12.3697L36.0559 11.8708L36.3962 12.1903C37.0559 12.8098 37.8253 12.3833 37.6082 11.5186C37.5283 11.2005 37.5539 11.1611 37.7801 11.2542C38.5546 11.5725 39.7019 11.7856 40.1757 11.699C40.9459 11.5584 41.8868 10.9624 42.2397 10.3916C42.8991 9.32515 42.5097 8.17323 41.3048 7.62619C39.4321 6.77613 37.4885 8.11688 38.1835 9.77954C38.3508 10.1795 38.4855 10.2971 38.7764 10.2971C39.1341 10.2971 39.153 10.2568 39.153 9.49082C39.153 8.5518 39.4344 8.29052 40.2958 8.43023C41.466 8.61995 41.8638 9.37132 41.1645 10.0703C40.2877 10.9466 38.5015 10.7715 37.4925 9.71034C36.7849 8.9662 36.7692 8.47715 37.425 7.61764C38.2015 6.59998 40.0883 5.8017 41.2932 5.98109C41.5367 6.01739 42.5662 6.33325 43.581 6.68304Z" fill="url(#paint0_linear_156_927)"/>
<circle cx="58" cy="58" r="57.5" stroke="url(#paint1_linear_156_927)"/>
<circle cx="58.0001" cy="58" r="47.4573" stroke="url(#paint2_linear_156_927)"/>
<path fill-rule="evenodd" clip-rule="evenodd" d="M57.8544 21.0296C56.0718 21.1348 52.8737 21.5451 51.1593 21.8886C43.1678 23.4898 38.2254 26.6765 36.9597 31.044C36.6516 32.1072 36.6141 34.0909 36.8813 35.1921C37.7161 38.6326 40.7979 41.6042 46.0268 44.0104C46.9367 44.4291 47.6287 44.803 47.5645 44.8416C47.5004 44.88 46.9239 45.0569 46.2835 45.2346C40.3947 46.8691 36.4301 49.9062 35.3587 53.6036C35.0506 54.6668 35.013 56.6505 35.2803 57.7517C36.0982 61.1225 39.0723 64.0449 44.1003 66.4185C46.3317 67.4719 47.6014 67.9272 54.6524 70.2027C58.0545 71.3005 61.886 72.5901 63.1668 73.0683C68.9101 75.2125 72.2373 77.3462 73.2347 79.5249C73.5549 80.2242 73.5997 80.4888 73.54 81.3241C73.2804 84.9533 69.4944 87.4995 62.7745 88.5647C61.4468 88.7752 60.244 88.8254 56.5445 88.8251C51.7932 88.8247 50.955 88.7462 48.5121 88.0741L47.6843 87.8463L48.1833 87.1209C48.6961 86.3754 49.1223 85.2031 49.1208 84.542C49.117 82.7477 47.0265 80.8595 44.1731 80.073C43.4588 79.8761 42.7104 79.8136 41.1167 79.818C39.2359 79.8231 38.8795 79.8655 37.8419 80.2078C35.8526 80.8642 34.4476 81.8414 33.7173 83.0766C33.3905 83.6291 33.33 83.9023 33.33 84.8232C33.33 85.7604 33.3909 86.0247 33.7605 86.6918C34.8889 88.7292 37.9665 90.5161 42.6798 91.8705C48.166 93.4469 53.5205 94.1014 59.6737 93.948C66.8922 93.768 72.254 92.625 76.9547 90.2643C80.801 88.3324 83.1091 85.9778 84.1429 82.9311C84.5497 81.7324 84.5247 79.1272 84.0933 77.7642C83.1613 74.8192 80.5521 72.213 76.3262 70.0058L74.931 69.277L75.9624 68.8773C77.5046 68.2796 79.7592 67.1237 80.9931 66.2981C82.5586 65.2509 84.3023 63.4393 84.9466 62.1908C85.8446 60.4505 86.0155 59.7646 86.0161 57.8972C86.0171 55.0748 85.2365 53.2833 83.0338 51.0531C81.566 49.5669 79.7998 48.3707 77.1622 47.0762C74.1074 45.5769 70.8288 44.35 62.5119 41.5933C58.2292 40.1738 54.2012 38.7837 53.5608 38.5043C52.9204 38.2247 51.4795 37.5991 50.3588 37.1141C47.5472 35.8974 47.0168 35.5789 45.839 34.4003C44.5345 33.0946 44.2583 32.5261 44.3562 31.3479C44.5176 29.4042 45.7326 27.849 47.8893 26.8255C49.9798 25.8336 52.945 24.6861 54.3181 24.3377C56.9777 23.6631 58.7751 23.4928 63.2396 23.4928C67.0621 23.4927 67.4781 23.5177 68.5395 23.8117C69.1731 23.9872 70.0091 24.3348 70.3973 24.5838L71.1032 25.0369L70.2642 25.4342C67.5484 26.7209 67.119 29.8242 69.3879 31.769C71.3542 33.4545 73.9984 33.922 77.5031 33.2039C78.9961 32.8981 80.2491 32.2729 81.2774 31.321C82.347 30.3305 82.6706 29.5886 82.5608 28.3778C82.4026 26.6335 81.1135 24.9954 79.1041 23.985C76.5045 22.678 71.2963 21.475 66.5144 21.0769C64.9159 20.9439 59.7832 20.9159 57.8544 21.0296ZM57.7817 48.1391C68.9572 51.7058 73.5055 54.0598 74.8357 56.9653C75.1559 57.6646 75.2007 57.9292 75.141 58.7645C74.9248 61.7878 72.1261 64.1675 67.3357 65.4016L65.867 65.7798L59.8519 63.8086C54.01 61.894 53.0593 61.5399 48.7578 59.6752C45.9437 58.4554 45.4149 58.1377 44.238 56.9599C42.9335 55.6542 42.6573 55.0857 42.7552 53.9075C42.9156 51.9773 44.134 50.4074 46.2519 49.4024C48.9608 48.117 52.9935 46.6229 53.4153 46.7486C53.4953 46.7724 55.4602 47.3981 57.7817 48.1391Z" fill="black"/>
<path fill-rule="evenodd" clip-rule="evenodd" d="M57.8544 21.0296C56.0718 21.1348 52.8737 21.5451 51.1593 21.8886C43.1678 23.4898 38.2254 26.6765 36.9597 31.044C36.6516 32.1072 36.6141 34.0909 36.8813 35.1921C37.7161 38.6326 40.7979 41.6042 46.0268 44.0104C46.9367 44.4291 47.6287 44.803 47.5645 44.8416C47.5004 44.88 46.9239 45.0569 46.2835 45.2346C40.3947 46.8691 36.4301 49.9062 35.3587 53.6036C35.0506 54.6668 35.013 56.6505 35.2803 57.7517C36.0982 61.1225 39.0723 64.0449 44.1003 66.4185C46.3317 67.4719 47.6014 67.9272 54.6524 70.2027C58.0545 71.3005 61.886 72.5901 63.1668 73.0683C68.9101 75.2125 72.2373 77.3462 73.2347 79.5249C73.5549 80.2242 73.5997 80.4888 73.54 81.3241C73.2804 84.9533 69.4944 87.4995 62.7745 88.5647C61.4468 88.7752 60.244 88.8254 56.5445 88.8251C51.7932 88.8247 50.955 88.7462 48.5121 88.0741L47.6843 87.8463L48.1833 87.1209C48.6961 86.3754 49.1223 85.2031 49.1208 84.542C49.117 82.7477 47.0265 80.8595 44.1731 80.073C43.4588 79.8761 42.7104 79.8136 41.1167 79.818C39.2359 79.8231 38.8795 79.8655 37.8419 80.2078C35.8526 80.8642 34.4476 81.8414 33.7173 83.0766C33.3905 83.6291 33.33 83.9023 33.33 84.8232C33.33 85.7604 33.3909 86.0247 33.7605 86.6918C34.8889 88.7292 37.9665 90.5161 42.6798 91.8705C48.166 93.4469 53.5205 94.1014 59.6737 93.948C66.8922 93.768 72.254 92.625 76.9547 90.2643C80.801 88.3324 83.1091 85.9778 84.1429 82.9311C84.5497 81.7324 84.5247 79.1272 84.0933 77.7642C83.1613 74.8192 80.5521 72.213 76.3262 70.0058L74.931 69.277L75.9624 68.8773C77.5046 68.2796 79.7592 67.1237 80.9931 66.2981C82.5586 65.2509 84.3023 63.4393 84.9466 62.1908C85.8446 60.4505 86.0155 59.7646 86.0161 57.8972C86.0171 55.0748 85.2365 53.2833 83.0338 51.0531C81.566 49.5669 79.7998 48.3707 77.1622 47.0762C74.1074 45.5769 70.8288 44.35 62.5119 41.5933C58.2292 40.1738 54.2012 38.7837 53.5608 38.5043C52.9204 38.2247 51.4795 37.5991 50.3588 37.1141C47.5472 35.8974 47.0168 35.5789 45.839 34.4003C44.5345 33.0946 44.2583 32.5261 44.3562 31.3479C44.5176 29.4042 45.7326 27.849 47.8893 26.8255C49.9798 25.8336 52.945 24.6861 54.3181 24.3377C56.9777 23.6631 58.7751 23.4928 63.2396 23.4928C67.0621 23.4927 67.4781 23.5177 68.5395 23.8117C69.1731 23.9872 70.0091 24.3348 70.3973 24.5838L71.1032 25.0369L70.2642 25.4342C67.5484 26.7209 67.119 29.8242 69.3879 31.769C71.3542 33.4545 73.9984 33.922 77.5031 33.2039C78.9961 32.8981 80.2491 32.2729 81.2774 31.321C82.347 30.3305 82.6706 29.5886 82.5608 28.3778C82.4026 26.6335 81.1135 24.9954 79.1041 23.985C76.5045 22.678 71.2963 21.475 66.5144 21.0769C64.9159 20.9439 59.7832 20.9159 57.8544 21.0296ZM57.7817 48.1391C68.9572 51.7058 73.5055 54.0598 74.8357 56.9653C75.1559 57.6646 75.2007 57.9292 75.141 58.7645C74.9248 61.7878 72.1261 64.1675 67.3357 65.4016L65.867 65.7798L59.8519 63.8086C54.01 61.894 53.0593 61.5399 48.7578 59.6752C45.9437 58.4554 45.4149 58.1377 44.238 56.9599C42.9335 55.6542 42.6573 55.0857 42.7552 53.9075C42.9156 51.9773 44.134 50.4074 46.2519 49.4024C48.9608 48.117 52.9935 46.6229 53.4153 46.7486C53.4953 46.7724 55.4602 47.3981 57.7817 48.1391Z" fill="url(#paint3_linear_156_927)"/>
<defs>
<linearGradient id="paint0_linear_156_927" x1="57.9271" y1="1.74654" x2="57.9271" y2="113.235" gradientUnits="userSpaceOnUse">
<stop stop-color="#02ABCC"/>
<stop offset="1" stop-color="#06839F"/>
</linearGradient>
<linearGradient id="paint1_linear_156_927" x1="58" y1="0" x2="58" y2="116" gradientUnits="userSpaceOnUse">
<stop stop-color="#02ABCC"/>
<stop offset="1" stop-color="#06839F"/>
</linearGradient>
<linearGradient id="paint2_linear_156_927" x1="58.0001" y1="10.0427" x2="58.0001" y2="105.957" gradientUnits="userSpaceOnUse">
<stop stop-color="#02ABCC"/>
<stop offset="1" stop-color="#06839F"/>
</linearGradient>
<linearGradient id="paint3_linear_156_927" x1="59.673" y1="20.9586" x2="59.673" y2="93.9698" gradientUnits="userSpaceOnUse">
<stop stop-color="#02ABCC"/>
<stop offset="1" stop-color="#06839F"/>
</linearGradient>
</defs>
</svg>
