<svg width="158" height="55" viewBox="0 0 158 55" fill="none" xmlns="http://www.w3.org/2000/svg">
<path fill-rule="evenodd" clip-rule="evenodd" d="M12.1868 0.461652C11.6989 0.715644 11.0829 1.19005 10.818 1.5159C10.4767 1.93558 9.26049 5.04577 6.6496 12.1759C4.62195 17.713 2.83901 22.4811 2.68763 22.772C2.29358 23.5288 1.10585 24.4818 0.214794 24.7563C-0.466152 24.966 0.197749 24.9883 6.27226 24.9604L13.0944 24.9292L15.7372 17.7106C17.1907 13.7404 18.5107 10.2421 18.6705 9.93643C19.067 9.17814 20.0471 8.1244 20.873 7.56891C22.1269 6.72518 22.9445 6.49653 25.0762 6.39262L27.0758 6.29525L27.8909 4.1129C28.6257 2.14593 28.7884 1.85483 29.5404 1.16353C29.9992 0.741665 30.6311 0.315098 30.9446 0.215381C31.3685 0.0807466 29.1522 0.029881 22.2942 0.0171226L13.0738 0L12.1868 0.461652ZM22.9496 8.29748C22.2575 8.54308 21.2242 9.25134 20.7503 9.80482C20.1301 10.529 19.6478 11.7511 15.4523 23.229C13.0886 29.6956 11.052 35.2308 10.9265 35.5294C10.4393 36.6896 8.86019 38.0252 7.46623 38.4563C7.23419 38.528 12.2084 38.5733 18.52 38.5568L29.9957 38.5269L30.8501 38.0784C31.8561 37.5503 32.8649 36.4955 33.2914 35.5257C33.4588 35.1451 35.5426 29.5079 37.9222 22.9987C40.3015 16.4894 42.4333 10.8497 42.6592 10.4661C43.1621 9.6121 44.17 8.79606 45.2315 8.38343C46.0181 8.0774 45.8891 8.0737 34.8053 8.0732C25.8563 8.0727 23.4545 8.11819 22.9496 8.29748ZM52.0188 10.9118V13.7656H52.4407H52.8626V11.3315V8.89729H54.3815H55.9003V11.3315V13.7656H56.3222H56.7441V10.9118V8.05792H54.3815H52.0188V10.9118ZM58.2629 10.9118V13.7656H58.6848C59.0786 13.7656 59.1067 13.7097 59.1067 12.9263V12.0869H60.1247C61.9087 12.0869 62.8195 11.4473 62.8195 10.1946C62.8195 8.65303 61.9546 8.05792 59.7141 8.05792H58.2629V10.9118ZM64.0008 10.9118V13.7656H64.4912C64.9234 13.7656 65.1588 13.5244 66.4741 11.7335L67.9666 9.7014L68.0141 11.7335L68.0615 13.7656H68.4781H68.8948V10.9118C68.8948 8.06313 68.8941 8.05792 68.5151 8.06145C68.2243 8.0643 67.7602 8.57816 66.5322 10.2571L64.929 12.449L64.8819 10.2534L64.8348 8.05792H64.4178H64.0008V10.9118ZM72.9451 10.9118V13.7656H73.367H73.7888V11.3315V8.89729H75.3077H76.8265V11.3315V13.7656H77.3328H77.8391V10.9118V8.05792H75.3921H72.9451V10.9118ZM80.3573 8.43967C79.4131 9.07255 79.0204 9.80834 79.0204 10.945C79.0204 11.497 79.1325 12.1512 79.2734 12.4223C80.2345 14.2711 83.2136 14.4448 84.4454 12.724C85.0382 11.8957 85.0959 10.1933 84.5579 9.40494C83.8938 8.43195 83.1761 8.05792 81.9737 8.05792C81.1642 8.05792 80.7976 8.14455 80.3573 8.43967ZM87.2863 8.85532C87.2812 10.0586 86.9822 11.8781 86.7002 12.4204C86.5623 12.6855 86.2968 12.9506 86.1102 13.0097C85.8204 13.101 85.7708 13.2623 85.7708 14.1126C85.7708 15.0566 85.7924 15.1086 86.1826 15.1086C86.5365 15.1086 86.6016 15.0203 86.6467 14.4791L86.699 13.8496L88.8797 13.8024C91.2341 13.7513 91.3325 13.7853 91.3373 14.647C91.3392 14.9845 91.4244 15.1086 91.6544 15.1086C91.9008 15.1086 91.9923 14.9396 92.0763 14.3297C92.238 13.1567 92.222 13.0941 91.7618 13.0941H91.3399V10.576V8.05792H89.3148H87.2896L87.2863 8.85532ZM94.3775 9.30875C94.3775 11.1072 94.0959 12.236 93.5118 12.7789C93.0901 13.1707 93.0275 13.3503 93.0275 14.1687C93.0275 14.9824 93.0708 15.1086 93.3501 15.1086C93.5952 15.1086 93.7003 14.9468 93.7869 14.4371L93.901 13.7656H96.1644H98.4278V14.4371C98.4278 15.0415 98.47 15.1086 98.8497 15.1086C99.2529 15.1086 99.2716 15.0638 99.2716 14.1014C99.2716 13.1389 99.2529 13.0941 98.8497 13.0941H98.4278V10.576V8.05792H96.4027H94.3775V9.30875ZM100.453 10.9118V13.7656H102.562C104.559 13.7656 104.672 13.7477 104.672 13.4299C104.672 13.1165 104.559 13.0941 102.984 13.0941H101.297V12.1708V11.2475H102.731C104.149 11.2475 104.166 11.2427 104.166 10.8278C104.166 10.413 104.149 10.4082 102.731 10.4082H101.297V9.65272V8.89729H102.9C104.498 8.89729 104.503 8.89578 104.503 8.47761V8.05792H102.478H100.453V10.9118ZM105.853 10.9118V13.7656H106.359C106.854 13.7656 106.866 13.747 106.866 12.9263V12.0869H107.895C109.65 12.0869 110.578 11.3717 110.578 10.0195C110.578 9.31781 110.047 8.60402 109.29 8.28942C108.964 8.15411 108.135 8.05792 107.293 8.05792H105.853V10.9118ZM111.355 8.26777C111.422 8.38326 111.84 8.98056 112.284 9.59531L113.091 10.7132L112.088 12.1433C111.536 12.9299 111.085 13.6167 111.085 13.6696C111.085 13.7225 111.303 13.7656 111.57 13.7656C111.99 13.7656 112.174 13.5848 112.947 12.4141C113.722 11.2393 113.896 11.0691 114.276 11.1131C114.699 11.1621 114.715 11.2044 114.762 12.4646C114.81 13.7211 114.826 13.7656 115.226 13.7656C115.633 13.7656 115.641 13.7371 115.641 12.4226C115.641 11.0991 115.647 11.0796 116.067 11.0796C116.415 11.0796 116.648 11.3246 117.349 12.4226C118.099 13.5966 118.268 13.7656 118.696 13.7656C118.965 13.7656 119.185 13.7206 119.185 13.6657C119.185 13.6107 118.768 12.9625 118.257 12.2254C117.747 11.4881 117.329 10.8072 117.329 10.712C117.329 10.6168 117.709 10.0197 118.173 9.38496C118.637 8.75023 119.016 8.19205 119.016 8.14438C119.016 8.09687 118.797 8.05792 118.528 8.05792C118.113 8.05792 117.919 8.23385 117.233 9.23304C116.623 10.1204 116.329 10.4082 116.033 10.4082C115.66 10.4082 115.641 10.3507 115.641 9.23304C115.641 8.0915 115.629 8.05792 115.219 8.05792C114.809 8.05792 114.797 8.0915 114.797 9.23304V10.4082H114.316C113.907 10.4082 113.716 10.2309 113.049 9.23304C112.362 8.20565 112.199 8.05792 111.748 8.05792C111.384 8.05792 111.269 8.11936 111.355 8.26777ZM120.198 10.9118V13.7656H120.613C121.013 13.7656 121.029 13.7211 121.077 12.4646C121.124 11.2057 121.139 11.1636 121.543 11.1636C121.865 11.1636 122.189 11.4607 122.961 12.4646C123.87 13.6463 124.016 13.7656 124.548 13.7656C124.989 13.7656 125.094 13.7137 124.974 13.5558C124.886 13.4404 124.344 12.7656 123.77 12.0563L122.726 10.7666L123.615 9.7061C125.109 7.92446 125.046 8.05708 124.395 8.06397C123.895 8.06917 123.714 8.21153 122.898 9.23723C122.154 10.1728 121.878 10.4051 121.506 10.4065C121.043 10.4082 121.042 10.4035 121.042 9.23304C121.042 8.0915 121.03 8.05792 120.62 8.05792H120.198V10.9118ZM126.273 10.9118V13.7656H128.383C130.38 13.7656 130.492 13.7477 130.492 13.4299C130.492 13.1165 130.38 13.0941 128.805 13.0941H127.117V12.1708V11.2475H128.551C129.969 11.2475 129.986 11.2427 129.986 10.8278C129.986 10.413 129.969 10.4082 128.551 10.4082H127.117V9.65272V8.89729H128.72C130.318 8.89729 130.323 8.89578 130.323 8.47761V8.05792H128.298H126.273V10.9118ZM83.0855 9.11217C83.785 9.58121 84.0775 10.1248 84.0807 10.9621C84.0857 12.2684 83.2438 13.1222 81.9501 13.1222C80.5639 13.1222 79.7638 12.1782 79.9055 10.7107C80.0681 9.0279 81.7206 8.19726 83.0855 9.11217ZM61.6258 9.33964C62.5167 10.4661 61.657 11.4117 59.7396 11.4144L59.1067 11.4154V10.1563V8.89729H60.1914C61.1622 8.89729 61.3128 8.94379 61.6258 9.33964ZM90.4591 10.9537L90.4117 13.0102L88.9143 13.059C87.5321 13.104 87.4265 13.0847 87.5397 12.8072C87.8273 12.1022 87.9485 11.5035 88.0593 10.2394L88.177 8.89729H89.3418H90.5065L90.4591 10.9537ZM97.584 10.9957V13.0941H96.0738H94.5635L94.83 12.4646C94.9765 12.1184 95.1349 11.1742 95.1822 10.3662L95.2681 8.89729H96.4261H97.584V10.9957ZM109.203 9.19107C109.761 9.66111 109.824 10.2866 109.365 10.8164C109.04 11.1933 108.789 11.2885 107.919 11.367L106.866 11.4621V10.1797V8.89729H107.86C108.561 8.89729 108.956 8.98391 109.203 9.19107ZM55.394 20.2287V20.8163L54.508 20.8171C53.4823 20.8181 52.53 21.3016 52.0109 22.0851C51.5698 22.7505 51.5612 24.3759 51.9944 25.1795C52.4104 25.9509 53.511 26.524 54.5767 26.524C55.3723 26.524 55.394 26.5374 55.394 27.0276C55.394 27.52 55.4128 27.5312 56.2378 27.5312C57.0629 27.5312 57.0816 27.52 57.0816 27.0276C57.0816 26.5577 57.124 26.524 57.7145 26.523C58.7918 26.5215 59.5484 26.2161 60.1694 25.5324C60.4938 25.1751 60.8126 24.641 60.878 24.345C61.1516 23.1056 60.5662 21.6767 59.5526 21.1104C59.3538 20.9993 58.7355 20.8688 58.1786 20.8203C57.1807 20.7337 57.1652 20.7245 57.1132 20.1868C57.0614 19.6521 57.0437 19.6412 56.2272 19.6412H55.394V20.2287ZM65.4352 19.805C64.4389 19.9524 63.3246 20.6357 62.7477 21.453C62.3289 22.0463 62.2275 22.3775 62.1736 23.3263C62.096 24.6925 62.3295 25.5001 63.0323 26.2965C63.8759 27.2522 64.7322 27.6068 66.2078 27.6113C67.3407 27.6147 67.5812 27.5571 68.3129 27.1072C68.825 26.7923 69.3333 26.2866 69.6498 25.7773C70.1018 25.0499 70.1605 24.8078 70.1605 23.6701C70.1605 22.5335 70.102 22.2912 69.6542 21.5764C68.8152 20.2365 67.1746 19.5477 65.4352 19.805ZM71.595 23.6701V27.5312H72.5231H73.4513V26.0204V24.5095H75.1389H76.8265V26.0204V27.5312H77.6703H78.5141V23.6701V19.8091H77.6703H76.8265V21.3199V22.8308H75.1389H73.4513V21.3199V19.8091H72.5231H71.595V23.6701ZM81.7192 20.6904C81.717 22.0848 81.3992 24.4817 81.1323 25.1172C80.9703 25.5033 80.7166 25.7577 80.3762 25.8757C79.8748 26.0496 79.8642 26.0764 79.8666 27.17C79.8701 28.9039 79.9398 29.0421 80.8121 29.0421H81.5518V28.2867V27.5312H84.1676H86.7834V28.2867V29.0421H87.6272H88.471L88.4728 28.1608C88.4738 27.6761 88.5209 27.0016 88.5773 26.662C88.6773 26.06 88.6659 26.0434 88.1113 25.9905L87.5428 25.9364L87.4967 22.8728L87.4508 19.8091H84.5856H81.7206L81.7192 20.6904ZM92.639 19.9271C92.5563 20.0642 90.3763 25.302 89.806 26.7338L89.4884 27.5312H90.4615H91.4347L91.6826 26.8178L91.9305 26.1043H93.6041H95.2775L95.5167 26.8178L95.7558 27.5312H96.749C97.5367 27.5312 97.7232 27.4821 97.6503 27.2934C97.5999 27.1624 96.8868 25.4439 96.066 23.4742L94.5733 19.893L93.6465 19.8431C93.1368 19.8156 92.6834 19.8534 92.639 19.9271ZM67.3692 21.5946C68.7512 22.4066 68.855 24.7565 67.55 25.6809C65.5215 27.1178 63.0827 24.9396 64.075 22.5773C64.5437 21.4614 66.2676 20.9471 67.3692 21.5946ZM85.7335 23.7121L85.6864 25.9364L84.1963 25.9851C82.8318 26.0298 82.7135 26.0085 82.7939 25.7333C83.0728 24.7796 83.2227 23.9458 83.3236 22.7888L83.437 21.4878H84.6087H85.7806L85.7335 23.7121ZM94.1251 23.0008C94.3568 23.6782 94.5463 24.2948 94.5463 24.371C94.5463 24.4472 94.0952 24.5095 93.5439 24.5095H92.5413L92.9353 23.3764C93.4524 21.8899 93.5626 21.6285 93.6397 21.7052C93.675 21.7403 93.8935 22.3233 94.1251 23.0008ZM55.394 23.5862V25.0131H54.8261C53.9754 25.0131 53.3689 24.4625 53.3689 23.6901C53.3689 22.7599 53.9675 22.1749 54.9299 22.1643L55.394 22.1593V23.5862ZM58.7937 22.6031C59.3621 23.1103 59.276 24.3007 58.6361 24.7843C58.4773 24.9044 58.0626 25.0049 57.7145 25.0078L57.0816 25.0131V23.6982C57.0816 22.9748 57.1373 22.3277 57.2055 22.2598C57.3862 22.0802 58.47 22.3146 58.7937 22.6031ZM76.7207 33.8109C76.2446 34.0313 75.8113 34.2828 75.7573 34.3696C75.7033 34.4564 75.8692 34.7775 76.1258 35.0834C76.58 35.6246 76.6038 35.632 77.0159 35.3635C77.6901 34.924 78.9288 34.8193 79.4482 35.1579C80.3826 35.7669 79.6303 36.5893 78.1344 36.5939L77.3328 36.5964V37.2679V37.9394H78.3921C79.6094 37.9394 80.2017 38.2436 80.2017 38.8684C80.2017 39.8327 78.3398 40.0867 76.8675 39.3233L76.1822 38.968L75.7466 39.6227L75.3111 40.2774L76.0912 40.7323C76.7043 41.0897 77.1512 41.2032 78.1769 41.2623C79.6441 41.3467 80.4611 41.1461 81.2136 40.5163C82.1767 39.7101 82.214 37.9639 81.2811 37.3559L80.8449 37.0715L81.1984 36.6973C81.7251 36.1395 81.686 34.9341 81.1191 34.264C80.3234 33.3234 78.2372 33.1085 76.7207 33.8109ZM127.66 33.6079C126.806 33.895 125.661 34.9939 125.338 35.8353C125.137 36.3597 125.072 36.9206 125.119 37.7393C125.197 39.1192 125.705 40.022 126.811 40.7498C127.457 41.1743 127.65 41.2129 129.13 41.2129C130.594 41.2129 130.82 41.1691 131.547 40.7442C131.988 40.4864 132.349 40.2043 132.349 40.1174C132.349 40.0303 132.134 39.7197 131.871 39.4271L131.393 38.8949L130.896 39.2599C130.194 39.7763 128.885 39.8911 128.133 39.5021C126.077 38.4393 126.488 35.4072 128.744 34.986C129.406 34.8626 130.726 35.1792 131.021 35.5317C131.185 35.7285 131.297 35.6758 131.692 35.217C131.953 34.9138 132.169 34.573 132.173 34.4594C132.177 34.3459 131.857 34.0879 131.463 33.8861C130.628 33.4592 128.552 33.3074 127.66 33.6079ZM52.0188 37.3518V41.129H52.8587H53.6987L53.7447 38.1492L53.7908 35.1695L55.3518 35.1211L56.9129 35.0729V38.1009V41.129H57.841H58.7692V37.3518V33.5747H55.394H52.0188V37.3518ZM60.4568 37.3518V41.129H61.3006H62.1444V40.1217V39.1145H63.3311C64.6578 39.1145 65.5294 38.8249 66.2395 38.1484C67.4794 36.9669 67.1033 34.714 65.5329 33.9171C64.9558 33.6242 64.5395 33.5747 62.6575 33.5747H60.4568V37.3518ZM68.3885 37.3518V41.129H71.3418H74.2951V40.3736V39.6181H72.1764H70.0576L70.109 38.8207L70.1605 38.0233L71.9747 37.9757L73.7888 37.928V37.2679V36.6078L71.9747 36.5601L70.1605 36.5125L70.1087 35.799L70.0567 35.0855H72.0916H74.1264V34.3301V33.5747H71.2575H68.3885V37.3518ZM83.4082 37.3518V41.129L84.2941 41.1209L85.1801 41.113L86.699 39.0096C87.5343 37.8528 88.3128 36.8274 88.4288 36.7309C88.5958 36.5919 88.6397 37.031 88.6397 38.8422V41.129H89.4835H90.3273V37.3518V33.5747H89.5223H88.7173L86.9487 36.0141L85.1801 38.4533L85.1334 36.0141L85.0868 33.5747H84.2474H83.4082V37.3518ZM93.5324 34.3721C93.53 35.6995 93.205 38.0972 92.9427 38.7217C92.7823 39.1036 92.5177 39.3762 92.1866 39.5004C91.6809 39.6905 91.6774 39.7005 91.6774 40.9841C91.6774 42.7127 91.7262 42.8077 92.6143 42.8077H93.3464L93.3979 42.0103L93.4494 41.2129L96.023 41.1666L98.5965 41.1203V41.964V42.8077H99.4403H100.284V41.7375C100.284 41.149 100.332 40.4313 100.39 40.1427C100.492 39.6324 100.479 39.6181 99.8833 39.6181H99.2716V36.5964V33.5747H96.4027H93.5337L93.5324 34.3721ZM101.803 37.3518V41.129H104.756H107.71V40.3736V39.6181H105.6H103.491V38.7788V37.9394H105.263H107.035V37.2679V36.5964H105.263H103.491V35.841V35.0855H105.516H107.541V34.3301V33.5747H104.672H101.803V37.3518ZM109.228 37.3518V41.129H110.072H110.916V39.6181V38.1073H112.604H114.291V39.6181V41.129H115.135H115.979V37.3518V33.5747H115.135H114.291V35.0916V36.6085L112.646 36.5605L111 36.5125L110.952 35.0436L110.903 33.5747H110.066H109.228V37.3518ZM117.329 34.3301V35.0855H118.679H120.029V38.1073V41.129H120.873H121.717V38.1073V35.0855H123.067H124.417V34.3301V33.5747H120.873H117.329V34.3301ZM133.867 37.3518V41.129H134.711H135.555V39.5342C135.555 37.9854 135.566 37.9394 135.94 37.9394C136.234 37.9394 136.595 38.3164 137.465 39.5342L138.605 41.129H139.706C140.541 41.129 140.776 41.0785 140.68 40.9191C140.61 40.8038 139.96 39.9425 139.236 39.0052C138.511 38.0678 137.918 37.2135 137.918 37.1064C137.918 36.9993 138.529 36.1609 139.276 35.2432L140.634 33.5747H139.543H138.452L137.332 35.0016C136.61 35.9216 136.095 36.4285 135.883 36.4285C135.584 36.4285 135.555 36.3033 135.555 35.0016V33.5747H134.711H133.867V37.3518ZM142.137 37.3518V41.129L143.023 41.1218L143.909 41.1147L145.165 39.3557C145.856 38.3883 146.631 37.3528 146.888 37.0547L147.354 36.5125L147.361 38.8207L147.368 41.129H148.212H149.056V37.3518V33.5747H148.251H147.446L145.677 36.0141L143.909 38.4533L143.862 36.0141L143.815 33.5747H142.976H142.137V37.3518ZM151.583 35.3318C152.235 36.2981 152.768 37.1306 152.768 37.1816C152.768 37.2326 152.198 38.1229 151.501 39.1597L150.234 41.045L151.187 41.0961C151.711 41.1241 152.225 41.1147 152.329 41.0749C152.433 41.0351 152.859 40.3902 153.276 39.6416C153.693 38.8931 154.072 38.2798 154.119 38.279C154.165 38.278 154.569 38.9189 155.016 39.7032L155.828 41.129H156.914C157.511 41.129 158 41.0879 158 41.0377C158 40.9873 157.426 40.1211 156.725 39.1125L155.451 37.2788L156.272 36.0564C156.723 35.3839 157.265 34.5505 157.476 34.2042L157.859 33.5747H156.787H155.715L155.142 34.6239C154.131 36.4755 154.26 36.4535 153.375 34.9266L152.591 33.5747H151.494H150.398L151.583 35.3318ZM64.9455 35.4995C65.2996 35.9811 65.2407 36.8274 64.827 37.1999C64.5528 37.4468 64.2165 37.5197 63.3504 37.5197H62.2288L62.1789 36.2838L62.1289 35.0481L63.4189 35.1129C64.4473 35.1646 64.757 35.243 64.9455 35.4995ZM97.584 37.3518V39.6181H96.0471C94.8869 39.6181 94.5301 39.5668 94.5912 39.4083C94.7593 38.9723 95.0489 37.3095 95.1466 36.2187L95.2482 35.0855H96.4162H97.584V37.3518ZM94.2462 47.2413C91.9212 47.9958 90.8557 50.5547 91.9197 52.8281C92.9303 54.9869 96.0233 55.6932 98.0552 54.2292C100.316 52.6003 100.038 48.7536 97.5698 47.501C96.7037 47.0615 95.1695 46.9416 94.2462 47.2413ZM52.0188 51.0335V54.8946H52.8587H53.6988L53.7447 51.8309L53.7908 48.7672L55.7737 48.7199L57.7567 48.6727V47.9225V47.1724H54.8877H52.0188V51.0335ZM59.1067 51.0335V54.8946H59.9424H60.7783L60.8284 53.8454L60.8787 52.7962L62.3132 52.7101C64.7221 52.5655 65.633 51.7005 65.4874 49.6957C65.4177 48.7375 65.3515 48.5812 64.8058 48.0836C64.0008 47.3499 63.2687 47.1744 61.0053 47.1734L59.1067 47.1724V51.0335ZM69.0789 47.5501C68.9991 47.758 68.3175 49.4228 67.5643 51.2501C66.811 53.0772 66.1947 54.6446 66.1947 54.7334C66.1947 54.8221 66.6061 54.8946 67.1088 54.8946H68.0228L68.2616 54.1811L68.5003 53.4677L70.1776 53.4203L71.8547 53.3728L72.1046 54.0918L72.3544 54.8107L73.3464 54.8617C74.2425 54.9077 74.3272 54.8834 74.2244 54.6099C74.1618 54.4434 73.4496 52.7022 72.6418 50.7409L71.1731 47.1746L70.1985 47.1736C69.3429 47.1726 69.2063 47.2184 69.0789 47.5501ZM75.6452 51.0335V54.8946H76.4826H77.3202L77.3686 53.3418L77.4172 51.7889L79.0626 51.7409L80.708 51.6929V53.2938V54.8946H81.5518H82.3956V51.0335V47.1724H81.5518H80.708V48.6833V50.1941H79.0204H77.3328V48.6833V47.1724H76.489H75.6452V51.0335ZM83.9144 47.9279V48.6833H85.1801H86.4458V51.7889V54.8946H87.2858H88.1258L88.1717 51.8309L88.2178 48.7672L89.5257 48.7182L90.8336 48.6692V47.9208V47.1724H87.374H83.9144V47.9279ZM101.128 51.0171V54.8946L103.195 54.8936C105.581 54.8926 106.397 54.715 107.063 54.0524C107.474 53.6436 107.541 53.4459 107.541 52.6335C107.541 51.8553 107.468 51.6175 107.127 51.2778C106.899 51.0511 106.62 50.8656 106.506 50.8656C106.393 50.8656 106.478 50.6775 106.696 50.4473C106.982 50.1438 107.091 49.8327 107.091 49.3135C107.091 47.668 106.42 47.2881 103.364 47.2023L101.128 47.1395V51.0171ZM96.909 48.9977C98.3005 49.9773 98.1669 52.398 96.6789 53.1633C95.0889 53.9814 93.1967 52.8241 93.1967 51.0335C93.1967 49.1302 95.3891 47.9279 96.909 48.9977ZM63.5171 49.173C63.9753 49.7359 63.9213 50.4356 63.3873 50.8534C63.0432 51.1227 62.6996 51.2014 61.8685 51.2014H60.7943V50.0543C60.7943 49.4233 60.8512 48.8497 60.9209 48.7793C60.9906 48.709 61.5323 48.6818 62.1248 48.7187C62.9978 48.7733 63.2618 48.8594 63.5171 49.173ZM105.251 49.0533C105.472 49.3682 105.477 49.4741 105.283 49.7667C105.098 50.0451 104.842 50.1196 103.935 50.1599L102.816 50.2094V49.4464V48.6833H103.903C104.832 48.6833 105.028 48.737 105.251 49.0533ZM70.7643 50.4538C71.0075 51.1391 71.1673 51.7388 71.1194 51.7863C70.982 51.9231 69.2323 51.887 69.2323 51.7475C69.2323 51.4099 70.1249 49.0116 70.2165 49.1028C70.2748 49.1605 70.5211 49.7686 70.7643 50.4538ZM105.347 51.7534C105.882 52.0213 106.02 52.8476 105.582 53.1657C105.401 53.2975 104.794 53.3837 104.049 53.3837H102.816V52.4604V51.5371L103.87 51.5397C104.45 51.541 105.115 51.6372 105.347 51.7534Z" fill="white"/>
</svg>
