<svg width="314" height="23" viewBox="0 0 314 23" fill="none" xmlns="http://www.w3.org/2000/svg">
<path d="M295.429 12.1544C294.998 12.1736 294.563 12.1868 294.141 12.2157C293.867 12.2338 293.75 12.1808 293.567 12.1532C293.506 12.1435 293.441 12.1243 293.384 12.1267C292.958 12.1459 292.532 12.1676 292.106 12.1893C291.975 12.2362 291.892 12.2987 291.692 12.3216C291.497 12.3432 291.266 12.3432 291.048 12.3541C290.761 12.3673 290.474 12.3805 290.187 12.3926C290.044 12.3986 289.926 12.4214 289.878 12.4647C289.87 12.4719 289.965 12.49 290.017 12.5008C290.191 12.5369 290.361 12.5778 290.552 12.6055C290.735 12.6319 290.961 12.5886 291.157 12.6223C291.597 12.6981 291.601 12.6969 291.936 12.6824C292.223 12.6692 292.51 12.6548 292.797 12.6452C292.854 12.6428 292.919 12.6608 292.98 12.6704C293.163 12.6969 293.28 12.757 293.55 12.7342C293.754 12.7161 293.98 12.7125 294.194 12.7029C294.372 12.7378 294.537 12.7775 294.729 12.8051C294.907 12.8316 294.959 12.8521 294.864 12.887C294.777 12.9194 294.655 12.9327 294.494 12.9351C294.35 12.9363 294.207 12.9471 294.063 12.9531C293.989 12.9567 293.92 12.9591 293.85 12.9627C293.576 12.976 293.576 12.976 293.076 12.899C292.88 12.8689 292.658 12.911 292.471 12.8821C292.345 12.8629 292.236 12.834 292.114 12.8136C292.062 12.8052 291.979 12.8039 291.914 12.8063C291.697 12.8148 291.479 12.8208 291.27 12.8364C291.122 12.8472 291.035 12.8809 291.053 12.9146C291.057 12.9278 291.162 12.9471 291.222 12.9483C291.362 12.9507 291.51 12.9339 291.644 12.9423C291.775 12.9507 291.91 12.9748 292.005 13.0012C292.201 13.0566 292.423 13.0072 292.61 13.0217C292.806 13.0373 292.967 13.0854 293.154 13.1143C293.202 13.1215 293.293 13.1095 293.367 13.1059C293.58 13.0975 293.793 13.0902 294.007 13.0818C294.185 13.1167 294.376 13.148 294.537 13.1877C294.829 13.2599 295.142 13.2875 295.52 13.2526C295.734 13.2334 295.942 13.2406 296.112 13.2875C296.286 13.3356 296.486 13.3308 296.708 13.3212C296.913 13.3116 297.121 13.2851 297.33 13.3188C297.783 13.3934 297.787 13.397 298.322 13.3681C298.483 13.3597 298.605 13.3573 298.727 13.385C298.84 13.4102 298.961 13.4319 299.079 13.4559C299.292 13.4475 299.51 13.4391 299.723 13.4295C299.997 13.4162 300.149 13.4331 300.214 13.5004C300.253 13.5413 300.271 13.5786 300.367 13.6063C300.48 13.64 300.601 13.6388 300.767 13.6291C300.923 13.6207 301.036 13.6075 301.102 13.5642C301.128 13.5462 301.18 13.5293 301.228 13.5149C301.267 13.504 301.328 13.4872 301.363 13.4896C301.428 13.4944 301.515 13.5076 301.537 13.5233C301.75 13.6688 301.75 13.6701 301.967 13.7122C302.207 13.7591 302.455 13.8012 302.672 13.8541C302.868 13.901 303.064 13.8806 303.277 13.8806C303.438 13.8806 303.542 13.9118 303.529 13.9431C303.52 13.9612 303.46 13.9876 303.407 13.99C302.981 14.0141 302.55 14.0345 302.12 14.0514C302.067 14.0538 302.002 14.0321 301.941 14.0213C301.82 13.9996 301.711 13.966 301.58 13.9587C301.45 13.9515 301.297 13.9696 301.154 13.9756C301.01 13.9816 300.858 13.9973 300.728 13.9876C300.597 13.978 300.493 13.9431 300.371 13.9203C300.314 13.9094 300.236 13.8938 300.188 13.8974C299.871 13.9263 299.636 13.8866 299.41 13.8336C299.362 13.8228 299.279 13.8156 299.218 13.818C298.714 13.8385 298.213 13.8625 297.709 13.8854C297.504 13.895 297.339 13.8529 297.295 13.7819C297.274 13.7422 297.23 13.7025 297.23 13.6628C297.23 13.5907 296.991 13.551 296.817 13.5594C296.53 13.5714 296.238 13.581 295.955 13.5991C295.725 13.6135 295.529 13.5991 295.373 13.5558C295.19 13.5064 294.981 13.5161 294.772 13.5293C294.616 13.5389 294.572 13.5786 294.581 13.6785C294.589 13.7591 294.516 13.7843 294.233 13.7976C293.876 13.8144 293.515 13.8312 293.154 13.8445C293.097 13.8469 293.032 13.8264 292.976 13.8156C292.854 13.794 292.745 13.7591 292.614 13.7518C292.484 13.7434 292.332 13.7615 292.188 13.7687C292.045 13.7747 291.892 13.7915 291.762 13.7831C291.631 13.7747 291.523 13.7386 291.405 13.7158C291.349 13.7049 291.279 13.6893 291.222 13.6917C290.935 13.7013 290.648 13.7158 290.361 13.729C290.039 13.7434 290.039 13.7434 289.582 13.6688C289.374 13.6352 289.165 13.6616 288.96 13.6713C288.743 13.6809 288.538 13.6857 288.369 13.6376C288.256 13.6063 288.129 13.5871 287.995 13.5931C287.634 13.6075 287.277 13.6255 286.916 13.64C286.855 13.6424 286.772 13.6364 286.724 13.6255C286.494 13.575 286.268 13.5353 285.946 13.5606C285.667 13.5822 285.367 13.5834 285.089 13.6039C284.936 13.6147 284.867 13.6532 284.897 13.6833C284.915 13.6989 285.006 13.717 285.067 13.717C285.206 13.7182 285.358 13.7001 285.489 13.7073C285.759 13.7218 285.893 13.8228 286.246 13.7951C286.455 13.7783 286.672 13.7723 286.89 13.7675C286.946 13.7663 287.007 13.7891 287.068 13.8012C287.242 13.8336 287.394 13.8757 287.647 13.8541C287.855 13.8372 288.077 13.8325 288.29 13.8228C288.63 13.8072 288.63 13.8084 289.069 13.8818C289.278 13.9167 289.487 13.889 289.691 13.8806C289.843 13.8746 289.987 13.8625 290.109 13.8794C290.296 13.9046 290.431 13.9624 290.661 13.9587C290.879 13.9551 291.092 13.9383 291.309 13.9323C291.444 13.9287 291.57 13.9479 291.679 13.9804C291.792 14.0129 291.914 14.0273 292.062 14.0201C292.275 14.0105 292.493 13.9984 292.71 13.9924C292.771 13.9912 292.841 14.0021 292.897 14.0117C293.019 14.0333 293.136 14.0586 293.254 14.0814C293.467 14.0742 293.685 14.0718 293.893 14.0574C294.054 14.0466 294.168 14.0514 294.298 14.0754C294.463 14.1079 294.598 14.1657 294.868 14.138C295.003 14.1248 295.159 14.1284 295.294 14.1163C295.46 14.1007 295.573 14.1067 295.69 14.1428C295.912 14.2114 296.19 14.2126 296.477 14.1861C296.791 14.1572 297.026 14.1909 297.261 14.2438C297.509 14.2992 297.509 14.298 297.7 14.4315C297.756 14.47 297.917 14.488 298.052 14.4808C298.278 14.4688 298.474 14.4748 298.64 14.5205C298.814 14.5698 299.022 14.5638 299.235 14.5506C299.518 14.5325 299.801 14.5169 300.032 14.5867C300.145 14.6204 300.267 14.6288 300.419 14.6203C300.849 14.5987 301.284 14.5855 301.706 14.559C301.963 14.5422 302.111 14.5807 302.285 14.6131C302.52 14.6576 302.777 14.6973 302.777 14.7924C302.777 14.808 302.837 14.8261 302.89 14.8381C303.003 14.8633 303.125 14.885 303.242 14.9091C303.416 14.9451 303.586 14.9752 303.825 14.956C304.034 14.9403 304.256 14.9355 304.469 14.9247C304.682 14.9139 304.878 14.9079 305.069 14.9536C305.291 15.0053 305.526 15.0546 305.778 15.0931C305.956 15.1208 306.191 15.0739 306.383 15.1112C306.5 15.134 306.613 15.1605 306.739 15.1797C306.792 15.1881 306.874 15.1821 306.944 15.1797C307.088 15.1749 307.236 15.1713 307.375 15.1593C307.536 15.146 307.657 15.1484 307.779 15.1761C307.892 15.2014 308.005 15.2363 308.136 15.2435C308.332 15.2543 308.549 15.2062 308.745 15.2615C308.845 15.2892 308.971 15.3156 309.102 15.3241C309.232 15.3325 309.384 15.3144 309.524 15.3156C309.585 15.3156 309.658 15.3349 309.693 15.3505C309.715 15.359 309.685 15.3818 309.654 15.3938C309.615 15.4083 309.558 15.4275 309.502 15.4299C309.071 15.4516 308.641 15.4696 308.21 15.4901C307.953 15.5021 307.953 15.5021 307.436 15.4263C307.314 15.4083 307.179 15.4119 307.027 15.4203C306.822 15.4311 306.613 15.4516 306.4 15.4299C306.122 15.3481 305.778 15.3409 305.413 15.3722C305.26 15.3854 305.121 15.3854 305.008 15.3626C304.769 15.3168 304.517 15.2748 304.303 15.2206C304.138 15.1785 304.06 15.1749 303.99 15.2326C303.969 15.2507 303.947 15.2699 303.951 15.2868C303.977 15.3469 304.025 15.4059 304.051 15.466C304.06 15.4828 304.025 15.5021 304.003 15.5201C303.934 15.5707 303.842 15.5671 303.69 15.5249C303.538 15.4828 303.355 15.4552 303.112 15.4744C302.903 15.4913 302.676 15.4889 302.468 15.5069C302.146 15.5334 301.92 15.4949 301.689 15.4432C301.641 15.4323 301.559 15.4263 301.498 15.4287C300.849 15.4564 300.206 15.4877 299.557 15.5153C299.418 15.5213 299.292 15.5033 299.183 15.4708C299.07 15.4383 298.944 15.4215 298.805 15.4275C298.231 15.4528 297.656 15.4756 297.082 15.5069C296.847 15.5201 296.66 15.5045 296.499 15.4624C296.377 15.4311 296.264 15.4215 296.112 15.4251C295.947 15.4287 295.829 15.4408 295.747 15.4756C295.668 15.5093 295.725 15.5298 295.899 15.5562C296.086 15.5851 296.26 15.6224 296.438 15.6561C296.582 15.6513 296.725 15.6416 296.865 15.6428C296.926 15.6428 296.982 15.6645 297.043 15.6765C297.217 15.7114 297.378 15.7463 297.626 15.727C297.835 15.7102 298.057 15.7066 298.27 15.6958C298.566 15.6825 298.566 15.6825 299.044 15.7583C299.166 15.7776 299.296 15.7764 299.453 15.7655C299.588 15.7571 299.727 15.774 299.823 15.81C299.862 15.8245 299.849 15.8485 299.766 15.9279C299.766 15.9869 299.858 15.9604 299.888 15.9219C299.936 15.8666 299.844 15.8485 299.67 15.8786C299.549 15.9003 299.488 15.9315 299.518 15.9568C299.536 15.97 299.618 15.9869 299.766 15.9279C300.149 15.8558 300.44 15.8473 300.719 15.8281C300.884 15.8173 300.989 15.8221 301.119 15.8533C301.276 15.8906 301.432 15.9303 301.689 15.9111C301.967 15.8894 302.263 15.887 302.546 15.869C302.807 15.8521 302.942 15.9051 303.107 15.9364C303.307 15.9736 303.529 15.9315 303.712 15.9532C303.903 15.9748 304.038 16.0278 304.26 16.0374C304.582 16.0049 304.786 16.0651 305.03 16.1048C305.221 16.1348 305.447 16.1084 305.652 16.0951C305.883 16.0807 306.074 16.0939 306.235 16.1372C306.418 16.1866 306.622 16.1757 306.831 16.1649C307.318 16.1409 307.335 16.1372 307.618 16.2034C307.823 16.2515 308.018 16.2299 308.223 16.2239C308.401 16.2563 308.575 16.2912 308.762 16.3201C308.81 16.3273 308.902 16.3153 308.976 16.3117C309.189 16.302 309.406 16.2924 309.619 16.2828C309.763 16.2768 309.915 16.2587 310.046 16.266C310.176 16.2744 310.285 16.3093 310.402 16.3321C310.52 16.355 310.642 16.3778 310.755 16.4019C310.929 16.438 311.094 16.468 311.338 16.45C311.546 16.4344 311.764 16.4296 311.981 16.4187C312.256 16.4055 312.247 16.4091 312.756 16.4813C313.03 16.521 313.313 16.4729 313.591 16.4681C313.73 16.4656 313.865 16.4789 313.961 16.5138C314 16.5282 313.987 16.5523 314 16.5727C313.282 16.6052 312.56 16.6328 311.851 16.6725C311.577 16.6882 311.433 16.6449 311.285 16.6088C311.042 16.551 310.72 16.6352 310.489 16.5607C310.35 16.5162 310.15 16.4909 309.911 16.5126C309.772 16.5246 309.624 16.5234 309.48 16.5342C309.115 16.5607 308.78 16.5619 308.488 16.4789C308.388 16.45 308.245 16.4344 308.14 16.4067C308.019 16.3766 307.901 16.3598 307.757 16.3658C307.109 16.3947 306.465 16.4235 305.822 16.4548C305.765 16.4572 305.708 16.4753 305.661 16.4885C305.539 16.5222 305.578 16.5486 305.774 16.5703C305.839 16.5775 305.891 16.5931 305.952 16.6052C306.07 16.628 306.178 16.6641 306.309 16.6725C306.439 16.681 306.592 16.6641 306.735 16.6581C306.879 16.6521 307.031 16.634 307.162 16.6413C307.292 16.6497 307.401 16.6846 307.523 16.7062C307.579 16.7171 307.649 16.7351 307.705 16.7339C307.992 16.7267 308.275 16.7134 308.562 16.7026C308.741 16.7351 308.893 16.782 309.106 16.7928C309.241 16.8001 309.384 16.7868 309.524 16.7892C309.585 16.7904 309.663 16.8085 309.693 16.8241C309.711 16.8337 309.654 16.8578 309.611 16.8698C309.445 16.9155 309.219 16.9071 309.015 16.9215C308.793 16.9372 308.593 16.9324 308.423 16.8855C308.31 16.8542 308.184 16.8373 308.045 16.8434C307.683 16.859 307.327 16.877 306.966 16.8903C306.905 16.8927 306.831 16.8819 306.774 16.8734C306.318 16.8001 306.318 16.7976 305.996 16.8133C305.521 16.8361 305.522 16.8361 305.204 16.7724C305.143 16.7603 305.078 16.7375 305.026 16.7387C304.521 16.758 304.021 16.7772 303.52 16.8049C303.355 16.8133 303.242 16.8133 303.12 16.782C303.016 16.7555 302.894 16.7255 302.763 16.7183C302.629 16.711 302.481 16.7291 302.337 16.7351C302.194 16.7411 302.041 16.7567 301.915 16.7471C301.785 16.7375 301.672 16.7038 301.558 16.6798C301.441 16.6545 301.315 16.6557 301.154 16.6653C300.658 16.693 300.654 16.6894 300.162 16.6148C300.106 16.6064 300.032 16.5968 299.971 16.5992C299.61 16.6136 299.253 16.6316 298.892 16.6461C298.753 16.6521 298.618 16.6365 298.522 16.6016C298.483 16.5871 298.496 16.5631 298.47 16.5162C298.439 16.5053 298.474 16.5246 298.483 16.5426C298.548 16.5402 298.626 16.5426 298.674 16.533C298.796 16.5101 298.857 16.4801 298.827 16.4548C298.809 16.4416 298.727 16.4247 298.674 16.4247C298.579 16.4247 298.496 16.4512 298.47 16.5162C298.196 16.5559 297.904 16.5643 297.622 16.5835C297.456 16.5956 297.352 16.5895 297.221 16.5583C297.065 16.5198 296.904 16.4825 296.647 16.5017C296.369 16.5234 296.073 16.527 295.786 16.5438C295.455 16.5631 295.312 16.4548 295.033 16.4572C294.746 16.4596 294.459 16.4801 294.172 16.4945C293.92 16.5065 293.92 16.5065 293.398 16.4283C293.206 16.3995 292.98 16.4416 292.793 16.4115C292.667 16.3923 292.558 16.3634 292.436 16.3429C292.384 16.3345 292.301 16.3345 292.236 16.3369C291.875 16.3514 291.51 16.361 291.162 16.3874C290.766 16.4187 290.466 16.385 290.183 16.3141C289.826 16.3273 289.465 16.3345 289.113 16.3574C288.856 16.3742 288.708 16.3345 288.534 16.302C288.473 16.2912 288.421 16.2732 288.356 16.2684C288.29 16.2635 288.212 16.2732 288.142 16.2768C287.855 16.29 287.56 16.296 287.281 16.3177C286.938 16.3454 286.807 16.2467 286.542 16.2347C286.363 16.2936 286.268 16.3742 285.915 16.3802C285.628 16.385 285.341 16.4043 285.054 16.4175C284.91 16.4235 284.767 16.4308 284.623 16.4368C284.393 16.4476 284.284 16.4945 284.332 16.5667C284.358 16.6064 284.38 16.6461 284.401 16.6858C284.445 16.7567 284.336 16.8169 284.153 16.8253C283.649 16.8482 283.149 16.8722 282.644 16.8927C282.509 16.8987 282.379 16.8782 282.27 16.8458C282.157 16.8133 282.031 16.7988 281.891 16.8049C281.387 16.8277 280.886 16.8518 280.382 16.8722C280.325 16.8746 280.251 16.8626 280.195 16.853C280.073 16.8313 279.956 16.8061 279.838 16.7832C279.551 16.794 279.268 16.8012 278.985 16.8157C278.529 16.8373 278.529 16.8385 278.194 16.7724C278.133 16.7603 278.072 16.7375 278.015 16.7387C277.798 16.7435 277.585 16.7555 277.367 16.7664C276.728 16.7976 276.728 16.7976 276.541 16.7616C276.371 16.7279 276.219 16.687 275.962 16.7062C275.684 16.7279 275.388 16.7351 275.101 16.7471C274.888 16.7555 274.674 16.7652 274.461 16.7676C274.405 16.7688 274.344 16.7459 274.283 16.7339C274.109 16.6966 273.939 16.6665 273.7 16.687C273.561 16.699 273.413 16.7014 273.269 16.7074C272.895 16.7243 272.895 16.7243 272.282 16.6521C272.221 16.6449 272.147 16.6365 272.086 16.6401C271.581 16.6617 271.081 16.6858 270.577 16.7062C270.516 16.7086 270.442 16.7014 270.381 16.6954C269.693 16.6256 269.693 16.6256 268.963 16.6593C268.684 16.6713 268.675 16.6761 268.384 16.6124C268.254 16.5847 268.145 16.5715 267.993 16.5799C267.418 16.6088 266.84 16.628 266.27 16.6617C266.013 16.6762 265.865 16.6401 265.691 16.6076C265.63 16.5968 265.565 16.5727 265.513 16.5739C264.939 16.5968 264.364 16.6244 263.79 16.6473C263.738 16.6497 263.673 16.6256 263.612 16.6148C263.494 16.5932 263.381 16.5607 263.251 16.5535C263.116 16.5462 262.968 16.5643 262.82 16.5703C262.459 16.5859 262.459 16.5847 262.041 16.5138C261.985 16.5041 261.911 16.4909 261.854 16.4933C261.28 16.5174 260.702 16.5378 260.132 16.5727C259.805 16.592 259.584 16.5571 259.353 16.5065C259.305 16.4957 259.223 16.4909 259.162 16.4933C258.513 16.521 257.87 16.5522 257.222 16.5799C257.087 16.5859 256.956 16.5655 256.847 16.5342C256.673 16.4849 256.469 16.4909 256.251 16.5017C255.751 16.527 255.747 16.5258 255.451 16.4681C255.39 16.456 255.338 16.4404 255.273 16.4344C255.212 16.4284 255.133 16.432 255.068 16.4344C254.781 16.4464 254.494 16.4596 254.207 16.4729C253.92 16.4861 253.628 16.4933 253.345 16.5138C252.997 16.539 252.832 16.4608 252.589 16.4247C252.232 16.4404 251.866 16.45 251.514 16.4753C251.244 16.4945 251.118 16.4416 250.94 16.4139C250.879 16.4043 250.814 16.3838 250.757 16.3862C250.109 16.4127 249.461 16.4416 248.817 16.4741C248.66 16.4813 248.556 16.4716 248.425 16.4428C248.134 16.3778 248.121 16.3802 247.634 16.4043C247.421 16.4151 247.216 16.4247 247.033 16.3754C246.872 16.3309 246.677 16.3201 246.446 16.3345C246.163 16.3526 245.872 16.3622 245.585 16.3742C245.298 16.3875 245.011 16.4055 244.723 16.4115C244.493 16.4175 244.354 16.361 244.171 16.3321C244.114 16.3237 244.036 16.3225 243.971 16.3249C243.684 16.3357 243.388 16.3441 243.11 16.3646C242.77 16.3898 242.583 16.3237 242.344 16.2852C242.292 16.2768 242.205 16.2816 242.139 16.2852C241.635 16.3069 241.135 16.3309 240.63 16.3538C240.452 16.3213 240.269 16.29 240.09 16.2575C239.803 16.2696 239.516 16.2828 239.229 16.2948C239.012 16.3044 238.79 16.3081 238.585 16.3261C238.32 16.3502 238.189 16.2936 238.011 16.266C237.95 16.2563 237.885 16.2359 237.828 16.2383C237.467 16.2515 237.106 16.266 236.75 16.2864C236.41 16.3069 236.275 16.1986 235.997 16.1998C235.71 16.201 235.414 16.2166 235.136 16.2383C234.814 16.2635 234.588 16.2251 234.357 16.1733C234.309 16.1625 234.226 16.1565 234.166 16.1589C233.805 16.1733 233.448 16.1914 233.087 16.2058C233.026 16.2082 232.952 16.2022 232.891 16.195C232.204 16.124 232.204 16.1228 231.904 16.1372C231.69 16.1469 231.473 16.1589 231.255 16.1649C231.194 16.1673 231.12 16.1565 231.064 16.1469C230.611 16.0735 230.611 16.0723 230.285 16.0867C229.998 16.1 229.711 16.1132 229.424 16.1264C229.245 16.0939 229.063 16.0627 228.884 16.0302C228.528 16.0458 228.162 16.0578 227.81 16.0795C227.645 16.0891 227.536 16.0855 227.41 16.0554C227.253 16.0194 227.097 15.9773 226.835 15.9977C226.557 16.0194 226.261 16.0218 225.979 16.0398C225.639 16.0615 225.5 15.952 225.226 15.9532C224.939 15.9544 224.643 15.97 224.365 15.9917C224.043 16.0169 223.816 15.9785 223.586 15.9267C223.538 15.9159 223.455 15.9099 223.395 15.9123C222.603 15.9472 221.815 15.9821 221.024 16.0193C220.536 16.0422 220.536 16.0434 219.61 15.9772C219.545 15.9724 219.475 15.9676 219.41 15.97C219.123 15.9809 218.827 15.9893 218.548 16.0097C218.209 16.035 218.022 15.97 217.783 15.9303C217.731 15.9219 217.648 15.9267 217.578 15.9291C217.361 15.9375 217.148 15.9484 216.93 15.958C216.643 15.9712 216.356 15.9845 216.069 15.9977C215.89 15.9664 215.708 15.9339 215.529 15.9027C215.173 15.9183 214.807 15.9267 214.455 15.952C214.185 15.9712 214.059 15.9207 213.881 15.8918C213.82 15.8822 213.755 15.8618 213.698 15.863C213.05 15.8894 212.402 15.9171 211.758 15.9508C211.492 15.9652 211.371 15.9111 211.192 15.8834C211.131 15.875 211.062 15.8594 211.005 15.8618C210.575 15.8786 210.144 15.8991 209.713 15.9195C209.47 15.9315 209.47 15.9315 208.939 15.857C208.878 15.8485 208.808 15.8401 208.748 15.8425C207.382 15.9027 206.02 15.9664 204.654 16.0266C204.515 16.0326 204.389 16.0145 204.28 15.9821C204.167 15.9496 204.041 15.9327 203.901 15.9388C203.327 15.964 202.749 15.9869 202.179 16.0182C201.944 16.0314 201.757 16.0157 201.596 15.9736C201.474 15.9424 201.361 15.9303 201.209 15.9376C200.922 15.952 200.634 15.964 200.347 15.9772C200.06 15.9905 199.773 16.0037 199.486 16.017C199.199 16.0302 198.907 16.0374 198.625 16.0578C198.277 16.0831 198.107 16.0085 197.868 15.9712C197.437 15.9893 197.006 16.0073 196.58 16.0266C196.006 16.0518 195.432 16.0795 194.857 16.1036C194.805 16.106 194.74 16.0843 194.679 16.0735C194.501 16.0434 194.37 16.0013 194.105 16.0145C192.817 16.0783 191.521 16.1324 190.229 16.195C189.959 16.2082 189.842 16.1565 189.659 16.1288C189.598 16.1204 189.528 16.1036 189.472 16.106C188.754 16.136 188.036 16.1697 187.319 16.2022C187.027 16.2154 187.027 16.2154 186.54 16.1408C186.483 16.1324 186.409 16.1216 186.348 16.124C185.413 16.1649 184.482 16.2082 183.547 16.2503C183.408 16.2563 183.282 16.2395 183.168 16.207C183.06 16.1745 182.929 16.1565 182.794 16.1625C181.933 16.201 181.067 16.2383 180.21 16.2804C179.98 16.2924 179.788 16.2816 179.623 16.2383C179.506 16.207 179.388 16.1938 179.24 16.201C177.948 16.2599 176.656 16.3165 175.364 16.379C175.116 16.3911 174.942 16.3682 174.786 16.3285C174.66 16.2972 174.551 16.2912 174.394 16.296C174.229 16.302 174.129 16.3153 174.037 16.3514C173.92 16.3983 173.846 16.4572 173.568 16.4608C173.281 16.4644 172.989 16.4789 172.706 16.4993C172.437 16.5198 172.31 16.4656 172.141 16.4332C172.015 16.4103 171.897 16.4067 171.736 16.4175C171.588 16.4271 171.497 16.4476 171.41 16.4861C171.219 16.5679 171.201 16.5679 170.966 16.5162C170.84 16.4885 170.727 16.4668 170.588 16.4716C170.013 16.4957 169.439 16.5222 168.865 16.5498C168.534 16.5655 168.53 16.5679 168.282 16.5077C168.16 16.4777 168.043 16.4632 167.899 16.4704C166.32 16.5426 164.741 16.6124 163.162 16.6882C162.918 16.7002 162.753 16.6749 162.579 16.6389C162.523 16.6268 162.466 16.61 162.401 16.6052C162.336 16.6004 162.262 16.6052 162.192 16.6076C161.044 16.6593 159.891 16.7086 158.747 16.7664C158.486 16.7796 158.346 16.7411 158.168 16.7098C158.107 16.699 158.055 16.6822 157.99 16.6774C157.924 16.6737 157.846 16.6822 157.776 16.6858C156.628 16.7375 155.475 16.7868 154.331 16.8446C154.057 16.8578 153.94 16.8073 153.761 16.7808C153.7 16.7712 153.635 16.7531 153.579 16.7555C153.218 16.7688 152.861 16.7868 152.5 16.8025C151.638 16.8421 150.777 16.8794 149.916 16.9203C149.585 16.936 149.442 16.8289 149.163 16.8337C148.802 16.8397 148.445 16.8638 148.084 16.8806C147.797 16.8939 147.51 16.9059 147.223 16.9203C146.94 16.9336 146.94 16.9336 146.235 16.8638C146.175 16.8578 146.101 16.8494 146.04 16.8518C145.035 16.8963 144.026 16.9408 143.025 16.9889C142.795 16.9997 142.603 16.9937 142.438 16.9492C142.32 16.9179 142.199 16.9023 142.055 16.9095C140.545 16.9781 139.04 17.0467 137.531 17.114C137.474 17.1164 137.4 17.1044 137.344 17.0948C137.222 17.0731 137.104 17.0479 136.987 17.025C136.9 17.0527 136.787 17.0779 136.73 17.1092C136.652 17.1513 136.548 17.1633 136.382 17.1706C136.217 17.1778 136.113 17.1754 135.982 17.1441C135.826 17.1056 135.665 17.0755 135.408 17.0875C133.829 17.1633 132.25 17.2319 130.671 17.3065C130.41 17.3185 130.288 17.2656 130.105 17.2379C130.044 17.2295 129.974 17.2163 129.918 17.2187C129.27 17.2463 128.626 17.2764 127.978 17.3053C126.181 17.3871 124.385 17.4653 122.592 17.5519C122.266 17.5675 122.044 17.5374 121.814 17.4857C121.766 17.4749 121.683 17.4689 121.622 17.4713C119.108 17.5844 116.593 17.6986 114.083 17.8129C113.948 17.8189 113.818 17.7997 113.709 17.7684C113.596 17.7359 113.47 17.7203 113.331 17.7263C112.182 17.778 111.034 17.8298 109.885 17.8827C109.598 17.8959 109.594 17.8971 109.298 17.8394C109.237 17.8273 109.172 17.8045 109.124 17.8069C109.024 17.8129 108.928 17.843 108.859 17.8839C108.789 17.9272 108.68 17.9392 108.519 17.9476C108.354 17.9561 108.245 17.9525 108.119 17.9236C107.958 17.8875 107.81 17.8526 107.549 17.8646C104.248 18.0186 100.946 18.1666 97.644 18.3193C97.3786 18.3314 97.2568 18.2808 97.0741 18.2532C97.0132 18.2448 96.9523 18.2327 96.8871 18.2303C96.8175 18.2279 96.7435 18.2351 96.6739 18.2387C91.2884 18.4829 85.9029 18.7283 80.5174 18.9725C80.1955 18.987 80.1998 18.987 79.8475 19.0976C79.804 19.1109 79.7474 19.1289 79.6865 19.1313C78.0378 19.2083 76.3847 19.2829 74.7317 19.3575C74.0139 19.3899 73.2961 19.4236 72.5784 19.4549C72.3217 19.4657 72.3217 19.4657 71.7083 19.5956C71.6561 19.6065 71.5952 19.6209 71.5342 19.6233C68.6631 19.7544 65.792 19.8855 62.9165 20.0143C62.6903 20.0239 62.5076 20.0455 62.4032 20.1033C62.3293 20.1442 62.2336 20.1682 62.09 20.1754C60.0803 20.2669 58.0705 20.3595 56.0564 20.4485C55.8171 20.4593 55.6735 20.493 55.5561 20.5435C55.5169 20.5604 55.4821 20.5796 55.4255 20.5917C55.3733 20.6025 55.2951 20.6061 55.2298 20.6097C53.5071 20.6879 51.7845 20.7685 50.0575 20.8431C49.8008 20.8539 49.6964 20.8984 49.5702 20.9453C49.5267 20.961 49.4963 20.9826 49.4397 20.9934C49.3831 21.0031 49.3005 21.0031 49.2309 21.0055C47.7953 21.0704 46.3598 21.1366 44.9243 21.2015C44.6459 21.1955 44.5849 21.2653 44.4501 21.3074C44.4022 21.3218 44.3675 21.3411 44.3109 21.3507C44.25 21.3603 44.1716 21.3591 44.0977 21.3615C42.9492 21.4133 41.8008 21.4686 40.648 21.5167C40.3826 21.5275 40.3304 21.5889 40.1869 21.631C40.139 21.6442 40.0912 21.6647 40.0347 21.6683C39.3169 21.7032 38.5991 21.7356 37.8814 21.7669C37.6421 21.7777 37.6421 21.7765 37.2201 21.8956C37.1723 21.9089 37.1157 21.9233 37.0548 21.9269C35.9803 21.9774 34.9015 22.0255 33.8226 22.0749C33.6834 22.0809 33.5877 22.1097 33.5181 22.1507C33.4485 22.1915 33.3485 22.218 33.2093 22.224C32.3479 22.2637 31.4865 22.3046 30.6252 22.3407C30.3859 22.3503 30.2294 22.3804 30.125 22.4345C30.0467 22.4754 29.951 22.4959 29.7987 22.5031C28.9374 22.5416 28.076 22.5837 27.2104 22.6174C26.9581 22.627 26.8275 22.6679 26.7231 22.7184C26.6404 22.7593 26.5447 22.7738 26.3838 22.781C24.8047 22.8507 23.2212 22.9205 21.6465 22.9975C21.3811 23.0107 21.2462 22.9686 21.0722 22.9386C20.8243 22.8965 20.5938 22.8507 20.5938 22.7569C20.5938 22.7425 20.5198 22.7256 20.4676 22.7136C20.0804 22.6234 20.0804 22.6234 20.0195 22.5272C19.9847 22.4682 19.9456 22.4081 19.9151 22.3479C19.8586 22.2493 19.7193 22.224 19.3191 22.2421C19.1755 22.2481 19.032 22.2565 18.8884 22.2613C18.6753 22.2697 18.5143 22.23 18.4752 22.1579C18.4534 22.1182 18.4274 22.0785 18.4056 22.0388C18.6231 22.0291 18.6187 22.028 19.0015 21.8824C19.1625 21.8211 19.1626 21.821 18.8537 21.7597C18.7362 21.7368 18.6231 21.7116 18.497 21.6899C18.4404 21.6803 18.3665 21.6743 18.3056 21.6767C17.9445 21.6911 17.5878 21.708 17.2311 21.7248C16.6569 21.7513 16.6568 21.7513 16.0739 21.6286C16.026 21.6189 15.9521 21.6009 15.9608 21.5913C16.0086 21.5468 16.1261 21.5275 16.274 21.5227C16.4915 21.5155 16.7046 21.5035 16.9178 21.4938C17.0613 21.4878 17.2049 21.4806 17.3484 21.4746C17.4833 21.4289 17.6226 21.3844 17.7487 21.3375C17.9488 21.2653 17.9488 21.2629 17.6747 21.2124C17.5007 21.1787 17.3137 21.1486 17.1353 21.1173C16.9221 21.127 16.7046 21.1378 16.4915 21.1462C16.2218 21.157 16.113 21.1342 16.0434 21.056C15.9825 20.9874 16.0564 20.9285 16.2653 20.914C16.4784 20.8996 16.6786 20.89 16.7874 20.8286C16.8918 20.7697 17.0744 20.7468 17.3007 20.742C17.4442 20.7384 17.5878 20.73 17.7313 20.7228C17.9184 20.7132 18.0185 20.6518 17.9793 20.5832C17.9576 20.5387 17.914 20.5014 17.7444 20.4918C16.9918 20.4497 16.9831 20.4509 16.6089 20.3691C16.5741 20.3619 16.5481 20.3403 16.5611 20.3294C16.5829 20.3114 16.6308 20.2849 16.683 20.2813C17.1832 20.2548 17.6835 20.2308 18.1838 20.2127C18.3491 20.2067 18.4709 20.1983 18.5274 20.1538C18.6057 20.0924 18.5709 20.0359 18.4187 19.9938C18.3708 19.9806 18.2925 19.9637 18.2403 19.9649C17.666 19.9866 17.0962 20.0143 16.522 20.0359C16.4698 20.0383 16.3741 20.0179 16.3523 20.0022C16.3088 19.9734 16.3741 19.9349 16.5263 19.9216C16.7264 19.9036 16.9309 19.9024 17.0657 19.8422C17.2528 19.7568 17.4833 19.6786 17.6921 19.5968C17.7269 19.5824 17.7836 19.5547 17.7705 19.5523C17.6618 19.5259 17.5356 19.5054 17.4225 19.4802C17.2311 19.4381 17.231 19.3791 17.2745 19.3226C17.3093 19.2769 17.4398 19.2588 17.6008 19.2588C17.6704 19.2588 17.7574 19.2588 17.8139 19.248C17.9619 19.2215 18.0097 19.1878 17.9358 19.1626C17.8923 19.1481 17.814 19.1277 17.7618 19.1301C16.8309 19.1698 15.8955 19.2083 14.9689 19.2576C14.6949 19.2721 14.5688 19.2263 14.4035 19.1939C14.2773 19.1686 14.1598 19.159 14.0032 19.177C13.8553 19.1939 13.7118 19.1842 13.6204 19.1446C13.5465 19.1121 13.677 19.0844 14.0293 19.0531C14.0946 19.0471 14.1685 19.0435 14.2163 19.0315C14.721 18.9016 14.7209 18.9004 15.069 18.8835C15.4083 18.8679 15.4084 18.8667 15.5867 18.7969C15.6694 18.7644 15.7606 18.7319 15.8389 18.6983C15.8694 18.685 15.9217 18.661 15.9043 18.6537C15.8086 18.6165 15.678 18.608 15.5257 18.6165C15.1864 18.6369 14.7863 18.6201 14.6079 18.7344C14.5383 18.7777 14.4296 18.7897 14.2729 18.7969C12.6982 18.8667 11.1234 18.9413 9.54426 19.0086C9.2876 19.0194 9.17021 19.064 9.07016 19.1133C8.98315 19.1542 8.88743 19.1662 8.72212 19.1734C8.55682 19.1806 8.42625 19.1842 8.33054 19.1446C8.27399 19.1205 8.32185 19.0868 8.45236 19.0531C8.63942 19.005 8.6046 18.9449 8.5437 18.8883C8.5002 18.851 8.36534 18.8246 8.22179 18.827C8.00863 18.8318 7.80423 18.845 7.62587 18.7969C7.52147 18.7692 7.39093 18.75 7.27348 18.7259C7.04727 18.6766 6.82105 18.6261 6.50349 18.6586C6.28598 18.6465 6.13373 18.6032 5.95972 18.5695C5.66826 18.5142 5.64216 18.5058 5.85096 18.4468C6.08587 18.3807 5.90313 18.2941 6.03364 18.2291C6.17284 18.1593 6.36431 18.098 6.53397 18.0331C6.57747 18.0162 6.61664 18.0006 6.66014 17.9837C6.56009 17.9597 6.46875 17.9296 6.3513 17.9128C6.19904 17.8911 6.12073 17.8646 6.12943 17.7901C6.09898 17.7792 6.11194 17.8069 6.14675 17.8141C6.1859 17.8213 6.28167 17.8153 6.32953 17.8069C6.45133 17.784 6.51217 17.754 6.48172 17.7287C6.46432 17.7155 6.38173 17.6986 6.32953 17.6986C6.23382 17.6986 6.15118 17.7251 6.12508 17.7901C5.63786 17.8394 5.13316 17.8634 4.62854 17.8827C4.57634 17.8851 4.51112 17.861 4.45022 17.849C4.25011 17.8081 4.25009 17.8093 3.66281 17.7973C3.60191 17.7961 3.5193 17.7792 3.48885 17.7624C3.36269 17.689 3.36708 17.6084 3.30618 17.5302C3.41928 17.4797 3.5323 17.4304 3.64975 17.3811C3.88466 17.2812 4.18924 17.1934 4.37195 17.0839C4.3328 17.025 4.28058 16.9661 4.47199 16.9179C5.01576 16.8578 5.01145 16.8578 5.15935 16.8001C5.58132 16.6365 5.99891 16.4717 6.43828 16.3105C6.55574 16.2684 6.55575 16.2455 6.34694 16.2275C6.28169 16.2227 6.21199 16.2214 6.14239 16.2239C5.92488 16.2323 5.70738 16.2539 5.49422 16.2491C5.28106 16.2455 5.12445 16.1926 4.95045 16.1601C4.77209 16.1264 4.59374 16.0915 4.41539 16.0566C4.21093 16.0603 4.00651 16.0939 3.80205 16.0398C3.64544 15.9977 3.4497 15.9676 3.27134 15.9327C3.4062 15.8413 3.65854 15.7715 3.8543 15.691C4.03266 15.6176 4.03691 15.6188 4.51543 15.5622C4.74164 15.5358 4.81995 15.3998 4.62854 15.3601C4.39798 15.312 4.15442 15.2675 3.91951 15.2218C3.71505 15.2254 3.50629 15.2579 3.31053 15.2038C3.15827 15.1629 2.98423 15.1352 2.73192 15.1508C2.30561 15.1773 1.8706 15.1905 1.43993 15.2122C1.29203 15.2194 1.13102 15.2146 1.06577 15.1737C1.02227 15.1448 1.14843 15.1051 1.29199 15.0967C1.5095 15.0847 1.70523 15.0703 1.81399 15.0101C1.91839 14.95 2.10978 14.9319 2.33599 14.9235C2.39689 14.9211 2.46654 14.9066 2.497 14.8922C2.6536 14.8224 2.82762 14.7623 3.16259 14.7647C3.30179 14.7407 3.3757 14.7106 3.3322 14.6817C3.30609 14.6661 3.21479 14.6456 3.16259 14.648C2.80152 14.6601 2.44047 14.6721 2.08811 14.6937C1.9228 14.7034 1.79658 14.7058 1.69217 14.6697C1.61822 14.6456 1.65737 14.6131 1.79657 14.5783C1.91838 14.5482 1.95322 14.5133 1.94452 14.4724C1.92276 14.3774 1.79223 14.3497 1.37462 14.3557C1.07446 14.3605 1.0005 14.3449 0.935245 14.2631C0.917844 14.2438 0.874419 14.2174 0.90487 14.2041C1.09193 14.1223 1.21374 14.0213 1.56611 13.9828C1.70531 13.9684 1.85316 13.9684 1.94016 13.9371C2.02716 13.9058 2.10551 13.8697 2.19686 13.8397C2.30996 13.8036 2.38819 13.7699 2.33599 13.747C2.24899 13.7061 2.10983 13.7025 1.94887 13.717C1.80966 13.729 1.66176 13.7302 1.51821 13.7374C1.26155 13.7506 1.05278 13.7194 1.02233 13.6664C0.93968 13.5269 0.852651 13.3886 0.778698 13.249C0.769998 13.2322 0.791689 13.2105 0.826491 13.1961C0.948296 13.1456 1.07885 13.0975 1.20501 13.0481C1.35291 12.9916 1.58786 13.0024 1.78797 12.9916C2.07073 12.976 2.07063 12.9772 2.4491 12.8617C2.597 12.816 2.85368 12.834 3.00593 12.7931C3.05378 12.7799 3.12774 12.7582 3.11469 12.7462C3.09729 12.7306 3.01033 12.7185 2.94508 12.7113C2.88417 12.7041 2.81024 12.7005 2.74499 12.7041C1.95325 12.739 1.16589 12.7763 0.374162 12.81C0.239306 12.816 0.0913962 12.7895 0.0435442 12.7522C-0.00430769 12.7173 0.00870035 12.6752 0 12.6355C0.126155 12.5862 0.269656 12.5405 0.37841 12.4876C0.461063 12.4467 0.556784 12.4286 0.722091 12.4262C0.9396 12.4226 1.15278 12.4082 1.39639 12.3974C1.84881 12.2217 2.2925 12.0377 2.77972 11.8621C2.97547 11.7911 2.9277 11.7189 2.96685 11.6431C3.006 11.5734 3.29745 11.5842 3.4932 11.5637C3.64981 11.5469 3.70194 11.5084 3.64104 11.4819C3.60624 11.4663 3.52798 11.4482 3.46708 11.4482C3.32352 11.4482 3.17997 11.4591 3.03641 11.4651C2.89286 11.4711 2.72756 11.4675 2.61011 11.488C2.497 11.5072 2.423 11.5481 2.34905 11.583C2.2664 11.6215 2.15772 11.6347 1.99241 11.6371C1.77926 11.6395 1.56611 11.6503 1.35295 11.6588C1.11804 11.6118 0.874381 11.5661 0.648172 11.5168C0.60467 11.5072 0.595923 11.4795 0.600273 11.4615C0.608974 11.4146 0.543738 11.3857 0.400182 11.3628C0.278377 11.3436 0.178315 11.3159 0.0652101 11.2919C0.152214 11.2594 0.247951 11.2281 0.317554 11.1932C0.46981 11.1199 0.661239 11.0669 0.991853 11.0693C1.12236 11.0224 1.22673 10.9647 1.39639 10.9322C1.55735 10.9009 1.83142 10.9322 1.95322 10.8612C2.01413 10.8263 2.10553 10.7866 2.22299 10.7722C2.41004 10.7494 2.65365 10.7614 2.7624 10.694C2.82766 10.6555 2.92332 10.6206 3.04948 10.611C3.19303 10.6002 3.3409 10.5978 3.4453 10.5749C3.50186 10.5629 3.56277 10.5437 3.56277 10.5268C3.56277 10.516 3.47583 10.4991 3.41493 10.4919C3.35838 10.4835 3.28434 10.4775 3.21909 10.4799C3.00158 10.4871 2.78842 10.5004 2.57092 10.5076C2.51001 10.51 2.44043 10.5016 2.37518 10.4943C2.18377 10.4751 2.1968 10.451 2.34905 10.4077C2.50131 10.3656 2.61012 10.3115 2.73628 10.2622C2.87548 10.2537 3.04946 10.2574 3.14517 10.2345C3.30612 10.1972 3.4192 10.1431 3.5497 10.0962C3.69326 10.0889 3.84116 10.0865 3.97601 10.0733C4.03257 10.0685 4.05869 10.042 4.10654 10.0264C4.19354 9.99633 4.26756 9.95302 4.38501 9.93859C4.57642 9.91694 4.81132 9.92535 4.92443 9.85919C4.98968 9.8207 5.0897 9.77981 5.2115 9.7774C5.55081 9.77259 5.69437 9.70642 5.86838 9.64387C5.99889 9.59695 6.27731 9.62102 6.42086 9.5741C6.51657 9.54403 6.58621 9.50673 6.68192 9.47786C6.72107 9.46583 6.80369 9.45983 6.86894 9.45622C7.22566 9.43817 7.58671 9.42494 7.94342 9.40569C7.99998 9.40208 8.05222 9.38405 8.09572 9.36961C8.18708 9.33834 8.24356 9.29502 8.35667 9.27458C8.46977 9.25413 8.63071 9.25413 8.76991 9.24811C9.21798 9.23007 9.25282 9.23487 9.45728 9.13262C9.62258 9.04962 10.0272 9.10857 10.1621 9.01715C10.2404 8.96422 10.3839 8.92092 10.6405 8.9149C11.0016 8.90648 11.3583 8.88363 11.7193 8.86799C12.0413 8.85355 12.0369 8.85355 12.3849 8.74167C12.5415 8.69115 12.7721 8.69838 12.9766 8.68875C13.1941 8.67913 13.3942 8.6647 13.4986 8.60455C13.603 8.54561 13.7944 8.52635 14.0163 8.51793C14.2207 8.50951 14.4513 8.51554 14.6123 8.46742C15.0038 8.35194 14.9994 8.35073 15.2735 8.3387C15.7042 8.31945 16.1348 8.30021 16.5655 8.27976C16.8526 8.26652 17.1528 8.26412 17.4225 8.23766C17.6182 8.21841 17.7052 8.15105 17.8314 8.10414C18.1881 8.08609 18.5448 8.06804 18.9015 8.0512C19.4018 8.02714 19.9064 8.00549 20.411 7.98264C20.6285 7.93693 20.659 7.83588 21.0244 7.83107C21.2419 7.82866 21.4551 7.81303 21.6726 7.8034C22.0337 7.78656 22.3904 7.76491 22.7514 7.75649C23.0255 7.75047 23.0733 7.68551 23.2168 7.64461C23.2647 7.63018 23.3082 7.60973 23.3648 7.60612C23.9303 7.57244 24.5132 7.56523 25.0657 7.51591C25.1222 7.51109 25.1744 7.48583 25.1875 7.46779C25.1962 7.45816 25.1222 7.44013 25.0744 7.43171C25.0178 7.42208 24.9439 7.41246 24.883 7.41486C23.0864 7.49546 21.2898 7.57726 19.4932 7.65786C19.2408 7.66989 19.2409 7.66868 18.6275 7.801C18.5753 7.81182 18.5143 7.82385 18.4491 7.82746C18.1619 7.84189 17.8705 7.85032 17.5877 7.86837C17.3572 7.8828 17.1658 7.86835 17.0005 7.82505C16.8831 7.79377 16.7612 7.78416 16.6133 7.78656C16.448 7.79017 16.3393 7.80341 16.2436 7.83589C16.1174 7.88039 16.0522 7.93813 15.7868 7.95016C14.5644 8.00188 13.3419 8.05962 12.1239 8.11496C11.9542 8.09812 11.8716 8.07286 11.9151 8.04278C11.9412 8.02474 11.9934 8.00068 12.0456 7.99828C12.5459 7.97302 13.0505 7.95137 13.5508 7.92731C13.6204 7.9237 13.716 7.92609 13.7552 7.91406C13.9466 7.85993 14.0163 7.77212 14.3773 7.76611C14.5862 7.7625 14.7993 7.74446 14.9994 7.72762C15.0559 7.72281 15.1082 7.69754 15.1212 7.6795C15.1256 7.66988 15.056 7.65183 15.0037 7.64341C14.8123 7.60852 14.5905 7.65064 14.3991 7.62658C14.3339 7.61816 14.2425 7.60612 14.2294 7.59169C14.2207 7.57846 14.2947 7.5568 14.3469 7.54357C14.3947 7.53154 14.4599 7.52072 14.5252 7.51711C15.0994 7.48944 15.6737 7.46057 16.2479 7.43892C16.4829 7.4305 16.6481 7.40042 16.7525 7.34509C16.8308 7.30419 16.9265 7.28254 17.0744 7.27653C18.0793 7.23202 19.0842 7.1827 20.0934 7.1418C20.3457 7.13217 20.4763 7.09248 20.5807 7.04076C20.6634 6.99986 20.7591 6.98542 20.92 6.9782C22.3599 6.91565 23.7911 6.84588 25.231 6.78574C25.4964 6.77491 25.5747 6.72319 25.7096 6.67868C25.7574 6.66304 25.7878 6.64379 25.8487 6.63417C25.9096 6.62455 25.9879 6.62574 26.0619 6.62333C27.2103 6.57161 28.3588 6.51628 29.5116 6.46817C29.7813 6.45734 29.8335 6.39719 29.9727 6.35508C30.0205 6.34185 30.0641 6.32021 30.1206 6.3166C30.9819 6.2757 31.8433 6.2372 32.7046 6.19751C33.2788 6.17104 33.853 6.14458 34.4272 6.11932C34.71 6.10729 34.71 6.10608 35.0928 5.9918C35.1363 5.97857 35.1973 5.96293 35.2538 5.95932C36.9069 5.88233 38.5556 5.80897 40.2086 5.73318C40.3478 5.72717 40.4479 5.69949 40.5175 5.65859C40.5871 5.61769 40.6872 5.59002 40.8221 5.58401C42.1141 5.52386 43.4061 5.46492 44.7024 5.40838C44.9373 5.39876 45.1026 5.36989 45.207 5.31576C45.2853 5.27486 45.381 5.25321 45.5289 5.2472C46.8209 5.18946 48.113 5.1281 49.4093 5.07277C49.6573 5.06194 49.779 5.02104 49.9008 4.97293C49.9443 4.95609 49.9792 4.92842 50.0314 4.92601C50.6752 4.89233 51.3146 4.85744 51.9628 4.83459C52.2325 4.82497 52.3239 4.77444 52.4327 4.72632C52.5197 4.68783 52.6198 4.6746 52.7851 4.66979C53.1461 4.65896 53.5028 4.63852 53.8552 4.61807C53.9074 4.61446 53.9727 4.588 53.977 4.57116C53.9857 4.53988 53.8856 4.51822 53.7203 4.5074C51.9976 4.58559 50.2707 4.66377 48.548 4.74196C48.2652 4.75519 48.2652 4.7552 47.8824 4.86948C47.8389 4.88271 47.7779 4.89835 47.717 4.90196C46.064 4.97774 44.4153 5.05233 42.7622 5.12811C42.623 5.13412 42.523 5.16179 42.4534 5.20269C42.3838 5.24359 42.2837 5.27126 42.1488 5.27727C40.5697 5.34945 38.9906 5.42283 37.4072 5.49139C37.1722 5.50102 37.007 5.52867 36.9026 5.58401C36.8243 5.62491 36.7286 5.64657 36.5807 5.65258C35.0711 5.71994 33.5659 5.79091 32.0521 5.85587C31.8998 5.86188 31.7868 5.827 31.7955 5.79452C31.7998 5.77768 31.865 5.75002 31.9172 5.74762C32.7046 5.70792 33.4877 5.66702 34.2794 5.63694C34.5448 5.62732 34.623 5.57439 34.7579 5.52988C34.8014 5.51424 34.8362 5.49379 34.8927 5.48537C34.9536 5.47575 35.0319 5.47696 35.1059 5.47455C36.9721 5.38914 38.8384 5.30254 40.709 5.22194C40.9787 5.20991 41.0308 5.15096 41.17 5.10886C41.2179 5.09442 41.2614 5.07278 41.318 5.07037C41.8922 5.0415 42.4664 5.01624 43.0406 4.99097C44.0455 4.94526 45.0504 4.89955 46.0596 4.85384C46.3511 4.84061 46.3511 4.8406 46.7252 4.72753C46.7687 4.7143 46.8296 4.69747 46.8862 4.69506C49.5442 4.57357 52.2021 4.45207 54.8601 4.33178C54.9993 4.32576 55.0993 4.2981 55.1689 4.2572C55.2386 4.2175 55.3386 4.18863 55.4734 4.18141C59.0667 4.01781 62.6556 3.85421 66.2488 3.69302C66.4837 3.68219 66.649 3.65693 66.7534 3.60039C66.8274 3.55949 66.9274 3.53784 67.0753 3.53063C71.0253 3.35139 74.9752 3.17216 78.9296 2.99172C81.5875 2.87143 84.2455 2.74873 86.9035 2.63084C87.1471 2.62002 87.2775 2.58272 87.3993 2.5334C87.4385 2.51656 87.4777 2.48889 87.5299 2.48648C88.0997 2.45641 88.6696 2.42875 89.2394 2.40108C89.4178 2.43356 89.5961 2.46484 89.7745 2.49732C89.9094 2.45161 90.0399 2.40469 90.1748 2.35898C91.0361 2.3241 91.8844 2.26997 92.7544 2.25312C92.811 2.25192 92.8718 2.27478 92.9327 2.28681C93.3373 2.36259 93.5679 2.35658 93.8245 2.25553C93.9159 2.21945 93.9942 2.18697 94.1334 2.18095C94.5641 2.1593 94.9992 2.14486 95.4255 2.1196C95.656 2.10637 95.8474 2.1184 96.0127 2.1617C96.1301 2.19298 96.252 2.20622 96.3956 2.199C97.1873 2.16291 97.9747 2.12802 98.7664 2.08953C98.8229 2.08712 98.8751 2.06667 98.9186 2.05223C99.0099 2.02096 99.0883 1.98728 99.1753 1.9548C99.2927 1.97525 99.4233 1.99089 99.519 2.01736C99.6408 2.04863 99.7538 2.04863 99.9191 2.04021C103.077 1.89465 106.24 1.75271 109.398 1.60595C109.668 1.59392 109.785 1.64445 109.968 1.67091C110.029 1.68054 110.09 1.69256 110.155 1.69497C110.225 1.69737 110.299 1.69016 110.368 1.68655C112.739 1.57829 115.11 1.47122 117.481 1.36296C117.794 1.34852 117.794 1.34852 118.26 1.42311C118.316 1.43273 118.39 1.44356 118.451 1.43995C119.53 1.39303 120.609 1.34252 121.683 1.2944C121.822 1.28839 121.94 1.30763 122.066 1.3353C122.314 1.38943 122.331 1.38943 122.514 1.31004C122.601 1.27275 122.692 1.24988 122.836 1.23906C122.992 1.22703 123.119 1.23065 123.24 1.2523C123.414 1.28237 123.541 1.33289 123.806 1.31966C124.954 1.26312 126.107 1.21621 127.251 1.15847C127.512 1.14524 127.652 1.18613 127.826 1.21621C127.886 1.22703 127.943 1.24388 128.008 1.24748C128.074 1.25109 128.152 1.24266 128.221 1.23906C129.657 1.1741 131.097 1.11035 132.528 1.04059C132.798 1.02735 132.915 1.07907 133.098 1.10553C133.159 1.11516 133.228 1.13201 133.285 1.1296C134.146 1.09231 135.012 1.0526 135.873 1.01291C136.182 0.998471 136.182 0.999674 136.652 1.07305C136.709 1.08268 136.783 1.0923 136.843 1.08989C137.848 1.04539 138.858 0.999675 139.862 0.953964C140.171 0.939529 140.171 0.939532 141.063 1.00208C141.128 1.0069 141.198 1.01412 141.263 1.01172C142.412 0.959991 143.564 0.909461 144.713 0.854127C144.943 0.8433 145.135 0.852921 145.3 0.896226C145.418 0.927502 145.539 0.940741 145.683 0.933524C146.975 0.87458 148.271 0.818045 149.559 0.755494C149.807 0.743464 149.968 0.769918 150.142 0.804803C150.198 0.816832 150.255 0.833676 150.32 0.838488C150.386 0.8433 150.46 0.838485 150.529 0.834876C151.821 0.775933 153.117 0.720601 154.405 0.656846C154.666 0.643614 154.805 0.684511 154.979 0.714584C155.04 0.72541 155.105 0.747064 155.158 0.745861C155.662 0.725411 156.167 0.707374 156.667 0.677301C156.937 0.66046 157.054 0.715784 157.237 0.742249C157.298 0.750669 157.368 0.768722 157.424 0.766316C158.503 0.719402 159.582 0.670086 160.656 0.619563C160.809 0.612345 160.922 0.623162 161.043 0.654438C161.204 0.69654 161.392 0.713381 161.626 0.700149C162.127 0.672482 162.631 0.653241 163.136 0.630385C163.432 0.617153 163.432 0.617157 164.337 0.679709C164.402 0.684521 164.471 0.691733 164.537 0.689327C165.398 0.650834 166.264 0.613545 167.121 0.571443C167.351 0.559414 167.543 0.570237 167.708 0.613542C167.825 0.644818 167.943 0.658058 168.091 0.65084C168.882 0.614752 169.67 0.578662 170.462 0.542574C170.749 0.529342 171.036 0.506481 171.323 0.506481C171.532 0.507684 171.684 0.565421 171.871 0.594292C171.923 0.602712 172.01 0.5931 172.08 0.590694C173.085 0.544983 174.094 0.502877 175.095 0.451151C175.356 0.437919 175.495 0.478816 175.669 0.508889C175.73 0.519715 175.795 0.541369 175.847 0.540166C176.208 0.526934 176.565 0.508888 176.926 0.49325C177.357 0.474004 177.792 0.459568 178.218 0.433104C178.566 0.411452 178.696 0.516102 178.975 0.519711C179.188 0.52332 179.406 0.502874 179.619 0.49325C180.049 0.474004 180.48 0.452353 180.911 0.435512C181.063 0.429498 181.18 0.410243 181.228 0.366938C181.237 0.358517 181.163 0.340481 181.115 0.329655C180.537 0.206957 180.537 0.206951 179.954 0.233415C179.593 0.250256 179.236 0.2671 178.875 0.281535C178.814 0.283941 178.744 0.274318 178.683 0.2671C178.509 0.246651 178.527 0.222595 178.675 0.17929C178.823 0.135984 178.936 0.0830606 179.062 0.0337408C179.24 0.0650168 179.414 0.0962816 179.593 0.127558C179.736 0.121543 179.88 0.114336 180.023 0.108321C180.741 0.0770454 181.459 0.0445642 182.177 0.0156941C182.229 0.0132882 182.294 0.0373502 182.355 0.0493794C182.529 0.0842641 182.686 0.114329 182.938 0.101097C183.582 0.0662121 184.23 0.0409507 184.874 0.0108777C185.156 -0.00235445 185.157 -0.00235328 185.652 0.0722278C185.709 0.0806483 185.783 0.0902722 185.844 0.0878664C186.492 0.0601992 187.136 0.0301297 187.784 0.0012596C187.923 -0.00475501 188.058 0.0108824 188.158 0.0457671C188.197 0.0602022 188.189 0.0842559 188.354 0.281535C188.867 0.441523 189.22 0.424691 189.576 0.410256C189.729 0.404241 189.863 0.398221 189.963 0.374162C190.016 0.36093 190.081 0.34168 190.081 0.326042C190.081 0.314013 189.985 0.294763 189.924 0.292357C189.494 0.268299 189.085 0.318828 188.663 0.329655C188.467 0.334466 188.297 0.292364 188.263 0.223797C188.254 0.20455 188.241 0.184102 188.228 0.164855C188.215 0.145608 188.206 0.12516 188.193 0.105913C188.023 0.0998986 187.923 0.121548 187.849 0.162447C187.788 0.196129 187.701 0.234622 187.584 0.252666C187.466 0.271913 187.305 0.26831 187.162 0.274325C187.023 0.28034 186.87 0.295976 186.74 0.287555C186.609 0.277932 186.505 0.243041 186.383 0.221389C186.327 0.210563 186.257 0.194931 186.201 0.197336C185.7 0.217786 185.204 0.238228 184.708 0.264692C184.447 0.279127 184.317 0.228612 184.152 0.197336C184.021 0.173278 183.891 0.179285 183.869 0.234619C183.812 0.366941 184.012 0.422272 184.456 0.397011C184.822 0.375358 185.152 0.371761 185.439 0.453559C185.478 0.464385 185.57 0.469195 185.626 0.46679C185.983 0.452354 186.335 0.434309 186.692 0.419874C186.757 0.417468 186.827 0.422272 186.888 0.427084C187.775 0.492041 187.775 0.493251 188.076 0.478816C188.219 0.471598 188.358 0.465583 188.345 0.282739C188.619 0.0866629 189.054 0.0734331 189.476 0.044563C189.75 0.0265192 189.868 0.0794501 190.046 0.107117C190.107 0.116741 190.172 0.135984 190.229 0.133578C191.164 0.0938816 192.095 0.0517735 193.026 0.00726539C193.183 4.7864e-05 193.296 0.00726657 193.417 0.0385425C193.574 0.0782389 193.748 0.103506 193.996 0.0890705C194.492 0.0602004 194.997 0.0421607 195.501 0.0181023C195.758 0.00607304 195.758 0.00606071 196.276 0.0806418C196.332 0.0890623 196.406 0.0986862 196.467 0.0962804C196.972 0.0758307 197.472 0.050577 197.972 0.0289244C198.111 0.0229098 198.237 0.039749 198.346 0.0722278C198.455 0.104707 198.586 0.121546 198.72 0.115531C199.225 0.0938787 199.725 0.0698279 200.226 0.0481753C200.286 0.0457694 200.36 0.0541893 200.417 0.0626098C200.948 0.137191 200.948 0.137179 201.191 0.125149C201.548 0.107106 201.913 0.0986945 202.266 0.074636C202.609 0.0505776 202.788 0.120341 203.023 0.158835C203.666 0.131167 204.315 0.108318 204.954 0.074636C205.215 0.060201 205.354 0.0998939 205.528 0.13117C205.589 0.141996 205.65 0.164854 205.707 0.163651C205.924 0.158839 206.137 0.14561 206.351 0.135986C206.564 0.126363 206.781 0.116741 206.994 0.107117C207.238 0.142002 207.399 0.223799 207.747 0.196132C207.956 0.179291 208.178 0.175683 208.391 0.166059C208.604 0.156436 208.821 0.146814 209.035 0.13719C209.178 0.131176 209.326 0.127562 209.465 0.116735C209.722 0.0986915 209.848 0.157642 210.031 0.184106C210.092 0.192526 210.161 0.206952 210.218 0.204546C210.649 0.187705 211.084 0.173271 211.505 0.145604C211.832 0.123952 212.054 0.160044 212.284 0.210567C212.332 0.221393 212.415 0.227407 212.476 0.225001C212.98 0.204552 213.48 0.179283 213.981 0.157631C214.116 0.151616 214.246 0.170862 214.355 0.202138C214.468 0.234617 214.594 0.250267 214.733 0.244252C215.234 0.222599 215.738 0.198534 216.239 0.176881C216.299 0.174476 216.373 0.184101 216.43 0.193724C216.917 0.268305 216.917 0.269509 217.204 0.255074C217.274 0.251465 217.348 0.24905 217.417 0.245441C217.774 0.228601 218.144 0.222594 218.492 0.193724C218.892 0.161245 219.184 0.202146 219.466 0.270713C219.823 0.256278 220.188 0.247856 220.536 0.223797C220.797 0.205753 220.937 0.251462 221.111 0.281535C221.172 0.292361 221.237 0.314014 221.289 0.311608C221.794 0.291158 222.298 0.273121 222.794 0.243048C223.064 0.226207 223.181 0.280329 223.364 0.307996C223.425 0.317619 223.49 0.334469 223.547 0.332063C223.834 0.32244 224.121 0.307997 224.408 0.294765C224.743 0.279127 224.743 0.280329 225.187 0.353707C225.396 0.388592 225.604 0.360924 225.809 0.352503C226.026 0.34288 226.231 0.335665 226.405 0.384984C226.514 0.41626 226.644 0.435508 226.779 0.430696C227.066 0.41987 227.358 0.409049 227.64 0.391005C227.867 0.37657 228.062 0.386188 228.228 0.430696C228.345 0.461972 228.467 0.477619 228.61 0.470402C229.254 0.441532 229.902 0.411448 230.546 0.38378C230.603 0.381374 230.681 0.392205 230.733 0.403031C230.855 0.424684 230.973 0.448737 231.09 0.472795C231.373 0.461969 231.664 0.45717 231.943 0.440329C232.238 0.423488 232.508 0.417472 232.739 0.483632C232.787 0.498067 232.856 0.518506 232.913 0.517303C233.13 0.512491 233.343 0.500466 233.557 0.490842C233.77 0.481219 233.987 0.471597 234.2 0.461973C234.448 0.492046 234.605 0.578655 234.953 0.550988C235.162 0.534147 235.384 0.530538 235.597 0.520915C235.81 0.511292 236.027 0.500467 236.241 0.492046C236.31 0.48964 236.389 0.483622 236.449 0.488434C236.515 0.493246 236.571 0.51009 236.628 0.522119C236.802 0.557004 236.963 0.591893 237.211 0.571443C237.42 0.554602 237.641 0.550992 237.855 0.540166C238.146 0.526934 238.146 0.526936 238.629 0.60272C238.825 0.633996 239.046 0.593099 239.233 0.619563C239.36 0.637607 239.468 0.667673 239.59 0.688123C239.642 0.696543 239.725 0.700147 239.786 0.697741C240.073 0.686915 240.365 0.676094 240.647 0.65805C240.878 0.643615 241.069 0.658048 241.23 0.701353C241.348 0.732629 241.465 0.745869 241.613 0.738651C242.331 0.704969 243.049 0.67609 243.762 0.638799C244.006 0.625567 244.201 0.646022 244.336 0.689327C244.567 0.763908 244.893 0.676097 245.132 0.736243C245.28 0.773533 245.428 0.816841 245.698 0.798797C246.194 0.767521 246.698 0.750671 247.199 0.729018C247.377 0.761497 247.555 0.793983 247.738 0.826462C248.025 0.81323 248.312 0.799989 248.599 0.78796C248.813 0.778337 249.03 0.767512 249.243 0.759091C249.313 0.756685 249.387 0.751872 249.452 0.757887C249.517 0.763902 249.57 0.779543 249.63 0.791572C249.931 0.850516 249.931 0.851724 250.426 0.827666C250.64 0.81684 250.844 0.809622 251.023 0.857739C251.188 0.902247 251.384 0.910662 251.61 0.89743C252.036 0.873372 252.467 0.855329 252.902 0.838488C253.037 0.832474 253.163 0.852924 253.276 0.8842C253.446 0.933519 253.654 0.928709 253.868 0.915477C254.15 0.898636 254.429 0.881799 254.668 0.949162C254.716 0.963597 254.79 0.984036 254.842 0.982833C255.199 0.973209 255.56 0.965997 255.908 0.943142C256.256 0.920286 256.425 0.994865 256.665 1.03095C257.021 1.01531 257.382 0.999675 257.739 0.984037C257.809 0.980428 257.891 0.969608 257.952 0.975623C258.209 1.00088 258.357 1.0911 258.709 1.06343C258.914 1.0478 259.136 1.04299 259.349 1.03938C259.405 1.03818 259.479 1.05862 259.518 1.07426C259.54 1.08268 259.518 1.10553 259.492 1.11756C259.414 1.15124 259.318 1.18253 259.249 1.21741C259.24 1.22222 259.323 1.24387 259.37 1.25349C259.488 1.27514 259.623 1.27154 259.779 1.26192C259.914 1.2535 260.053 1.27034 260.149 1.30643C260.188 1.32086 260.175 1.34492 260.093 1.42431C260.093 1.48325 260.184 1.45678 260.214 1.41829C260.262 1.36296 260.171 1.34491 259.997 1.37499C259.875 1.39664 259.814 1.42792 259.845 1.45318C259.862 1.46641 259.945 1.48325 260.093 1.42431C260.475 1.35213 260.763 1.33891 261.05 1.32568C261.124 1.32207 261.211 1.31003 261.263 1.31725C261.45 1.34612 261.624 1.38101 261.807 1.41349C262.015 1.40627 262.211 1.38822 262.416 1.43513C262.703 1.50129 262.716 1.49528 262.994 1.48205C263.138 1.47483 263.281 1.46883 263.425 1.46281C263.568 1.4568 263.681 1.47484 263.808 1.5025C264.064 1.55904 264.086 1.55904 264.256 1.48205C264.356 1.43513 264.425 1.4195 264.551 1.44115C264.969 1.51453 264.973 1.51934 265.33 1.49769C265.626 1.47964 265.904 1.47483 266.122 1.5434C266.27 1.59152 266.318 1.58069 266.435 1.53017C266.748 1.39664 266.892 1.39904 267.479 1.49528C267.753 1.54099 268.036 1.49168 268.314 1.48566C268.549 1.48085 268.715 1.50971 268.732 1.5855C268.745 1.63241 268.784 1.6661 268.941 1.68174C269.002 1.68775 269.076 1.69617 269.137 1.69376C269.498 1.67933 269.854 1.66248 270.215 1.64564C270.398 1.63722 270.498 1.5807 270.463 1.50612C270.424 1.42672 270.494 1.39784 270.755 1.37499C270.911 1.36175 271.038 1.36417 271.164 1.38582C271.303 1.40988 271.264 1.43153 271.142 1.47484C270.851 1.5807 270.885 1.64564 271.26 1.71902C271.39 1.74428 271.494 1.76715 271.525 1.80444C271.542 1.82368 271.525 1.84894 271.564 1.86338C271.777 1.94398 272.073 1.99571 272.404 2.0342C272.721 2.00172 272.939 2.05584 273.182 2.09915C273.374 2.13283 273.6 2.10397 273.804 2.09194C274.035 2.07871 274.226 2.08832 274.392 2.13283C274.509 2.16411 274.631 2.17854 274.774 2.17252C275.062 2.15929 275.353 2.15088 275.636 2.13163C275.879 2.11479 276.062 2.13885 276.214 2.17975C276.406 2.23147 276.619 2.19658 276.819 2.2038C277.089 2.21222 277.224 2.31928 277.576 2.29041C277.785 2.27357 278.002 2.26755 278.22 2.26274C278.276 2.26154 278.346 2.28199 278.394 2.29643C278.624 2.36259 278.894 2.35898 279.19 2.33973C279.394 2.3265 279.594 2.31448 279.795 2.36019C280.125 2.43717 280.491 2.50454 280.839 2.57551C280.886 2.63085 280.852 2.69579 281.1 2.72827C281.23 2.74511 281.352 2.77038 281.452 2.79805C281.574 2.83053 281.687 2.83895 281.843 2.83053C282.126 2.81369 282.422 2.81007 282.701 2.78842C282.957 2.76917 283.118 2.80888 283.275 2.84617C283.401 2.87624 283.518 2.89067 283.671 2.86902C283.827 2.84857 283.94 2.8618 284.066 2.89428C284.245 2.93878 284.258 2.93398 284.849 2.94721C284.91 2.94842 284.984 2.96645 285.019 2.98209C285.036 2.99051 284.997 3.01458 284.967 3.02661C284.928 3.04104 284.867 3.05788 284.81 3.06148C284.166 3.09276 283.518 3.12043 282.874 3.1517C282.809 3.15531 282.74 3.16374 282.692 3.17577C282.64 3.189 282.574 3.20703 282.574 3.22388C282.574 3.2359 282.661 3.25034 282.722 3.25877C282.914 3.28643 283.14 3.24433 283.327 3.27561C283.453 3.29606 283.557 3.32492 283.684 3.34417C283.736 3.35259 283.819 3.35139 283.884 3.34898C284.101 3.34056 284.314 3.32854 284.532 3.32132C284.593 3.32012 284.662 3.33215 284.719 3.34177C285.137 3.41395 285.137 3.41395 285.498 3.39831C285.641 3.39229 285.793 3.37425 285.928 3.38147C286.059 3.38868 286.172 3.42116 286.289 3.44161C286.533 3.48492 286.764 3.52702 286.781 3.62085C286.79 3.65693 286.933 3.6882 287.077 3.69061C287.216 3.69302 287.364 3.6798 287.507 3.67258C287.847 3.65814 287.847 3.65814 288.286 3.73152C288.408 3.75197 288.538 3.75437 288.695 3.74234C288.756 3.73753 288.83 3.74235 288.895 3.74836C289.108 3.76641 289.108 3.78926 288.969 3.83256C288.773 3.89632 288.791 3.90233 289.339 3.95647C289.548 3.97692 289.709 4.01541 289.883 4.04909C290.165 4.10322 290.161 4.10321 289.974 4.17419C289.93 4.18982 289.891 4.20667 289.848 4.22351C289.722 4.27042 289.622 4.32094 289.361 4.32576C289.073 4.33057 288.786 4.34982 288.499 4.36305C288.221 4.37629 288.147 4.40514 288.173 4.48694C288.203 4.58558 288.26 4.59641 288.76 4.59521C288.904 4.59521 289.03 4.60483 289.139 4.63731C289.086 4.6758 288.991 4.70588 288.852 4.71309C288.495 4.73114 288.134 4.74678 287.777 4.76242C287.49 4.77565 287.203 4.78888 286.916 4.80211C286.737 4.81053 286.624 4.87309 286.672 4.94285C286.698 4.98255 286.72 5.02225 286.742 5.06194C286.79 5.14134 286.881 5.16179 287.172 5.15818C287.246 5.15698 287.316 5.14735 287.386 5.14975C287.668 5.15817 287.803 5.25801 288.142 5.23756C288.425 5.22072 288.721 5.21712 289 5.19547C289.256 5.17622 289.4 5.21953 289.578 5.25201C289.639 5.26284 289.704 5.28568 289.757 5.28448C290.118 5.27125 290.479 5.25803 290.831 5.23517C290.996 5.22555 291.096 5.23276 291.227 5.26163C291.54 5.3314 291.549 5.32779 292.014 5.30614C292.354 5.2893 292.358 5.2917 292.793 5.36508C292.915 5.38553 293.045 5.38553 293.202 5.3759C293.406 5.36387 293.619 5.34463 293.833 5.36267C293.898 5.36749 293.98 5.38192 294.002 5.39756C294.015 5.40839 293.954 5.43485 293.902 5.44327C293.519 5.50583 293.071 5.495 292.654 5.52026C292.523 5.52748 292.393 5.50462 292.284 5.47214C292.171 5.43966 292.049 5.42644 291.901 5.43245C291.614 5.44568 291.323 5.4541 291.04 5.47335C290.796 5.49019 290.626 5.46252 290.457 5.42523C290.4 5.4132 290.335 5.39034 290.278 5.39154C289.635 5.4156 288.987 5.43967 288.347 5.47335C288.09 5.48778 287.942 5.44929 287.768 5.41681C287.708 5.40599 287.647 5.38313 287.59 5.38433C287.373 5.38914 287.159 5.40237 286.942 5.412C286.15 5.44808 285.363 5.48417 284.571 5.51785C284.519 5.52026 284.454 5.495 284.393 5.48417C284.275 5.46252 284.153 5.44206 284.032 5.42162C283.814 5.43124 283.601 5.44327 283.383 5.45048C283.227 5.4553 283.088 5.47214 283.066 5.51785C283.053 5.54793 283.196 5.57559 283.349 5.57318C283.497 5.57078 283.644 5.55634 283.766 5.57198C284.371 5.64897 284.371 5.65017 284.749 5.63453C285.08 5.6201 285.045 5.60807 285.337 5.67423C285.463 5.7031 285.576 5.71994 285.72 5.71273C286.076 5.69589 286.437 5.67904 286.798 5.66461C286.855 5.6622 286.929 5.67424 286.985 5.68386C287.412 5.75603 287.412 5.75844 287.764 5.74039C288.225 5.71874 288.243 5.71273 288.551 5.7861C288.765 5.83663 288.96 5.80174 289.165 5.79933C289.4 5.84625 289.656 5.88836 289.87 5.94129C290.122 6.00384 290.387 5.993 290.674 5.97496C290.887 5.96172 291.096 5.95691 291.27 6.00623C291.436 6.05194 291.636 6.05676 291.862 6.04473C292.066 6.03391 292.275 6.01105 292.488 6.03751C292.545 6.04473 292.632 6.06278 292.628 6.0736C292.623 6.09044 292.567 6.11451 292.51 6.12172C292.11 6.17104 291.671 6.16984 291.249 6.19269C291.192 6.1963 291.118 6.18306 291.062 6.17344C290.94 6.15179 290.822 6.12653 290.705 6.10368C290.492 6.11089 290.274 6.11329 290.065 6.12773C289.904 6.13856 289.783 6.13736 289.665 6.10849C289.556 6.08203 289.439 6.04954 289.308 6.04112C289.178 6.0327 289.026 6.05075 288.882 6.05797C288.739 6.06518 288.573 6.06157 288.46 6.08081C288.347 6.10006 288.277 6.14217 288.203 6.17585C288.121 6.21314 288.008 6.22518 287.842 6.22879C287.69 6.23239 287.568 6.22758 287.455 6.1939C287.407 6.17946 287.342 6.16863 287.277 6.15901C287.216 6.15059 287.146 6.13735 287.09 6.13976C286.442 6.16742 285.798 6.19751 285.15 6.22638C284.828 6.24081 284.832 6.2408 284.162 6.16983C284.101 6.16381 284.027 6.1554 283.966 6.1578C283.605 6.17224 283.249 6.18908 282.888 6.20592C282.522 6.22276 282.526 6.22036 281.904 6.14457C281.791 6.13014 281.626 6.14939 281.491 6.14698C281.208 6.14097 281.069 6.03992 280.739 6.05917C280.456 6.07601 280.16 6.07962 279.877 6.10127C279.62 6.12052 279.473 6.07842 279.299 6.04594C279.238 6.03511 279.172 6.01105 279.12 6.01346C278.472 6.03992 277.828 6.06999 276.967 6.0736C276.754 6.0736 276.849 6.09887 276.989 6.10729C277.189 6.12052 277.254 6.09526 277.145 6.04714C277.067 6.01346 276.954 5.99661 276.863 6.00503C276.815 6.00984 276.754 6.0327 276.967 6.0736C277.193 6.11931 277.18 6.14457 277.219 6.15901C277.315 6.19389 277.45 6.20833 277.589 6.20351C277.807 6.19509 278.02 6.18307 278.237 6.17585C278.298 6.17344 278.372 6.18186 278.429 6.19149C278.907 6.26607 278.911 6.27089 279.42 6.24202C279.581 6.2336 279.699 6.23359 279.825 6.25645C279.999 6.28773 280.125 6.34065 280.391 6.32381C280.743 6.30095 281.104 6.28773 281.465 6.2745C281.522 6.27209 281.582 6.29374 281.648 6.30337C281.826 6.33224 281.957 6.38637 282.222 6.36351C282.426 6.34547 282.648 6.34065 282.866 6.33704C282.922 6.33583 283.009 6.35508 283.035 6.37072C283.088 6.39839 283.022 6.43088 282.874 6.45373C282.814 6.46335 282.731 6.46094 282.661 6.46455C282.374 6.47779 282.087 6.49221 281.8 6.50304C281.648 6.50905 281.504 6.52711 281.487 6.57162C281.474 6.60169 281.63 6.62815 281.778 6.62574C281.996 6.62213 282.213 6.61251 282.422 6.59687C282.792 6.57041 283.114 6.57762 283.414 6.65341C283.627 6.70633 283.614 6.6871 283.84 6.84348C283.897 6.88317 284.066 6.88678 284.214 6.88437C284.571 6.87836 284.736 6.8964 284.706 6.9337C284.667 6.97941 284.541 6.99383 284.38 6.99985C284.092 7.00947 283.805 7.02512 283.518 7.03835C283.449 7.04196 283.37 7.04917 283.305 7.04676C283.24 7.04436 283.179 7.02992 283.122 7.0191C283.001 6.99624 282.896 6.96135 282.766 6.95293C282.635 6.94451 282.483 6.96256 282.339 6.96977C282.196 6.97579 282.044 6.99383 281.913 6.98541C281.783 6.97699 281.674 6.94091 281.556 6.91926C281.5 6.90843 281.43 6.89158 281.374 6.89279C281.087 6.90241 280.799 6.91805 280.512 6.93008C280.16 6.94572 280.16 6.94572 279.734 6.87114C279.612 6.84949 279.486 6.8507 279.325 6.86032C278.977 6.87957 278.972 6.87595 278.337 6.80618C278.276 6.79896 278.202 6.79054 278.141 6.79415C277.493 6.82182 276.849 6.85189 276.206 6.88076C275.653 6.90602 275.653 6.90603 275.349 7.02632C275.122 7.11534 275.118 7.11533 275.34 7.15623C275.518 7.18991 275.679 7.23923 275.875 7.25727C276.058 7.27412 276.284 7.21999 276.484 7.27532C276.584 7.30299 276.715 7.33306 276.841 7.33788C277.041 7.34389 277.254 7.309 277.445 7.36193C277.541 7.38839 277.685 7.41607 277.807 7.41727C278.02 7.41968 278.237 7.40042 278.45 7.392C278.516 7.3896 278.59 7.3896 278.65 7.39561C278.716 7.40283 278.772 7.41727 278.829 7.4293C279.003 7.4702 279.19 7.48944 279.416 7.46899C279.786 7.43531 280.116 7.45215 280.404 7.52914C280.443 7.53996 280.538 7.54117 280.599 7.53636C280.756 7.52433 280.891 7.52312 281.008 7.54598C281.056 7.5556 281.126 7.57243 281.117 7.58326C281.104 7.60131 281.052 7.62537 280.995 7.63138C280.586 7.67228 280.147 7.6771 279.725 7.69875C279.668 7.70116 279.599 7.68551 279.542 7.67468C279.42 7.65303 279.316 7.61695 279.186 7.60853C279.055 7.60011 278.903 7.61575 278.759 7.62176C278.616 7.62778 278.463 7.64582 278.333 7.63861C278.202 7.63019 278.081 7.60011 277.976 7.57364C277.854 7.54357 277.737 7.53997 277.576 7.552C277.367 7.56764 277.15 7.57004 276.937 7.57846C276.819 7.5556 276.702 7.53033 276.58 7.50868C276.523 7.49785 276.454 7.48463 276.393 7.48583C276.106 7.49546 275.818 7.50988 275.531 7.52312C275.244 7.53635 275.244 7.53636 274.757 7.46178C274.701 7.45336 274.626 7.44374 274.566 7.44614C274.205 7.46058 273.848 7.47861 273.487 7.49304C273.348 7.49906 273.221 7.48222 273.108 7.44974C273 7.41726 272.869 7.39922 272.734 7.40523C272.16 7.43049 271.586 7.45456 271.012 7.48463C270.781 7.49666 270.585 7.48583 270.429 7.44253C270.246 7.39321 270.041 7.40524 269.828 7.41486C269.345 7.43892 269.341 7.43771 269.032 7.37636C268.971 7.36433 268.91 7.34147 268.854 7.34268C268.354 7.36072 267.849 7.37757 267.353 7.40644C267.092 7.42207 266.953 7.37997 266.779 7.3487C266.718 7.33787 266.653 7.31501 266.601 7.31742C266.239 7.33065 265.878 7.34269 265.526 7.36674C265.174 7.3908 265.039 7.27893 264.773 7.28014C264.412 7.28134 264.056 7.30901 263.699 7.32585C263.412 7.33908 263.125 7.35231 262.838 7.36554C262.55 7.37877 262.263 7.38959 261.976 7.40523C261.824 7.41365 261.711 7.40282 261.585 7.37275C261.424 7.33305 261.232 7.30179 261.058 7.2657C260.793 7.21398 260.793 7.21397 260.471 7.22841C260.401 7.23201 260.328 7.23441 260.258 7.23802C259.732 7.26449 259.732 7.26209 259.062 7.18631C259.031 7.1827 258.953 7.19593 258.922 7.20556C258.831 7.23683 258.748 7.27051 258.666 7.30299C258.548 7.28374 258.405 7.27292 258.326 7.24525C258.105 7.16706 257.757 7.27412 257.53 7.19713C257.448 7.16826 257.304 7.143 257.174 7.13578C257.039 7.12856 256.887 7.1454 256.747 7.15262C256.386 7.17066 256.386 7.16947 256.077 7.27653C255.921 7.32945 255.695 7.31983 255.49 7.33185C255.277 7.34509 255.072 7.35231 254.894 7.30299C254.733 7.25848 254.537 7.24766 254.307 7.26209C254.024 7.28013 253.733 7.29096 253.446 7.30178C253.385 7.30419 253.311 7.29818 253.25 7.29096C252.584 7.21999 252.584 7.21879 252.262 7.23443C252.119 7.24164 251.971 7.24404 251.832 7.25487C251.597 7.27411 251.418 7.24885 251.249 7.21036C251.192 7.19833 251.127 7.17549 251.07 7.17669C250.783 7.1827 250.5 7.19353 250.218 7.20435C250 7.21277 249.783 7.21759 249.574 7.23443C249.226 7.26209 249.056 7.18389 248.817 7.1478C248.46 7.16344 248.099 7.17427 247.742 7.19592C247.577 7.20555 247.468 7.20195 247.342 7.17308C247.181 7.13699 247.033 7.09609 246.772 7.11413C246.424 7.13819 246.059 7.14661 245.702 7.16105C245.463 7.12376 245.289 7.04796 244.945 7.07563C244.737 7.09247 244.515 7.09608 244.302 7.1057C244.014 7.11894 243.727 7.13098 243.44 7.14541C243.131 7.15985 243.136 7.15624 242.661 7.08526C242.387 7.04316 242.105 7.09007 241.826 7.09729C241.609 7.10331 241.5 7.15864 241.552 7.22961C241.604 7.30058 241.487 7.35592 241.287 7.36554C240.786 7.3884 240.282 7.41245 239.782 7.4329C239.721 7.4353 239.647 7.42688 239.59 7.41846C239.055 7.34268 239.055 7.34389 238.816 7.35472C238.459 7.37276 238.094 7.38238 237.741 7.40523C237.498 7.42087 237.319 7.39562 237.163 7.35472C237.041 7.32344 236.928 7.31622 236.771 7.32344C235.049 7.40404 233.326 7.47862 231.608 7.56162C231.351 7.57365 231.203 7.53877 231.029 7.50629C230.968 7.49546 230.912 7.4726 230.851 7.4726C230.707 7.4726 230.564 7.48343 230.42 7.49065C229.776 7.51952 229.132 7.5544 228.484 7.57605C228.21 7.58567 228.136 7.64101 228.019 7.68673C227.927 7.72161 227.823 7.73604 227.662 7.74085C227.505 7.74566 227.392 7.73965 227.271 7.70837C227.114 7.66747 226.936 7.6422 226.692 7.65905C226.409 7.67829 226.122 7.68672 225.831 7.69996C225.683 7.70597 225.57 7.72762 225.522 7.77092C225.513 7.77814 225.604 7.79619 225.657 7.80702C225.831 7.8431 225.996 7.88521 226.192 7.91047C226.392 7.93573 226.609 7.90685 226.818 7.89963C226.892 7.89722 226.962 7.89001 227.031 7.89122C227.096 7.89242 227.175 7.89844 227.223 7.90926C227.449 7.96339 227.688 8.00068 228.001 7.9682C228.271 7.98384 228.41 8.08368 228.754 8.05722C228.963 8.04158 229.18 8.03436 229.398 8.02835C229.454 8.02715 229.515 8.0488 229.576 8.05963C229.75 8.0897 229.889 8.13782 230.15 8.11737C230.429 8.09571 230.725 8.09211 231.007 8.07527C231.164 8.06564 231.277 8.07406 231.399 8.10534C231.555 8.14504 231.734 8.1751 231.977 8.15585C232.186 8.13901 232.408 8.1354 232.621 8.12458C232.9 8.11134 232.9 8.11255 233.396 8.18713C233.452 8.19555 233.526 8.20517 233.587 8.20277C233.948 8.18833 234.305 8.17029 234.666 8.15585C234.805 8.14984 234.94 8.16547 235.036 8.20036C235.075 8.2148 235.062 8.23887 235.075 8.25932C234.357 8.2918 233.639 8.31946 232.926 8.35915C232.656 8.37479 232.534 8.32547 232.356 8.2978C232.295 8.28818 232.23 8.26773 232.173 8.27014C231.669 8.29059 231.168 8.31223 230.668 8.3387C230.511 8.34712 230.394 8.34231 230.277 8.30742C229.976 8.2148 229.611 8.26532 229.272 8.27855C229.011 8.28818 228.928 8.32547 228.958 8.40487C228.998 8.49869 229.154 8.52756 229.554 8.51072C229.698 8.50471 229.841 8.49628 229.985 8.49147C230.124 8.48666 230.25 8.5023 230.364 8.53478C230.472 8.56725 230.603 8.5841 230.738 8.57928C231.025 8.56846 231.316 8.55764 231.595 8.53959C231.825 8.52516 232.017 8.53718 232.178 8.58169C232.356 8.63101 232.565 8.62018 232.774 8.60936C233.261 8.5853 233.265 8.58651 233.57 8.64665C233.63 8.65868 233.691 8.68154 233.748 8.68034C234.248 8.6623 234.753 8.64666 235.244 8.61778C235.501 8.60335 235.649 8.64184 235.819 8.67311C235.88 8.68394 235.94 8.708 235.997 8.7056C236.358 8.69236 236.719 8.67913 237.071 8.65627C237.237 8.64545 237.337 8.65266 237.472 8.68153C237.794 8.7525 237.802 8.7501 238.259 8.72724C238.398 8.72002 238.551 8.70679 238.681 8.71642C238.812 8.72604 238.916 8.76093 239.038 8.78258C239.094 8.79221 239.164 8.80543 239.225 8.80302C239.512 8.7934 239.799 8.77897 240.086 8.76574C240.356 8.75251 240.356 8.75371 240.86 8.8283C241.065 8.85957 241.278 8.8331 241.483 8.82348C241.704 8.81265 241.905 8.81266 242.074 8.85957C242.244 8.90649 242.448 8.90407 242.666 8.89445C242.87 8.88482 243.079 8.85837 243.288 8.89085C243.766 8.96543 243.766 8.96662 244.062 8.95219C244.493 8.93174 244.919 8.91249 245.354 8.89445C245.411 8.89204 245.485 8.90648 245.541 8.91611C245.663 8.93776 245.767 8.97384 245.898 8.98226C246.029 8.99188 246.181 8.97745 246.32 8.97023C246.768 8.94738 246.798 8.93896 247.099 9.01835C247.351 9.08331 247.664 8.98948 247.899 9.06406C248.034 9.10617 248.217 9.13984 248.469 9.11939C248.678 9.10255 248.895 9.09774 249.113 9.08812C249.456 9.07248 249.456 9.07369 249.891 9.14587C249.948 9.15549 250.022 9.16751 250.078 9.1651C250.366 9.15548 250.657 9.14707 250.936 9.12541C251.262 9.10015 251.471 9.14587 251.714 9.19038C251.906 9.22526 252.132 9.19639 252.336 9.18436C252.558 9.17233 252.758 9.17593 252.923 9.22284C253.097 9.27096 253.302 9.26495 253.52 9.25532C253.724 9.2469 253.933 9.21923 254.142 9.25292C254.59 9.3275 254.59 9.3275 254.916 9.31306C255.203 9.29983 255.49 9.2854 255.777 9.27578C255.834 9.27337 255.903 9.28901 255.96 9.29983C256.082 9.32148 256.186 9.35758 256.317 9.366C256.447 9.37442 256.599 9.35878 256.743 9.35277C256.887 9.34675 257.039 9.32871 257.169 9.33593C257.3 9.34314 257.422 9.37322 257.526 9.39968C257.648 9.43096 257.761 9.43456 257.926 9.42253C258.135 9.40689 258.352 9.40329 258.566 9.39487C258.683 9.41772 258.805 9.44057 258.918 9.46584C259.035 9.4923 259.162 9.48989 259.323 9.48147C259.858 9.4526 259.862 9.45622 260.31 9.5308C260.515 9.56448 260.728 9.53681 260.932 9.52839C261.15 9.51877 261.354 9.51396 261.524 9.56207C261.689 9.60779 261.894 9.61379 262.111 9.59936C262.25 9.58974 262.398 9.58373 262.542 9.58012C262.607 9.57892 262.685 9.58373 262.733 9.59335C262.964 9.64388 263.19 9.68959 263.508 9.65711C263.786 9.66673 263.925 9.76537 264.26 9.74613C264.543 9.72928 264.839 9.72566 265.117 9.70401C265.374 9.68476 265.556 9.71846 265.687 9.76056C265.922 9.83514 266.253 9.7341 266.487 9.80748C266.622 9.84958 266.796 9.88326 267.057 9.86521C267.344 9.84597 267.436 9.87122 267.518 9.947C267.566 9.99031 267.558 10.0252 267.471 10.0589C267.384 10.0938 267.288 10.0878 267.149 10.0481C266.988 10.0036 266.796 9.99512 266.566 10.0047C266.339 10.0144 266.2 9.95183 266.013 9.92777C265.826 9.90251 265.604 9.94461 265.409 9.91213C264.947 9.83635 264.947 9.83634 264.634 9.85078C264.421 9.8604 264.199 9.86522 263.99 9.88206C263.742 9.90251 263.581 9.86521 263.412 9.83153C263.351 9.8195 263.29 9.79664 263.238 9.79784C262.737 9.81589 262.233 9.83273 261.737 9.86281C261.476 9.87844 261.337 9.83514 261.163 9.80507C261.102 9.79424 261.037 9.77259 260.984 9.77499C260.554 9.79184 260.127 9.81349 259.697 9.83394C259.614 9.86642 259.523 9.89769 259.444 9.93257C259.362 9.96866 259.249 9.9843 259.083 9.9831C258.809 9.9831 258.54 10.0336 258.266 9.96987C257.983 9.90491 257.961 9.90852 257.687 9.92416C257.339 9.9446 256.969 9.9398 256.643 9.98671C256.586 9.99513 256.525 10.018 256.525 10.0348C256.521 10.0456 256.612 10.0613 256.669 10.0709C256.86 10.0998 257.082 10.0577 257.274 10.0878C257.4 10.107 257.504 10.1359 257.63 10.1563C257.683 10.1647 257.761 10.1635 257.831 10.1623C257.904 10.1611 257.974 10.1527 258.044 10.1539C258.109 10.1551 258.179 10.1623 258.231 10.1732C258.47 10.2189 258.722 10.261 258.935 10.3151C259.144 10.368 259.34 10.3319 259.549 10.3295C260.384 10.4137 260.384 10.4149 260.945 10.3885C261.085 10.3825 261.228 10.3753 261.372 10.3765C261.432 10.3765 261.489 10.3981 261.55 10.4101C261.724 10.4462 261.889 10.4787 262.133 10.4594C262.342 10.4426 262.564 10.439 262.777 10.4282C263.064 10.4149 263.064 10.4149 263.551 10.4907C263.673 10.51 263.803 10.5076 263.96 10.498C264.095 10.4895 264.234 10.5076 264.33 10.5425C264.369 10.5569 264.356 10.581 264.369 10.6014C263.938 10.6206 263.503 10.6339 263.086 10.6628C262.816 10.6808 262.694 10.6291 262.516 10.6014C262.455 10.5918 262.39 10.5713 262.333 10.5737C261.907 10.5918 261.48 10.6122 261.054 10.6363C261.002 10.6387 260.937 10.6664 260.932 10.6832C260.924 10.7145 261.032 10.7445 261.189 10.7433C261.398 10.7421 261.602 10.7217 261.789 10.771C261.946 10.8143 262.141 10.8336 262.372 10.8143C262.511 10.8035 262.659 10.8035 262.798 10.7939C263.168 10.765 263.503 10.771 263.781 10.8528C263.995 10.8745 264.204 10.854 264.408 10.8432C264.56 10.8348 264.708 10.8263 264.817 10.8492C265.047 10.8973 265.274 10.9454 265.591 10.913C265.935 10.9466 266.196 11.0176 266.483 11.0753C266.618 11.103 266.722 11.1187 266.879 11.1006C266.944 11.0934 267.022 11.0934 267.092 11.0898C267.236 11.0838 267.388 11.0657 267.518 11.0729C267.649 11.0814 267.758 11.1162 267.875 11.1379C267.932 11.1487 267.997 11.1668 268.053 11.1656C268.271 11.1595 268.484 11.1475 268.697 11.1379C268.91 11.1295 269.124 11.1211 269.337 11.1126C269.515 11.1439 269.698 11.1752 269.876 11.2065C270.163 11.1932 270.45 11.18 270.733 11.168C271.051 11.1535 271.051 11.1547 271.507 11.2293C271.712 11.263 271.929 11.2413 272.125 11.2257C272.451 11.2004 272.669 11.2462 272.9 11.2943C272.947 11.3039 273.034 11.3099 273.091 11.3051C273.317 11.2883 273.513 11.3015 273.678 11.346C273.796 11.3773 273.913 11.3917 274.057 11.3857C274.557 11.3629 275.057 11.3388 275.557 11.3183C275.618 11.3159 275.688 11.3268 275.744 11.3364C276.188 11.4098 276.193 11.4134 276.519 11.3941C276.81 11.3773 277.08 11.3701 277.311 11.4362C277.358 11.4507 277.432 11.4711 277.485 11.4699C277.841 11.4579 278.202 11.4446 278.555 11.4242C278.716 11.4146 278.829 11.4182 278.955 11.4459C279.116 11.4807 279.26 11.5228 279.525 11.5072C280.26 11.4627 280.264 11.4699 281.134 11.5529C281.195 11.5589 281.278 11.5493 281.348 11.5445C281.495 11.5325 281.604 11.5493 281.735 11.577C282.026 11.6395 282.035 11.6359 282.313 11.6227C282.526 11.6119 282.748 11.6094 282.957 11.5914C283.279 11.5649 283.492 11.6119 283.731 11.6564C283.923 11.6912 284.145 11.6624 284.349 11.6515C284.571 11.6395 284.771 11.6431 284.936 11.6888C285.05 11.7201 285.171 11.737 285.315 11.7309C285.815 11.7093 286.315 11.6852 286.816 11.6636C286.877 11.6612 286.951 11.6708 287.007 11.6792C287.503 11.7538 287.503 11.7574 287.995 11.7297C288.151 11.7213 288.282 11.7189 288.399 11.7442C288.512 11.7682 288.634 11.7911 288.752 11.8139C288.965 11.8055 289.182 11.8031 289.391 11.7887C289.552 11.7779 289.665 11.7827 289.791 11.8079C289.957 11.8404 290.096 11.8969 290.357 11.8693C290.492 11.856 290.648 11.8597 290.783 11.8476C290.944 11.832 291.053 11.8416 291.179 11.8729C291.336 11.9102 291.496 11.9487 291.749 11.9294C292.027 11.9078 292.323 11.9042 292.606 11.8873C292.762 11.8777 292.871 11.8873 292.997 11.9186C293.154 11.9583 293.332 11.9836 293.576 11.9679C294.072 11.9378 294.076 11.9439 294.559 12.0196C294.681 12.0389 294.811 12.0365 294.968 12.0269C295.103 12.0184 295.242 12.0365 295.338 12.0714C295.429 12.1099 295.42 12.1339 295.429 12.1544ZM256.665 1.30522C256.521 1.31124 256.378 1.31845 256.169 1.2138C256.156 1.19576 256.164 1.17411 256.134 1.15847C256.064 1.12599 255.956 1.10314 255.825 1.09953C255.59 1.09472 255.307 1.13561 255.312 1.16688C255.316 1.19335 255.39 1.2162 255.534 1.23785C255.594 1.24627 255.642 1.26071 255.699 1.27033C255.864 1.298 255.995 1.35214 256.234 1.32447C256.212 1.28718 256.191 1.24989 256.234 1.32447C256.212 1.37018 256.277 1.40266 256.434 1.4159C256.478 1.41951 256.543 1.41709 256.578 1.40988C256.713 1.38341 256.734 1.34733 256.634 1.2523C256.617 1.26794 256.63 1.2956 256.669 1.30281C256.708 1.31003 256.804 1.30402 256.852 1.2956C256.974 1.27275 257.034 1.24267 257.004 1.21741C256.987 1.20418 256.904 1.18734 256.852 1.18734C256.76 1.18734 256.678 1.2138 256.665 1.30522ZM291.84 15.2555C291.523 15.2784 291.157 15.2699 290.84 15.3168C290.783 15.3253 290.727 15.3469 290.722 15.3638C290.718 15.3746 290.805 15.3902 290.857 15.3987C290.975 15.4179 291.105 15.4119 291.257 15.4059C291.488 15.3974 291.623 15.4528 291.801 15.4804C291.858 15.4889 291.932 15.4949 291.992 15.4925C292.345 15.478 292.693 15.4624 293.045 15.4456C293.106 15.442 293.171 15.4335 293.224 15.4227C293.398 15.3878 293.38 15.365 293.211 15.3385C293.023 15.3096 292.876 15.2615 292.684 15.2387C292.41 15.2062 292.132 15.2495 291.84 15.2555ZM267.136 16.1336C266.922 16.1433 266.714 16.1529 266.5 16.1625C266.431 16.1661 266.357 16.1673 266.292 16.1721C266.157 16.1805 266.057 16.2058 265.991 16.2455C266.091 16.2768 266.213 16.2948 266.348 16.2912C266.561 16.284 266.77 16.2684 266.983 16.2647C267.214 16.2599 267.349 16.3141 267.527 16.3417C267.584 16.3502 267.653 16.3514 267.718 16.3526C268.04 16.3574 268.236 16.2948 268.175 16.207C268.132 16.1384 267.966 16.0975 267.766 16.106C267.558 16.1144 267.344 16.124 267.136 16.1336ZM293.328 13.4776C293.38 13.4571 293.437 13.4427 293.463 13.4247C293.541 13.3633 293.511 13.3176 293.367 13.2695C293.193 13.2105 292.98 13.2502 292.784 13.2562C292.736 13.2574 292.684 13.2827 292.658 13.2983C292.641 13.3092 292.641 13.332 292.667 13.338C292.88 13.3862 293.106 13.4307 293.328 13.4776ZM255.59 9.92416C255.381 9.93378 255.168 9.941 254.959 9.95423C254.907 9.95784 254.859 9.98069 254.829 9.99633C254.772 10.0252 254.833 10.0649 255.012 10.0685C255.216 10.0733 255.429 10.0529 255.642 10.0432C255.912 10.0312 256.073 9.9867 255.973 9.94821C255.877 9.91092 255.747 9.90371 255.59 9.92416ZM26.6013 7.35351C26.7405 7.3475 26.884 7.34268 27.0232 7.33426C27.1537 7.32584 27.2539 7.29938 27.3191 7.25968C27.2104 7.22841 27.0885 7.21157 26.9537 7.21518C26.7405 7.22239 26.5317 7.23201 26.3229 7.24404C26.1924 7.25126 26.0663 7.27773 26.0358 7.31862C26.0054 7.3499 26.2968 7.36795 26.6013 7.35351ZM237.193 7.16826C237.25 7.17909 237.306 7.20074 237.363 7.20074C237.502 7.20074 237.646 7.19352 237.776 7.18149C237.833 7.17668 237.876 7.15503 237.902 7.13819C237.92 7.12736 237.915 7.10812 237.889 7.0985C237.763 7.04075 237.259 7.0612 237.176 7.12736C237.167 7.13939 237.189 7.15503 237.193 7.16826ZM223.468 0.581061C223.482 0.600308 223.486 0.619552 223.503 0.638799C223.538 0.674887 223.634 0.701356 223.773 0.7194C223.882 0.689327 223.938 0.655651 223.934 0.619563C223.93 0.600316 223.917 0.581057 223.899 0.56181C223.864 0.525723 223.769 0.499268 223.629 0.481224C223.521 0.510094 223.468 0.543771 223.468 0.581061ZM303.381 16.3429C303.342 16.3586 303.303 16.3742 303.259 16.3887C303.377 16.4235 303.486 16.4344 303.568 16.4151C303.62 16.4031 303.651 16.385 303.69 16.3694C303.573 16.3345 303.468 16.3249 303.381 16.3429ZM300.675 16.5065C300.732 16.5174 300.784 16.5318 300.845 16.539C300.945 16.551 301.036 16.5306 301.106 16.4873C301.049 16.4765 300.997 16.462 300.936 16.4548C300.836 16.4428 300.745 16.4632 300.675 16.5065ZM302.389 16.2864C302.359 16.3153 302.42 16.3393 302.581 16.3598C302.62 16.3441 302.672 16.3297 302.698 16.3129C302.742 16.2852 302.668 16.2599 302.511 16.2407C302.468 16.2551 302.428 16.2708 302.389 16.2864ZM293.206 14.9897C293.176 15.0185 293.237 15.0426 293.398 15.063C293.437 15.0474 293.489 15.033 293.515 15.0161C293.559 14.9884 293.485 14.9632 293.328 14.9439C293.284 14.9584 293.245 14.974 293.206 14.9897ZM280.695 6.47778C280.656 6.49342 280.617 6.50906 280.573 6.5235C280.691 6.55838 280.799 6.5692 280.882 6.54996C280.934 6.53793 280.965 6.51988 281.004 6.50424C280.886 6.46936 280.782 6.45974 280.695 6.47778ZM268.71 1.96201C268.815 1.97043 268.902 1.9536 268.976 1.90909C268.919 1.89826 268.867 1.88383 268.806 1.87661C268.706 1.86458 268.615 1.88504 268.545 1.92834C268.602 1.94037 268.658 1.95119 268.71 1.96201ZM262.346 1.67933C262.307 1.69497 262.268 1.71061 262.224 1.72504C262.342 1.75993 262.45 1.77075 262.533 1.7515C262.585 1.73947 262.616 1.72143 262.655 1.70579C262.537 1.6709 262.433 1.66249 262.346 1.67933ZM219.188 0.579857C219.149 0.595495 219.11 0.611134 219.066 0.625569C219.184 0.660453 219.292 0.671276 219.375 0.652029C219.427 0.64 219.458 0.621956 219.497 0.606318C219.379 0.571433 219.275 0.563016 219.188 0.579857ZM4.29357 10.3668C4.23702 10.356 4.18051 10.3452 4.12831 10.3332C4.00216 10.3656 3.96302 10.3957 4.03262 10.4186C4.07612 10.433 4.14132 10.4414 4.19788 10.4522C4.32838 10.4198 4.35882 10.3909 4.29357 10.3668Z" fill="#14BEB6"/>
</svg>
