<svg width="278" height="29" viewBox="0 0 278 29" fill="none" xmlns="http://www.w3.org/2000/svg">
<path d="M261.558 15.3251C261.177 15.3493 260.792 15.366 260.418 15.4024C260.176 15.4252 260.072 15.3584 259.91 15.3236C259.856 15.3114 259.798 15.2872 259.748 15.2902C259.371 15.3145 258.993 15.3418 258.616 15.3691C258.5 15.4282 258.427 15.5071 258.25 15.5359C258.077 15.5632 257.872 15.5632 257.68 15.5768C257.426 15.5935 257.171 15.6102 256.917 15.6254C256.79 15.633 256.686 15.6618 256.644 15.7164C256.636 15.7255 256.721 15.7482 256.767 15.7619C256.921 15.8074 257.071 15.859 257.241 15.8938C257.402 15.9272 257.603 15.8726 257.776 15.9151C258.165 16.0106 258.169 16.0091 258.466 15.9909C258.72 15.9742 258.974 15.956 259.228 15.9439C259.278 15.9409 259.336 15.9636 259.39 15.9757C259.552 16.0091 259.656 16.085 259.894 16.0561C260.075 16.0334 260.276 16.0288 260.464 16.0167C260.622 16.0607 260.769 16.1107 260.938 16.1456C261.096 16.179 261.142 16.2048 261.058 16.2488C260.981 16.2897 260.873 16.3064 260.73 16.3094C260.603 16.311 260.476 16.3246 260.349 16.3322C260.283 16.3367 260.222 16.3398 260.16 16.3443C259.918 16.361 259.917 16.361 259.475 16.2639C259.301 16.226 259.105 16.2791 258.939 16.2427C258.828 16.2184 258.731 16.182 258.623 16.1562C258.577 16.1456 258.504 16.1441 258.446 16.1471C258.254 16.1578 258.061 16.1653 257.876 16.1851C257.745 16.1987 257.668 16.2412 257.684 16.2836C257.688 16.3003 257.78 16.3246 257.834 16.3261C257.957 16.3292 258.088 16.3079 258.207 16.3185C258.323 16.3291 258.442 16.3595 258.527 16.3928C258.7 16.4626 258.897 16.4004 259.062 16.4186C259.236 16.4384 259.378 16.499 259.544 16.5354C259.586 16.5445 259.667 16.5294 259.733 16.5248C259.921 16.5142 260.11 16.5051 260.299 16.4945C260.457 16.5385 260.626 16.5779 260.769 16.6279C261.027 16.719 261.304 16.7538 261.639 16.7098C261.828 16.6856 262.013 16.6947 262.163 16.7538C262.317 16.8145 262.494 16.8084 262.691 16.7963C262.872 16.7842 263.056 16.7508 263.241 16.7933C263.642 16.8873 263.646 16.8919 264.119 16.8555C264.262 16.8448 264.37 16.8418 264.478 16.8767C264.578 16.9085 264.686 16.9358 264.79 16.9662C264.978 16.9556 265.171 16.9449 265.36 16.9328C265.602 16.9161 265.737 16.9374 265.795 17.0223C265.829 17.0739 265.845 17.1209 265.93 17.1558C266.03 17.1982 266.138 17.1967 266.284 17.1846C266.423 17.174 266.523 17.1573 266.58 17.1027C266.604 17.0799 266.65 17.0587 266.692 17.0405C266.727 17.0268 266.781 17.0056 266.812 17.0086C266.869 17.0147 266.946 17.0314 266.966 17.0511C267.154 17.2346 267.154 17.2362 267.347 17.2892C267.559 17.3484 267.778 17.4015 267.971 17.4682C268.144 17.5274 268.317 17.5016 268.506 17.5016C268.649 17.5016 268.741 17.541 268.73 17.5805C268.722 17.6032 268.668 17.6366 268.622 17.6396C268.244 17.6699 267.863 17.6957 267.482 17.7169C267.436 17.72 267.378 17.6927 267.324 17.679C267.216 17.6517 267.12 17.6093 267.004 17.6002C266.889 17.5911 266.754 17.6138 266.627 17.6214C266.5 17.629 266.365 17.6487 266.249 17.6366C266.134 17.6244 266.041 17.5804 265.933 17.5516C265.883 17.538 265.814 17.5183 265.772 17.5228C265.491 17.5592 265.283 17.5092 265.082 17.4424C265.04 17.4288 264.967 17.4197 264.913 17.4227C264.466 17.4485 264.023 17.4788 263.576 17.5076C263.395 17.5198 263.249 17.4667 263.21 17.3772C263.191 17.3271 263.153 17.2771 263.153 17.227C263.153 17.136 262.941 17.086 262.787 17.0966C262.533 17.1118 262.275 17.1239 262.024 17.1467C261.82 17.1649 261.647 17.1467 261.508 17.0921C261.346 17.0299 261.162 17.042 260.977 17.0587C260.838 17.0708 260.799 17.1209 260.807 17.2468C260.815 17.3484 260.749 17.3802 260.499 17.3969C260.183 17.4182 259.864 17.4394 259.544 17.4561C259.494 17.4591 259.436 17.4333 259.386 17.4197C259.278 17.3924 259.182 17.3484 259.066 17.3393C258.951 17.3287 258.816 17.3514 258.689 17.3605C258.562 17.3681 258.427 17.3893 258.311 17.3787C258.196 17.3681 258.1 17.3226 257.996 17.2938C257.946 17.2801 257.884 17.2604 257.834 17.2634C257.58 17.2756 257.325 17.2938 257.071 17.3105C256.786 17.3287 256.786 17.3287 256.382 17.2346C256.197 17.1922 256.012 17.2255 255.831 17.2377C255.639 17.2498 255.458 17.2559 255.307 17.1952C255.207 17.1558 255.096 17.1315 254.976 17.1391C254.656 17.1573 254.341 17.18 254.021 17.1982C253.967 17.2013 253.894 17.1937 253.852 17.18C253.647 17.1163 253.447 17.0663 253.162 17.0981C252.916 17.1254 252.65 17.1269 252.403 17.1527C252.269 17.1664 252.207 17.2149 252.234 17.2528C252.249 17.2726 252.33 17.2953 252.384 17.2953C252.507 17.2968 252.642 17.2741 252.758 17.2832C252.996 17.3014 253.116 17.4288 253.428 17.3939C253.613 17.3726 253.805 17.3651 253.998 17.359C254.048 17.3575 254.102 17.3863 254.156 17.4015C254.31 17.4424 254.445 17.4955 254.668 17.4682C254.853 17.447 255.049 17.4409 255.238 17.4288C255.538 17.4091 255.538 17.4106 255.927 17.5031C256.112 17.5471 256.297 17.5122 256.478 17.5016C256.613 17.494 256.74 17.4788 256.848 17.5001C257.014 17.5319 257.133 17.6047 257.337 17.6002C257.53 17.5956 257.718 17.5744 257.911 17.5668C258.03 17.5622 258.142 17.5865 258.238 17.6275C258.338 17.6684 258.446 17.6866 258.577 17.6775C258.766 17.6654 258.958 17.6502 259.151 17.6426C259.205 17.6411 259.267 17.6548 259.317 17.6669C259.425 17.6942 259.528 17.726 259.632 17.7549C259.821 17.7458 260.014 17.7427 260.199 17.7245C260.341 17.7109 260.441 17.717 260.557 17.7473C260.703 17.7882 260.823 17.8611 261.061 17.8262C261.181 17.8095 261.319 17.814 261.439 17.7989C261.585 17.7791 261.685 17.7867 261.789 17.8322C261.986 17.9187 262.232 17.9202 262.486 17.8868C262.764 17.8504 262.972 17.8929 263.18 17.9596C263.399 18.0294 263.399 18.0279 263.569 18.1962C263.619 18.2448 263.761 18.2675 263.881 18.2584C264.081 18.2433 264.254 18.2508 264.401 18.3085C264.555 18.3707 264.739 18.3631 264.928 18.3464C265.178 18.3236 265.429 18.3039 265.633 18.3919C265.733 18.4344 265.841 18.445 265.976 18.4344C266.357 18.4071 266.742 18.3904 267.116 18.357C267.343 18.3358 267.474 18.3843 267.628 18.4253C267.836 18.4814 268.063 18.5314 268.063 18.6513C268.063 18.671 268.117 18.6937 268.163 18.7089C268.264 18.7407 268.371 18.768 268.475 18.7984C268.629 18.8439 268.78 18.8818 268.991 18.8575C269.176 18.8378 269.373 18.8317 269.561 18.8181C269.75 18.8044 269.924 18.7969 270.093 18.8545C270.289 18.9197 270.497 18.9819 270.721 19.0304C270.879 19.0653 271.087 19.0062 271.256 19.0532C271.36 19.082 271.46 19.1154 271.572 19.1396C271.618 19.1503 271.691 19.1427 271.753 19.1396C271.88 19.1336 272.011 19.129 272.134 19.1139C272.277 19.0972 272.385 19.1002 272.492 19.1351C272.593 19.167 272.693 19.2109 272.808 19.22C272.982 19.2337 273.174 19.173 273.347 19.2428C273.436 19.2777 273.548 19.311 273.663 19.3217C273.779 19.3323 273.914 19.3095 274.037 19.311C274.091 19.311 274.156 19.3353 274.187 19.355C274.206 19.3656 274.179 19.3945 274.152 19.4096C274.118 19.4278 274.068 19.4521 274.018 19.4551C273.636 19.4824 273.255 19.5052 272.874 19.531C272.646 19.5461 272.646 19.5461 272.188 19.4506C272.08 19.4278 271.961 19.4324 271.826 19.443C271.645 19.4566 271.46 19.4824 271.272 19.4551C271.025 19.352 270.721 19.3429 270.397 19.3823C270.262 19.399 270.139 19.399 270.039 19.3702C269.827 19.3125 269.604 19.2595 269.415 19.1912C269.269 19.1381 269.199 19.1336 269.138 19.2064C269.119 19.2291 269.099 19.2534 269.103 19.2746C269.126 19.3505 269.169 19.4248 269.192 19.5006C269.199 19.5219 269.169 19.5461 269.149 19.5689C269.088 19.6326 269.007 19.628 268.872 19.5749C268.737 19.5219 268.576 19.487 268.36 19.5112C268.175 19.5325 267.975 19.5294 267.79 19.5522C267.505 19.5856 267.305 19.537 267.1 19.4718C267.058 19.4582 266.985 19.4506 266.931 19.4536C266.357 19.4885 265.787 19.5279 265.213 19.5628C265.09 19.5704 264.978 19.5476 264.882 19.5067C264.782 19.4657 264.67 19.4445 264.547 19.4521C264.038 19.4839 263.53 19.5128 263.022 19.5522C262.814 19.5689 262.648 19.5492 262.506 19.4961C262.398 19.4566 262.298 19.4445 262.163 19.4491C262.017 19.4536 261.913 19.4688 261.839 19.5128C261.77 19.5552 261.82 19.581 261.974 19.6144C262.14 19.6508 262.294 19.6978 262.452 19.7403C262.579 19.7342 262.706 19.7221 262.829 19.7236C262.883 19.7236 262.933 19.7509 262.987 19.766C263.141 19.81 263.284 19.854 263.503 19.8298C263.688 19.8085 263.884 19.804 264.073 19.7903C264.335 19.7736 264.335 19.7736 264.759 19.8692C264.867 19.8935 264.982 19.8919 265.121 19.8783C265.24 19.8677 265.363 19.8889 265.448 19.9344C265.483 19.9526 265.471 19.983 265.398 20.0831C265.398 20.1574 265.479 20.124 265.506 20.0755C265.548 20.0057 265.467 19.9829 265.313 20.0209C265.205 20.0482 265.152 20.0876 265.179 20.1195C265.194 20.1361 265.267 20.1574 265.398 20.0831C265.737 19.9921 265.995 19.9814 266.242 19.9572C266.388 19.9435 266.48 19.9496 266.596 19.989C266.735 20.036 266.873 20.0861 267.1 20.0618C267.347 20.0345 267.609 20.0315 267.859 20.0087C268.09 19.9875 268.21 20.0542 268.356 20.0937C268.533 20.1407 268.73 20.0876 268.891 20.1149C269.061 20.1422 269.18 20.2089 269.377 20.2211C269.662 20.1801 269.843 20.256 270.058 20.306C270.228 20.3439 270.428 20.3105 270.609 20.2939C270.813 20.2757 270.983 20.2924 271.125 20.347C271.287 20.4091 271.468 20.3955 271.653 20.3818C272.084 20.3515 272.1 20.347 272.35 20.4304C272.531 20.491 272.704 20.4637 272.885 20.4562C273.043 20.4971 273.197 20.5411 273.363 20.5775C273.405 20.5866 273.486 20.5714 273.552 20.5669C273.74 20.5547 273.933 20.5426 274.122 20.5305C274.249 20.5229 274.383 20.5001 274.499 20.5092C274.615 20.5199 274.711 20.5639 274.815 20.5927C274.919 20.6215 275.027 20.6503 275.127 20.6806C275.281 20.7261 275.427 20.7641 275.643 20.7413C275.828 20.7216 276.02 20.7155 276.213 20.7019C276.456 20.6852 276.448 20.6897 276.898 20.7807C277.141 20.8308 277.391 20.7701 277.638 20.7641C277.761 20.761 277.881 20.7777 277.965 20.8217C278 20.8399 277.988 20.8702 278 20.896C277.365 20.937 276.725 20.9718 276.097 21.0219C275.855 21.0416 275.728 20.987 275.597 20.9415C275.381 20.8687 275.096 20.9749 274.892 20.8808C274.769 20.8247 274.591 20.7929 274.38 20.8202C274.256 20.8354 274.125 20.8338 273.998 20.8475C273.675 20.8808 273.378 20.8824 273.12 20.7777C273.032 20.7413 272.905 20.7216 272.812 20.6867C272.704 20.6488 272.6 20.6275 272.473 20.6351C271.899 20.6715 271.329 20.7079 270.759 20.7474C270.709 20.7504 270.659 20.7732 270.617 20.7898C270.509 20.8323 270.544 20.8657 270.717 20.893C270.775 20.9021 270.821 20.9218 270.875 20.937C270.979 20.9658 271.075 21.0113 271.191 21.0219C271.306 21.0325 271.441 21.0113 271.568 21.0037C271.695 20.9961 271.83 20.9734 271.946 20.9825C272.061 20.9931 272.157 21.0371 272.265 21.0644C272.315 21.078 272.377 21.1008 272.427 21.0993C272.681 21.0902 272.932 21.0735 273.186 21.0598C273.344 21.1008 273.478 21.1599 273.667 21.1736C273.787 21.1827 273.914 21.166 274.037 21.169C274.091 21.1705 274.16 21.1933 274.187 21.213C274.202 21.2251 274.152 21.2555 274.114 21.2706C273.967 21.3283 273.767 21.3177 273.586 21.3359C273.39 21.3556 273.213 21.3495 273.062 21.2904C272.962 21.2509 272.851 21.2297 272.727 21.2373C272.408 21.257 272.092 21.2798 271.772 21.2964C271.718 21.2995 271.653 21.2858 271.603 21.2752C271.198 21.1827 271.198 21.1796 270.913 21.1994C270.493 21.2282 270.494 21.2282 270.212 21.1478C270.158 21.1326 270.101 21.1038 270.054 21.1053C269.608 21.1296 269.165 21.1539 268.722 21.1887C268.576 21.1994 268.475 21.1994 268.368 21.1599C268.275 21.1266 268.167 21.0886 268.052 21.0795C267.932 21.0704 267.801 21.0932 267.674 21.1008C267.547 21.1084 267.412 21.1281 267.301 21.1159C267.185 21.1038 267.085 21.0613 266.985 21.031C266.881 20.9992 266.769 21.0007 266.627 21.0128C266.188 21.0477 266.184 21.0431 265.749 20.9491C265.699 20.9385 265.633 20.9263 265.579 20.9294C265.259 20.9476 264.944 20.9703 264.624 20.9885C264.501 20.9961 264.381 20.9764 264.297 20.9324C264.262 20.9142 264.274 20.8839 264.25 20.8247C264.223 20.8111 264.254 20.8354 264.262 20.8581C264.32 20.8551 264.389 20.8581 264.431 20.846C264.539 20.8171 264.593 20.7792 264.566 20.7474C264.551 20.7307 264.478 20.7094 264.431 20.7094C264.347 20.7094 264.274 20.7428 264.25 20.8247C264.008 20.8748 263.75 20.8854 263.499 20.9097C263.353 20.9248 263.261 20.9173 263.145 20.8778C263.006 20.8293 262.864 20.7823 262.637 20.8065C262.39 20.8338 262.128 20.8384 261.874 20.8596C261.581 20.8839 261.454 20.7474 261.208 20.7504C260.954 20.7534 260.699 20.7792 260.445 20.7974C260.222 20.8126 260.222 20.8126 259.76 20.714C259.59 20.6776 259.39 20.7307 259.224 20.6928C259.113 20.6685 259.016 20.6321 258.908 20.6063C258.862 20.5957 258.789 20.5957 258.731 20.5987C258.412 20.6169 258.088 20.6291 257.78 20.6624C257.43 20.7019 257.164 20.6594 256.913 20.5699C256.598 20.5866 256.278 20.5957 255.966 20.6245C255.739 20.6458 255.608 20.5957 255.454 20.5548C255.4 20.5411 255.354 20.5184 255.296 20.5123C255.238 20.5062 255.169 20.5183 255.107 20.5229C254.853 20.5396 254.591 20.5472 254.344 20.5745C254.04 20.6094 253.925 20.485 253.69 20.4698C253.532 20.5441 253.447 20.6457 253.135 20.6533C252.881 20.6594 252.627 20.6837 252.373 20.7004C252.245 20.7079 252.118 20.717 251.991 20.7246C251.787 20.7383 251.691 20.7974 251.733 20.8884C251.756 20.9385 251.776 20.9885 251.795 21.0386C251.833 21.1281 251.737 21.2039 251.575 21.2145C251.129 21.2433 250.686 21.2737 250.239 21.2995C250.119 21.307 250.004 21.2813 249.908 21.2403C249.807 21.1994 249.696 21.1812 249.573 21.1887C249.126 21.2176 248.683 21.2479 248.236 21.2737C248.186 21.2767 248.121 21.2615 248.071 21.2494C247.963 21.2221 247.859 21.1903 247.755 21.1614C247.501 21.1751 247.25 21.1842 247 21.2024C246.595 21.2297 246.595 21.2312 246.299 21.1478C246.245 21.1326 246.191 21.1038 246.141 21.1053C245.948 21.1114 245.76 21.1266 245.567 21.1402C245.001 21.1796 245.001 21.1796 244.835 21.1341C244.685 21.0917 244.55 21.0401 244.323 21.0644C244.077 21.0917 243.815 21.1008 243.56 21.1159C243.372 21.1266 243.183 21.1387 242.994 21.1417C242.944 21.1432 242.89 21.1144 242.836 21.0993C242.682 21.0522 242.532 21.0143 242.32 21.0401C242.197 21.0553 242.066 21.0583 241.939 21.0659C241.608 21.0871 241.608 21.0871 241.065 20.9961C241.011 20.987 240.945 20.9764 240.891 20.9809C240.445 21.0082 240.002 21.0386 239.555 21.0644C239.501 21.0674 239.436 21.0583 239.382 21.0507C238.773 20.9627 238.773 20.9627 238.126 21.0052C237.88 21.0204 237.872 21.0265 237.614 20.9461C237.498 20.9112 237.402 20.8945 237.267 20.9051C236.759 20.9415 236.247 20.9658 235.742 21.0083C235.515 21.0265 235.384 20.9809 235.23 20.94C235.176 20.9263 235.118 20.896 235.072 20.8975C234.564 20.9264 234.055 20.9612 233.547 20.9901C233.501 20.9931 233.443 20.9628 233.389 20.9491C233.285 20.9218 233.185 20.8808 233.069 20.8717C232.95 20.8626 232.819 20.8854 232.688 20.893C232.368 20.9127 232.368 20.9112 231.998 20.8217C231.948 20.8096 231.883 20.7929 231.833 20.7959C231.324 20.8262 230.812 20.852 230.308 20.896C230.019 20.9203 229.822 20.8763 229.618 20.8126C229.576 20.7989 229.503 20.7929 229.449 20.7959C228.875 20.8308 228.305 20.8702 227.731 20.9051C227.612 20.9127 227.496 20.8869 227.4 20.8475C227.246 20.7853 227.065 20.7929 226.872 20.8065C226.429 20.8384 226.425 20.8369 226.164 20.7641C226.11 20.7489 226.063 20.7292 226.006 20.7216C225.952 20.714 225.882 20.7186 225.825 20.7216C225.57 20.7368 225.316 20.7534 225.062 20.7701C224.808 20.7868 224.55 20.7959 224.299 20.8217C223.991 20.8536 223.845 20.7549 223.629 20.7094C223.313 20.7292 222.99 20.7413 222.678 20.7732C222.439 20.7974 222.328 20.7307 222.17 20.6958C222.116 20.6837 222.058 20.6579 222.008 20.6609C221.434 20.6943 220.86 20.7307 220.29 20.7716C220.152 20.7807 220.059 20.7686 219.944 20.7322C219.686 20.6503 219.674 20.6533 219.243 20.6837C219.054 20.6973 218.873 20.7095 218.711 20.6473C218.569 20.5912 218.395 20.5775 218.191 20.5957C217.941 20.6184 217.683 20.6306 217.429 20.6458C217.174 20.6624 216.92 20.6852 216.666 20.6928C216.462 20.7003 216.339 20.6291 216.177 20.5927C216.127 20.5821 216.057 20.5805 216 20.5836C215.746 20.5972 215.484 20.6078 215.237 20.6336C214.937 20.6655 214.771 20.5821 214.559 20.5335C214.513 20.5229 214.436 20.529 214.378 20.5335C213.931 20.5608 213.488 20.5911 213.042 20.62C212.884 20.579 212.722 20.5396 212.564 20.4986C212.31 20.5138 212.056 20.5305 211.802 20.5456C211.609 20.5578 211.413 20.5623 211.232 20.5851C210.997 20.6154 210.881 20.5441 210.723 20.5092C210.669 20.4971 210.612 20.4713 210.561 20.4744C210.242 20.491 209.922 20.5093 209.606 20.535C209.306 20.5608 209.186 20.4243 208.94 20.4258C208.686 20.4273 208.424 20.4471 208.177 20.4744C207.892 20.5062 207.692 20.4577 207.488 20.3925C207.446 20.3788 207.372 20.3712 207.319 20.3743C206.999 20.3925 206.683 20.4152 206.363 20.4334C206.31 20.4364 206.244 20.4289 206.19 20.4198C205.582 20.3303 205.582 20.3288 205.316 20.347C205.127 20.3591 204.935 20.3743 204.742 20.3818C204.688 20.3849 204.623 20.3712 204.572 20.3591C204.172 20.2666 204.172 20.2651 203.883 20.2833C203.629 20.2999 203.375 20.3166 203.12 20.3333C202.963 20.2924 202.801 20.2529 202.643 20.212C202.327 20.2317 202.004 20.2468 201.692 20.2741C201.545 20.2863 201.449 20.2817 201.337 20.2438C201.199 20.1983 201.06 20.1452 200.829 20.171C200.582 20.1983 200.32 20.2013 200.07 20.2241C199.77 20.2514 199.646 20.1134 199.404 20.1149C199.15 20.1164 198.888 20.1361 198.641 20.1634C198.356 20.1953 198.156 20.1468 197.952 20.0815C197.91 20.0679 197.836 20.0603 197.782 20.0633C197.081 20.1073 196.384 20.1513 195.683 20.1983C195.252 20.2271 195.252 20.2286 194.432 20.1452C194.374 20.1392 194.312 20.1331 194.254 20.1361C194 20.1498 193.738 20.1604 193.492 20.1862C193.191 20.218 193.026 20.1361 192.814 20.0861C192.768 20.0755 192.695 20.0815 192.633 20.0846C192.44 20.0952 192.252 20.1088 192.059 20.121C191.805 20.1377 191.551 20.1543 191.297 20.171C191.139 20.1316 190.977 20.0906 190.819 20.0512C190.503 20.0709 190.18 20.0815 189.868 20.1134C189.629 20.1376 189.517 20.0739 189.359 20.0375C189.305 20.0254 189.248 19.9996 189.198 20.0011C188.624 20.0345 188.05 20.0694 187.48 20.1119C187.245 20.1301 187.137 20.0618 186.979 20.0269C186.925 20.0163 186.864 19.9966 186.814 19.9996C186.432 20.0209 186.051 20.0466 185.67 20.0724C185.454 20.0876 185.454 20.0876 184.984 19.9936C184.93 19.9829 184.869 19.9723 184.815 19.9754C183.605 20.0512 182.4 20.1316 181.19 20.2074C181.067 20.215 180.956 20.1923 180.859 20.1513C180.759 20.1103 180.647 20.0891 180.524 20.0967C180.016 20.1286 179.504 20.1574 178.999 20.1968C178.791 20.2135 178.625 20.1938 178.483 20.1407C178.375 20.1012 178.275 20.0861 178.14 20.0952C177.886 20.1134 177.632 20.1285 177.378 20.1452C177.123 20.1619 176.869 20.1786 176.615 20.1953C176.361 20.212 176.103 20.2211 175.852 20.2469C175.544 20.2787 175.394 20.1847 175.182 20.1377C174.801 20.1604 174.42 20.1832 174.042 20.2074C173.534 20.2393 173.025 20.2742 172.517 20.3045C172.471 20.3075 172.413 20.2802 172.359 20.2666C172.201 20.2287 172.086 20.1756 171.851 20.1923C170.711 20.2726 169.563 20.3409 168.419 20.4198C168.18 20.4364 168.076 20.3712 167.915 20.3363C167.861 20.3257 167.799 20.3045 167.749 20.3075C167.114 20.3454 166.478 20.3879 165.843 20.4289C165.585 20.4455 165.585 20.4455 165.153 20.3515C165.103 20.3409 165.038 20.3272 164.984 20.3303C164.156 20.3818 163.331 20.4364 162.503 20.4895C162.38 20.4971 162.268 20.4759 162.168 20.4349C162.072 20.394 161.956 20.3712 161.837 20.3788C161.074 20.4273 160.308 20.4744 159.549 20.5274C159.345 20.5426 159.176 20.529 159.029 20.4744C158.925 20.4349 158.821 20.4182 158.69 20.4273C157.547 20.5017 156.403 20.573 155.259 20.6518C155.039 20.667 154.885 20.6382 154.747 20.5881C154.635 20.5487 154.539 20.5411 154.4 20.5472C154.254 20.5547 154.165 20.5714 154.084 20.6169C153.98 20.6761 153.915 20.7504 153.668 20.755C153.414 20.7595 153.156 20.7777 152.906 20.8035C152.667 20.8293 152.555 20.761 152.405 20.7201C152.293 20.6913 152.189 20.6867 152.047 20.7004C151.916 20.7125 151.835 20.7383 151.758 20.7868C151.588 20.8899 151.573 20.8899 151.365 20.8247C151.253 20.7898 151.153 20.7625 151.03 20.7686C150.521 20.7989 150.013 20.8323 149.505 20.8672C149.212 20.8869 149.208 20.8899 148.989 20.8141C148.881 20.7762 148.777 20.758 148.65 20.7671C147.252 20.8581 145.854 20.9461 144.456 21.0416C144.24 21.0568 144.093 21.0249 143.939 20.9794C143.889 20.9643 143.839 20.943 143.782 20.937C143.724 20.9309 143.658 20.937 143.597 20.94C142.58 21.0052 141.559 21.0674 140.546 21.1402C140.315 21.1569 140.192 21.1084 140.034 21.0689C139.98 21.0553 139.934 21.034 139.876 21.028C139.818 21.0234 139.749 21.034 139.687 21.0386C138.671 21.1038 137.65 21.166 136.637 21.2388C136.395 21.2555 136.29 21.1918 136.133 21.1584C136.079 21.1463 136.021 21.1235 135.971 21.1265C135.651 21.1432 135.335 21.166 135.016 21.1857C134.253 21.2358 133.49 21.2828 132.728 21.3344C132.435 21.3541 132.308 21.2191 132.062 21.2251C131.742 21.2327 131.426 21.2631 131.106 21.2843C130.852 21.301 130.598 21.3162 130.344 21.3344C130.094 21.351 130.094 21.351 129.47 21.2631C129.416 21.2555 129.35 21.2449 129.296 21.2479C128.407 21.304 127.513 21.3601 126.627 21.4208C126.423 21.4345 126.254 21.4269 126.107 21.3708C126.003 21.3313 125.896 21.3116 125.768 21.3207C124.432 21.4071 123.099 21.4936 121.763 21.5785C121.713 21.5816 121.647 21.5664 121.597 21.5543C121.489 21.527 121.385 21.4951 121.281 21.4663C121.204 21.5012 121.104 21.533 121.054 21.5725C120.985 21.6256 120.892 21.6407 120.746 21.6498C120.6 21.6589 120.507 21.6559 120.392 21.6165C120.253 21.5679 120.111 21.53 119.883 21.5452C118.485 21.6407 117.087 21.7272 115.689 21.8212C115.458 21.8364 115.35 21.7696 115.189 21.7348C115.135 21.7241 115.073 21.7075 115.023 21.7105C114.449 21.7454 113.879 21.7833 113.305 21.8197C111.715 21.9228 110.124 22.0214 108.537 22.1306C108.248 22.1504 108.052 22.1124 107.848 22.0472C107.805 22.0336 107.732 22.026 107.678 22.029C105.452 22.1716 103.226 22.3157 101.004 22.4598C100.884 22.4673 100.769 22.4431 100.672 22.4036C100.572 22.3627 100.461 22.343 100.337 22.3506C99.3207 22.4158 98.3039 22.481 97.2871 22.5477C97.0329 22.5644 97.029 22.5659 96.7671 22.4931C96.7132 22.478 96.6555 22.4492 96.6131 22.4522C96.5245 22.4598 96.4398 22.4977 96.3782 22.5492C96.3165 22.6038 96.2202 22.619 96.0777 22.6296C95.9314 22.6402 95.8351 22.6357 95.7234 22.5993C95.5809 22.5538 95.45 22.5098 95.2189 22.525C92.2956 22.7191 89.3724 22.9057 86.4492 23.0983C86.2142 23.1135 86.1064 23.0498 85.9446 23.0149C85.8907 23.0043 85.8368 22.9891 85.779 22.9861C85.7174 22.983 85.6519 22.9921 85.5903 22.9967C80.8222 23.3046 76.0542 23.614 71.2861 23.9219C71.0011 23.9401 71.005 23.9401 70.693 24.0796C70.6545 24.0963 70.6044 24.119 70.5504 24.1221C69.0908 24.2192 67.6273 24.3132 66.1637 24.4072C65.5282 24.4482 64.8928 24.4907 64.2573 24.5301C64.03 24.5437 64.03 24.5437 63.487 24.7076C63.4408 24.7212 63.3868 24.7394 63.3329 24.7424C60.7909 24.9078 58.249 25.0731 55.7032 25.2354C55.5029 25.2475 55.3412 25.2748 55.2487 25.3476C55.1833 25.3992 55.0985 25.4295 54.9714 25.4386C53.1921 25.5539 51.4128 25.6707 49.6296 25.7829C49.4177 25.7966 49.2906 25.839 49.1866 25.9027C49.1519 25.924 49.1211 25.9482 49.071 25.9634C49.0248 25.977 48.9555 25.9816 48.8977 25.9861C47.3726 26.0847 45.8474 26.1864 44.3184 26.2804C44.0912 26.2941 43.9987 26.3502 43.887 26.4093C43.8485 26.429 43.8215 26.4563 43.7715 26.47C43.7214 26.4821 43.6482 26.4821 43.5866 26.4852C42.3156 26.5671 41.0447 26.6505 39.7737 26.7324C39.5272 26.7248 39.4733 26.8128 39.3539 26.8659C39.3115 26.8841 39.2808 26.9083 39.2307 26.9205C39.1768 26.9326 39.1074 26.9311 39.0419 26.9341C38.0251 26.9993 37.0084 27.0691 35.9877 27.1298C35.7528 27.1434 35.7066 27.2208 35.5795 27.2738C35.5371 27.2905 35.4948 27.3163 35.4447 27.3209C34.8092 27.3649 34.1738 27.4058 33.5383 27.4452C33.3264 27.4589 33.3264 27.4574 32.9528 27.6075C32.9105 27.6242 32.8604 27.6424 32.8064 27.647C31.8551 27.7107 30.9 27.7713 29.9449 27.8335C29.8216 27.8411 29.7369 27.8775 29.6753 27.9291C29.6137 27.9806 29.5251 28.014 29.4018 28.0216C28.6393 28.0717 27.8766 28.1232 27.114 28.1687C26.9022 28.1809 26.7636 28.2188 26.6711 28.287C26.6018 28.3386 26.5171 28.3644 26.3823 28.3735C25.6197 28.422 24.8571 28.4751 24.0907 28.5176C23.8673 28.5297 23.7517 28.5813 23.6593 28.645C23.5861 28.6965 23.5014 28.7147 23.3589 28.7238C21.9608 28.8118 20.5589 28.8998 19.1647 28.9968C18.9298 29.0135 18.8104 28.9604 18.6563 28.9225C18.4368 28.8694 18.2327 28.8118 18.2327 28.6935C18.2327 28.6753 18.1672 28.6541 18.121 28.6389C17.7782 28.5251 17.7782 28.5252 17.7243 28.4038C17.6935 28.3295 17.6588 28.2537 17.6319 28.1778C17.5818 28.0535 17.4585 28.0216 17.1042 28.0444C16.9771 28.0519 16.85 28.0625 16.7229 28.0686C16.5342 28.0792 16.3917 28.0292 16.357 27.9382C16.3377 27.8881 16.3147 27.8381 16.2954 27.788C16.488 27.7759 16.4841 27.7744 16.823 27.5909C16.9655 27.5135 16.9656 27.5135 16.6921 27.4361C16.5881 27.4073 16.488 27.3755 16.3763 27.3482C16.3262 27.336 16.2608 27.3284 16.2068 27.3315C15.8872 27.3497 15.5714 27.3709 15.2555 27.3922C14.7472 27.4255 14.7471 27.4255 14.231 27.2708C14.1886 27.2587 14.1232 27.2359 14.1309 27.2238C14.1732 27.1677 14.2772 27.1434 14.4082 27.1373C14.6007 27.1282 14.7894 27.1131 14.9782 27.1009C15.1053 27.0934 15.2324 27.0843 15.3595 27.0767C15.4788 27.019 15.6022 26.9629 15.7138 26.9038C15.891 26.8128 15.891 26.8097 15.6483 26.746C15.4943 26.7036 15.3286 26.6656 15.1707 26.6262C14.982 26.6383 14.7895 26.652 14.6007 26.6626C14.3619 26.6763 14.2656 26.6474 14.204 26.5488C14.1501 26.4624 14.2156 26.3881 14.4005 26.3699C14.5892 26.3517 14.7664 26.3396 14.8627 26.2622C14.9551 26.1879 15.1169 26.159 15.3171 26.153C15.4442 26.1484 15.5713 26.1378 15.6984 26.1287C15.864 26.1166 15.9526 26.0392 15.918 25.9528C15.8987 25.8967 15.8602 25.8496 15.71 25.8375C15.0437 25.7844 15.036 25.7859 14.7047 25.6828C14.6739 25.6737 14.6509 25.6464 14.6624 25.6328C14.6817 25.61 14.724 25.5766 14.7703 25.5721C15.2132 25.5387 15.6561 25.5084 16.099 25.4856C16.2453 25.4781 16.3532 25.4674 16.4033 25.4113C16.4726 25.3339 16.4418 25.2627 16.307 25.2096C16.2646 25.1929 16.1952 25.1717 16.149 25.1732C15.6406 25.2005 15.1361 25.2354 14.6277 25.2627C14.5815 25.2657 14.4968 25.2399 14.4776 25.2202C14.439 25.1838 14.4968 25.1353 14.6316 25.1186C14.8087 25.0958 14.9898 25.0943 15.1091 25.0185C15.2748 24.9108 15.4789 24.8122 15.6637 24.7091C15.6945 24.6909 15.7447 24.656 15.7331 24.6529C15.6368 24.6196 15.5251 24.5938 15.425 24.5619C15.2555 24.5089 15.2555 24.4345 15.294 24.3633C15.3248 24.3056 15.4404 24.2829 15.5829 24.2829C15.6445 24.2829 15.7215 24.2829 15.7716 24.2692C15.9025 24.2359 15.9449 24.1934 15.8794 24.1615C15.8409 24.1433 15.7716 24.1175 15.7254 24.1206C14.9012 24.1706 14.0731 24.2192 13.2527 24.2813C13.0101 24.2995 12.8985 24.2419 12.7521 24.201C12.6404 24.1691 12.5364 24.157 12.3977 24.1797C12.2668 24.201 12.1397 24.1888 12.0588 24.1388C11.9934 24.0978 12.1089 24.0629 12.4209 24.0235C12.4786 24.0159 12.5441 24.0114 12.5864 23.9962C13.0332 23.8324 13.0332 23.8309 13.3413 23.8096C13.6417 23.7899 13.6418 23.7884 13.7997 23.7004C13.8729 23.6595 13.9537 23.6185 14.023 23.5761C14.05 23.5594 14.0963 23.529 14.0808 23.5199C13.9961 23.4729 13.8805 23.4623 13.7457 23.4729C13.4453 23.4987 13.091 23.4775 12.9331 23.6216C12.8715 23.6762 12.7752 23.6913 12.6366 23.7004C11.2423 23.7884 9.84808 23.8825 8.45001 23.9674C8.22278 23.981 8.11885 24.0372 8.03027 24.0993C7.95324 24.1509 7.86849 24.1661 7.72213 24.1752C7.57578 24.1843 7.46018 24.1888 7.37545 24.1388C7.32538 24.1084 7.36776 24.066 7.4833 24.0235C7.64891 23.9628 7.61808 23.887 7.56416 23.8157C7.52565 23.7687 7.40626 23.7353 7.27916 23.7384C7.09044 23.7444 6.90947 23.7611 6.75157 23.7004C6.65913 23.6656 6.54357 23.6413 6.43958 23.6109C6.2393 23.5488 6.03902 23.4851 5.75787 23.526C5.5653 23.5109 5.4305 23.4563 5.27644 23.4138C5.01839 23.344 4.99528 23.3334 5.18015 23.2591C5.38813 23.1757 5.22634 23.0664 5.34188 22.9845C5.46513 22.8966 5.63465 22.8192 5.78485 22.7373C5.82337 22.7161 5.85805 22.6964 5.89656 22.6751C5.80798 22.6448 5.72711 22.6069 5.62312 22.5857C5.48832 22.5584 5.41899 22.525 5.4267 22.4309C5.39974 22.4173 5.41121 22.4522 5.44202 22.4613C5.47669 22.4704 5.56148 22.4628 5.60385 22.4522C5.71169 22.4234 5.76555 22.3854 5.73859 22.3536C5.72319 22.3369 5.65006 22.3157 5.60385 22.3157C5.51912 22.3157 5.44595 22.349 5.42284 22.4309C4.99148 22.4931 4.54464 22.5235 4.09788 22.5477C4.05166 22.5508 3.99392 22.5204 3.94 22.5053C3.76284 22.4537 3.76282 22.4552 3.24287 22.44C3.18895 22.4385 3.11581 22.4173 3.08885 22.3961C2.97716 22.3035 2.98104 22.2019 2.92712 22.1033C3.02726 22.0396 3.12732 21.9774 3.23131 21.9153C3.43928 21.7894 3.70894 21.6786 3.8707 21.5406C3.83604 21.4663 3.78982 21.392 3.95928 21.3313C4.44071 21.2555 4.43689 21.2555 4.56784 21.1827C4.94142 20.9764 5.31114 20.7686 5.70013 20.5654C5.80412 20.5123 5.80414 20.4835 5.61927 20.4607C5.5615 20.4547 5.49979 20.4531 5.43817 20.4562C5.2456 20.4668 5.05303 20.4941 4.86431 20.488C4.67559 20.4835 4.53694 20.4167 4.38288 20.3758C4.22497 20.3333 4.06707 20.2893 3.90916 20.2453C3.72815 20.2499 3.54716 20.2924 3.36615 20.2241C3.22749 20.171 3.05419 20.1331 2.89628 20.0891C3.01568 19.9738 3.23909 19.8859 3.41241 19.7842C3.57032 19.6917 3.57408 19.6933 3.99774 19.622C4.19801 19.5886 4.26734 19.4172 4.09788 19.3671C3.89375 19.3065 3.67812 19.2504 3.47014 19.1927C3.28912 19.1973 3.10429 19.2382 2.93098 19.17C2.79618 19.1184 2.64209 19.0835 2.41871 19.1032C2.04127 19.1366 1.65614 19.1533 1.27485 19.1806C1.1439 19.1897 1.00135 19.1836 0.943581 19.1321C0.905067 19.0957 1.01677 19.0456 1.14386 19.035C1.33643 19.0198 1.50973 19.0016 1.60602 18.9258C1.69845 18.85 1.86789 18.8272 2.06817 18.8166C2.12209 18.8135 2.18376 18.7953 2.21072 18.7771C2.34937 18.6892 2.50344 18.6133 2.8 18.6164C2.92324 18.586 2.98867 18.5481 2.95016 18.5117C2.92705 18.492 2.84621 18.4662 2.8 18.4693C2.48033 18.4844 2.16067 18.4996 1.8487 18.5269C1.70235 18.539 1.5906 18.542 1.49816 18.4965C1.43269 18.4662 1.46735 18.4253 1.5906 18.3813C1.69843 18.3434 1.72928 18.2994 1.72158 18.2478C1.70232 18.128 1.58675 18.0931 1.21702 18.1007C0.951269 18.1068 0.885791 18.087 0.82802 17.9839C0.812614 17.9596 0.774167 17.9263 0.801127 17.9096C0.966739 17.8064 1.07459 17.679 1.38655 17.6305C1.5098 17.6123 1.64069 17.6123 1.71772 17.5729C1.79475 17.5334 1.86411 17.4879 1.94499 17.45C2.04513 17.4045 2.11439 17.362 2.06817 17.3332C1.99114 17.2817 1.86794 17.2771 1.72543 17.2953C1.60219 17.3105 1.47124 17.312 1.34414 17.3211C1.11691 17.3378 0.932083 17.2983 0.905123 17.2316C0.831946 17.0557 0.754895 16.8812 0.689421 16.7053C0.681718 16.6841 0.700922 16.6568 0.731734 16.6386C0.839574 16.5749 0.955162 16.5142 1.06685 16.452C1.1978 16.3807 1.40581 16.3944 1.58298 16.3807C1.83332 16.361 1.83323 16.3625 2.16831 16.2169C2.29926 16.1593 2.5265 16.182 2.6613 16.1305C2.70367 16.1138 2.76914 16.0865 2.75759 16.0713C2.74218 16.0516 2.6652 16.0364 2.60742 16.0273C2.5535 16.0182 2.48805 16.0137 2.43027 16.0182C1.72931 16.0622 1.03222 16.1092 0.331264 16.1517C0.21187 16.1593 0.0809176 16.1259 0.0385519 16.0789C-0.00381382 16.0349 0.00770286 15.9818 0 15.9318C0.111691 15.8696 0.23874 15.8119 0.335025 15.7452C0.408203 15.6936 0.492949 15.6709 0.639303 15.6678C0.831875 15.6633 1.02061 15.6451 1.23629 15.6314C1.63684 15.41 2.02966 15.178 2.46102 14.9565C2.63434 14.867 2.59204 14.776 2.6267 14.6805C2.66136 14.5925 2.91939 14.6062 3.09271 14.5804C3.23136 14.5591 3.27752 14.5106 3.2236 14.4772C3.19279 14.4575 3.1235 14.4347 3.06958 14.4347C2.94248 14.4347 2.81539 14.4484 2.68829 14.456C2.56119 14.4636 2.41485 14.459 2.31086 14.4848C2.21072 14.5091 2.14521 14.5606 2.07973 14.6046C2.00656 14.6532 1.91034 14.6699 1.76398 14.6729C1.57526 14.6759 1.38656 14.6896 1.19784 14.7002C0.989859 14.641 0.774133 14.5834 0.573859 14.5212C0.535345 14.5091 0.527601 14.4742 0.531452 14.4514C0.539155 14.3923 0.481398 14.3559 0.354301 14.3271C0.246461 14.3028 0.157871 14.2679 0.0577338 14.2376C0.134762 14.1966 0.219524 14.1572 0.281147 14.1132C0.415947 14.0207 0.585428 13.954 0.878137 13.957C0.99368 13.8978 1.08609 13.825 1.23629 13.7841C1.3788 13.7446 1.62145 13.7841 1.72929 13.6946C1.78321 13.6506 1.86413 13.6005 1.96812 13.5823C2.13373 13.5535 2.34941 13.5687 2.44569 13.4838C2.50347 13.4352 2.58816 13.3912 2.69986 13.3791C2.82695 13.3655 2.95787 13.3624 3.0503 13.3336C3.10037 13.3185 3.1543 13.2942 3.1543 13.2729C3.1543 13.2593 3.07733 13.2381 3.02341 13.229C2.97334 13.2183 2.90779 13.2108 2.85002 13.2138C2.65745 13.2229 2.46873 13.2396 2.27616 13.2487C2.22224 13.2517 2.16064 13.2411 2.10286 13.232C1.9334 13.2077 1.94493 13.1774 2.07973 13.1228C2.21453 13.0697 2.31087 13.0014 2.42256 12.9393C2.54581 12.9286 2.69984 12.9332 2.78458 12.9044C2.92708 12.8574 3.02719 12.7891 3.14273 12.7299C3.26983 12.7208 3.40077 12.7178 3.52016 12.7011C3.57023 12.6951 3.59336 12.6617 3.63573 12.642C3.71275 12.6041 3.77828 12.5495 3.88227 12.5313C4.05173 12.504 4.25971 12.5146 4.35984 12.4312C4.41761 12.3826 4.50616 12.3311 4.614 12.328C4.91442 12.322 5.04152 12.2385 5.19557 12.1597C5.31112 12.1005 5.55762 12.1308 5.68471 12.0717C5.76944 12.0338 5.8311 11.9867 5.91584 11.9503C5.9505 11.9352 6.02365 11.9276 6.08142 11.9231C6.39724 11.9003 6.7169 11.8836 7.03271 11.8593C7.08278 11.8548 7.12904 11.8321 7.16755 11.8139C7.24843 11.7744 7.29844 11.7198 7.39858 11.694C7.49872 11.6682 7.6412 11.6683 7.76445 11.6607C8.16114 11.6379 8.19199 11.644 8.373 11.515C8.51936 11.4104 8.87758 11.4847 8.99698 11.3694C9.06631 11.3027 9.19335 11.2481 9.42058 11.2405C9.74025 11.2299 10.0561 11.2011 10.3757 11.1814C10.6607 11.1632 10.6569 11.1632 10.965 11.0221C11.1037 10.9584 11.3078 10.9675 11.4888 10.9554C11.6814 10.9433 11.8586 10.9251 11.951 10.8492C12.0434 10.7749 12.2129 10.7506 12.4093 10.74C12.5903 10.7294 12.7945 10.737 12.937 10.6763C13.2836 10.5307 13.2798 10.5292 13.5224 10.514C13.9037 10.4897 14.285 10.4655 14.6663 10.4397C14.9205 10.423 15.1862 10.42 15.425 10.3866C15.5983 10.3623 15.6753 10.2774 15.787 10.2183C16.1028 10.1955 16.4186 10.1727 16.7344 10.1515C17.1774 10.1212 17.6241 10.0939 18.0709 10.0651C18.2634 10.0074 18.2905 9.88002 18.614 9.87396C18.8066 9.87092 18.9953 9.85121 19.1878 9.83908C19.5075 9.81784 19.8233 9.79054 20.143 9.77992C20.3856 9.77234 20.4279 9.69043 20.555 9.63886C20.5974 9.62066 20.6359 9.59488 20.686 9.59033C21.1867 9.54786 21.7028 9.53876 22.1919 9.47658C22.242 9.47051 22.2882 9.43865 22.2997 9.4159C22.3074 9.40377 22.242 9.38103 22.1996 9.37041C22.1495 9.35828 22.0841 9.34614 22.0302 9.34918C20.4395 9.4508 18.8489 9.55394 17.2583 9.65556C17.0349 9.67073 17.0349 9.6692 16.4918 9.83604C16.4456 9.84969 16.3916 9.86485 16.3339 9.8694C16.0797 9.8876 15.8216 9.89823 15.5713 9.92099C15.3672 9.93919 15.1978 9.92097 15.0514 9.86637C14.9474 9.82693 14.8395 9.81481 14.7086 9.81784C14.5622 9.82239 14.466 9.83908 14.3813 9.88003C14.2696 9.93615 14.2118 10.0089 13.9769 10.0241C12.8946 10.0893 11.8123 10.1621 10.7339 10.2319C10.5837 10.2107 10.5105 10.1788 10.549 10.1409C10.5721 10.1182 10.6184 10.0878 10.6646 10.0848C11.1075 10.0529 11.5542 10.0256 11.9972 9.9953C12.0588 9.99075 12.1435 9.99377 12.1782 9.9786C12.3476 9.91035 12.4093 9.79963 12.729 9.79205C12.9139 9.7875 13.1026 9.76476 13.2797 9.74352C13.3298 9.73745 13.376 9.7056 13.3876 9.68285C13.3914 9.67072 13.3298 9.64796 13.2836 9.63734C13.1141 9.59336 12.9177 9.64646 12.7483 9.61612C12.6905 9.6055 12.6096 9.59033 12.598 9.57213C12.5903 9.55545 12.6558 9.52814 12.702 9.51146C12.7444 9.49629 12.8021 9.48265 12.8599 9.4781C13.3683 9.44321 13.8767 9.40681 14.3851 9.3795C14.5931 9.36889 14.7394 9.33097 14.8319 9.2612C14.9012 9.20963 14.9859 9.18233 15.1169 9.17475C16.0065 9.11863 16.8962 9.05645 17.7897 9.00488C18.0131 8.99274 18.1287 8.9427 18.2211 8.87748C18.2943 8.82591 18.3791 8.8077 18.5216 8.7986C19.7964 8.71973 21.0635 8.63177 22.3383 8.55593C22.5732 8.54228 22.6426 8.47706 22.762 8.42094C22.8043 8.40122 22.8312 8.37696 22.8852 8.36482C22.9391 8.35269 23.0084 8.35419 23.0739 8.35116C24.0907 8.28594 25.1075 8.21618 26.1281 8.15551C26.3669 8.14186 26.4131 8.06602 26.5363 8.01293C26.5787 7.99625 26.6172 7.96895 26.6673 7.9644C27.4299 7.91284 28.1924 7.8643 28.955 7.81425C29.4634 7.78088 29.9718 7.74751 30.4802 7.71566C30.7305 7.70049 30.7305 7.69897 31.0694 7.55488C31.108 7.53819 31.1619 7.51847 31.212 7.51392C32.6755 7.41685 34.1352 7.32435 35.5987 7.2288C35.722 7.22121 35.8105 7.18631 35.8722 7.13474C35.9338 7.08317 36.0224 7.04829 36.1418 7.0407C37.2857 6.96487 38.4296 6.89055 39.5773 6.81927C39.7853 6.80713 39.9316 6.77073 40.024 6.70248C40.0933 6.65091 40.1781 6.62362 40.309 6.61603C41.4529 6.54323 42.5968 6.46587 43.7446 6.3961C43.9641 6.38245 44.0719 6.33088 44.1797 6.27021C44.2182 6.24898 44.2491 6.21409 44.2953 6.21106C44.8653 6.16859 45.4314 6.1246 46.0053 6.09579C46.2441 6.08365 46.325 6.01995 46.4213 5.95928C46.4983 5.91074 46.5869 5.89406 46.7333 5.888C47.0529 5.87435 47.3687 5.84857 47.6807 5.82279C47.7269 5.81824 47.7847 5.78487 47.7886 5.76363C47.7963 5.7242 47.7076 5.69689 47.5613 5.68324C46.0361 5.78183 44.5071 5.88041 42.982 5.979C42.7316 5.99568 42.7316 5.99569 42.3927 6.13978C42.3542 6.15646 42.3002 6.17618 42.2463 6.18073C40.7828 6.27629 39.3231 6.37032 37.8596 6.46588C37.7363 6.47346 37.6478 6.50835 37.5861 6.55991C37.5245 6.61148 37.4358 6.64637 37.3164 6.65395C35.9184 6.74495 34.5204 6.83748 33.1184 6.92393C32.9105 6.93607 32.7641 6.97093 32.6717 7.0407C32.6024 7.09227 32.5176 7.11958 32.3867 7.12717C31.0503 7.2121 29.7176 7.30158 28.3773 7.38349C28.2425 7.39107 28.1424 7.34708 28.1501 7.30613C28.154 7.2849 28.2117 7.25003 28.2579 7.247C28.955 7.19694 29.6483 7.14537 30.3493 7.10745C30.5842 7.09532 30.6535 7.02858 30.7729 6.97246C30.8114 6.95274 30.8422 6.92696 30.8923 6.91634C30.9462 6.90421 31.0155 6.90573 31.081 6.9027C32.7333 6.79501 34.3856 6.68581 36.0417 6.58419C36.2805 6.56902 36.3266 6.49469 36.4499 6.4416C36.4922 6.4234 36.5308 6.39611 36.5809 6.39308C37.0892 6.35668 37.5976 6.32482 38.106 6.29297C38.9957 6.23533 39.8853 6.1777 40.7789 6.12006C41.0369 6.10338 41.0369 6.10337 41.3682 5.9608C41.4067 5.94411 41.4606 5.92289 41.5107 5.91986C43.8639 5.76667 46.2172 5.61348 48.5704 5.4618C48.6937 5.45422 48.7822 5.41934 48.8438 5.36777C48.9055 5.31772 48.994 5.28131 49.1134 5.27221C52.2947 5.06594 55.4721 4.85966 58.6534 4.65641C58.8614 4.64276 59.0077 4.61091 59.1002 4.53962C59.1656 4.48805 59.2542 4.46076 59.3852 4.45166C62.8823 4.22567 66.3793 3.99968 69.8803 3.77217C72.2335 3.6205 74.5868 3.46579 76.94 3.31715C77.1557 3.3035 77.2712 3.25647 77.379 3.19429C77.4137 3.17305 77.4484 3.13817 77.4946 3.13513C77.9991 3.09721 78.5036 3.06234 79.0082 3.02745C79.1661 3.0684 79.324 3.10784 79.4819 3.1488C79.6013 3.09116 79.7169 3.032 79.8363 2.97437C80.5989 2.93038 81.3499 2.86213 82.1202 2.8409C82.1702 2.83938 82.2241 2.8682 82.278 2.88337C82.6362 2.97892 82.8404 2.97134 83.0676 2.84393C83.1485 2.79843 83.2178 2.75748 83.341 2.7499C83.7223 2.7226 84.1075 2.70439 84.485 2.67254C84.6891 2.65586 84.8585 2.67102 85.0049 2.72562C85.1089 2.76506 85.2167 2.78175 85.3438 2.77265C86.0448 2.72715 86.7419 2.68316 87.4428 2.63462C87.4929 2.63159 87.5391 2.6058 87.5776 2.5876C87.6585 2.54816 87.7278 2.5057 87.8049 2.46475C87.9089 2.49054 88.0244 2.51026 88.1091 2.54362C88.217 2.58306 88.3171 2.58305 88.4634 2.57243C91.2596 2.38891 94.0596 2.20994 96.8557 2.0249C97.0945 2.00973 97.1985 2.07344 97.3603 2.10681C97.4142 2.11894 97.4681 2.1341 97.5259 2.13713C97.5875 2.14017 97.653 2.13107 97.7146 2.12652C99.8136 1.99002 101.913 1.85502 104.012 1.71851C104.289 1.70031 104.289 1.70031 104.701 1.79435C104.751 1.80649 104.817 1.82014 104.871 1.81559C105.826 1.75644 106.781 1.69274 107.732 1.63207C107.855 1.62449 107.959 1.64875 108.071 1.68363C108.291 1.75189 108.306 1.75189 108.468 1.65179C108.545 1.60477 108.626 1.57594 108.753 1.56229C108.891 1.54712 109.003 1.55169 109.111 1.57899C109.265 1.61691 109.377 1.6806 109.612 1.66392C110.628 1.59263 111.649 1.53348 112.662 1.46068C112.893 1.44399 113.016 1.49556 113.17 1.53348C113.224 1.54713 113.274 1.56836 113.332 1.57292C113.39 1.57747 113.459 1.56684 113.521 1.56229C114.792 1.48038 116.067 1.40001 117.334 1.31204C117.573 1.29536 117.677 1.36057 117.838 1.39393C117.892 1.40607 117.954 1.42731 118.004 1.42428C118.766 1.37726 119.533 1.32719 120.296 1.27714C120.569 1.25894 120.569 1.26046 120.985 1.35298C121.035 1.36511 121.101 1.37725 121.154 1.37422C122.044 1.3181 122.938 1.26046 123.827 1.20282C124.101 1.18462 124.101 1.18463 124.89 1.2635C124.948 1.26956 125.01 1.27868 125.067 1.27564C126.084 1.21042 127.105 1.14671 128.122 1.07694C128.326 1.06329 128.495 1.07542 128.642 1.13002C128.746 1.16946 128.853 1.18615 128.98 1.17705C130.124 1.10273 131.272 1.03145 132.412 0.952579C132.632 0.937412 132.774 0.970766 132.928 1.01475C132.978 1.02992 133.028 1.05116 133.086 1.05722C133.144 1.06329 133.209 1.05722 133.271 1.05267C134.415 0.97835 135.563 0.908584 136.703 0.828197C136.934 0.811513 137.057 0.863079 137.211 0.900997C137.265 0.914647 137.323 0.94195 137.369 0.940433C137.816 0.914649 138.262 0.891906 138.705 0.853988C138.944 0.832754 139.048 0.902511 139.21 0.935879C139.264 0.946496 139.325 0.969258 139.375 0.966224C140.331 0.907072 141.286 0.844891 142.237 0.781188C142.372 0.772088 142.472 0.785726 142.58 0.825161C142.722 0.878246 142.888 0.899481 143.096 0.882797C143.539 0.847912 143.986 0.823651 144.432 0.794833C144.694 0.778149 144.694 0.778155 145.495 0.857024C145.553 0.863091 145.615 0.872185 145.673 0.869152C146.435 0.820616 147.202 0.773601 147.96 0.720515C148.164 0.705348 148.334 0.718995 148.48 0.773597C148.584 0.813032 148.688 0.829725 148.819 0.820624C149.52 0.775123 150.217 0.729617 150.918 0.684115C151.172 0.667431 151.427 0.638606 151.681 0.638606C151.866 0.640123 152.001 0.712923 152.166 0.749324C152.212 0.759941 152.289 0.747822 152.351 0.744788C153.241 0.687153 154.134 0.634062 155.02 0.568843C155.251 0.552159 155.374 0.603724 155.528 0.641643C155.582 0.655293 155.64 0.682596 155.686 0.681079C156.006 0.664395 156.322 0.641642 156.641 0.621924C157.023 0.597657 157.408 0.579456 157.785 0.546088C158.093 0.518787 158.209 0.650738 158.455 0.655288C158.644 0.659838 158.837 0.634058 159.025 0.621924C159.407 0.597657 159.788 0.570359 160.169 0.549124C160.304 0.541541 160.408 0.517263 160.451 0.462661C160.458 0.452044 160.393 0.429302 160.35 0.415652C159.838 0.260946 159.838 0.260938 159.322 0.294306C159.002 0.31554 158.687 0.336778 158.367 0.354979C158.313 0.358012 158.251 0.345879 158.197 0.336779C158.043 0.310995 158.059 0.280663 158.19 0.226061C158.321 0.171459 158.421 0.104729 158.532 0.0425428C158.69 0.0819777 158.844 0.121399 159.002 0.160833C159.13 0.15325 159.257 0.144163 159.384 0.136579C160.019 0.0971442 160.655 0.0561896 161.29 0.0197882C161.336 0.0167547 161.394 0.0470937 161.448 0.062261C161.602 0.106246 161.741 0.144154 161.964 0.12747C162.534 0.0834848 163.108 0.0516335 163.678 0.0137153C163.928 -0.00296866 163.928 -0.00296718 164.367 0.0910699C164.417 0.101687 164.483 0.113822 164.537 0.110788C165.111 0.0759034 165.681 0.0379896 166.255 0.00158819C166.378 -0.00599545 166.497 0.0137213 166.586 0.0577063C166.621 0.0759071 166.613 0.106236 166.759 0.354979C167.214 0.556704 167.526 0.53548 167.841 0.517279C167.976 0.509695 168.096 0.502104 168.184 0.47177C168.23 0.455086 168.288 0.430815 168.288 0.411097C168.288 0.39593 168.203 0.371658 168.15 0.368624C167.768 0.33829 167.406 0.402001 167.033 0.415652C166.859 0.421719 166.709 0.368632 166.678 0.282179C166.671 0.257911 166.659 0.232128 166.647 0.207861C166.636 0.183593 166.628 0.15781 166.617 0.133543C166.466 0.125959 166.378 0.153256 166.312 0.204824C166.258 0.247293 166.181 0.295828 166.077 0.318579C165.973 0.342847 165.831 0.338304 165.704 0.345888C165.581 0.353472 165.446 0.373187 165.33 0.36257C165.215 0.350436 165.122 0.306444 165.014 0.279143C164.964 0.265492 164.903 0.245782 164.853 0.248815C164.41 0.2746 163.971 0.300375 163.532 0.333742C163.301 0.351943 163.185 0.28825 163.039 0.248815C162.923 0.218481 162.808 0.226055 162.788 0.295824C162.738 0.462664 162.915 0.53243 163.308 0.500579C163.632 0.473278 163.925 0.468742 164.179 0.571879C164.213 0.58553 164.294 0.591594 164.344 0.588561C164.66 0.57036 164.972 0.547607 165.288 0.529406C165.346 0.526373 165.407 0.53243 165.461 0.538497C166.247 0.6204 166.247 0.621925 166.513 0.603724C166.64 0.594624 166.763 0.58704 166.751 0.356497C166.994 0.109271 167.379 0.0925896 167.753 0.0561881C167.995 0.0334372 168.099 0.100176 168.257 0.135061C168.311 0.147195 168.369 0.171458 168.419 0.168424C169.247 0.118372 170.071 0.0652796 170.896 0.00916071C171.034 6.03497e-05 171.134 0.0091622 171.242 0.0485971C171.381 0.0986491 171.535 0.130507 171.754 0.112306C172.194 0.0759048 172.64 0.0531591 173.087 0.0228246C173.314 0.00765731 173.314 0.00764176 173.773 0.101679C173.823 0.112296 173.888 0.12443 173.942 0.121397C174.389 0.0956127 174.832 0.063771 175.275 0.0364699C175.398 0.0288863 175.51 0.0501183 175.606 0.0910699C175.702 0.132022 175.818 0.153253 175.937 0.14567C176.384 0.118369 176.827 0.0880438 177.27 0.0607428C177.324 0.0577093 177.389 0.0683257 177.439 0.0789427C177.909 0.17298 177.909 0.172964 178.125 0.157797C178.441 0.135046 178.764 0.124441 179.076 0.0941063C179.38 0.0637718 179.538 0.151735 179.746 0.20027C180.316 0.165385 180.89 0.136575 181.456 0.0941063C181.687 0.0759056 181.811 0.125953 181.965 0.165388C182.019 0.179039 182.072 0.207859 182.122 0.206343C182.315 0.200276 182.504 0.183595 182.693 0.171461C182.881 0.159327 183.074 0.147195 183.263 0.135061C183.478 0.179046 183.621 0.282182 183.929 0.247297C184.114 0.226063 184.31 0.221513 184.499 0.209379C184.688 0.197245 184.88 0.185113 185.069 0.172979C185.196 0.165395 185.327 0.160839 185.45 0.147188C185.677 0.124437 185.789 0.198766 185.951 0.232134C186.005 0.242751 186.066 0.26094 186.116 0.257906C186.498 0.236672 186.883 0.218473 187.256 0.183588C187.545 0.156287 187.742 0.201795 187.946 0.265497C187.988 0.279148 188.061 0.286731 188.115 0.283697C188.562 0.257913 189.005 0.226053 189.448 0.198752C189.567 0.191168 189.683 0.215435 189.779 0.25487C189.879 0.295821 189.991 0.315554 190.114 0.30797C190.557 0.280669 191.004 0.250325 191.447 0.223024C191.501 0.219991 191.566 0.232127 191.616 0.244261C192.048 0.338298 192.048 0.339816 192.302 0.321615C192.363 0.317065 192.429 0.31402 192.491 0.30947C192.806 0.288235 193.134 0.280662 193.442 0.244261C193.796 0.203309 194.054 0.25488 194.305 0.341334C194.62 0.323133 194.944 0.312514 195.252 0.282179C195.483 0.259428 195.606 0.317061 195.76 0.354979C195.814 0.368629 195.872 0.395931 195.918 0.392897C196.365 0.367113 196.812 0.34437 197.251 0.306452C197.49 0.285218 197.594 0.353458 197.755 0.388342C197.809 0.400476 197.867 0.421722 197.917 0.418688C198.171 0.406554 198.426 0.388345 198.68 0.371661C198.976 0.351943 198.976 0.353458 199.369 0.445979C199.554 0.489964 199.739 0.455078 199.92 0.444461C200.113 0.432327 200.294 0.423229 200.448 0.485415C200.544 0.52485 200.659 0.549118 200.779 0.543052C201.033 0.529401 201.291 0.515757 201.541 0.493006C201.742 0.474806 201.915 0.486933 202.061 0.543052C202.165 0.582486 202.273 0.602216 202.4 0.593115C202.97 0.556714 203.544 0.518782 204.114 0.483897C204.164 0.480864 204.234 0.494519 204.28 0.50817C204.388 0.535471 204.492 0.565799 204.596 0.596133C204.846 0.582483 205.104 0.576431 205.35 0.555197C205.612 0.533963 205.851 0.526377 206.055 0.609797C206.098 0.627998 206.159 0.653768 206.209 0.652251C206.402 0.646185 206.591 0.631022 206.779 0.618888C206.968 0.606754 207.161 0.594622 207.349 0.582488C207.569 0.620406 207.708 0.729609 208.016 0.694724C208.201 0.67349 208.397 0.66894 208.586 0.656806C208.774 0.644672 208.967 0.631023 209.156 0.620406C209.217 0.617373 209.287 0.609785 209.341 0.615852C209.398 0.621918 209.448 0.643157 209.498 0.658324C209.652 0.702309 209.795 0.7463 210.015 0.720515C210.199 0.699281 210.396 0.694729 210.585 0.681079C210.843 0.664395 210.843 0.664398 211.27 0.759952C211.443 0.799387 211.64 0.74782 211.805 0.781188C211.917 0.803939 212.013 0.841849 212.121 0.867633C212.168 0.87825 212.241 0.882794 212.295 0.879761C212.549 0.86611 212.807 0.852466 213.057 0.829715C213.261 0.811514 213.431 0.829713 213.573 0.884315C213.677 0.92375 213.781 0.940443 213.912 0.931343C214.548 0.888874 215.183 0.852461 215.815 0.805442C216.031 0.788758 216.204 0.814549 216.323 0.869152C216.527 0.963189 216.816 0.85247 217.028 0.928306C217.159 0.975325 217.29 1.02993 217.529 1.00718C217.968 0.967744 218.415 0.946498 218.857 0.919197C219.015 0.960149 219.173 1.00111 219.335 1.04206C219.589 1.02538 219.843 1.00868 220.098 0.993515C220.286 0.981381 220.479 0.967732 220.668 0.957115C220.729 0.954082 220.795 0.948013 220.852 0.955597C220.91 0.96318 220.956 0.982902 221.01 0.99807C221.276 1.07239 221.276 1.07391 221.715 1.04358C221.904 1.02993 222.085 1.02083 222.243 1.0815C222.389 1.13762 222.562 1.14823 222.763 1.13154C223.14 1.10121 223.522 1.07846 223.907 1.05722C224.026 1.04964 224.138 1.07543 224.238 1.11486C224.388 1.17705 224.573 1.17098 224.762 1.1543C225.012 1.13306 225.258 1.11183 225.47 1.19677C225.513 1.21497 225.578 1.24074 225.624 1.23922C225.94 1.22709 226.26 1.218 226.568 1.18918C226.876 1.16036 227.026 1.2544 227.238 1.2999C227.554 1.28018 227.874 1.26046 228.189 1.24074C228.251 1.23619 228.324 1.22255 228.378 1.23013C228.605 1.26198 228.736 1.37574 229.048 1.34085C229.229 1.32113 229.426 1.31507 229.614 1.31052C229.665 1.30901 229.73 1.33478 229.765 1.3545C229.784 1.36511 229.765 1.39393 229.742 1.4091C229.672 1.45157 229.588 1.49101 229.526 1.535C229.518 1.54106 229.591 1.56835 229.634 1.58049C229.738 1.60779 229.857 1.60325 229.996 1.59111C230.115 1.5805 230.238 1.60173 230.323 1.64723C230.358 1.66543 230.346 1.69577 230.273 1.79587C230.273 1.87019 230.354 1.83681 230.381 1.78828C230.423 1.71851 230.342 1.69576 230.188 1.73368C230.08 1.76098 230.027 1.80042 230.054 1.83227C230.069 1.84895 230.142 1.87019 230.273 1.79587C230.612 1.70487 230.866 1.68819 231.12 1.67151C231.186 1.66696 231.263 1.65178 231.309 1.66088C231.475 1.69728 231.629 1.74127 231.791 1.78222C231.975 1.77312 232.149 1.75036 232.33 1.80951C232.584 1.89293 232.596 1.88535 232.842 1.86867C232.969 1.85957 233.096 1.852 233.223 1.84442C233.35 1.83683 233.45 1.85958 233.562 1.89446C233.789 1.96575 233.809 1.96574 233.959 1.86867C234.047 1.80952 234.109 1.7898 234.221 1.81711C234.59 1.90963 234.594 1.91569 234.91 1.88839C235.172 1.86564 235.419 1.85957 235.611 1.94602C235.742 2.00669 235.784 1.99304 235.888 1.92934C236.166 1.76099 236.293 1.76401 236.813 1.88535C237.055 1.94299 237.306 1.88081 237.552 1.87322C237.76 1.86716 237.907 1.90355 237.922 1.99911C237.934 2.05826 237.968 2.10073 238.107 2.12045C238.161 2.12803 238.226 2.13865 238.28 2.13561C238.6 2.11741 238.916 2.09618 239.235 2.07494C239.397 2.06433 239.486 1.99305 239.455 1.89902C239.42 1.79891 239.482 1.7625 239.713 1.73368C239.852 1.71699 239.963 1.72004 240.075 1.74734C240.198 1.77768 240.164 1.80498 240.056 1.85958C239.798 1.99305 239.828 2.07494 240.16 2.16746C240.275 2.19931 240.368 2.22814 240.395 2.27516C240.41 2.29943 240.395 2.33128 240.429 2.34948C240.618 2.4511 240.88 2.51632 241.173 2.56486C241.454 2.52391 241.646 2.59215 241.862 2.64675C242.031 2.68922 242.232 2.65283 242.413 2.63766C242.617 2.62098 242.786 2.6331 242.933 2.68922C243.037 2.72866 243.145 2.74685 243.272 2.73927C243.526 2.72259 243.784 2.71197 244.034 2.68771C244.25 2.66647 244.412 2.69681 244.546 2.74838C244.716 2.8136 244.905 2.76961 245.082 2.77871C245.321 2.78932 245.44 2.92431 245.752 2.88791C245.937 2.86667 246.129 2.85909 246.322 2.85302C246.372 2.85151 246.434 2.8773 246.476 2.8955C246.68 2.97892 246.919 2.97436 247.181 2.9501C247.362 2.93341 247.539 2.91825 247.716 2.97589C248.009 3.07296 248.332 3.1579 248.641 3.24739C248.683 3.31716 248.652 3.39904 248.872 3.44C248.987 3.46123 249.095 3.49309 249.184 3.52798C249.291 3.56893 249.392 3.57955 249.53 3.56893C249.781 3.5477 250.042 3.54313 250.289 3.51583C250.516 3.49156 250.659 3.54163 250.797 3.58865C250.909 3.62657 251.013 3.64476 251.148 3.61746C251.286 3.59168 251.387 3.60835 251.498 3.64931C251.656 3.70542 251.668 3.69937 252.192 3.71605C252.245 3.71757 252.311 3.74031 252.342 3.76002C252.357 3.77064 252.323 3.80099 252.296 3.81616C252.261 3.83436 252.207 3.85558 252.157 3.86013C251.587 3.89957 251.013 3.93445 250.443 3.97389C250.385 3.97844 250.324 3.98907 250.281 4.00423C250.235 4.02092 250.177 4.04365 250.177 4.06489C250.177 4.08005 250.254 4.09826 250.308 4.10888C250.478 4.14376 250.678 4.09068 250.844 4.13011C250.955 4.1559 251.048 4.19229 251.159 4.21656C251.206 4.22718 251.279 4.22567 251.337 4.22263C251.529 4.21202 251.718 4.19685 251.91 4.18775C251.964 4.18623 252.026 4.20141 252.076 4.21354C252.446 4.30455 252.446 4.30454 252.765 4.28482C252.893 4.27724 253.027 4.25449 253.147 4.26359C253.262 4.27269 253.362 4.31364 253.466 4.33942C253.682 4.39403 253.886 4.44711 253.902 4.56541C253.909 4.61092 254.036 4.65034 254.163 4.65338C254.287 4.65641 254.418 4.63974 254.545 4.63064C254.845 4.61244 254.845 4.61244 255.234 4.70496C255.342 4.73074 255.458 4.73377 255.596 4.71861C255.65 4.71254 255.716 4.71861 255.773 4.7262C255.962 4.74895 255.962 4.77776 255.839 4.83236C255.666 4.91275 255.681 4.92033 256.166 4.98859C256.351 5.01437 256.494 5.06291 256.648 5.10538C256.898 5.17363 256.894 5.17362 256.729 5.2631C256.69 5.28282 256.655 5.30406 256.617 5.3253C256.505 5.38445 256.417 5.44815 256.185 5.45421C255.931 5.46028 255.677 5.48456 255.423 5.50124C255.176 5.51793 255.111 5.55431 255.134 5.65745C255.161 5.78182 255.211 5.79548 255.654 5.79396C255.781 5.79396 255.893 5.80609 255.989 5.84704C255.943 5.89558 255.858 5.9335 255.735 5.9426C255.419 5.96535 255.099 5.98507 254.784 6.00479C254.529 6.02147 254.275 6.03815 254.021 6.05483C253.863 6.06545 253.763 6.14433 253.805 6.2323C253.828 6.28235 253.848 6.3324 253.867 6.38245C253.909 6.48255 253.99 6.50835 254.248 6.5038C254.314 6.50228 254.375 6.49013 254.437 6.49317C254.687 6.50379 254.807 6.62967 255.107 6.60389C255.357 6.58265 255.619 6.57811 255.866 6.5508C256.093 6.52654 256.22 6.58115 256.378 6.62211C256.432 6.63576 256.49 6.66456 256.536 6.66304C256.856 6.64636 257.175 6.62969 257.487 6.60087C257.634 6.58874 257.722 6.59783 257.838 6.63423C258.115 6.7222 258.123 6.71765 258.535 6.69035C258.835 6.66912 258.839 6.67215 259.224 6.76467C259.332 6.79045 259.448 6.79045 259.586 6.77831C259.767 6.76315 259.956 6.73888 260.145 6.76163C260.203 6.7677 260.276 6.78591 260.295 6.80562C260.307 6.81927 260.253 6.85264 260.206 6.86326C259.867 6.94213 259.471 6.92848 259.101 6.96033C258.985 6.96943 258.87 6.94061 258.774 6.89966C258.673 6.85871 258.566 6.84203 258.435 6.84961C258.181 6.8663 257.922 6.87691 257.672 6.90118C257.456 6.92241 257.306 6.88752 257.156 6.8405C257.106 6.82534 257.048 6.79651 256.998 6.79803C256.428 6.82837 255.854 6.85871 255.288 6.90118C255.061 6.91938 254.93 6.87085 254.776 6.8299C254.722 6.81625 254.668 6.78742 254.618 6.78894C254.425 6.79501 254.237 6.81169 254.044 6.82382C253.343 6.86932 252.646 6.91483 251.945 6.9573C251.899 6.96033 251.841 6.92847 251.787 6.91482C251.683 6.88752 251.575 6.86173 251.467 6.83595C251.275 6.84808 251.086 6.86325 250.894 6.87235C250.755 6.87842 250.632 6.89966 250.612 6.9573C250.601 6.99521 250.728 7.03009 250.863 7.02706C250.994 7.02403 251.125 7.00582 251.233 7.02554C251.768 7.12261 251.768 7.12413 252.103 7.10441C252.396 7.08621 252.365 7.07104 252.623 7.15446C252.735 7.19086 252.835 7.21211 252.962 7.203C253.278 7.18177 253.597 7.16053 253.917 7.14233C253.967 7.1393 254.033 7.15447 254.083 7.1666C254.46 7.25761 254.46 7.26064 254.772 7.23789C255.18 7.21059 255.196 7.203 255.469 7.29552C255.658 7.35923 255.831 7.31524 256.012 7.3122C256.22 7.37136 256.447 7.42445 256.636 7.49119C256.86 7.57006 257.094 7.55639 257.349 7.53364C257.537 7.51696 257.722 7.51089 257.876 7.57308C258.023 7.63071 258.2 7.63679 258.4 7.62162C258.581 7.60797 258.766 7.57915 258.955 7.61251C259.005 7.62161 259.082 7.64437 259.078 7.65802C259.074 7.67926 259.024 7.7096 258.974 7.7187C258.62 7.78088 258.231 7.77936 257.857 7.80818C257.807 7.81273 257.741 7.79604 257.691 7.7839C257.584 7.7566 257.48 7.72476 257.376 7.69594C257.187 7.70504 256.994 7.70807 256.809 7.72627C256.667 7.73992 256.559 7.73841 256.455 7.70201C256.359 7.66865 256.255 7.62769 256.139 7.61707C256.024 7.60645 255.889 7.6292 255.762 7.6383C255.635 7.64741 255.488 7.64285 255.388 7.66711C255.288 7.69138 255.226 7.74447 255.161 7.78694C255.088 7.83396 254.988 7.84914 254.841 7.85369C254.707 7.85824 254.599 7.85216 254.499 7.8097C254.456 7.79149 254.398 7.77784 254.341 7.7657C254.287 7.75509 254.225 7.7384 254.175 7.74143C253.601 7.77632 253.031 7.81425 252.457 7.85065C252.172 7.86885 252.176 7.86884 251.583 7.77935C251.529 7.77177 251.464 7.76115 251.41 7.76419C251.09 7.78239 250.774 7.80363 250.455 7.82486C250.131 7.84609 250.135 7.84306 249.584 7.7475C249.484 7.7293 249.338 7.75357 249.218 7.75054C248.968 7.74296 248.845 7.61555 248.552 7.63982C248.302 7.66106 248.04 7.6656 247.789 7.6929C247.562 7.71717 247.431 7.66409 247.277 7.62314C247.223 7.60949 247.165 7.57915 247.119 7.58219C246.545 7.61555 245.975 7.65347 245.213 7.65802C245.024 7.65802 245.109 7.68988 245.232 7.7005C245.409 7.71718 245.467 7.68533 245.371 7.62466C245.301 7.58219 245.201 7.56094 245.12 7.57156C245.078 7.57763 245.024 7.60645 245.213 7.65802C245.413 7.71566 245.401 7.7475 245.436 7.7657C245.521 7.80969 245.64 7.82789 245.764 7.82182C245.956 7.81121 246.145 7.79604 246.337 7.78694C246.391 7.78391 246.457 7.79453 246.507 7.80666C246.931 7.9007 246.934 7.90677 247.385 7.87037C247.527 7.85975 247.631 7.85975 247.743 7.88857C247.897 7.928 248.009 7.99473 248.244 7.9735C248.556 7.94468 248.875 7.92801 249.195 7.91132C249.245 7.90829 249.299 7.93559 249.357 7.94772C249.515 7.98412 249.63 8.05238 249.865 8.02356C250.046 8.00081 250.243 7.99473 250.435 7.99018C250.485 7.98866 250.562 8.01293 250.585 8.03265C250.632 8.06753 250.574 8.1085 250.443 8.13731C250.389 8.14945 250.316 8.14641 250.254 8.15096C250 8.16764 249.746 8.18583 249.492 8.19949C249.357 8.20707 249.23 8.22983 249.214 8.28595C249.203 8.32387 249.341 8.35723 249.472 8.3542C249.665 8.34965 249.858 8.33751 250.042 8.31779C250.37 8.28443 250.655 8.29352 250.921 8.38908C251.109 8.45581 251.098 8.43156 251.298 8.62873C251.348 8.67878 251.498 8.68333 251.629 8.68029C251.945 8.67271 252.091 8.69547 252.064 8.74249C252.03 8.80012 251.918 8.81831 251.776 8.8259C251.521 8.83803 251.267 8.85776 251.013 8.87444C250.951 8.87899 250.882 8.88808 250.824 8.88505C250.767 8.88202 250.713 8.86382 250.663 8.85017C250.555 8.82135 250.462 8.77736 250.347 8.76674C250.231 8.75612 250.096 8.77888 249.969 8.78798C249.842 8.79556 249.707 8.81831 249.592 8.8077C249.476 8.79708 249.38 8.75159 249.276 8.72429C249.226 8.71064 249.164 8.68939 249.114 8.6909C248.86 8.70304 248.606 8.72276 248.352 8.73793C248.04 8.75765 248.04 8.75765 247.662 8.66361C247.554 8.63631 247.443 8.63783 247.3 8.64997C246.992 8.67424 246.988 8.66967 246.426 8.5817C246.372 8.5726 246.307 8.56199 246.253 8.56654C245.679 8.60143 245.109 8.63934 244.539 8.67574C244.05 8.70759 244.05 8.7076 243.78 8.85928C243.58 8.97151 243.576 8.97151 243.772 9.02308C243.93 9.06555 244.073 9.12773 244.246 9.15048C244.408 9.17171 244.608 9.10346 244.785 9.17323C244.874 9.20812 244.989 9.24604 245.101 9.2521C245.278 9.25969 245.467 9.2157 245.636 9.28243C245.721 9.3158 245.848 9.3507 245.956 9.35221C246.145 9.35525 246.337 9.33097 246.526 9.32035C246.584 9.31732 246.649 9.31732 246.703 9.3249C246.761 9.334 246.811 9.35221 246.861 9.36738C247.015 9.41895 247.181 9.44321 247.381 9.41742C247.709 9.37495 248.001 9.39619 248.255 9.49326C248.29 9.50691 248.375 9.50844 248.429 9.50237C248.567 9.4872 248.687 9.48568 248.791 9.51449C248.833 9.52663 248.895 9.54785 248.887 9.5615C248.875 9.58425 248.829 9.61459 248.779 9.62218C248.417 9.67375 248.028 9.67982 247.655 9.70712C247.605 9.71016 247.543 9.69043 247.493 9.67678C247.385 9.64948 247.293 9.60398 247.177 9.59337C247.061 9.58275 246.927 9.60247 246.8 9.61005C246.672 9.61763 246.538 9.64039 246.422 9.63129C246.307 9.62067 246.199 9.58274 246.106 9.54938C245.998 9.51146 245.895 9.50692 245.752 9.52209C245.567 9.5418 245.375 9.54483 245.186 9.55545C245.082 9.52663 244.978 9.49477 244.87 9.46747C244.82 9.45382 244.758 9.43714 244.704 9.43866C244.45 9.45079 244.196 9.46898 243.942 9.48567C243.688 9.50235 243.688 9.50237 243.256 9.40833C243.206 9.39771 243.141 9.38558 243.087 9.38861C242.767 9.40681 242.451 9.42955 242.132 9.44775C242.008 9.45533 241.897 9.4341 241.797 9.39315C241.7 9.3522 241.585 9.32945 241.465 9.33703C240.957 9.36888 240.449 9.39922 239.94 9.43714C239.736 9.45231 239.563 9.43866 239.424 9.38406C239.262 9.32187 239.081 9.33704 238.893 9.34918C238.465 9.37951 238.461 9.37799 238.188 9.30063C238.134 9.28546 238.08 9.25664 238.03 9.25816C237.587 9.28091 237.14 9.30215 236.701 9.33855C236.47 9.35827 236.347 9.30518 236.193 9.26575C236.139 9.2521 236.081 9.22328 236.035 9.22631C235.715 9.243 235.395 9.25817 235.083 9.2885C234.771 9.31884 234.652 9.17779 234.417 9.1793C234.097 9.18082 233.782 9.21571 233.466 9.23694C233.212 9.25362 232.958 9.2703 232.703 9.28699C232.449 9.30367 232.195 9.31731 231.941 9.33703C231.806 9.34765 231.706 9.33399 231.594 9.29608C231.452 9.24603 231.282 9.20661 231.128 9.1611C230.893 9.09589 230.893 9.09588 230.608 9.11408C230.547 9.11863 230.481 9.12165 230.419 9.1262C229.953 9.15957 229.953 9.15655 229.36 9.061C229.333 9.05645 229.264 9.07313 229.237 9.08527C229.156 9.1247 229.083 9.16716 229.01 9.20811C228.906 9.18385 228.779 9.1702 228.709 9.13531C228.513 9.03673 228.205 9.17171 228.005 9.07464C227.931 9.03824 227.804 9.00639 227.689 8.99729C227.569 8.98819 227.435 9.00942 227.311 9.01852C226.992 9.04127 226.992 9.03976 226.718 9.17475C226.58 9.24149 226.379 9.22935 226.198 9.24451C226.01 9.2612 225.828 9.2703 225.671 9.20811C225.528 9.15199 225.355 9.13835 225.151 9.15655C224.9 9.1793 224.642 9.19294 224.388 9.2066C224.334 9.20963 224.269 9.20205 224.215 9.19295C223.625 9.10346 223.625 9.10195 223.34 9.12167C223.213 9.13077 223.082 9.13379 222.959 9.14744C222.751 9.17171 222.593 9.13986 222.443 9.09132C222.393 9.07615 222.335 9.04735 222.285 9.04887C222.031 9.05645 221.781 9.0701 221.53 9.08375C221.338 9.09437 221.145 9.10043 220.96 9.12167C220.652 9.15655 220.502 9.05795 220.29 9.01245C219.974 9.03217 219.655 9.04582 219.339 9.07312C219.193 9.08526 219.096 9.08072 218.985 9.04431C218.842 8.99881 218.711 8.94724 218.48 8.97C218.172 9.00033 217.848 9.01095 217.533 9.02915C217.321 8.98213 217.167 8.88657 216.862 8.92145C216.678 8.94268 216.481 8.94723 216.292 8.95937C216.038 8.97605 215.784 8.99123 215.53 9.00943C215.256 9.02763 215.26 9.02308 214.84 8.9336C214.598 8.88051 214.347 8.93966 214.101 8.94876C213.908 8.95634 213.812 9.02611 213.858 9.11559C213.905 9.20508 213.8 9.27485 213.623 9.28699C213.18 9.3158 212.734 9.34613 212.291 9.37191C212.237 9.37495 212.171 9.36433 212.121 9.35371C211.648 9.25816 211.648 9.25969 211.436 9.27334C211.12 9.29609 210.796 9.30821 210.484 9.33703C210.269 9.35675 210.111 9.32491 209.972 9.27334C209.864 9.23391 209.764 9.2248 209.626 9.2339C208.1 9.33552 206.575 9.42956 205.054 9.53421C204.827 9.54938 204.696 9.5054 204.542 9.46445C204.488 9.4508 204.438 9.42198 204.384 9.42198C204.257 9.42198 204.13 9.43563 204.002 9.44473C203.432 9.48113 202.862 9.52511 202.289 9.55241C202.046 9.56455 201.98 9.63432 201.876 9.69196C201.796 9.73594 201.703 9.75414 201.561 9.7602C201.422 9.76627 201.322 9.75868 201.214 9.71925C201.075 9.66768 200.918 9.63582 200.702 9.65706C200.452 9.68133 200.197 9.69196 199.939 9.70864C199.808 9.71622 199.708 9.74352 199.666 9.79812C199.658 9.80722 199.739 9.82998 199.785 9.84363C199.939 9.88913 200.086 9.94222 200.259 9.97407C200.436 10.0059 200.629 9.9695 200.813 9.9604C200.879 9.95737 200.941 9.94828 201.002 9.94979C201.06 9.95131 201.129 9.9589 201.172 9.97255C201.372 10.0408 201.584 10.0878 201.861 10.0469C202.1 10.0666 202.223 10.1925 202.527 10.1591C202.712 10.1394 202.905 10.1303 203.097 10.1227C203.147 10.1212 203.201 10.1485 203.255 10.1621C203.409 10.2001 203.533 10.2607 203.764 10.2349C204.01 10.2076 204.272 10.2031 204.522 10.1819C204.661 10.1697 204.761 10.1803 204.869 10.2198C205.008 10.2698 205.166 10.3077 205.381 10.2835C205.566 10.2622 205.763 10.2577 205.951 10.244C206.198 10.2273 206.198 10.2289 206.637 10.3229C206.687 10.3335 206.752 10.3457 206.806 10.3426C207.126 10.3244 207.442 10.3017 207.761 10.2835C207.885 10.2759 208.004 10.2956 208.089 10.3396C208.124 10.3578 208.112 10.3881 208.123 10.4139C207.488 10.4549 206.853 10.4898 206.221 10.5398C205.982 10.5595 205.874 10.4973 205.716 10.4624C205.662 10.4503 205.605 10.4245 205.555 10.4276C205.108 10.4534 204.665 10.4806 204.222 10.514C204.083 10.5246 203.979 10.5186 203.875 10.4746C203.61 10.3578 203.286 10.4215 202.986 10.4382C202.755 10.4503 202.681 10.4973 202.708 10.5974C202.743 10.7157 202.882 10.7521 203.236 10.7309C203.363 10.7233 203.49 10.7127 203.617 10.7066C203.741 10.7006 203.852 10.7203 203.952 10.7612C204.049 10.8022 204.164 10.8234 204.284 10.8174C204.538 10.8037 204.796 10.7901 205.042 10.7673C205.246 10.7491 205.416 10.7643 205.558 10.8204C205.716 10.8826 205.901 10.8689 206.086 10.8553C206.517 10.8249 206.521 10.8265 206.791 10.9023C206.845 10.9175 206.899 10.9463 206.949 10.9448C207.392 10.922 207.839 10.9023 208.274 10.8659C208.501 10.8477 208.632 10.8962 208.782 10.9357C208.836 10.9493 208.89 10.9797 208.94 10.9766C209.26 10.9599 209.579 10.9432 209.891 10.9144C210.038 10.9008 210.126 10.9099 210.246 10.9463C210.531 11.0358 210.538 11.0327 210.943 11.0039C211.066 10.9948 211.201 10.9781 211.316 10.9903C211.432 11.0024 211.524 11.0464 211.632 11.0737C211.682 11.0858 211.744 11.1025 211.798 11.0995C212.052 11.0873 212.306 11.0691 212.56 11.0525C212.799 11.0358 212.799 11.0373 213.246 11.1313C213.427 11.1708 213.616 11.1374 213.797 11.1253C213.993 11.1116 214.17 11.1116 214.32 11.1708C214.471 11.2299 214.652 11.2269 214.844 11.2147C215.025 11.2026 215.21 11.1693 215.395 11.2102C215.819 11.3042 215.819 11.3057 216.081 11.2875C216.462 11.2618 216.839 11.2375 217.224 11.2147C217.274 11.2117 217.34 11.2299 217.39 11.242C217.498 11.2693 217.59 11.3148 217.706 11.3255C217.821 11.3376 217.956 11.3194 218.079 11.3103C218.476 11.2815 218.503 11.2709 218.769 11.371C218.992 11.4529 219.27 11.3346 219.478 11.4286C219.597 11.4817 219.759 11.5242 219.982 11.4984C220.167 11.4771 220.359 11.4711 220.552 11.4589C220.856 11.4392 220.856 11.4407 221.241 11.5317C221.292 11.5439 221.357 11.559 221.407 11.556C221.661 11.5439 221.919 11.5333 222.166 11.506C222.455 11.4741 222.639 11.5317 222.855 11.5879C223.025 11.6319 223.225 11.5954 223.406 11.5803C223.602 11.5651 223.78 11.5697 223.926 11.6288C224.08 11.6895 224.261 11.6819 224.454 11.6698C224.635 11.6591 224.819 11.6243 225.004 11.6667C225.401 11.7608 225.401 11.7608 225.69 11.7426C225.944 11.7259 226.198 11.7077 226.452 11.6955C226.503 11.6925 226.564 11.7122 226.614 11.7259C226.722 11.7532 226.814 11.7987 226.93 11.8093C227.046 11.8199 227.18 11.8002 227.307 11.7926C227.435 11.785 227.569 11.7623 227.685 11.7714C227.8 11.7805 227.908 11.8184 228.001 11.8518C228.109 11.8912 228.209 11.8958 228.355 11.8806C228.54 11.8609 228.732 11.8563 228.921 11.8457C229.025 11.8745 229.133 11.9033 229.233 11.9352C229.337 11.9686 229.449 11.9655 229.591 11.9549C230.065 11.9185 230.069 11.9231 230.466 12.0171C230.647 12.0596 230.835 12.0247 231.016 12.0141C231.209 12.0019 231.39 11.9959 231.54 12.0565C231.687 12.1142 231.868 12.1217 232.06 12.1035C232.183 12.0914 232.314 12.0838 232.441 12.0793C232.499 12.0778 232.569 12.0838 232.611 12.096C232.815 12.1597 233.015 12.2173 233.296 12.1764C233.543 12.1885 233.666 12.3129 233.963 12.2886C234.213 12.2674 234.475 12.2628 234.721 12.2355C234.949 12.2112 235.11 12.2537 235.226 12.3068C235.434 12.4008 235.727 12.2734 235.935 12.3659C236.054 12.419 236.208 12.4615 236.439 12.4387C236.693 12.4145 236.774 12.4463 236.847 12.5419C236.89 12.5965 236.882 12.6405 236.805 12.6829C236.728 12.7269 236.643 12.7193 236.52 12.6693C236.378 12.6132 236.208 12.6025 236.004 12.6147C235.804 12.6268 235.68 12.548 235.515 12.5176C235.349 12.4858 235.153 12.5389 234.98 12.4979C234.571 12.4023 234.571 12.4023 234.294 12.4205C234.105 12.4327 233.909 12.4388 233.724 12.46C233.504 12.4858 233.362 12.4387 233.212 12.3963C233.158 12.3811 233.104 12.3523 233.058 12.3538C232.615 12.3766 232.168 12.3978 231.729 12.4357C231.498 12.4554 231.375 12.4008 231.221 12.3629C231.167 12.3493 231.109 12.322 231.063 12.325C230.681 12.3462 230.304 12.3735 229.923 12.3993C229.849 12.4403 229.768 12.4797 229.699 12.5237C229.626 12.5692 229.526 12.5889 229.38 12.5874C229.137 12.5874 228.898 12.6511 228.655 12.5707C228.405 12.4888 228.386 12.4933 228.143 12.5131C227.835 12.5389 227.508 12.5328 227.219 12.5919C227.169 12.6026 227.115 12.6314 227.115 12.6526C227.111 12.6662 227.192 12.686 227.242 12.6981C227.411 12.7345 227.608 12.6814 227.777 12.7193C227.889 12.7436 227.981 12.78 228.093 12.8058C228.139 12.8164 228.209 12.8149 228.27 12.8134C228.336 12.8119 228.397 12.8013 228.459 12.8028C228.517 12.8043 228.578 12.8134 228.625 12.827C228.837 12.8847 229.06 12.9377 229.249 13.006C229.433 13.0727 229.607 13.0272 229.792 13.0242C230.531 13.1304 230.531 13.1319 231.028 13.0985C231.151 13.0909 231.278 13.0818 231.405 13.0834C231.459 13.0834 231.509 13.1106 231.563 13.1258C231.717 13.1713 231.864 13.2123 232.079 13.188C232.264 13.1668 232.461 13.1622 232.649 13.1486C232.904 13.1319 232.904 13.1319 233.335 13.2274C233.443 13.2517 233.558 13.2487 233.697 13.2365C233.816 13.2259 233.94 13.2487 234.024 13.2927C234.059 13.3109 234.047 13.3412 234.059 13.367C233.678 13.3913 233.293 13.4079 232.923 13.4443C232.684 13.4671 232.576 13.4019 232.418 13.367C232.364 13.3549 232.307 13.3291 232.257 13.3321C231.879 13.3549 231.502 13.3806 231.124 13.411C231.078 13.414 231.02 13.4489 231.016 13.4701C231.009 13.5095 231.105 13.5475 231.244 13.5459C231.428 13.5444 231.61 13.5186 231.775 13.5808C231.914 13.6354 232.087 13.6597 232.291 13.6354C232.414 13.6218 232.545 13.6218 232.669 13.6097C232.996 13.5733 233.293 13.5808 233.539 13.684C233.728 13.7113 233.913 13.6855 234.094 13.6718C234.229 13.6612 234.359 13.6506 234.456 13.6794C234.66 13.7401 234.86 13.8008 235.141 13.7598C235.446 13.8023 235.677 13.8918 235.931 13.9646C236.05 13.9995 236.143 14.0192 236.281 13.9964C236.339 13.9873 236.408 13.9873 236.47 13.9828C236.597 13.9752 236.732 13.9524 236.847 13.9615C236.963 13.9721 237.059 14.0161 237.163 14.0434C237.213 14.0571 237.271 14.0798 237.321 14.0783C237.514 14.0707 237.702 14.0556 237.891 14.0434C238.08 14.0328 238.269 14.0222 238.457 14.0116C238.615 14.051 238.777 14.0905 238.935 14.1299C239.189 14.1132 239.443 14.0965 239.694 14.0814C239.975 14.0632 239.975 14.0647 240.379 14.1587C240.56 14.2012 240.753 14.1739 240.926 14.1542C241.215 14.1223 241.408 14.18 241.612 14.2406C241.654 14.2528 241.731 14.2603 241.781 14.2543C241.981 14.233 242.155 14.2497 242.301 14.3058C242.405 14.3453 242.509 14.3635 242.636 14.3559C243.079 14.3271 243.522 14.2967 243.965 14.2709C244.019 14.2679 244.08 14.2816 244.13 14.2937C244.523 14.3862 244.527 14.3908 244.816 14.3665C245.074 14.3453 245.313 14.3362 245.517 14.4196C245.559 14.4378 245.625 14.4636 245.671 14.4621C245.987 14.4469 246.307 14.4302 246.619 14.4044C246.761 14.3923 246.861 14.3968 246.973 14.4317C247.115 14.4757 247.242 14.5288 247.477 14.5091C248.128 14.453 248.132 14.462 248.902 14.5667C248.956 14.5743 249.03 14.5622 249.091 14.5561C249.222 14.5409 249.318 14.5622 249.434 14.597C249.692 14.6759 249.7 14.6714 249.946 14.6547C250.135 14.641 250.331 14.638 250.516 14.6152C250.801 14.5819 250.99 14.641 251.202 14.6972C251.371 14.7411 251.568 14.7047 251.749 14.6911C251.945 14.6759 252.122 14.6805 252.269 14.7381C252.369 14.7775 252.477 14.7988 252.604 14.7912C253.047 14.7639 253.49 14.7335 253.932 14.7062C253.986 14.7032 254.052 14.7153 254.102 14.726C254.541 14.82 254.541 14.8246 254.976 14.7897C255.115 14.7791 255.23 14.776 255.334 14.8079C255.434 14.8382 255.542 14.867 255.646 14.8958C255.835 14.8852 256.028 14.8822 256.212 14.864C256.355 14.8503 256.455 14.8564 256.567 14.8883C256.713 14.9292 256.836 15.0005 257.067 14.9656C257.187 14.9489 257.325 14.9535 257.445 14.9383C257.587 14.9186 257.684 14.9307 257.795 14.9702C257.934 15.0172 258.077 15.0657 258.3 15.0414C258.546 15.0141 258.808 15.0096 259.059 14.9884C259.197 14.9762 259.294 14.9884 259.405 15.0278C259.544 15.0778 259.702 15.1097 259.918 15.09C260.357 15.0521 260.36 15.0596 260.788 15.1552C260.896 15.1795 261.011 15.1764 261.15 15.1643C261.269 15.1537 261.393 15.1764 261.477 15.2204C261.558 15.269 261.55 15.2993 261.558 15.3251ZM227.238 1.64571C227.111 1.6533 226.984 1.6624 226.799 1.53044C226.787 1.50769 226.795 1.4804 226.768 1.46068C226.707 1.41973 226.61 1.39091 226.495 1.38636C226.287 1.38029 226.036 1.43185 226.04 1.47129C226.044 1.50466 226.11 1.53347 226.237 1.56077C226.291 1.57139 226.333 1.58959 226.383 1.60172C226.529 1.63661 226.645 1.70487 226.857 1.66999C226.818 1.57595 226.838 1.62297 226.857 1.66999C226.838 1.72762 226.895 1.76858 227.034 1.78526C227.073 1.78981 227.13 1.78677 227.161 1.77767C227.281 1.7443 227.3 1.69881 227.211 1.57899C227.196 1.59871 227.207 1.63358 227.242 1.64268C227.277 1.65178 227.361 1.6442 227.404 1.63359C227.512 1.60477 227.566 1.56685 227.539 1.535C227.523 1.51831 227.45 1.49708 227.404 1.49708C227.323 1.49708 227.25 1.53044 227.238 1.64571ZM258.381 19.2352C258.1 19.264 257.776 19.2534 257.495 19.3125C257.445 19.3232 257.395 19.3505 257.391 19.3717C257.387 19.3854 257.464 19.4051 257.51 19.4157C257.614 19.44 257.73 19.4324 257.865 19.4248C258.069 19.4142 258.188 19.4839 258.346 19.5188C258.396 19.5294 258.462 19.537 258.516 19.534C258.828 19.5158 259.136 19.4961 259.448 19.4748C259.502 19.4703 259.559 19.4597 259.606 19.446C259.76 19.402 259.744 19.3732 259.594 19.3399C259.428 19.3035 259.297 19.2428 259.128 19.214C258.885 19.173 258.639 19.2276 258.381 19.2352ZM236.509 20.3424C236.32 20.3545 236.135 20.3667 235.946 20.3788C235.885 20.3834 235.819 20.3849 235.761 20.3909C235.642 20.4016 235.553 20.4334 235.496 20.4835C235.584 20.5229 235.692 20.5456 235.811 20.5411C236 20.532 236.185 20.5123 236.374 20.5077C236.578 20.5017 236.697 20.5699 236.855 20.6048C236.905 20.6154 236.967 20.6169 237.025 20.6184C237.31 20.6245 237.483 20.5457 237.429 20.4349C237.391 20.3485 237.244 20.2969 237.067 20.3075C236.882 20.3181 236.693 20.3303 236.509 20.3424ZM259.698 16.9935C259.744 16.9677 259.794 16.9495 259.817 16.9267C259.887 16.8494 259.86 16.7917 259.733 16.7311C259.579 16.6568 259.39 16.7068 259.217 16.7144C259.174 16.7159 259.128 16.7478 259.105 16.7675C259.089 16.7811 259.089 16.81 259.113 16.8175C259.301 16.8782 259.502 16.9343 259.698 16.9935ZM226.287 12.5131C226.102 12.5252 225.913 12.5343 225.728 12.551C225.682 12.5555 225.64 12.5843 225.613 12.6041C225.563 12.6405 225.617 12.6905 225.775 12.6951C225.956 12.7011 226.144 12.6754 226.333 12.6632C226.572 12.6481 226.714 12.5919 226.626 12.5434C226.541 12.4964 226.426 12.4873 226.287 12.5131ZM23.5514 9.27182C23.6747 9.26424 23.8018 9.25817 23.925 9.24755C24.0406 9.23693 24.1292 9.20356 24.187 9.15351C24.0907 9.11408 23.9828 9.09284 23.8634 9.09739C23.6747 9.10649 23.4899 9.11863 23.305 9.13379C23.1895 9.14289 23.0778 9.17626 23.0508 9.22783C23.0239 9.26727 23.2818 9.29002 23.5514 9.27182ZM209.999 9.03824C210.049 9.05189 210.099 9.0792 210.149 9.0792C210.273 9.0792 210.4 9.07009 210.515 9.05492C210.565 9.04885 210.604 9.02156 210.627 9.00032C210.642 8.98667 210.639 8.96241 210.615 8.95028C210.504 8.87747 210.057 8.90326 209.984 8.98668C209.976 9.00184 209.995 9.02156 209.999 9.03824ZM197.848 0.732642C197.859 0.75691 197.863 0.781175 197.879 0.805442C197.91 0.850944 197.994 0.884319 198.117 0.90707C198.214 0.869152 198.264 0.82669 198.26 0.781188C198.256 0.75692 198.245 0.732637 198.229 0.70837C198.198 0.662868 198.114 0.629512 197.99 0.606761C197.894 0.643162 197.848 0.685624 197.848 0.732642ZM268.599 20.6063C268.564 20.626 268.529 20.6458 268.491 20.664C268.595 20.7079 268.691 20.7216 268.764 20.6973C268.81 20.6822 268.837 20.6594 268.872 20.6397C268.768 20.5957 268.676 20.5836 268.599 20.6063ZM266.203 20.8126C266.253 20.8262 266.299 20.8444 266.353 20.8535C266.442 20.8687 266.523 20.8429 266.584 20.7883C266.534 20.7747 266.488 20.7565 266.434 20.7474C266.346 20.7322 266.265 20.758 266.203 20.8126ZM267.72 20.535C267.693 20.5714 267.747 20.6018 267.89 20.6276C267.925 20.6078 267.971 20.5896 267.994 20.5684C268.033 20.5335 267.967 20.5017 267.828 20.4774C267.79 20.4956 267.755 20.5153 267.72 20.535ZM259.59 18.9C259.563 18.9364 259.617 18.9667 259.76 18.9925C259.794 18.9728 259.84 18.9546 259.864 18.9334C259.902 18.8985 259.837 18.8666 259.698 18.8424C259.659 18.8606 259.625 18.8803 259.59 18.9ZM248.513 8.16764C248.479 8.18736 248.444 8.20708 248.406 8.22528C248.51 8.26926 248.606 8.28291 248.679 8.25864C248.725 8.24347 248.752 8.22072 248.787 8.201C248.683 8.15702 248.59 8.14489 248.513 8.16764ZM237.903 2.47384C237.995 2.48446 238.072 2.46323 238.138 2.40711C238.088 2.39346 238.041 2.37526 237.987 2.36616C237.899 2.35099 237.818 2.37679 237.756 2.43139C237.806 2.44655 237.857 2.46019 237.903 2.47384ZM232.268 2.11741C232.233 2.13713 232.199 2.15685 232.16 2.17505C232.264 2.21904 232.361 2.23268 232.434 2.20841C232.48 2.19325 232.507 2.1705 232.542 2.15078C232.438 2.10679 232.345 2.09618 232.268 2.11741ZM194.058 0.731124C194.023 0.750842 193.989 0.77056 193.95 0.788761C194.054 0.832746 194.151 0.846392 194.224 0.822124C194.27 0.806957 194.297 0.784205 194.332 0.764488C194.228 0.720503 194.135 0.70989 194.058 0.731124ZM3.80131 13.0712C3.75124 13.0576 3.70122 13.0439 3.655 13.0288C3.54331 13.0697 3.50866 13.1076 3.57028 13.1364C3.6088 13.1546 3.66652 13.1653 3.71659 13.1789C3.83213 13.138 3.85908 13.1015 3.80131 13.0712Z" fill="#14BEB6"/>
</svg>
