<svg width="567" height="32" viewBox="0 0 567 32" fill="none" xmlns="http://www.w3.org/2000/svg">
<path d="M532.771 16.2357C531.996 16.2621 531.212 16.2807 530.453 16.3196C529.959 16.344 529.747 16.2754 529.417 16.24C529.307 16.2276 529.189 16.2027 529.088 16.2061C528.32 16.2325 527.552 16.262 526.785 16.2915C526.55 16.353 526.402 16.4347 526.042 16.4651C525.69 16.4939 525.275 16.4947 524.883 16.5094C524.366 16.5276 523.849 16.5457 523.332 16.5623C523.073 16.5706 522.862 16.6007 522.777 16.6572C522.761 16.6667 522.934 16.6899 523.028 16.7038C523.342 16.7502 523.648 16.803 523.993 16.8384C524.323 16.8723 524.73 16.8152 525.083 16.8584C525.876 16.9558 525.884 16.9542 526.487 16.9343C527.004 16.9162 527.521 16.8965 528.038 16.8831C528.14 16.8798 528.258 16.9031 528.368 16.9154C528.697 16.9493 528.91 17.0273 529.395 16.9967C529.763 16.9725 530.171 16.9671 530.555 16.9539C530.876 16.9988 531.175 17.05 531.52 17.0854C531.842 17.1193 531.936 17.1458 531.764 17.1915C531.608 17.2341 531.389 17.2517 531.099 17.2553C530.84 17.2574 530.582 17.2719 530.323 17.2802C530.19 17.2851 530.065 17.2885 529.939 17.2934C529.446 17.3115 529.446 17.3115 528.544 17.2128C528.19 17.1742 527.791 17.2297 527.454 17.1927C527.226 17.1681 527.03 17.1308 526.81 17.1046C526.716 17.0938 526.567 17.0924 526.45 17.0958C526.058 17.1074 525.666 17.1159 525.29 17.1369C525.024 17.1515 524.868 17.1956 524.9 17.2395C524.908 17.2567 525.096 17.2814 525.206 17.2828C525.457 17.2855 525.723 17.2631 525.966 17.2736C526.201 17.2842 526.444 17.3151 526.617 17.3493C526.971 17.4207 527.37 17.3558 527.707 17.374C528.06 17.3938 528.35 17.4559 528.688 17.4929C528.774 17.5022 528.939 17.4862 529.072 17.4813C529.456 17.4697 529.84 17.4596 530.224 17.448C530.546 17.4929 530.891 17.533 531.181 17.5842C531.708 17.6773 532.272 17.7123 532.954 17.6657C533.337 17.64 533.713 17.6487 534.02 17.7093C534.334 17.7714 534.695 17.7645 535.094 17.7513C535.462 17.7381 535.838 17.703 536.215 17.7462C537.031 17.8419 537.039 17.8466 538.002 17.8073C538.292 17.7959 538.511 17.7924 538.731 17.828C538.935 17.8605 539.155 17.8884 539.367 17.9193C539.751 17.9077 540.143 17.8961 540.527 17.8829C541.02 17.8648 541.295 17.8862 541.413 17.9737C541.484 18.0269 541.516 18.0754 541.689 18.1111C541.894 18.1546 542.113 18.1527 542.411 18.1396C542.693 18.1282 542.896 18.1106 543.013 18.054C543.06 18.0304 543.154 18.0083 543.24 17.9894C543.31 17.9751 543.419 17.953 543.482 17.9561C543.6 17.9621 543.757 17.9791 543.796 17.9994C544.182 18.1882 544.182 18.1898 544.575 18.244C545.007 18.3043 545.454 18.3584 545.847 18.4266C546.2 18.4871 546.552 18.4599 546.936 18.4592C547.226 18.4587 547.415 18.4991 547.392 18.5399C547.377 18.5634 547.267 18.598 547.173 18.6013C546.406 18.634 545.63 18.662 544.855 18.6853C544.761 18.6886 544.643 18.6606 544.533 18.6467C544.313 18.6188 544.117 18.5753 543.881 18.5663C543.646 18.5573 543.372 18.5813 543.114 18.5896C542.855 18.5979 542.581 18.6187 542.346 18.6066C542.111 18.5945 541.922 18.5494 541.702 18.52C541.6 18.5061 541.459 18.4859 541.373 18.4908C540.801 18.5294 540.377 18.4784 539.969 18.4102C539.882 18.3962 539.734 18.3871 539.624 18.3904C538.715 18.4186 537.814 18.4515 536.906 18.4829C536.537 18.496 536.239 18.4417 536.159 18.3494C536.119 18.2978 536.04 18.2462 536.04 18.1945C536.039 18.1006 535.607 18.0496 535.294 18.0611C534.777 18.0777 534.252 18.0911 533.743 18.1155C533.328 18.135 532.975 18.1168 532.692 18.0609C532.362 17.9973 531.986 18.0105 531.61 18.0283C531.328 18.0414 531.25 18.0932 531.267 18.2232C531.284 18.3281 531.151 18.3613 530.642 18.3794C530 18.4024 529.35 18.4255 528.7 18.4438C528.598 18.4472 528.48 18.4207 528.378 18.4068C528.158 18.379 527.962 18.3339 527.726 18.3249C527.491 18.3143 527.217 18.3383 526.959 18.3482C526.7 18.3565 526.426 18.3789 526.191 18.3683C525.956 18.3577 525.759 18.3111 525.547 18.2817C525.445 18.2678 525.319 18.2476 525.218 18.2509C524.701 18.2644 524.184 18.2841 523.667 18.3022C523.087 18.322 523.087 18.322 522.263 18.2263C521.886 18.1831 521.51 18.2182 521.142 18.2314C520.75 18.2446 520.382 18.2515 520.076 18.1894C519.871 18.149 519.644 18.1243 519.401 18.1326C518.751 18.1525 518.109 18.1771 517.458 18.197C517.349 18.2004 517.2 18.1928 517.113 18.1788C516.697 18.1138 516.289 18.0628 515.709 18.0967C515.208 18.1257 514.668 18.1282 514.166 18.1557C513.892 18.1703 513.767 18.2207 513.823 18.2597C513.854 18.2801 514.019 18.3033 514.129 18.3031C514.38 18.3042 514.654 18.2802 514.889 18.2892C515.375 18.3072 515.62 18.4383 516.254 18.4012C516.63 18.3786 517.022 18.3701 517.413 18.3632C517.515 18.3614 517.625 18.391 517.735 18.4065C518.049 18.4482 518.324 18.5026 518.778 18.4736C519.154 18.451 519.554 18.4441 519.938 18.4309C520.549 18.4094 520.549 18.411 521.341 18.5052C521.718 18.55 522.094 18.5133 522.462 18.5017C522.736 18.4934 522.995 18.4772 523.214 18.4988C523.552 18.5311 523.796 18.6059 524.211 18.6005C524.603 18.5951 524.986 18.5725 525.378 18.564C525.621 18.5588 525.849 18.5835 526.045 18.6255C526.249 18.6674 526.469 18.6858 526.735 18.676C527.119 18.6628 527.511 18.6464 527.903 18.6379C528.012 18.6362 528.138 18.65 528.24 18.6624C528.46 18.6902 528.672 18.7227 528.884 18.7521C529.267 18.7421 529.659 18.7383 530.035 18.7188C530.325 18.7042 530.529 18.7101 530.764 18.7411C531.063 18.7828 531.307 18.8576 531.792 18.8207C532.035 18.8031 532.317 18.8073 532.56 18.7912C532.857 18.7703 533.061 18.7778 533.273 18.8244C533.674 18.913 534.176 18.9137 534.692 18.8784C535.256 18.8398 535.68 18.8829 536.104 18.9511C536.552 19.0224 536.552 19.0208 536.898 19.1941C537.001 19.2441 537.291 19.2671 537.534 19.2573C537.941 19.2409 538.294 19.2481 538.593 19.3071C538.907 19.3708 539.283 19.3623 539.667 19.3444C540.176 19.32 540.685 19.2988 541.101 19.3889C541.306 19.4324 541.525 19.443 541.8 19.4316C542.575 19.402 543.358 19.3834 544.118 19.3477C544.58 19.3249 544.847 19.3746 545.161 19.4163C545.585 19.4736 546.048 19.5245 546.05 19.6482C546.05 19.6686 546.16 19.6919 546.254 19.7074C546.458 19.7399 546.678 19.7678 546.89 19.7987C547.204 19.8452 547.51 19.8838 547.941 19.858C548.317 19.837 548.717 19.83 549.1 19.8152C549.484 19.8005 549.837 19.792 550.182 19.851C550.583 19.9176 551.007 19.9811 551.462 20.0305C551.784 20.066 552.206 20.0041 552.552 20.0521C552.764 20.0815 552.968 20.1156 553.195 20.1403C553.289 20.1511 553.438 20.143 553.564 20.1396C553.822 20.1329 554.089 20.1278 554.339 20.1117C554.629 20.0939 554.848 20.0967 555.068 20.1323C555.272 20.1649 555.477 20.2099 555.712 20.2189C556.065 20.2324 556.456 20.1691 556.809 20.2405C556.99 20.2762 557.218 20.3103 557.453 20.3209C557.688 20.3314 557.962 20.3075 558.213 20.3086C558.323 20.3084 558.456 20.3332 558.519 20.3535C558.558 20.3644 558.504 20.3942 558.449 20.41C558.379 20.4289 558.278 20.4542 558.176 20.4575C557.4 20.487 556.625 20.5119 555.849 20.5399C555.387 20.5563 555.387 20.5563 554.453 20.4592C554.233 20.4361 553.99 20.4412 553.716 20.4527C553.348 20.4674 552.972 20.4947 552.588 20.4672C552.085 20.3615 551.466 20.3532 550.808 20.3951C550.534 20.4128 550.283 20.4132 550.079 20.3838C549.647 20.325 549.192 20.271 548.807 20.2012C548.509 20.1468 548.368 20.1424 548.243 20.2178C548.204 20.2414 548.165 20.2665 548.174 20.2884C548.222 20.3667 548.309 20.4433 548.357 20.5215C548.373 20.5434 548.31 20.5686 548.271 20.5922C548.147 20.6582 547.982 20.6538 547.707 20.5994C547.432 20.545 547.103 20.5096 546.664 20.5354C546.288 20.558 545.881 20.5556 545.505 20.5797C544.925 20.6152 544.517 20.5658 544.101 20.4991C544.015 20.4852 543.866 20.4776 543.756 20.4809C542.589 20.519 541.429 20.5617 540.262 20.5998C540.011 20.6081 539.784 20.585 539.587 20.543C539.383 20.5011 539.155 20.4795 538.905 20.4878C537.871 20.5225 536.837 20.554 535.803 20.5966C535.38 20.6145 535.043 20.5947 534.752 20.5404C534.532 20.5001 534.328 20.4879 534.054 20.4931C533.756 20.4983 533.545 20.5143 533.396 20.56C533.256 20.6041 533.358 20.6306 533.672 20.6645C534.009 20.7015 534.323 20.7495 534.645 20.7928C534.904 20.7861 535.162 20.7731 535.413 20.7743C535.523 20.7741 535.625 20.8021 535.735 20.8176C536.049 20.8625 536.339 20.9074 536.786 20.8816C537.162 20.859 537.561 20.8536 537.945 20.8388C538.478 20.8206 538.478 20.8207 539.341 20.9178C539.561 20.9425 539.796 20.9405 540.078 20.926C540.321 20.9146 540.572 20.9361 540.745 20.9828C540.815 21.0014 540.792 21.0328 540.645 21.1365C540.646 21.2132 540.81 21.1785 540.864 21.1283C540.949 21.056 540.784 21.0328 540.471 21.0725C540.252 21.1011 540.143 21.1421 540.198 21.1749C540.23 21.192 540.379 21.2137 540.645 21.1365C541.333 21.0413 541.858 21.0294 542.359 21.0035C542.657 20.9889 542.845 20.9948 543.081 21.0351C543.363 21.0832 543.646 21.1344 544.108 21.1085C544.61 21.0795 545.142 21.0754 545.651 21.051C546.121 21.0283 546.365 21.0968 546.664 21.137C547.025 21.1849 547.424 21.1294 547.753 21.157C548.098 21.1846 548.342 21.2531 548.742 21.265C549.321 21.2217 549.691 21.2994 550.13 21.3503C550.475 21.3889 550.882 21.3537 551.25 21.3358C551.666 21.3163 552.011 21.333 552.301 21.3888C552.631 21.4525 553 21.4378 553.376 21.423C554.253 21.3902 554.284 21.3854 554.795 21.4707C555.164 21.5327 555.516 21.5039 555.884 21.4954C556.206 21.5372 556.52 21.582 556.858 21.619C556.944 21.6283 557.108 21.6124 557.241 21.6074C557.625 21.5942 558.017 21.581 558.401 21.5678C558.659 21.5595 558.933 21.5356 559.168 21.5445C559.404 21.5551 559.6 21.6002 559.812 21.6296C560.024 21.659 560.244 21.6884 560.448 21.7194C560.762 21.7658 561.06 21.8045 561.499 21.7802C561.875 21.7592 562.267 21.7522 562.658 21.7375C563.152 21.7194 563.136 21.7241 564.054 21.8165C564.549 21.8673 565.057 21.8038 565.559 21.7967C565.809 21.7931 566.053 21.8099 566.226 21.855C566.296 21.8737 566.273 21.9051 566.297 21.9317C565.005 21.9762 563.704 22.0145 562.427 22.0684C561.934 22.0896 561.675 22.0337 561.408 21.9871C560.968 21.9127 560.389 22.0234 559.973 21.927C559.721 21.8694 559.36 21.8372 558.929 21.8661C558.679 21.8822 558.412 21.8811 558.154 21.8957C557.496 21.9313 556.893 21.9339 556.366 21.8267C556.186 21.7894 555.927 21.7695 555.738 21.7338C555.518 21.695 555.306 21.6734 555.048 21.6817C553.881 21.7213 552.721 21.7609 551.562 21.8037C551.46 21.807 551.358 21.8307 551.272 21.8481C551.054 21.8923 551.124 21.9267 551.477 21.9542C551.595 21.9634 551.69 21.9836 551.799 21.9991C552.011 22.0285 552.208 22.0752 552.443 22.0857C552.678 22.0963 552.953 22.0739 553.211 22.0656C553.47 22.0573 553.744 22.0333 553.979 22.0423C554.214 22.0529 554.41 22.098 554.63 22.1258C554.732 22.1397 554.858 22.163 554.96 22.1613C555.477 22.151 555.986 22.1328 556.503 22.1178C556.825 22.1596 557.1 22.2202 557.484 22.2336C557.727 22.2426 557.986 22.2249 558.236 22.2276C558.346 22.229 558.487 22.2523 558.543 22.2725C558.574 22.285 558.473 22.3165 558.394 22.3323C558.097 22.3924 557.69 22.3821 557.322 22.4015C556.922 22.4226 556.562 22.417 556.255 22.3564C556.051 22.316 555.823 22.2945 555.573 22.3028C554.922 22.3243 554.28 22.3489 553.63 22.3672C553.52 22.3706 553.387 22.3567 553.285 22.3459C552.461 22.2518 552.461 22.2486 551.881 22.27C551.027 22.3012 551.027 22.3012 550.454 22.2192C550.344 22.2037 550.226 22.1742 550.132 22.1759C549.224 22.2026 548.323 22.2292 547.422 22.2668C547.124 22.2782 546.92 22.2786 546.701 22.2383C546.512 22.2041 546.292 22.1653 546.057 22.1563C545.814 22.1474 545.548 22.1713 545.289 22.1796C545.031 22.1879 544.757 22.2087 544.529 22.1966C544.294 22.1845 544.09 22.141 543.885 22.11C543.673 22.0775 543.446 22.0794 543.156 22.0924C542.263 22.13 542.255 22.1253 541.369 22.0297C541.267 22.019 541.133 22.0067 541.024 22.01C540.373 22.0299 539.731 22.0545 539.081 22.0745C538.83 22.0827 538.587 22.0628 538.414 22.0176C538.343 21.999 538.367 21.9676 538.319 21.9066C538.264 21.8926 538.327 21.9175 538.343 21.941C538.46 21.9377 538.601 21.9405 538.687 21.9279C538.906 21.8977 539.016 21.8584 538.96 21.8256C538.929 21.8084 538.78 21.7867 538.686 21.7869C538.513 21.7872 538.365 21.8219 538.319 21.9066C537.826 21.9591 537.301 21.971 536.791 21.997C536.494 22.0131 536.306 22.0056 536.07 21.9653C535.787 21.9157 535.497 21.8676 535.035 21.8935C534.533 21.9225 534.001 21.9282 533.484 21.951C532.888 21.9771 532.628 21.8366 532.127 21.8406C531.609 21.8446 531.092 21.8721 530.575 21.8918C530.121 21.9083 530.121 21.9083 529.179 21.8081C528.834 21.7711 528.427 21.8266 528.09 21.788C527.862 21.7634 527.666 21.7261 527.446 21.6999C527.352 21.6891 527.203 21.6893 527.086 21.6926C526.435 21.7126 525.777 21.7263 525.151 21.7618C524.438 21.8038 523.897 21.7608 523.386 21.6693C522.744 21.6877 522.094 21.6982 521.459 21.729C520.997 21.7518 520.73 21.7006 520.416 21.6588C520.306 21.6449 520.212 21.6215 520.094 21.6155C519.977 21.6094 519.835 21.6222 519.71 21.6271C519.193 21.6452 518.66 21.654 518.159 21.6831C517.54 21.7202 517.304 21.5921 516.825 21.5773C516.505 21.6546 516.334 21.7599 515.699 21.7688C515.182 21.776 514.665 21.8019 514.148 21.8201C513.89 21.8283 513.631 21.8382 513.373 21.8465C512.957 21.8613 512.762 21.9227 512.85 22.0166C512.897 22.0682 512.937 22.1198 512.977 22.1714C513.056 22.2637 512.861 22.3424 512.532 22.3539C511.624 22.3853 510.723 22.4182 509.814 22.4464C509.571 22.4546 509.336 22.4284 509.139 22.3865C508.935 22.3445 508.708 22.3261 508.457 22.3344C507.548 22.3657 506.647 22.3986 505.739 22.4268C505.637 22.4301 505.503 22.4147 505.401 22.4023C505.182 22.3745 504.97 22.342 504.758 22.3126C504.241 22.3276 503.731 22.3379 503.222 22.3576C502.4 22.3872 502.4 22.3888 501.795 22.3036C501.685 22.2882 501.575 22.2586 501.473 22.2603C501.082 22.2673 500.698 22.2836 500.306 22.2984C499.155 22.3411 499.154 22.3411 498.817 22.2947C498.511 22.2514 498.236 22.1986 497.774 22.2245C497.272 22.2535 496.74 22.2639 496.223 22.2804C495.839 22.292 495.455 22.3053 495.071 22.3091C494.969 22.3108 494.859 22.2812 494.749 22.2657C494.435 22.2177 494.129 22.1791 493.698 22.2065C493.448 22.2226 493.181 22.2262 492.923 22.2344C492.249 22.2576 492.249 22.2575 491.143 22.1655C491.033 22.1563 490.9 22.1455 490.79 22.1504C489.881 22.1802 488.98 22.2131 488.072 22.2413C487.962 22.2446 487.829 22.2354 487.719 22.2278C486.48 22.1391 486.48 22.1391 485.164 22.1852C484.662 22.2018 484.647 22.2081 484.12 22.126C483.885 22.0903 483.689 22.0734 483.415 22.0849C482.381 22.1243 481.339 22.1512 480.313 22.1968C479.85 22.2164 479.583 22.1699 479.269 22.1281C479.16 22.1142 479.042 22.0831 478.948 22.0848C477.914 22.1164 476.879 22.1542 475.845 22.1858C475.751 22.189 475.633 22.1579 475.523 22.144C475.312 22.1162 475.107 22.0742 474.872 22.0652C474.629 22.0563 474.363 22.0802 474.096 22.0885C473.446 22.11 473.446 22.1085 472.693 22.0173C472.591 22.005 472.457 21.988 472.355 21.9913C471.321 22.0244 470.279 22.0529 469.253 22.1001C468.666 22.1261 468.266 22.0814 467.849 22.0163C467.763 22.0024 467.614 21.9964 467.504 21.9997C466.337 22.0378 465.178 22.0805 464.011 22.1186C463.768 22.1268 463.532 22.1006 463.336 22.0602C463.022 21.9965 462.653 22.005 462.262 22.0198C461.361 22.0542 461.353 22.0527 460.819 21.9784C460.709 21.9629 460.615 21.9427 460.497 21.9351C460.388 21.9275 460.247 21.9324 460.129 21.9357C459.612 21.9523 459.095 21.9704 458.578 21.9885C458.061 22.0067 457.536 22.017 457.027 22.0445C456.4 22.0785 456.101 21.9772 455.662 21.9309C455.019 21.9524 454.361 21.9661 453.727 22.0001C453.241 22.026 453.013 21.9575 452.692 21.922C452.582 21.9097 452.464 21.8832 452.362 21.8865C451.195 21.923 450.027 21.9627 448.868 22.007C448.586 22.0169 448.398 22.0046 448.162 21.9675C447.636 21.8838 447.613 21.887 446.735 21.9198C446.352 21.9346 445.983 21.9478 445.653 21.8841C445.363 21.8266 445.01 21.8131 444.595 21.8326C444.086 21.857 443.561 21.8705 443.044 21.8871C442.527 21.9052 442.01 21.9296 441.493 21.9383C441.077 21.9469 440.826 21.8737 440.496 21.8366C440.394 21.8259 440.253 21.8245 440.136 21.8279C439.619 21.8429 439.086 21.8547 438.585 21.8822C437.974 21.9162 437.636 21.8306 437.204 21.7813C437.11 21.7705 436.953 21.777 436.835 21.7819C435.927 21.8117 435.026 21.8446 434.117 21.8759C433.795 21.8342 433.466 21.794 433.144 21.7523C432.627 21.7688 432.11 21.787 431.593 21.8035C431.201 21.8167 430.802 21.8221 430.433 21.8463C429.956 21.8784 429.72 21.8052 429.398 21.7697C429.288 21.7574 429.17 21.731 429.068 21.7343C428.418 21.7526 427.768 21.7726 427.126 21.8003C426.515 21.828 426.27 21.6874 425.769 21.6899C425.251 21.6923 424.719 21.7136 424.218 21.7427C423.638 21.7766 423.23 21.7272 422.814 21.6605C422.727 21.6466 422.578 21.639 422.469 21.6423C421.818 21.6623 421.176 21.6869 420.526 21.7068C420.416 21.7101 420.283 21.7025 420.173 21.6933C418.934 21.603 418.934 21.6015 418.393 21.6212C418.009 21.6344 417.618 21.6508 417.226 21.6593C417.116 21.6626 416.983 21.6487 416.881 21.6364C416.064 21.5422 416.064 21.5406 415.477 21.5605C414.96 21.5786 414.443 21.5967 413.926 21.6149C413.604 21.5731 413.274 21.533 412.953 21.4912C412.31 21.5127 411.652 21.5295 411.018 21.5588C410.72 21.5718 410.524 21.5675 410.296 21.5287C410.014 21.4822 409.731 21.4279 409.261 21.4553C408.76 21.4844 408.227 21.4884 407.718 21.5128C407.107 21.5421 406.854 21.4 406.361 21.4024C405.843 21.4049 405.311 21.4261 404.81 21.4552C404.23 21.4891 403.822 21.4397 403.406 21.3731C403.319 21.3591 403.17 21.3515 403.061 21.3549C401.635 21.4028 400.217 21.4506 398.791 21.5017C397.914 21.533 397.914 21.5345 396.244 21.4513C396.126 21.4452 396 21.4392 395.883 21.4425C395.366 21.4575 394.833 21.4694 394.332 21.4969C393.721 21.5309 393.383 21.4468 392.951 21.3959C392.857 21.3851 392.708 21.3916 392.583 21.395C392.191 21.4066 391.807 21.4214 391.416 21.4346C390.899 21.4527 390.382 21.4709 389.865 21.489C389.543 21.4488 389.213 21.4071 388.891 21.3669C388.249 21.3884 387.591 21.4005 386.957 21.4345C386.471 21.4604 386.243 21.395 385.921 21.358C385.811 21.3456 385.693 21.3192 385.592 21.3209C384.424 21.3574 383.257 21.3955 382.098 21.4414C381.62 21.461 381.4 21.3909 381.078 21.3554C380.968 21.3446 380.842 21.3245 380.741 21.3278C379.965 21.3511 379.189 21.379 378.414 21.407C377.975 21.4234 377.975 21.4234 377.018 21.328C376.908 21.3172 376.783 21.3065 376.673 21.3098C374.213 21.3924 371.761 21.4797 369.301 21.5623C369.051 21.5705 368.823 21.5474 368.627 21.5055C368.422 21.4635 368.195 21.442 367.944 21.4503C366.91 21.485 365.868 21.5165 364.842 21.559C364.419 21.577 364.082 21.5572 363.791 21.5029C363.571 21.4625 363.367 21.4472 363.093 21.4571C362.576 21.4768 362.059 21.4934 361.542 21.5115C361.025 21.5296 360.508 21.5478 359.991 21.5659C359.474 21.584 358.949 21.5943 358.44 21.6218C357.813 21.6558 357.507 21.5592 357.075 21.5114C356.299 21.5363 355.524 21.5611 354.756 21.5875C353.722 21.6222 352.688 21.66 351.654 21.6932C351.56 21.6964 351.442 21.6685 351.332 21.6545C351.01 21.6159 350.775 21.5615 350.297 21.5796C347.978 21.6666 345.644 21.7412 343.317 21.8267C342.831 21.8448 342.619 21.7778 342.289 21.7423C342.179 21.7315 342.054 21.7098 341.952 21.7131C340.659 21.7545 339.367 21.8006 338.074 21.8452C337.549 21.8633 337.549 21.8633 336.671 21.7677C336.569 21.7569 336.435 21.743 336.325 21.7464C334.641 21.8026 332.965 21.8619 331.28 21.9196C331.03 21.9279 330.802 21.9064 330.598 21.8644C330.402 21.8225 330.166 21.7994 329.923 21.8076C328.372 21.8604 326.813 21.9117 325.27 21.9692C324.855 21.9856 324.51 21.9721 324.211 21.9162C323.999 21.8759 323.788 21.859 323.521 21.8689C321.195 21.9497 318.868 22.0273 316.541 22.1128C316.095 22.1293 315.781 22.1001 315.498 22.0488C315.271 22.0085 315.074 22.001 314.792 22.0078C314.495 22.0161 314.315 22.0337 314.151 22.0809C313.94 22.1424 313.808 22.2194 313.306 22.225C312.789 22.2306 312.264 22.2503 311.755 22.2778C311.269 22.3053 311.041 22.2352 310.735 22.1934C310.507 22.164 310.296 22.1597 310.006 22.1743C309.74 22.1873 309.576 22.2142 309.419 22.2646C309.076 22.3717 309.045 22.3718 308.621 22.3052C308.393 22.2695 308.189 22.2417 307.938 22.2484C306.904 22.2815 305.87 22.3178 304.836 22.3556C304.24 22.377 304.233 22.3801 303.785 22.3026C303.565 22.2638 303.353 22.2454 303.095 22.2552C300.251 22.3542 297.408 22.45 294.564 22.5536C294.125 22.57 293.827 22.5376 293.513 22.4912C293.411 22.4757 293.309 22.4539 293.191 22.4479C293.074 22.4418 292.94 22.4483 292.815 22.4517C290.747 22.5226 288.671 22.5904 286.611 22.6692C286.141 22.6873 285.889 22.6376 285.568 22.5974C285.458 22.5835 285.363 22.5617 285.246 22.5557C285.128 22.5512 284.987 22.5624 284.862 22.5673C282.794 22.6382 280.718 22.7061 278.658 22.7849C278.164 22.8029 277.952 22.7375 277.63 22.7036C277.52 22.6913 277.402 22.668 277.3 22.6713C276.65 22.6896 276.008 22.7142 275.358 22.7357C273.807 22.7901 272.255 22.8414 270.704 22.8974C270.109 22.9188 269.849 22.7798 269.347 22.7869C268.697 22.7959 268.055 22.8283 267.404 22.8514C266.887 22.8695 266.37 22.8861 265.853 22.9058C265.344 22.9239 265.344 22.9239 264.073 22.8352C263.964 22.8276 263.83 22.8168 263.721 22.8202C261.911 22.8813 260.094 22.9424 258.292 23.0082C257.877 23.023 257.532 23.0158 257.233 22.9583C257.021 22.918 256.802 22.898 256.543 22.9078C253.825 23.0018 251.114 23.0958 248.396 23.1883C248.294 23.1916 248.161 23.1762 248.059 23.1638C247.839 23.136 247.627 23.1035 247.415 23.0741C247.259 23.1104 247.055 23.1436 246.954 23.1845C246.814 23.2396 246.626 23.2556 246.328 23.2655C246.03 23.2754 245.842 23.2726 245.607 23.2323C245.324 23.1826 245.033 23.144 244.571 23.1604C241.728 23.2641 238.884 23.3583 236.04 23.4604C235.57 23.4769 235.35 23.4083 235.02 23.3728C234.911 23.3621 234.785 23.3451 234.683 23.3484C233.516 23.3864 232.356 23.4276 231.189 23.4672C227.954 23.5794 224.719 23.6868 221.491 23.8052C220.904 23.8266 220.503 23.7881 220.087 23.7215C220.001 23.7075 219.852 23.7 219.742 23.7033C215.214 23.8584 210.686 24.0151 206.166 24.1717C205.924 24.18 205.688 24.1553 205.492 24.115C205.287 24.073 205.06 24.053 204.809 24.0613C202.741 24.1323 200.673 24.2032 198.605 24.2757C198.088 24.2939 198.08 24.2954 197.546 24.2212C197.436 24.2057 197.319 24.1761 197.232 24.1794C197.052 24.1876 196.88 24.227 196.755 24.2805C196.631 24.3371 196.435 24.3531 196.145 24.3646C195.847 24.3761 195.652 24.3717 195.424 24.3345C195.133 24.288 194.866 24.2431 194.396 24.2595C188.451 24.4704 182.505 24.6734 176.559 24.8827C176.081 24.8992 175.861 24.8338 175.531 24.7983C175.421 24.7875 175.312 24.772 175.194 24.7691C175.068 24.7662 174.935 24.7758 174.81 24.7807C165.112 25.1156 155.414 25.452 145.716 25.7869C145.136 25.8067 145.144 25.8067 144.511 25.9519C144.433 25.9692 144.331 25.9929 144.221 25.9962C141.252 26.1016 138.276 26.2039 135.299 26.3062C134.006 26.3508 132.714 26.3969 131.421 26.4399C130.959 26.4548 130.959 26.4548 129.856 26.6259C129.762 26.6401 129.652 26.6591 129.543 26.6625C124.373 26.8422 119.202 27.0219 114.024 27.1985C113.617 27.2118 113.288 27.2405 113.101 27.3161C112.968 27.3696 112.796 27.4012 112.538 27.411C108.919 27.5364 105.3 27.6633 101.673 27.7855C101.242 27.8004 100.983 27.8447 100.773 27.9108C100.702 27.9329 100.64 27.9581 100.538 27.9739C100.444 27.9882 100.303 27.9931 100.186 27.998C97.0838 28.1052 93.9818 28.2156 90.8717 28.3181C90.4095 28.333 90.2221 28.3913 89.9955 28.4528C89.9174 28.4733 89.8629 28.5016 89.7611 28.5159C89.6594 28.5286 89.5105 28.5288 89.3852 28.5322C86.8001 28.6213 84.215 28.7119 81.6299 28.801C81.1282 28.794 81.0196 28.8851 80.7773 28.9403C80.6913 28.9593 80.629 28.9844 80.5273 28.9972C80.4178 29.0099 80.2765 29.0085 80.1433 29.0119C78.0752 29.0829 76.0072 29.1585 73.9312 29.2248C73.4533 29.2397 73.3602 29.3198 73.1023 29.375C73.0163 29.3924 72.9305 29.4192 72.8287 29.4241C71.5362 29.4718 70.2436 29.5163 68.951 29.5593C68.5202 29.5741 68.5201 29.5726 67.7619 29.729C67.6759 29.7464 67.5741 29.7653 67.4645 29.7702C65.5296 29.8394 63.5868 29.9054 61.6441 29.973C61.3934 29.9813 61.2215 30.0192 61.0967 30.0727C60.972 30.1261 60.7922 30.1609 60.5415 30.1692C58.9905 30.2236 57.4393 30.2795 55.8881 30.3292C55.4573 30.3425 55.1757 30.3822 54.9885 30.453C54.848 30.5065 54.676 30.5334 54.4018 30.5433C52.8507 30.5961 51.2997 30.6536 49.7407 30.7002C49.2863 30.7135 49.0518 30.7672 48.8645 30.8333C48.7162 30.8868 48.544 30.9059 48.2542 30.9158C45.4105 31.0116 42.5591 31.1074 39.7234 31.2126C39.2455 31.2307 39.0019 31.1763 38.6879 31.1377C38.2406 31.0836 37.8246 31.0248 37.8231 30.9026C37.8229 30.8838 37.6894 30.8621 37.5951 30.8466C36.8962 30.7303 36.8962 30.7303 36.7849 30.6052C36.7213 30.5285 36.6498 30.4503 36.594 30.3721C36.4906 30.2438 36.2393 30.2114 35.5186 30.2361C35.2601 30.2444 35.0016 30.2558 34.7431 30.2625C34.3592 30.2741 34.0686 30.223 33.997 30.1291C33.9571 30.0775 33.9096 30.0258 33.8697 29.9742C34.2614 29.961 34.2535 29.9595 34.9408 29.7687C35.2298 29.6883 35.2299 29.6883 34.6725 29.6094C34.4606 29.58 34.2564 29.5474 34.0288 29.5196C33.9267 29.5073 33.7935 29.4997 33.6838 29.503C33.0335 29.5229 32.3912 29.546 31.7489 29.569C30.7148 29.6053 30.7147 29.6053 29.6626 29.4473C29.5762 29.4349 29.4427 29.4117 29.4582 29.3991C29.5437 29.341 29.755 29.3155 30.0214 29.3088C30.4131 29.2987 30.7969 29.2824 31.1808 29.2692C31.4393 29.2609 31.6978 29.2511 31.9563 29.2428C32.1985 29.1829 32.4487 29.1244 32.6752 29.063C33.0346 28.9683 33.0344 28.9652 32.5399 28.9003C32.2259 28.8569 31.8884 28.8184 31.5666 28.7782C31.1828 28.7914 30.7911 28.8062 30.4073 28.8178C29.9215 28.8327 29.7252 28.8033 29.5986 28.7017C29.4878 28.6126 29.6201 28.5356 29.996 28.5162C30.3798 28.4967 30.7403 28.4835 30.9353 28.4033C31.1224 28.3262 31.4511 28.2959 31.8586 28.2889C32.1171 28.2837 32.3756 28.2723 32.6341 28.2625C32.971 28.2494 33.1503 28.1692 33.0787 28.08C33.0388 28.0221 32.9598 27.9737 32.654 27.9617C31.2975 27.9092 31.2818 27.9108 30.6065 27.8054C30.5437 27.7961 30.4965 27.768 30.5198 27.7539C30.5587 27.7303 30.6445 27.6957 30.7385 27.6908C31.6393 27.6548 32.5401 27.6219 33.4411 27.5969C33.7388 27.5885 33.9581 27.5771 34.0593 27.519C34.1994 27.4389 34.1358 27.3654 33.8608 27.311C33.7744 27.2939 33.633 27.2722 33.5389 27.274C32.5048 27.304 31.4787 27.3418 30.4446 27.3718C30.3505 27.3751 30.1779 27.3487 30.1385 27.3284C30.0596 27.291 30.1765 27.2406 30.4506 27.2229C30.8108 27.1988 31.1791 27.1966 31.4211 27.1178C31.7567 27.006 32.1708 26.9035 32.5457 26.7963C32.6081 26.7774 32.7097 26.7412 32.6861 26.7381C32.4898 26.704 32.2622 26.6777 32.058 26.6452C31.7125 26.591 31.7115 26.5142 31.789 26.4404C31.851 26.3808 32.0858 26.3569 32.3757 26.3564C32.5011 26.3562 32.6579 26.3559 32.7596 26.3416C33.0256 26.3067 33.1113 26.2627 32.9777 26.23C32.8991 26.2113 32.7578 26.185 32.6638 26.1883C30.9873 26.2429 29.3029 26.2959 27.6344 26.363C27.1409 26.3827 26.9131 26.3236 26.6147 26.2818C26.3871 26.2493 26.1752 26.2371 25.8934 26.2611C25.6272 26.2835 25.3685 26.2714 25.2033 26.22C25.0695 26.1779 25.3042 26.1415 25.9385 26.0997C26.0559 26.0916 26.189 26.0867 26.275 26.0709C27.1821 25.9001 27.182 25.8986 27.8087 25.8755C28.4197 25.8541 28.4198 25.8525 28.74 25.7611C28.8884 25.7186 29.0524 25.676 29.1929 25.6319C29.2475 25.6145 29.3413 25.583 29.3099 25.5737C29.1368 25.5254 28.9015 25.5149 28.6274 25.5263C28.0164 25.554 27.2953 25.5333 26.9758 25.6827C26.8511 25.7393 26.6553 25.7553 26.3733 25.7652C23.5375 25.861 20.7016 25.9631 17.8579 26.0557C17.3957 26.0706 17.1849 26.129 17.0055 26.1935C16.8494 26.247 16.6771 26.263 16.3794 26.2729C16.0818 26.2828 15.8466 26.2879 15.6736 26.2365C15.5713 26.2054 15.657 26.1614 15.8916 26.1171C16.2278 26.0539 16.1641 25.9756 16.0535 25.9022C15.9745 25.8538 15.7312 25.8197 15.4726 25.8233C15.0887 25.8302 14.7206 25.8481 14.3986 25.786C14.21 25.7503 13.9746 25.7256 13.7626 25.6947C13.3543 25.6311 12.946 25.5661 12.3744 25.6094C11.9824 25.5944 11.7074 25.5385 11.3934 25.4951C10.8674 25.424 10.8203 25.4131 11.1955 25.3357C11.6177 25.2488 11.2871 25.1366 11.5212 25.0516C11.7708 24.9603 12.1148 24.8798 12.4194 24.7947C12.4975 24.7726 12.5678 24.7521 12.6459 24.73C12.4653 24.699 12.3003 24.6601 12.0884 24.6386C11.8138 24.6108 11.6723 24.5766 11.6868 24.4795C11.6317 24.4655 11.6555 24.5014 11.7183 24.5107C11.789 24.52 11.9614 24.5119 12.0475 24.5008C12.2666 24.4706 12.3757 24.4313 12.3204 24.3985C12.2889 24.3813 12.1398 24.3596 12.0458 24.3598C11.8734 24.3601 11.7249 24.3948 11.6789 24.4795C10.802 24.5452 9.89313 24.5782 8.98436 24.6048C8.89036 24.6081 8.7725 24.577 8.66259 24.5615C8.30144 24.5088 8.30142 24.5104 7.24325 24.4966C7.13352 24.4952 6.98443 24.4735 6.9293 24.4517C6.70087 24.3565 6.70749 24.2515 6.59653 24.1499C6.79949 24.0838 7.0023 24.0192 7.21311 23.9546C7.63472 23.8238 8.18203 23.7085 8.50944 23.5654C8.43797 23.4888 8.34298 23.4122 8.68704 23.3489C9.66569 23.2689 9.65792 23.2689 9.92345 23.1932C10.681 22.9788 11.4307 22.7629 12.2197 22.5516C12.4306 22.4964 12.4303 22.4667 12.0538 22.4438C11.9362 22.4378 11.8106 22.4364 11.6853 22.4398C11.2935 22.4514 10.9021 22.4803 10.518 22.4747C10.1339 22.4706 9.85094 22.4022 9.53695 22.3604C9.21511 22.3171 8.89326 22.2723 8.57139 22.2274C8.20312 22.2327 7.83539 22.2772 7.4662 22.2074C7.18341 22.153 6.83029 22.1145 6.50843 22.0696C6.74992 21.9501 7.20342 21.8585 7.5548 21.7529C7.87495 21.6568 7.88263 21.6584 8.74378 21.5832C9.15088 21.5481 9.28979 21.3708 8.94434 21.3197C8.52823 21.2577 8.08875 21.2005 7.66483 21.1417C7.29656 21.1471 6.92098 21.19 6.56746 21.1202C6.29252 21.0674 5.97855 21.0319 5.52426 21.053C4.75667 21.0888 3.97322 21.1074 3.19771 21.137C2.93137 21.1468 2.64125 21.1411 2.52305 21.088C2.44422 21.0506 2.67087 20.9985 2.92936 20.987C3.32101 20.9707 3.6734 20.9513 3.86837 20.8726C4.0555 20.794 4.39999 20.7699 4.80738 20.7582C4.91705 20.7549 5.04231 20.7358 5.09694 20.7169C5.37796 20.6256 5.6905 20.5467 6.29397 20.5488C6.54437 20.5171 6.67704 20.4776 6.59821 20.4402C6.55094 20.4199 6.38613 20.3936 6.29212 20.3969C5.64185 20.4137 4.99161 20.4305 4.35717 20.4598C4.05952 20.4728 3.83217 20.4763 3.64351 20.4297C3.5099 20.3986 3.57991 20.3561 3.83014 20.3103C4.04909 20.2707 4.1113 20.2252 4.09498 20.1719C4.05429 20.0483 3.8187 20.0126 3.06645 20.0218C2.52579 20.029 2.39231 20.0088 2.27346 19.9025C2.2418 19.8775 2.16315 19.8432 2.2178 19.8259C2.55349 19.7187 2.77133 19.5868 3.4055 19.5355C3.65606 19.5163 3.9224 19.5158 4.07864 19.4748C4.23488 19.4338 4.37544 19.3866 4.53954 19.3471C4.74272 19.2998 4.88312 19.2557 4.78871 19.2261C4.63133 19.1731 4.38057 19.1688 4.09084 19.1881C3.84025 19.2042 3.57382 19.2063 3.31532 19.2161C2.85316 19.2341 2.47658 19.1941 2.42088 19.1252C2.26976 18.9438 2.11079 18.7639 1.97535 18.5824C1.95941 18.5605 1.99814 18.5322 2.0606 18.5133C2.27923 18.4471 2.51367 18.3841 2.74015 18.3194C3.00571 18.2454 3.42914 18.2587 3.78947 18.244C4.29861 18.2227 4.29846 18.2243 4.97843 18.0727C5.24416 18.0127 5.70684 18.0354 5.98048 17.9817C6.06648 17.9643 6.19936 17.9359 6.17566 17.9203C6.14406 17.9 5.98722 17.8846 5.86955 17.8754C5.75972 17.8661 5.62647 17.8617 5.50897 17.8666C4.08322 17.9145 2.66538 17.9655 1.23961 18.0119C0.996759 18.0201 0.729879 17.9861 0.643081 17.9377C0.556323 17.8924 0.579088 17.8375 0.562785 17.7859C0.789271 17.7212 1.04706 17.6613 1.24214 17.592C1.3904 17.5385 1.56255 17.5147 1.86031 17.511C2.2521 17.5056 2.63591 17.4862 3.0746 17.4713C3.88685 17.2412 4.68324 17.0001 5.55818 16.7699C5.90971 16.6768 5.8225 16.583 5.89183 16.4842C5.96125 16.3932 6.48646 16.4064 6.83879 16.3791C7.12065 16.3567 7.21396 16.3064 7.10383 16.2722C7.04088 16.2519 6.89961 16.2286 6.7899 16.2288C6.53128 16.2293 6.27284 16.2438 6.01432 16.2521C5.7558 16.2604 5.45796 16.2562 5.24669 16.2832C5.04324 16.3086 4.91058 16.3621 4.77791 16.4078C4.62962 16.4582 4.43405 16.4757 4.13628 16.4794C3.75232 16.4832 3.3685 16.498 2.98463 16.5096C2.5607 16.4492 2.12102 16.3905 1.71272 16.3269C1.6342 16.3145 1.618 16.2785 1.62555 16.255C1.64048 16.1939 1.5225 16.1565 1.26352 16.1272C1.04378 16.1025 0.863082 16.0668 0.658942 16.0358C0.815164 15.9932 0.98714 15.9522 1.11198 15.9066C1.3851 15.8105 1.72912 15.741 2.32476 15.7431C2.55912 15.6816 2.74624 15.6061 3.05136 15.5633C3.34083 15.522 3.83507 15.5619 4.05337 15.4691C4.16253 15.4235 4.32657 15.3715 4.53794 15.3523C4.87456 15.322 5.31361 15.3369 5.50846 15.2488C5.6254 15.1985 5.79719 15.1527 6.0243 15.1398C6.28275 15.1253 6.54909 15.1217 6.73682 15.0916C6.83851 15.0757 6.94793 15.0505 6.94766 15.0285C6.94749 15.0144 6.79061 14.9928 6.68078 14.9836C6.57877 14.9728 6.44529 14.9652 6.32778 14.9685C5.93605 14.9786 5.55226 14.9965 5.16053 15.0066C5.05085 15.0099 4.92537 14.9992 4.8077 14.99C4.46258 14.9655 4.48566 14.9341 4.75926 14.8773C5.03288 14.8219 5.22805 14.7511 5.45454 14.6865C5.70518 14.6751 6.01867 14.6792 6.19072 14.6492C6.48009 14.6001 6.68294 14.5293 6.9173 14.4677C7.1758 14.4579 7.4422 14.4543 7.68493 14.4367C7.78673 14.4302 7.83337 14.3957 7.91933 14.3752C8.07559 14.3357 8.20824 14.2791 8.4196 14.2599C8.76408 14.2311 9.1874 14.2414 9.39011 14.1548C9.50705 14.1045 9.68658 14.0509 9.90597 14.0474C10.5172 14.0401 10.7747 13.9535 11.0872 13.8715C11.3216 13.81 11.8235 13.8404 12.0814 13.7789C12.2533 13.7394 12.3782 13.6906 12.5502 13.6527C12.6205 13.6369 12.7693 13.6289 12.8868 13.624C13.5291 13.5993 14.1793 13.581 14.8216 13.5548C14.9235 13.5499 15.0173 13.5263 15.0954 13.5073C15.2595 13.4663 15.3606 13.4097 15.564 13.3828C15.7675 13.3558 16.0574 13.3553 16.3081 13.347C17.115 13.3221 17.1778 13.3283 17.5445 13.1945C17.841 13.0858 18.5709 13.1613 18.8123 13.0419C18.9526 12.9727 19.2104 12.9159 19.6727 12.9072C20.323 12.8951 20.9652 12.8642 21.6154 12.8427C22.1951 12.8229 22.1873 12.8229 22.8125 12.6762C23.0938 12.6099 23.5094 12.6186 23.8776 12.6054C24.2692 12.5922 24.6295 12.5728 24.8166 12.4941C25.0038 12.417 25.3482 12.3913 25.7478 12.3797C26.116 12.3681 26.5315 12.3752 26.8207 12.312C27.5242 12.1604 27.5164 12.1589 28.0099 12.1423C28.7854 12.1159 29.5609 12.0895 30.3365 12.0615C30.8535 12.0434 31.3942 12.0393 31.8796 12.004C32.232 11.9784 32.3876 11.8904 32.6141 11.8289C33.2565 11.8043 33.8988 11.7796 34.5411 11.7566C35.442 11.7237 36.3507 11.6939 37.2594 11.6626C37.6505 11.6024 37.7039 11.4707 38.3621 11.4633C38.7539 11.4595 39.1377 11.4384 39.5294 11.4252C40.1796 11.4022 40.8218 11.3728 41.4721 11.3607C41.9658 11.3521 42.0508 11.2673 42.3088 11.2136C42.3948 11.1946 42.4729 11.1679 42.5747 11.163C43.5929 11.1174 44.6429 11.1062 45.6374 11.0402C45.7392 11.0338 45.8329 11.0007 45.8561 10.9772C45.8716 10.9646 45.7381 10.9413 45.6518 10.9305C45.5497 10.9182 45.4164 10.9059 45.3067 10.9092C42.0714 11.0198 38.8361 11.1319 35.6008 11.2425C35.1464 11.2589 35.1464 11.2574 34.0435 11.4316C33.9497 11.4459 33.84 11.4617 33.7225 11.4666C33.2055 11.4863 32.6806 11.4982 32.1715 11.5226C31.7564 11.5421 31.4114 11.5239 31.1129 11.468C30.9008 11.4277 30.6812 11.4155 30.4147 11.4191C30.117 11.4243 29.9214 11.4419 29.7495 11.4845C29.5229 11.5429 29.4063 11.6182 28.9284 11.6347C26.7271 11.7059 24.5257 11.7849 22.3323 11.8608C22.0264 11.8394 21.8771 11.8068 21.955 11.7675C22.0017 11.7439 22.0954 11.7124 22.1894 11.7091C23.0902 11.6746 23.9989 11.6449 24.8998 11.612C25.0251 11.6071 25.1976 11.6099 25.2679 11.5941C25.6119 11.523 25.736 11.4084 26.3864 11.3995C26.7625 11.3941 27.1461 11.3699 27.5064 11.3474C27.6082 11.3409 27.7018 11.3079 27.7251 11.2843C27.7327 11.2718 27.607 11.2485 27.5129 11.2377C27.1675 11.1929 26.7686 11.2484 26.4234 11.2177C26.3057 11.2069 26.1408 11.1915 26.1171 11.1728C26.1012 11.1556 26.2341 11.1271 26.3279 11.1097C26.4139 11.0939 26.5312 11.0796 26.6487 11.0747C27.6828 11.0369 28.7169 10.9975 29.7511 10.9675C30.1741 10.9558 30.4714 10.9161 30.6586 10.8437C30.799 10.7902 30.971 10.7617 31.2374 10.7534C33.047 10.6923 34.8565 10.625 36.674 10.5685C37.1284 10.5552 37.3629 10.5031 37.5502 10.4354C37.6985 10.3819 37.8707 10.3628 38.1605 10.3529C40.7535 10.2669 43.3307 10.1716 45.9237 10.0888C46.4016 10.0739 46.5419 10.0062 46.7841 9.94786C46.8701 9.92735 46.9245 9.90219 47.0341 9.88947C47.1436 9.87674 47.2847 9.87805 47.4179 9.87469C49.486 9.80373 51.5542 9.72809 53.6302 9.66183C54.1159 9.64689 54.2089 9.56838 54.459 9.51312C54.545 9.49574 54.6231 9.46741 54.7249 9.46253C56.2759 9.40658 57.827 9.35376 59.378 9.29937C60.4121 9.26311 61.4461 9.22685 62.4802 9.19215C62.9894 9.1756 62.9894 9.17403 63.6772 9.02401C63.7554 9.00664 63.8649 8.98608 63.9667 8.9812C66.9435 8.87577 69.9124 8.77508 72.8892 8.67122C73.1399 8.66295 73.3197 8.62659 73.4444 8.57311C73.5692 8.51962 73.7492 8.48328 73.992 8.47503C76.3186 8.39266 78.6451 8.31186 80.9796 8.23418C81.4027 8.22092 81.6999 8.1828 81.8872 8.11198C82.0276 8.05847 82.1996 8.02998 82.466 8.02168C84.7926 7.94245 87.1193 7.8585 89.4538 7.78239C89.9003 7.76752 90.119 7.71388 90.3377 7.65083C90.4158 7.62877 90.4781 7.59262 90.5721 7.58933C91.7314 7.54345 92.8828 7.49602 94.0502 7.46423C94.5359 7.45085 94.6997 7.38477 94.8949 7.32177C95.051 7.27136 95.2311 7.25382 95.5288 7.24704C96.1791 7.23181 96.8214 7.20408 97.4559 7.17634C97.5498 7.17148 97.667 7.13681 97.6746 7.11486C97.6897 7.07411 97.5091 7.04622 97.2111 7.03263C94.109 7.13985 90.999 7.24706 87.8969 7.35428C87.3877 7.37239 87.3877 7.3724 86.6999 7.52242C86.6217 7.53979 86.5121 7.56035 86.4025 7.56524C83.4257 7.6691 80.4568 7.77138 77.48 7.87524C77.2293 7.88351 77.0495 7.91986 76.9248 7.97334C76.8 8.02682 76.6201 8.06316 76.3772 8.07142C73.5336 8.17035 70.69 8.27085 67.8385 8.36509C67.4155 8.37836 67.1182 8.41489 66.931 8.48728C66.7906 8.54079 66.6185 8.5693 66.3522 8.57759C63.6338 8.67004 60.9233 8.76716 58.1971 8.85649C57.9229 8.8648 57.7187 8.81972 57.7339 8.77739C57.7414 8.75545 57.8584 8.71923 57.9524 8.71593C59.3702 8.66178 60.7803 8.60606 62.2062 8.56442C62.6841 8.55106 62.8242 8.48188 63.0664 8.4235C63.1445 8.40299 63.207 8.37625 63.3087 8.36511C63.4183 8.35239 63.5593 8.35372 63.6925 8.35035C67.0532 8.23329 70.4139 8.11467 73.7825 8.00386C74.2682 7.98735 74.3611 7.91042 74.6113 7.85515C74.6972 7.8362 74.7753 7.80788 74.8772 7.80457C75.9112 7.76517 76.9452 7.73048 77.9793 7.69578C79.7888 7.63311 81.5984 7.57044 83.4158 7.50775C83.9407 7.48961 83.9407 7.4896 84.6129 7.34118C84.691 7.32381 84.8006 7.3017 84.9024 7.29839C89.6888 7.13186 94.4753 6.96532 99.2617 6.80036C99.5123 6.79209 99.6921 6.75575 99.8169 6.70226C99.9416 6.65035 100.121 6.61244 100.364 6.60262C106.835 6.37833 113.298 6.15405 119.768 5.9329C120.191 5.91806 120.489 5.88465 120.676 5.81069C120.808 5.7572 120.988 5.72869 121.255 5.71883C128.368 5.47306 135.481 5.2273 142.602 4.97995C147.388 4.81499 152.174 4.64689 156.961 4.48505C157.4 4.47019 157.634 4.42121 157.853 4.3566C157.923 4.33455 157.993 4.29839 158.087 4.2951C159.113 4.25415 160.139 4.21634 161.166 4.17853C161.487 4.22027 161.809 4.26045 162.131 4.30219C162.373 4.24224 162.608 4.18073 162.85 4.12078C164.401 4.07266 165.928 3.99951 167.495 3.97486C167.597 3.97312 167.707 4.00269 167.817 4.01817C168.547 4.1156 168.962 4.10704 169.423 3.97465C169.587 3.92737 169.728 3.88483 169.978 3.87656C170.754 3.84701 171.538 3.82685 172.305 3.79262C172.72 3.77467 173.065 3.78973 173.364 3.84561C173.576 3.88598 173.796 3.90284 174.054 3.89299C175.48 3.84352 176.898 3.79562 178.323 3.74301C178.425 3.7397 178.519 3.7129 178.597 3.69397C178.761 3.65295 178.902 3.60885 179.058 3.56628C179.27 3.59255 179.505 3.61251 179.678 3.64667C179.898 3.68702 180.102 3.68666 180.399 3.67518C186.087 3.47575 191.782 3.28101 197.469 3.08001C197.955 3.0635 198.167 3.12894 198.497 3.16283C198.607 3.17518 198.716 3.19064 198.834 3.19357C198.959 3.19649 199.092 3.18687 199.218 3.18195C203.487 3.03355 207.757 2.8867 212.026 2.7383C212.59 2.71852 212.59 2.71852 213.43 2.81419C213.532 2.82655 213.665 2.84042 213.775 2.83553C215.718 2.77106 217.66 2.7019 219.595 2.63587C219.846 2.62761 220.058 2.6523 220.286 2.68793C220.733 2.75766 220.764 2.75761 221.092 2.65364C221.248 2.60481 221.413 2.57474 221.671 2.56019C221.953 2.54404 222.18 2.54836 222.4 2.57618C222.714 2.6148 222.942 2.68019 223.42 2.66213C225.488 2.58491 227.564 2.52022 229.624 2.44144C230.094 2.4234 230.346 2.47622 230.66 2.51484C230.77 2.52875 230.872 2.55051 230.989 2.555C231.107 2.5595 231.248 2.54828 231.373 2.54336C233.958 2.45428 236.551 2.36676 239.128 2.27143C239.614 2.25335 239.827 2.32033 240.156 2.35423C240.266 2.36657 240.392 2.3883 240.493 2.38499C242.045 2.33373 243.604 2.27931 245.155 2.22492C245.711 2.20516 245.711 2.20672 246.558 2.30082C246.66 2.31317 246.794 2.32548 246.904 2.32215C248.713 2.26105 250.531 2.19836 252.34 2.13569C252.896 2.11593 252.896 2.11593 254.504 2.1946C254.621 2.20067 254.747 2.20986 254.864 2.20652C256.933 2.13557 259.008 2.06616 261.077 1.99051C261.492 1.97569 261.837 1.98762 262.135 2.0435C262.347 2.08386 262.567 2.10072 262.825 2.09088C265.152 2.01008 267.487 1.9324 269.805 1.84691C270.252 1.83047 270.542 1.86442 270.856 1.9093C270.958 1.92479 271.06 1.94655 271.178 1.95261C271.296 1.95868 271.429 1.95217 271.554 1.94726C273.881 1.86646 276.215 1.79034 278.534 1.70329C279.004 1.68524 279.255 1.73807 279.569 1.77669C279.679 1.7906 279.797 1.81859 279.891 1.81686C280.8 1.78865 281.709 1.76359 282.609 1.72286C283.095 1.70008 283.308 1.77177 283.637 1.80566C283.747 1.81643 283.873 1.83973 283.974 1.83642C285.917 1.77195 287.86 1.70435 289.795 1.6352C290.069 1.62532 290.273 1.63905 290.493 1.6794C290.784 1.73373 291.121 1.75508 291.544 1.73711C292.445 1.69952 293.353 1.67288 294.262 1.64154C294.795 1.62338 294.795 1.62339 296.426 1.70202C296.544 1.70808 296.669 1.71726 296.787 1.71392C298.338 1.6611 299.896 1.60983 301.44 1.55232C301.855 1.53593 302.2 1.54943 302.498 1.60531C302.71 1.64567 302.922 1.66255 303.189 1.65269C304.614 1.60322 306.032 1.55375 307.458 1.50428C307.975 1.48615 308.492 1.45548 309.009 1.45458C309.385 1.4555 309.661 1.53021 309.998 1.56723C310.092 1.57803 310.249 1.56524 310.374 1.56189C312.184 1.49922 314.001 1.44123 315.803 1.37074C316.273 1.35269 316.524 1.40551 316.838 1.44413C316.948 1.45804 317.066 1.48604 317.16 1.48431C317.81 1.46595 318.453 1.44133 319.103 1.41984C319.878 1.39343 320.662 1.37327 321.429 1.33747C322.056 1.30818 322.293 1.44406 322.794 1.44789C323.178 1.45193 323.57 1.42462 323.954 1.41142C324.729 1.38501 325.505 1.35547 326.28 1.33219C326.555 1.32388 326.766 1.29844 326.851 1.24189C326.867 1.2309 326.734 1.20764 326.647 1.19369C325.603 1.03571 325.603 1.0357 324.553 1.07199C323.903 1.09505 323.261 1.1181 322.61 1.13803C322.501 1.14135 322.375 1.12904 322.265 1.11983C321.951 1.09374 321.982 1.06236 322.248 1.0055C322.514 0.94864 322.717 0.879363 322.943 0.814739C323.265 0.854913 323.579 0.895085 323.901 0.935258C324.16 0.926976 324.418 0.917142 324.677 0.90886C325.969 0.865886 327.262 0.821341 328.554 0.7815C328.648 0.778204 328.766 0.809336 328.876 0.824811C329.19 0.869698 329.473 0.908361 329.927 0.89034C331.086 0.842897 332.254 0.807973 333.413 0.766796C333.922 0.74868 333.922 0.748681 334.817 0.844258C334.919 0.855048 335.052 0.86735 335.162 0.864026C336.329 0.825969 337.488 0.784797 338.656 0.745173C338.906 0.736905 339.15 0.756848 339.33 0.801965C339.401 0.820642 339.386 0.851994 339.687 1.10839C340.614 1.31514 341.249 1.29212 341.891 1.27221C342.165 1.2639 342.408 1.25564 342.588 1.22399C342.682 1.2066 342.799 1.18132 342.799 1.16096C342.799 1.14529 342.626 1.12052 342.516 1.11758C341.74 1.08759 341.004 1.15468 340.244 1.1701C339.891 1.17697 339.585 1.12267 339.521 1.03349C339.505 1.00845 339.481 0.981861 339.458 0.956837C339.434 0.931812 339.418 0.905209 339.394 0.880185C339.088 0.872882 338.908 0.901389 338.776 0.954883C338.667 0.998938 338.511 1.04934 338.299 1.07321C338.088 1.09864 337.798 1.09445 337.539 1.10273C337.289 1.111 337.015 1.13184 336.779 1.12128C336.544 1.10916 336.355 1.06404 336.136 1.03623C336.034 1.0223 335.908 1.00216 335.806 1.00547C334.905 1.03367 334.012 1.06184 333.119 1.09786C332.649 1.11747 332.413 1.05209 332.115 1.01188C331.88 0.980956 331.645 0.989187 331.606 1.06132C331.506 1.23382 331.868 1.30525 332.667 1.27096C333.325 1.24162 333.92 1.2359 334.439 1.34153C334.51 1.35551 334.674 1.36149 334.776 1.35818C335.418 1.33827 336.053 1.31366 336.695 1.29375C336.813 1.29041 336.938 1.29645 337.048 1.30253C338.648 1.38435 338.648 1.38592 339.188 1.36618C339.447 1.35634 339.698 1.34807 339.671 1.10999C340.162 0.853783 340.945 0.835193 341.705 0.796277C342.198 0.771921 342.411 0.840487 342.732 0.87596C342.842 0.888302 342.96 0.913159 343.062 0.909849C344.746 0.855228 346.423 0.79748 348.099 0.736607C348.381 0.726718 348.585 0.735766 348.805 0.776116C349.088 0.827323 349.402 0.859684 349.848 0.84011C350.741 0.800962 351.65 0.775891 352.559 0.742982C353.021 0.726514 353.021 0.726498 353.954 0.822007C354.057 0.832796 354.19 0.845098 354.3 0.841775C355.208 0.813566 356.109 0.779114 357.01 0.749351C357.261 0.741083 357.488 0.762619 357.685 0.804576C357.881 0.846534 358.117 0.868055 358.359 0.859801C359.268 0.830025 360.169 0.79714 361.07 0.767378C361.18 0.764054 361.313 0.774788 361.415 0.785577C362.372 0.881046 362.372 0.881029 362.811 0.864602C363.453 0.839988 364.111 0.827892 364.746 0.79546C365.364 0.763054 365.687 0.85335 366.111 0.902746C367.27 0.864702 368.437 0.832918 369.589 0.787055C370.059 0.767441 370.31 0.818698 370.624 0.858884C370.734 0.872793 370.844 0.902371 370.946 0.900627C371.338 0.893681 371.722 0.875785 372.106 0.862586C372.489 0.849387 372.881 0.836176 373.265 0.822978C373.704 0.867647 373.996 0.973669 374.622 0.93655C374.998 0.913965 375.398 0.908572 375.782 0.895373C376.165 0.882174 376.557 0.868963 376.941 0.855764C377.199 0.847482 377.466 0.842313 377.716 0.827779C378.179 0.803478 378.407 0.879855 378.736 0.913748C378.846 0.924524 378.972 0.943093 379.074 0.939783C379.849 0.916505 380.633 0.896347 381.392 0.858997C381.98 0.829779 382.38 0.876089 382.796 0.941164C382.883 0.955113 383.032 0.962687 383.141 0.959364C384.05 0.931154 384.951 0.896683 385.852 0.866921C386.095 0.858667 386.33 0.883323 386.526 0.923714C386.731 0.965658 386.958 0.985644 387.209 0.977376C388.11 0.947614 389.019 0.914696 389.919 0.884933C390.029 0.88161 390.162 0.893914 390.264 0.906269C391.143 1.00187 391.143 1.00344 391.66 0.983745C391.786 0.978828 391.919 0.975452 392.044 0.970534C392.687 0.947487 393.353 0.938509 393.979 0.899823C394.7 0.856275 395.225 0.90863 395.736 0.99704C396.378 0.977126 397.036 0.965016 397.663 0.932596C398.133 0.908282 398.384 0.967373 398.698 1.00599C398.808 1.0199 398.926 1.0479 399.02 1.0446C399.929 1.01639 400.838 0.991323 401.73 0.950609C402.216 0.927834 402.429 0.997949 402.758 1.03341C402.868 1.04575 402.986 1.06749 403.088 1.06418C403.605 1.05075 404.122 1.03104 404.639 1.01292C405.242 0.991502 405.242 0.993068 406.043 1.08724C406.419 1.13202 406.795 1.09533 407.163 1.08373C407.555 1.07052 407.923 1.06048 408.237 1.12417C408.434 1.16456 408.669 1.18921 408.912 1.18253C409.429 1.16753 409.954 1.15253 410.463 1.12814C410.87 1.10864 411.223 1.12055 411.522 1.178C411.734 1.21836 411.954 1.23836 412.212 1.22851C413.371 1.1889 414.539 1.1477 415.698 1.10965C415.8 1.10634 415.941 1.1202 416.035 1.13414C416.255 1.16195 416.467 1.19291 416.679 1.22388C417.188 1.20889 417.713 1.20173 418.215 1.17893C418.747 1.15607 419.233 1.14739 419.649 1.23283C419.736 1.25148 419.862 1.27788 419.963 1.27614C420.355 1.26919 420.739 1.25287 421.123 1.23967C421.507 1.22647 421.898 1.21326 422.282 1.20006C422.729 1.23845 423.013 1.35075 423.64 1.31363C424.015 1.29105 424.415 1.28565 424.799 1.27245C425.183 1.25925 425.574 1.24448 425.958 1.23285C426.084 1.22949 426.225 1.22141 426.334 1.22749C426.452 1.23355 426.554 1.25531 426.656 1.2708C426.97 1.31569 427.261 1.36062 427.707 1.33321C428.083 1.31063 428.483 1.30523 428.866 1.29047C429.391 1.27232 429.391 1.27233 430.262 1.36951C430.616 1.40963 431.015 1.35567 431.352 1.38955C431.579 1.41266 431.776 1.45147 431.996 1.47773C432.09 1.48853 432.239 1.49296 432.348 1.48964C432.866 1.47464 433.39 1.45964 433.9 1.43526C434.315 1.41574 434.66 1.43394 434.95 1.48983C435.163 1.53019 435.374 1.54707 435.641 1.5372C436.933 1.4911 438.226 1.45124 439.511 1.40045C439.949 1.38246 440.302 1.40848 440.546 1.46446C440.962 1.56086 441.549 1.44549 441.981 1.52307C442.248 1.57117 442.515 1.62711 443 1.60276C443.893 1.56048 444.802 1.53696 445.703 1.5072C446.025 1.54894 446.347 1.59069 446.676 1.63241C447.193 1.61428 447.71 1.59614 448.227 1.57958C448.611 1.56638 449.003 1.5516 449.387 1.53997C449.512 1.53662 449.645 1.53012 449.763 1.53775C449.881 1.54538 449.975 1.56559 450.085 1.58106C450.627 1.65688 450.626 1.65846 451.519 1.62558C451.903 1.61081 452.272 1.60077 452.594 1.66288C452.892 1.72032 453.245 1.73067 453.652 1.71273C454.42 1.68007 455.196 1.65522 455.979 1.63193C456.222 1.62368 456.449 1.64992 456.654 1.69029C456.96 1.75399 457.336 1.74708 457.72 1.72918C458.229 1.70636 458.73 1.68356 459.162 1.77054C459.249 1.78919 459.382 1.81558 459.476 1.81385C460.119 1.8002 460.769 1.78968 461.396 1.75883C462.022 1.72797 462.329 1.82457 462.761 1.87082C463.403 1.84934 464.053 1.82784 464.696 1.80636C464.821 1.80144 464.97 1.78709 465.08 1.79474C465.542 1.82683 465.81 1.94386 466.445 1.90673C466.813 1.88572 467.212 1.87877 467.596 1.8734C467.698 1.87166 467.832 1.89805 467.903 1.91829C467.942 1.92919 467.903 1.95902 467.856 1.97477C467.716 2.01887 467.544 2.05992 467.419 2.10557C467.403 2.11186 467.552 2.13979 467.639 2.15217C467.851 2.18 468.094 2.17489 468.376 2.16187C468.618 2.15048 468.87 2.17198 469.042 2.21867C469.113 2.23735 469.09 2.26872 468.942 2.37237C468.943 2.44913 469.107 2.41438 469.162 2.36415C469.247 2.29194 469.082 2.26873 468.769 2.30844C468.55 2.33702 468.441 2.37794 468.496 2.41074C468.528 2.42792 468.677 2.4496 468.942 2.37237C469.631 2.27718 470.148 2.25906 470.665 2.24093C470.798 2.236 470.955 2.22005 471.049 2.22929C471.386 2.2663 471.7 2.31119 472.03 2.35292C472.406 2.34287 472.758 2.31875 473.128 2.3792C473.646 2.46447 473.669 2.4566 474.171 2.43849C474.429 2.42865 474.688 2.42038 474.946 2.4121C475.205 2.40381 475.409 2.42695 475.636 2.46259C476.1 2.53542 476.139 2.53534 476.443 2.43455C476.623 2.37314 476.748 2.35256 476.975 2.38037C477.729 2.47462 477.737 2.48087 478.379 2.45156C478.912 2.42713 479.413 2.42 479.806 2.50861C480.073 2.57081 480.159 2.55657 480.37 2.4904C480.932 2.31554 481.191 2.31821 482.25 2.4417C482.745 2.50038 483.254 2.43527 483.755 2.42657C484.178 2.41957 484.476 2.45664 484.509 2.55528C484.533 2.61633 484.604 2.66008 484.887 2.67996C484.997 2.6876 485.13 2.69833 485.24 2.69501C485.89 2.67508 486.532 2.65203 487.182 2.62897C487.511 2.61743 487.691 2.54351 487.627 2.44649C487.555 2.34322 487.68 2.30539 488.15 2.27481C488.432 2.25708 488.659 2.25984 488.887 2.28764C489.138 2.31854 489.068 2.34686 488.849 2.40363C488.326 2.5424 488.389 2.62687 489.064 2.72126C489.3 2.75376 489.488 2.78321 489.544 2.83167C489.575 2.85669 489.544 2.88964 489.615 2.90831C490.001 3.01261 490.534 3.07905 491.13 3.12815C491.702 3.08486 492.095 3.15466 492.534 3.2103C492.88 3.25356 493.287 3.21527 493.655 3.19896C494.07 3.18101 494.415 3.19294 494.713 3.25038C494.926 3.29075 495.145 3.30916 495.404 3.30088C495.921 3.28275 496.446 3.27088 496.955 3.24493C497.393 3.22223 497.723 3.253 497.998 3.30578C498.343 3.37255 498.727 3.32644 499.088 3.33522C499.574 3.34534 499.818 3.48434 500.453 3.44564C500.828 3.42305 501.22 3.41455 501.612 3.4076C501.714 3.40586 501.839 3.43227 501.926 3.45092C502.342 3.53636 502.828 3.53082 503.361 3.50483C503.729 3.48696 504.089 3.47067 504.45 3.52958C505.047 3.6288 505.707 3.7154 506.335 3.80674C506.422 3.87865 506.36 3.96334 506.807 4.00486C507.043 4.02638 507.263 4.05891 507.443 4.09463C507.663 4.13655 507.867 4.14716 508.149 4.13571C508.658 4.11289 509.191 4.10725 509.692 4.07818C510.154 4.05231 510.445 4.10352 510.728 4.1516C510.955 4.19037 511.167 4.20879 511.441 4.18012C511.723 4.15299 511.927 4.16987 512.155 4.21177C512.477 4.26918 512.5 4.26288 513.566 4.27826C513.676 4.27964 513.809 4.30289 513.872 4.32315C513.904 4.33406 513.834 4.36553 513.779 4.38129C513.709 4.40021 513.599 4.42232 513.497 4.4272C512.338 4.46994 511.171 4.508 510.011 4.55074C509.894 4.55565 509.769 4.56684 509.683 4.58266C509.589 4.60005 509.472 4.62374 509.472 4.64567C509.472 4.66134 509.629 4.67987 509.739 4.69065C510.084 4.72608 510.491 4.67055 510.829 4.71069C511.056 4.73693 511.245 4.77419 511.472 4.79886C511.566 4.80967 511.715 4.80785 511.833 4.80451C512.225 4.79286 512.608 4.77653 513 4.76645C513.11 4.7647 513.235 4.78015 513.337 4.79251C514.091 4.8852 514.091 4.88519 514.741 4.8637C515 4.85542 515.274 4.83144 515.517 4.84042C515.752 4.84941 515.956 4.89135 516.168 4.91762C516.608 4.97325 517.024 5.02736 517.056 5.1495C517.073 5.19647 517.332 5.23674 517.59 5.23943C517.841 5.24213 518.107 5.22445 518.366 5.2146C518.977 5.19474 518.977 5.19474 519.77 5.28892C519.989 5.31518 520.225 5.3179 520.506 5.30174C520.616 5.29528 520.75 5.30133 520.867 5.30895C521.251 5.33179 521.252 5.36154 521.002 5.41838C520.65 5.50202 520.681 5.5098 521.67 5.57858C522.046 5.60456 522.337 5.65419 522.651 5.69751C523.161 5.76712 523.153 5.76712 522.817 5.86013C522.739 5.88064 522.669 5.9027 522.591 5.92476C522.364 5.98625 522.185 6.05236 521.715 6.05944C521.198 6.06661 520.681 6.09258 520.164 6.11071C519.662 6.12881 519.53 6.16662 519.578 6.27307C519.634 6.40143 519.736 6.41536 520.638 6.41223C520.896 6.41178 521.124 6.42391 521.32 6.46587C521.227 6.51616 521.055 6.55563 520.804 6.56546C520.162 6.59008 519.512 6.61158 518.869 6.63306C518.352 6.65119 517.835 6.66931 517.318 6.68744C516.997 6.69896 516.794 6.78079 516.881 6.8715C516.929 6.92311 516.969 6.97474 517.009 7.02637C517.096 7.12961 517.261 7.15597 517.786 7.15035C517.919 7.14856 518.044 7.1358 518.17 7.13871C518.679 7.14879 518.924 7.27839 519.535 7.2507C520.044 7.22789 520.577 7.22227 521.078 7.1932C521.54 7.16733 521.8 7.22329 522.121 7.26503C522.231 7.27894 522.349 7.30848 522.443 7.30675C523.094 7.28839 523.744 7.27005 524.378 7.23918C524.676 7.22613 524.856 7.23521 525.092 7.2724C525.657 7.36228 525.673 7.35756 526.511 7.3279C527.122 7.30491 527.13 7.30803 527.915 7.40223C528.134 7.42848 528.369 7.42807 528.651 7.41505C529.02 7.39874 529.403 7.37301 529.788 7.39584C529.905 7.40191 530.054 7.42045 530.094 7.44075C530.118 7.45481 530.008 7.48946 529.914 7.50059C529.226 7.58325 528.418 7.57056 527.666 7.60476C527.431 7.61457 527.196 7.58521 526.999 7.54325C526.795 7.5013 526.576 7.48446 526.309 7.49275C525.792 7.51088 525.267 7.52276 524.758 7.54871C524.32 7.5714 524.013 7.53589 523.707 7.48786C523.605 7.47237 523.487 7.44281 523.385 7.44455C522.226 7.47789 521.059 7.51126 519.907 7.55712C519.445 7.57672 519.178 7.52706 518.864 7.48531C518.754 7.4714 518.644 7.44182 518.542 7.44356C518.15 7.45051 517.767 7.46841 517.375 7.48162C515.949 7.53109 514.531 7.58055 513.105 7.62689C513.011 7.63019 512.893 7.59749 512.784 7.58358C512.572 7.55575 512.352 7.52949 512.132 7.50324C511.74 7.51646 511.357 7.53279 510.965 7.54286C510.683 7.54962 510.432 7.572 510.394 7.63159C510.371 7.6708 510.63 7.70638 510.904 7.70277C511.171 7.69917 511.437 7.67991 511.656 7.69989C512.747 7.79826 512.747 7.79983 513.429 7.77828C514.024 7.75845 513.961 7.74289 514.487 7.82814C514.715 7.86534 514.919 7.88693 515.177 7.87708C515.82 7.85404 516.47 7.83097 517.12 7.81104C517.222 7.80773 517.355 7.82317 517.457 7.83553C518.227 7.92819 518.227 7.93132 518.861 7.90672C519.692 7.87708 519.723 7.86919 520.28 7.96379C520.665 8.02892 521.017 7.98287 521.386 7.9791C521.809 8.03946 522.273 8.0935 522.657 8.16176C523.113 8.24243 523.591 8.22749 524.108 8.20309C524.491 8.1852 524.868 8.17828 525.182 8.24196C525.48 8.30098 525.841 8.30663 526.248 8.29026C526.616 8.27552 526.992 8.24509 527.377 8.27889C527.479 8.28811 527.636 8.31135 527.628 8.32546C527.62 8.3474 527.519 8.37892 527.417 8.38849C526.697 8.45397 525.905 8.45377 525.146 8.48486C525.044 8.48973 524.91 8.47273 524.808 8.46037C524.589 8.43255 524.377 8.40003 524.165 8.37063C523.781 8.3807 523.389 8.3845 523.013 8.40396C522.723 8.41856 522.504 8.41739 522.292 8.38016C522.095 8.34603 521.883 8.30409 521.648 8.29353C521.413 8.28298 521.139 8.30695 520.88 8.3168C520.622 8.32665 520.324 8.32246 520.121 8.34788C519.917 8.37329 519.792 8.42835 519.66 8.47244C519.511 8.52127 519.308 8.53729 519.01 8.54251C518.736 8.54769 518.516 8.54179 518.312 8.49828C518.226 8.47964 518.108 8.46573 517.99 8.45341C517.88 8.44263 517.755 8.42561 517.653 8.42892C516.486 8.46698 515.326 8.50817 514.159 8.54779C513.579 8.5676 513.587 8.56757 512.379 8.47724C512.269 8.46959 512.136 8.45886 512.026 8.46219C511.376 8.48211 510.734 8.50516 510.083 8.52823C509.425 8.5513 509.433 8.54815 508.311 8.4514C508.107 8.43296 507.81 8.45854 507.567 8.45583C507.057 8.44888 506.805 8.31773 506.21 8.34383C505.701 8.36664 505.168 8.37226 504.659 8.40135C504.197 8.42721 503.93 8.37285 503.616 8.3311C503.506 8.31719 503.388 8.28606 503.294 8.28935C502.126 8.32585 500.967 8.36702 499.415 8.37442C499.031 8.37508 499.204 8.40768 499.455 8.41822C499.816 8.43482 499.933 8.40172 499.736 8.3394C499.595 8.29578 499.391 8.27418 499.226 8.28544C499.14 8.29185 499.031 8.32182 499.415 8.37442C499.824 8.43324 499.801 8.46617 499.871 8.48485C500.044 8.52998 500.287 8.54835 500.538 8.54165C500.93 8.53001 501.314 8.51368 501.705 8.5036C501.815 8.50028 501.948 8.51101 502.05 8.52337C502.914 8.619 502.922 8.62526 503.838 8.58607C504.128 8.5746 504.339 8.57423 504.567 8.6036C504.881 8.64379 505.109 8.71231 505.587 8.68955C506.221 8.65869 506.872 8.64034 507.522 8.62198C507.624 8.61867 507.734 8.64667 507.851 8.659C508.173 8.69604 508.409 8.76613 508.887 8.73554C509.255 8.7114 509.655 8.70442 510.046 8.69904C510.148 8.6973 510.305 8.7221 510.352 8.74238C510.447 8.77825 510.33 8.82076 510.064 8.85099C509.954 8.86371 509.805 8.86083 509.68 8.86575C509.163 8.88388 508.646 8.90357 508.129 8.91856C507.855 8.92687 507.596 8.95083 507.566 9.00885C507.543 9.04805 507.825 9.08202 508.092 9.07842C508.483 9.07304 508.875 9.05983 509.251 9.03882C509.917 9.00319 510.497 9.01158 511.039 9.10934C511.424 9.1776 511.4 9.15259 511.81 9.35554C511.912 9.40706 512.218 9.41122 512.485 9.40763C513.127 9.39868 513.425 9.42166 513.371 9.47032C513.301 9.52998 513.074 9.54916 512.784 9.55749C512.267 9.57092 511.75 9.5922 511.233 9.61033C511.108 9.61524 510.967 9.62488 510.849 9.62195C510.732 9.61902 510.622 9.60042 510.52 9.58649C510.3 9.55711 510.111 9.512 509.876 9.50144C509.641 9.49088 509.367 9.51486 509.108 9.52471C508.85 9.53299 508.576 9.55696 508.34 9.54641C508.105 9.53585 507.909 9.4892 507.697 9.46137C507.595 9.44745 507.469 9.42572 507.367 9.42746C506.85 9.44089 506.333 9.46216 505.816 9.47873C505.182 9.5002 505.182 9.5002 504.412 9.4044C504.193 9.37658 503.965 9.37855 503.676 9.39159C503.049 9.41774 503.041 9.41304 501.896 9.32417C501.786 9.31496 501.652 9.30423 501.543 9.30912C500.375 9.34717 499.216 9.38835 498.057 9.42796C497.062 9.46258 497.062 9.46259 496.515 9.6202C496.109 9.73684 496.101 9.73684 496.502 9.78941C496.823 9.83272 497.114 9.89644 497.467 9.91933C497.796 9.94069 498.203 9.86949 498.565 9.94093C498.745 9.97664 498.981 10.0154 499.208 10.0213C499.569 10.0285 499.952 9.98238 500.298 10.0507C500.471 10.0849 500.73 10.1205 500.949 10.1217C501.333 10.1241 501.725 10.0984 502.109 10.0867C502.226 10.0834 502.359 10.0832 502.469 10.0908C502.587 10.1 502.689 10.1186 502.791 10.1341C503.105 10.1868 503.443 10.2113 503.85 10.184C504.515 10.139 505.111 10.1599 505.63 10.2592C505.7 10.2732 505.873 10.2745 505.982 10.268C506.264 10.2519 506.507 10.2499 506.719 10.2793C506.806 10.2916 506.931 10.3133 506.916 10.3275C506.892 10.351 506.799 10.3825 506.697 10.3905C505.961 10.4451 505.17 10.4527 504.41 10.4822C504.308 10.4855 504.182 10.4654 504.08 10.4515C503.861 10.4236 503.672 10.377 503.437 10.3664C503.201 10.3559 502.927 10.3767 502.669 10.385C502.41 10.3933 502.136 10.4172 501.901 10.4083C501.666 10.3977 501.446 10.3589 501.257 10.3248C501.037 10.286 500.826 10.2817 500.536 10.2978C500.16 10.3188 499.768 10.3227 499.384 10.3343C499.173 10.3049 498.96 10.2723 498.741 10.2445C498.639 10.2306 498.513 10.2136 498.403 10.2154C497.886 10.2288 497.369 10.2485 496.852 10.2666C496.335 10.2847 496.335 10.2848 495.456 10.1891C495.354 10.1784 495.221 10.1661 495.111 10.1694C494.461 10.1893 493.819 10.2139 493.168 10.2338C492.918 10.2421 492.69 10.2206 492.486 10.1786C492.29 10.1367 492.054 10.1136 491.811 10.1218C490.777 10.1565 489.743 10.1897 488.709 10.2306C488.294 10.247 487.941 10.2335 487.658 10.1776C487.328 10.114 486.96 10.1303 486.576 10.1435C485.707 10.1763 485.699 10.1747 485.142 10.0958C485.032 10.0803 484.922 10.0508 484.82 10.0525C483.919 10.0776 483.01 10.1011 482.117 10.1402C481.647 10.1614 481.396 10.107 481.082 10.0668C480.972 10.0529 480.854 10.0234 480.76 10.0266C480.11 10.045 479.459 10.0618 478.825 10.0942C478.191 10.1267 477.946 9.98141 477.468 9.98381C476.817 9.9865 476.175 10.0236 475.533 10.0467C475.016 10.0648 474.499 10.0829 473.982 10.1011C473.465 10.1192 472.948 10.1342 472.431 10.1555C472.157 10.1669 471.953 10.1532 471.725 10.1144C471.434 10.0632 471.089 10.0231 470.775 9.97662C470.296 9.91009 470.296 9.91008 469.716 9.92989C469.591 9.9348 469.458 9.93816 469.333 9.94308C468.385 9.97919 468.385 9.97607 467.177 9.87947C467.122 9.87486 466.981 9.89234 466.926 9.90497C466.762 9.94599 466.614 9.9901 466.465 10.0327C466.253 10.008 465.995 9.99431 465.853 9.95852C465.452 9.85739 464.827 9.9979 464.418 9.89835C464.269 9.86101 464.01 9.82856 463.775 9.81956C463.531 9.81059 463.257 9.833 463.007 9.84283C462.357 9.86746 462.357 9.8659 461.802 10.0063C461.521 10.0757 461.113 10.0639 460.745 10.0802C460.361 10.0981 459.993 10.1081 459.671 10.0444C459.38 9.98699 459.027 9.9735 458.612 9.99302C458.103 10.0174 457.578 10.0324 457.061 10.0474C456.951 10.0507 456.818 10.0431 456.708 10.0339C455.508 9.94358 455.508 9.94202 454.928 9.96339C454.67 9.97324 454.403 9.97682 454.153 9.99135C453.73 10.0172 453.408 9.98481 453.102 9.93521C453 9.91972 452.882 9.89018 452.78 9.89192C452.263 9.90065 451.754 9.91563 451.244 9.93062C450.853 9.94226 450.461 9.94921 450.085 9.97179C449.459 10.0089 449.152 9.9076 448.72 9.86135C448.078 9.88283 447.428 9.89806 446.785 9.92738C446.488 9.94043 446.292 9.93607 446.064 9.89887C445.773 9.85238 445.506 9.79958 445.036 9.82389C444.41 9.85631 443.752 9.86842 443.109 9.88834C442.678 9.84052 442.363 9.74236 441.744 9.77946C441.368 9.80205 440.969 9.80744 440.585 9.82064C440.068 9.83877 439.551 9.85535 439.034 9.87504C438.478 9.89481 438.485 9.89009 437.63 9.79915C437.136 9.74517 436.627 9.80715 436.125 9.81742C435.734 9.82593 435.539 9.89833 435.634 9.9906C435.729 10.0829 435.518 10.1553 435.158 10.1684C434.257 10.1998 433.348 10.2327 432.448 10.2609C432.338 10.2642 432.205 10.2535 432.102 10.2427C431.137 10.1457 431.137 10.1472 430.707 10.1621C430.064 10.1867 429.406 10.2004 428.772 10.2312C428.333 10.2523 428.011 10.22 427.728 10.1672C427.509 10.1269 427.305 10.1178 427.023 10.1277C423.921 10.2381 420.818 10.3406 417.724 10.4541C417.262 10.4705 416.995 10.4256 416.681 10.3838C416.571 10.3699 416.469 10.3403 416.359 10.3405C416.1 10.3409 415.842 10.3555 415.584 10.3653C414.424 10.405 413.265 10.4524 412.097 10.4826C411.604 10.496 411.472 10.5683 411.261 10.6282C411.097 10.6739 410.909 10.693 410.619 10.6998C410.337 10.7066 410.133 10.6991 409.913 10.6587C409.63 10.606 409.309 10.5736 408.87 10.5963C408.361 10.6223 407.844 10.6341 407.319 10.6523C407.053 10.6606 406.849 10.6891 406.764 10.7457C406.748 10.7551 406.913 10.7783 407.007 10.7922C407.321 10.8387 407.62 10.893 407.973 10.9253C408.334 10.9576 408.725 10.9193 409.101 10.9092C409.234 10.9059 409.36 10.8963 409.485 10.8976C409.602 10.899 409.744 10.9066 409.83 10.9205C410.239 10.9903 410.67 11.0381 411.234 10.9948C411.72 11.0144 411.972 11.1439 412.591 11.1084C412.967 11.0874 413.359 11.0773 413.75 11.0688C413.852 11.0671 413.962 11.0951 414.072 11.109C414.386 11.1476 414.638 11.2098 415.108 11.1824C415.609 11.1533 416.142 11.1477 416.651 11.1249C416.933 11.1118 417.137 11.1225 417.357 11.1628C417.639 11.214 417.961 11.2526 418.4 11.2268C418.776 11.2042 419.175 11.1988 419.559 11.184C420.06 11.1659 420.06 11.1675 420.955 11.2631C421.057 11.2739 421.19 11.2862 421.3 11.2828C421.95 11.2629 422.593 11.2383 423.243 11.2184C423.494 11.2101 423.737 11.23 423.91 11.2752C423.981 11.2939 423.957 11.3252 423.981 11.3518C422.689 11.3964 421.396 11.4346 420.111 11.4886C419.626 11.5098 419.405 11.4459 419.084 11.4105C418.974 11.3981 418.856 11.3717 418.754 11.375C417.845 11.4032 416.945 11.433 416.044 11.469C415.762 11.4804 415.55 11.4745 415.338 11.4295C414.796 11.3098 414.138 11.3767 413.527 11.395C413.057 11.4084 412.909 11.4572 412.965 11.5605C413.037 11.6826 413.319 11.7197 414.04 11.6965C414.299 11.6882 414.557 11.6768 414.816 11.6701C415.066 11.6634 415.294 11.6834 415.498 11.7253C415.695 11.7673 415.93 11.7888 416.173 11.7821C416.69 11.7671 417.215 11.7521 417.716 11.7277C418.131 11.7082 418.476 11.7233 418.767 11.7807C419.089 11.8444 419.465 11.8296 419.841 11.8149C420.718 11.782 420.726 11.7836 421.276 11.861C421.386 11.8764 421.496 11.906 421.598 11.9043C422.499 11.8792 423.407 11.8573 424.293 11.8181C424.755 11.7985 425.022 11.8482 425.328 11.8884C425.438 11.9023 425.548 11.9335 425.65 11.9301C426.3 11.9118 426.95 11.8934 427.585 11.8626C427.882 11.8479 428.062 11.857 428.306 11.8942C428.887 11.9856 428.903 11.9825 429.725 11.9513C429.976 11.9414 430.25 11.9237 430.485 11.9358C430.72 11.948 430.909 11.9931 431.129 12.0209C431.231 12.0333 431.356 12.0503 431.466 12.0469C431.983 12.0335 432.5 12.0138 433.017 11.9957C433.503 11.9776 433.503 11.9792 434.413 12.0747C434.782 12.1148 435.166 12.0797 435.534 12.0665C435.933 12.0517 436.294 12.0511 436.6 12.1117C436.907 12.1722 437.275 12.1685 437.667 12.1552C438.035 12.1421 438.411 12.107 438.787 12.1486C439.65 12.2442 439.65 12.2458 440.183 12.2261C440.959 12.1981 441.726 12.1717 442.51 12.1468C442.612 12.1435 442.745 12.1621 442.847 12.1745C443.067 12.2023 443.255 12.2489 443.491 12.2595C443.726 12.2716 444 12.2523 444.251 12.2425C445.058 12.2113 445.112 12.2003 445.654 12.3027C446.11 12.3866 446.673 12.2634 447.097 12.3598C447.341 12.4142 447.67 12.4575 448.124 12.43C448.5 12.4075 448.892 12.4005 449.284 12.3873C449.903 12.3659 449.903 12.3674 450.688 12.4601C450.79 12.4724 450.923 12.4879 451.025 12.4845C451.542 12.4711 452.067 12.4592 452.568 12.4302C453.156 12.3963 453.532 12.4551 453.972 12.5123C454.317 12.5572 454.724 12.5189 455.093 12.5026C455.492 12.4862 455.852 12.4903 456.151 12.5508C456.465 12.613 456.834 12.6045 457.225 12.5913C457.593 12.5797 457.969 12.543 458.346 12.5862C459.154 12.6819 459.154 12.6819 459.742 12.6621C460.259 12.644 460.776 12.6243 461.293 12.6109C461.395 12.6076 461.52 12.6277 461.622 12.6416C461.842 12.6694 462.031 12.7161 462.266 12.7267C462.501 12.7372 462.775 12.7164 463.034 12.7081C463.292 12.6998 463.566 12.6758 463.802 12.6848C464.037 12.6938 464.257 12.7326 464.445 12.7668C464.665 12.8071 464.869 12.8114 465.167 12.7953C465.542 12.7742 465.934 12.7689 466.318 12.7572C466.53 12.7866 466.75 12.816 466.954 12.8486C467.166 12.8827 467.393 12.8791 467.683 12.8677C468.647 12.8284 468.654 12.8331 469.463 12.9288C469.832 12.972 470.215 12.9353 470.584 12.9237C470.975 12.9105 471.343 12.9036 471.65 12.9657C471.948 13.0248 472.317 13.0319 472.708 13.0125C472.959 12.9995 473.225 12.9912 473.484 12.9861C473.602 12.9843 473.743 12.9903 473.829 13.0027C474.245 13.0678 474.653 13.1266 475.225 13.0833C475.727 13.095 475.979 13.223 476.582 13.1969C477.091 13.1741 477.624 13.1684 478.125 13.1394C478.587 13.1135 478.917 13.1568 479.153 13.2112C479.577 13.3076 480.171 13.175 480.596 13.2698C480.839 13.3242 481.153 13.3675 481.623 13.3432C482.14 13.3173 482.305 13.3499 482.455 13.4483C482.542 13.5045 482.527 13.55 482.371 13.5941C482.215 13.6398 482.042 13.6323 481.791 13.5811C481.5 13.5236 481.155 13.5132 480.74 13.5265C480.333 13.5397 480.081 13.4587 479.743 13.428C479.406 13.3956 479.007 13.4512 478.654 13.4095C477.822 13.3122 477.822 13.3122 477.258 13.332C476.874 13.3452 476.474 13.3522 476.099 13.3747C475.652 13.4022 475.362 13.3541 475.055 13.3108C474.945 13.2953 474.835 13.2657 474.741 13.2674C473.84 13.2925 472.932 13.316 472.039 13.3567C471.569 13.3779 471.317 13.3219 471.003 13.2833C470.894 13.2694 470.775 13.2414 470.681 13.2447C469.906 13.268 469.138 13.2975 468.363 13.3255C468.214 13.3681 468.05 13.4091 467.91 13.4547C467.761 13.502 467.558 13.5227 467.26 13.5217C466.766 13.5225 466.281 13.5892 465.787 13.507C465.276 13.4233 465.237 13.4281 464.744 13.4493C464.117 13.477 463.451 13.4719 462.864 13.534C462.762 13.5451 462.653 13.5751 462.653 13.597C462.645 13.6111 462.81 13.6312 462.912 13.6436C463.257 13.6806 463.656 13.6251 464.002 13.6636C464.229 13.6883 464.418 13.7256 464.645 13.7518C464.74 13.7626 464.881 13.7608 465.006 13.759C465.139 13.7572 465.264 13.746 465.39 13.7474C465.507 13.7487 465.633 13.7579 465.727 13.7718C466.159 13.8306 466.614 13.8847 466.999 13.9545C467.376 14.0228 467.728 13.9752 468.104 13.9714C469.61 14.0784 469.61 14.08 470.621 14.0438C470.871 14.0355 471.13 14.0257 471.389 14.0268C471.498 14.0266 471.6 14.0546 471.71 14.0701C472.024 14.1165 472.323 14.1583 472.761 14.1325C473.137 14.1099 473.537 14.1045 473.921 14.0897C474.438 14.0716 474.438 14.0716 475.317 14.1688C475.536 14.1935 475.771 14.1899 476.053 14.1769C476.296 14.1655 476.547 14.1886 476.72 14.2337C476.791 14.2524 476.768 14.2838 476.792 14.3104C476.016 14.3368 475.233 14.3554 474.481 14.3943C473.995 14.4186 473.775 14.3516 473.453 14.3162C473.343 14.3038 473.225 14.2774 473.124 14.2807C472.356 14.3055 471.588 14.3335 470.821 14.3661C470.727 14.3694 470.61 14.4057 470.602 14.4276C470.587 14.4684 470.783 14.5072 471.065 14.5052C471.441 14.5029 471.809 14.4757 472.147 14.5393C472.43 14.5952 472.783 14.6197 473.198 14.5939C473.448 14.5794 473.715 14.5789 473.966 14.5659C474.631 14.5272 475.235 14.534 475.738 14.6396C476.122 14.6671 476.498 14.6399 476.866 14.6251C477.14 14.6137 477.407 14.6022 477.603 14.6317C478.019 14.6936 478.427 14.7556 478.999 14.7123C479.618 14.7551 480.09 14.8467 480.608 14.921C480.851 14.9566 481.04 14.9766 481.321 14.9526C481.439 14.943 481.58 14.9428 481.705 14.9379C481.964 14.9296 482.238 14.9056 482.473 14.9146C482.708 14.9252 482.905 14.9703 483.117 14.9981C483.219 15.012 483.337 15.0353 483.438 15.0336C483.83 15.025 484.214 15.0087 484.598 14.9955C484.982 14.9839 485.366 14.9723 485.749 14.9606C486.071 15.0008 486.401 15.041 486.723 15.0811C487.24 15.063 487.757 15.0449 488.266 15.0283C488.838 15.0085 488.838 15.0101 489.662 15.1058C490.031 15.149 490.422 15.1201 490.775 15.0992C491.362 15.0652 491.755 15.1241 492.171 15.186C492.257 15.1984 492.414 15.206 492.516 15.1995C492.923 15.1769 493.276 15.1935 493.574 15.251C493.786 15.2913 493.998 15.3098 494.257 15.3015C495.158 15.2702 496.059 15.2373 496.959 15.2091C497.069 15.2057 497.195 15.2196 497.297 15.232C498.097 15.3261 498.105 15.3308 498.693 15.3047C499.217 15.2819 499.703 15.2717 500.12 15.3571C500.206 15.3757 500.339 15.4022 500.434 15.4004C501.076 15.3836 501.726 15.3653 502.361 15.3375C502.651 15.3245 502.854 15.3289 503.082 15.3645C503.373 15.4094 503.632 15.4638 504.11 15.4426C505.433 15.3824 505.441 15.3917 507.01 15.4971C507.12 15.5047 507.269 15.492 507.394 15.4855C507.66 15.4693 507.856 15.4909 508.092 15.5266C508.618 15.6071 508.634 15.6024 509.135 15.5843C509.519 15.5695 509.918 15.5657 510.294 15.5415C510.874 15.5061 511.259 15.5665 511.69 15.6237C512.036 15.6686 512.435 15.6303 512.803 15.6155C513.202 15.5992 513.563 15.6032 513.862 15.6622C514.066 15.7026 514.285 15.7242 514.544 15.7159C515.445 15.6861 516.346 15.6532 517.247 15.6235C517.356 15.6201 517.49 15.6324 517.592 15.6432C518.486 15.7388 518.486 15.7435 519.372 15.706C519.654 15.6945 519.889 15.691 520.101 15.7235C520.305 15.7545 520.525 15.7838 520.737 15.8132C521.12 15.8016 521.512 15.7978 521.888 15.7783C522.178 15.7637 522.382 15.7697 522.609 15.8022C522.908 15.8439 523.159 15.9171 523.629 15.8803C523.872 15.8626 524.154 15.8668 524.397 15.8508C524.687 15.8299 524.883 15.8421 525.11 15.8824C525.393 15.9305 525.684 15.9801 526.138 15.9543C526.639 15.9252 527.172 15.9196 527.681 15.8967C527.963 15.8837 528.159 15.8959 528.387 15.9363C528.67 15.9875 528.992 16.0198 529.43 15.9987C530.323 15.958 530.331 15.9658 531.202 16.063C531.422 16.0876 531.657 16.0841 531.939 16.0711C532.182 16.0597 532.433 16.0828 532.606 16.1279C532.771 16.1777 532.755 16.2091 532.771 16.2357ZM462.765 2.228C462.507 2.23628 462.248 2.24613 461.87 2.11049C461.846 2.08703 461.862 2.05881 461.807 2.03854C461.681 1.99646 461.485 1.96704 461.249 1.96275C460.826 1.95721 460.317 2.01135 460.326 2.05207C460.334 2.08652 460.467 2.11605 460.726 2.1438C460.836 2.15457 460.923 2.17323 461.025 2.18558C461.323 2.2211 461.559 2.2912 461.99 2.25442C461.95 2.20592 461.91 2.15742 461.99 2.25442C461.951 2.31401 462.069 2.35611 462.352 2.37285C462.43 2.37742 462.548 2.37407 462.61 2.36456C462.853 2.32968 462.891 2.28262 462.709 2.15917C462.678 2.17959 462.702 2.21557 462.773 2.22485C462.844 2.23413 463.016 2.226 463.102 2.21489C463.321 2.18474 463.43 2.14539 463.375 2.11258C463.343 2.0954 463.194 2.07373 463.1 2.07389C462.936 2.07418 462.787 2.1089 462.765 2.228ZM526.355 20.2855C525.783 20.3163 525.125 20.3065 524.554 20.3686C524.452 20.3797 524.351 20.4081 524.343 20.43C524.335 20.4441 524.492 20.4642 524.587 20.475C524.798 20.4997 525.033 20.4915 525.308 20.4832C525.723 20.4715 525.967 20.5431 526.288 20.5786C526.39 20.5894 526.524 20.597 526.633 20.5937C527.268 20.5738 527.894 20.5523 528.529 20.5293C528.639 20.5244 528.756 20.5132 528.85 20.499C529.163 20.453 529.131 20.4233 528.825 20.3894C528.488 20.3523 528.221 20.2901 527.875 20.261C527.381 20.2195 526.88 20.2768 526.355 20.2855ZM481.864 21.5064C481.48 21.5196 481.104 21.5328 480.72 21.5459C480.595 21.5509 480.461 21.5527 480.344 21.5591C480.101 21.5705 479.921 21.6037 479.804 21.6556C479.985 21.696 480.205 21.7192 480.448 21.714C480.832 21.704 481.208 21.683 481.592 21.6776C482.007 21.6706 482.251 21.7407 482.572 21.7762C482.674 21.7869 482.8 21.7883 482.917 21.7897C483.497 21.7949 483.849 21.7128 483.738 21.5987C483.658 21.5095 483.36 21.4568 483 21.4684C482.624 21.48 482.24 21.4932 481.864 21.5064ZM529.007 17.9655C529.101 17.9387 529.203 17.9197 529.249 17.8961C529.39 17.816 529.334 17.7566 529.074 17.6944C528.76 17.6181 528.377 17.6705 528.024 17.6789C527.938 17.6807 527.844 17.7137 527.798 17.7342C527.766 17.7483 527.767 17.7781 527.814 17.7858C528.199 17.8478 528.607 17.9051 529.007 17.9655ZM460.966 13.4558C460.59 13.469 460.206 13.4791 459.83 13.497C459.736 13.5018 459.651 13.5317 459.596 13.5522C459.495 13.59 459.605 13.6415 459.926 13.6456C460.295 13.6512 460.678 13.624 461.062 13.6108C461.548 13.5942 461.837 13.5358 461.656 13.486C461.483 13.4377 461.248 13.4287 460.966 13.4558ZM48.4013 10.8239C48.6519 10.8157 48.9105 10.8089 49.1611 10.7975C49.3961 10.7862 49.576 10.7514 49.693 10.6995C49.4965 10.6591 49.2768 10.6375 49.0339 10.6427C48.65 10.6527 48.274 10.6659 47.898 10.6822C47.6631 10.692 47.4363 10.7269 47.3821 10.7802C47.3277 10.8211 47.8529 10.8437 48.4013 10.8239ZM427.78 9.92433C427.882 9.93825 427.985 9.96627 428.086 9.9661C428.337 9.96566 428.596 9.95581 428.831 9.93973C428.933 9.93329 429.011 9.90496 429.057 9.88295C429.088 9.86879 429.08 9.84375 429.033 9.8313C428.805 9.75649 427.896 9.7847 427.748 9.87112C427.733 9.88681 427.772 9.90711 427.78 9.92433ZM402.951 1.3887C402.974 1.41372 402.983 1.43877 403.014 1.46378C403.078 1.51067 403.25 1.54484 403.501 1.5679C403.697 1.5284 403.798 1.48437 403.79 1.43738C403.782 1.41233 403.758 1.38729 403.726 1.36228C403.663 1.31539 403.49 1.28124 403.239 1.25818C403.044 1.29611 402.95 1.34013 402.951 1.3887ZM547.164 21.6656C547.093 21.6861 547.023 21.7066 546.945 21.7256C547.157 21.7706 547.353 21.7844 547.502 21.759C547.596 21.7432 547.65 21.7196 547.721 21.6991C547.508 21.6541 547.32 21.6419 547.164 21.6656ZM542.292 21.8872C542.394 21.9011 542.488 21.9197 542.598 21.9289C542.778 21.9443 542.943 21.9173 543.067 21.8607C542.965 21.8468 542.871 21.8282 542.761 21.819C542.581 21.8036 542.416 21.8305 542.292 21.8872ZM545.376 21.5951C545.322 21.6328 545.432 21.6639 545.722 21.6901C545.792 21.6696 545.886 21.6506 545.933 21.6286C546.011 21.5924 545.877 21.5598 545.595 21.5352C545.516 21.5541 545.446 21.5746 545.376 21.5951ZM528.812 19.9351C528.757 19.9728 528.868 20.0039 529.158 20.03C529.228 20.0095 529.322 19.9906 529.369 19.9686C529.447 19.9324 529.313 19.8997 529.031 19.8751C528.952 19.8941 528.882 19.9146 528.812 19.9351ZM506.138 8.88913C506.068 8.90961 505.997 8.9301 505.919 8.94904C506.131 8.9941 506.327 9.00785 506.476 8.98253C506.57 8.9667 506.625 8.94311 506.695 8.92262C506.483 8.87756 506.294 8.86536 506.138 8.88913ZM484.476 3.04568C484.664 3.05632 484.821 3.03413 484.953 2.97593C484.851 2.96201 484.757 2.94337 484.647 2.93416C484.466 2.91881 484.302 2.94574 484.178 3.00235C484.28 3.01784 484.382 3.03175 484.476 3.04568ZM473.006 2.69744C472.936 2.71793 472.865 2.73842 472.787 2.75735C472.999 2.80241 473.196 2.81617 473.344 2.79085C473.438 2.77502 473.493 2.75142 473.563 2.73093C473.351 2.68587 473.163 2.67524 473.006 2.69744ZM395.239 1.40051C395.169 1.421 395.099 1.44149 395.021 1.46042C395.233 1.50548 395.429 1.51924 395.577 1.49392C395.671 1.47809 395.726 1.45449 395.796 1.434C395.584 1.38894 395.396 1.37831 395.239 1.40051ZM8.26166 14.8179C8.15961 14.804 8.05765 14.7901 7.96342 14.7746C7.73667 14.8173 7.66663 14.8565 7.79239 14.8861C7.87098 14.9047 7.98858 14.9155 8.09063 14.9294C8.32522 14.8867 8.3796 14.849 8.26166 14.8179Z" fill="#14BEB6"/>
</svg>
