<svg width="87" height="87" viewBox="0 0 87 87" fill="none" xmlns="http://www.w3.org/2000/svg">
<path d="M81.2172 43.5C79.1379 43.7481 76.6391 44.114 73.9695 44.6499C66.8961 46.07 58.5033 48.7058 53.6046 53.6046C48.7058 58.5033 46.07 66.8961 44.6499 73.9695C44.114 76.6391 43.7481 79.1379 43.5 81.2172C43.2519 79.1379 42.886 76.6391 42.3501 73.9695C40.93 66.8961 38.2942 58.5033 33.3954 53.6046C28.4967 48.7058 20.1039 46.07 13.0305 44.6499C10.3609 44.114 7.86214 43.7481 5.78275 43.5C7.86214 43.2519 10.3609 42.886 13.0305 42.3501C20.1039 40.93 28.4967 38.2942 33.3954 33.3954C38.2942 28.4967 40.93 20.1039 42.3501 13.0305C42.886 10.3609 43.2519 7.86214 43.5 5.78275C43.7481 7.86214 44.114 10.3609 44.6499 13.0305C46.07 20.1039 48.7058 28.4967 53.6046 33.3954C58.5033 38.2942 66.8961 40.93 73.9695 42.3501C76.6391 42.886 79.1379 43.2519 81.2172 43.5Z" fill="#14BEB6" stroke="black"/>
</svg>
