<svg width="75" height="104" viewBox="0 0 75 104" fill="none" xmlns="http://www.w3.org/2000/svg">
<path d="M53.0306 44.8037C53.0306 44.8037 74.7196 52.4266 74.7196 75.4075C73.0184 86.4808 55.2278 97.1195 44.1353 82.0188C33.0427 66.9182 50.0537 46.5049 53.0306 44.8037Z" fill="#240703"/>
<path d="M59.7476 42.0538L61.8241 35.9865C61.8241 35.9865 65.4778 35.0602 67.4046 38.6495C69.3317 42.2388 64.2892 49.6141 59.9393 50.2338C58.7333 47.4262 59.7476 42.0538 59.7476 42.0538Z" fill="#FFDBBD"/>
<path d="M11.1565 42.0538L9.07996 35.9865C9.07996 35.9865 5.42628 35.0602 3.49944 38.6495C1.5726 42.2388 6.61484 49.6141 10.9648 50.2338C12.1707 47.4262 11.1565 42.0538 11.1565 42.0538Z" fill="#FFDBBD"/>
<path d="M24.3594 61.4707H46.7782V89.3444H24.3594V61.4707Z" fill="#FFDBBD"/>
<path d="M24.3596 61.4707V71.7815C27.185 74.8679 32.1562 78.7698 38.6261 77.71C42.1471 77.1332 44.8033 75.6873 46.7786 74.0296V61.4709H24.3596V61.4707Z" fill="#EABEA0"/>
<path d="M61.6786 42.0703C61.6878 41.8169 61.6925 41.5635 61.6925 41.3099C61.6925 25.5537 66.7267 7.7768 36.1022 7.51573C35.9614 7.51325 35.418 7.50952 35.4167 7.50952C35.4153 7.50952 34.8718 7.51304 34.731 7.51573C4.10678 7.77701 9.14095 25.5537 9.14095 41.3099C9.14095 41.5633 9.14571 41.8169 9.15482 42.0703C9.16393 42.3237 11.4556 53.3098 13.3522 56.2412C15.2488 59.1725 24.1509 73.056 34.8012 73.056C34.811 73.0471 36.0413 73.0465 36.0517 73.056C46.7018 73.056 55.9961 58.5142 57.8927 55.5826C59.7893 52.6512 61.6981 42.0701 61.6981 42.0701H61.6786V42.0703Z" fill="#FFDBBD"/>
<path d="M71.203 93.4933C70.7747 82.8214 62.5626 80.3565 57.6317 79.8421C55.4923 79.6187 46.7752 79.7628 46.7752 79.7628C46.5665 83.3355 42.3209 86.7569 35.6833 86.8853C29.0457 86.7569 24.2291 82.5285 24.2291 79.7628C24.2291 79.7628 15.8746 79.6189 13.7351 79.8421C8.80424 80.3565 0.591925 82.8214 0.163785 93.4933C-0.204731 96.1547 0.163785 99.9564 0.163785 99.9564C0.163785 99.9564 12.1662 103.63 34.8508 103.753C35.0198 103.755 36.3475 103.755 36.5164 103.753C59.201 103.63 71.2035 99.9564 71.2035 99.9564C71.2035 99.9564 71.5716 96.1547 71.203 93.4933Z" fill="#FFE492"/>
<path d="M26.069 89.0294C29.4933 91.1049 35.1423 90.1619 35.5804 86.8821C33.6608 86.7146 25.8375 85.5337 24.2291 79.7627C22.564 81.0585 20.4723 85.6376 26.069 89.0294Z" fill="#DBC171"/>
<path d="M44.9636 89.0294C41.5393 91.1049 35.8902 90.1619 35.4521 86.8821C37.3717 86.7146 45.195 85.5337 46.8035 79.7627C48.4686 81.0585 50.5603 85.6376 44.9636 89.0294Z" fill="#DBC171"/>
<path d="M9.22745 35.8791C10.0779 38.85 11.6965 40.8839 11.3125 43.0565C13.4801 38.85 11.8122 35.0224 11.3704 32.8962C10.9286 30.7698 11.7791 24.3908 16.8824 23.5403C21.9858 22.6898 25.3883 22.2645 27.3019 17.5865C29.2155 12.9084 34.7441 15.0348 38.1462 15.4601C41.5483 15.8853 46.7786 12.9084 46.7786 12.9084C45.3757 16.3105 45.8854 19.2874 49.8834 20.9886C53.8812 22.6898 56.8583 27.3677 56.0076 30.3446C55.1569 33.3215 59.0191 34.5177 60.3559 37.9138C61.6927 41.31 61.6927 41.31 61.6927 41.31C61.6927 41.31 60.1114 37.5865 63.5881 35.8793C65.3636 32.471 69.7808 15.9155 59.3487 7.50984C50.1196 0.0732804 28.3079 -4.21061 14.9763 6.18402C-1.82967 19.2874 9.22745 35.8791 9.22745 35.8791Z" fill="#240703"/>
</svg>
