<svg width="79" height="103" viewBox="0 0 79 103" fill="none" xmlns="http://www.w3.org/2000/svg">
<path d="M26.4382 58.8096H51.6076V84.9355H26.4382V58.8096Z" fill="#FFDBBD"/>
<path d="M41.2613 72.7821C46.0557 72.7821 49.4125 70.6354 51.6074 68.4119V58.8096H26.4382V63.0688C26.4382 63.0688 31.3155 72.7821 41.2613 72.7821Z" fill="#EABEA0"/>
<path d="M40.4081 8.20038C40.2862 8.19789 39.816 8.19458 39.8148 8.19458C39.8135 8.19458 39.3432 8.19789 39.2212 8.20038C12.7152 8.44799 17.0724 25.2943 17.0724 40.2258C17.0724 55.2681 32.6457 70.3106 39.8111 70.3106H39.8185C46.9839 70.3106 62.5572 55.2683 62.5572 40.2258C62.5572 25.2943 66.9143 8.44778 40.4081 8.20038Z" fill="#FFDBBD"/>
<path d="M77.8666 91.7086C77.3981 80.0381 68.4175 77.3425 63.0254 76.78C61.5447 76.6254 57.1848 76.6318 54.1818 76.6573L54.1845 76.6502C52.4409 76.6649 51.1527 76.6863 51.1527 76.6863C50.9246 80.5931 46.2817 82.6889 39.023 82.8291C31.7643 82.6887 26.4968 79.7106 26.4968 76.6863C26.4968 76.6863 25.3289 76.6662 23.724 76.6515L23.7267 76.6585C20.8378 76.632 16.5253 76.6231 15.0206 76.78C9.62827 77.3427 0.647663 80.0381 0.179151 91.7086C-0.223939 94.6191 0.179151 98.7767 0.179151 98.7767C0.179151 98.7767 13.3047 102.794 38.1122 102.928C38.2969 102.931 39.749 102.931 39.9335 102.928C64.741 102.794 77.8666 98.7767 77.8666 98.7767C77.8666 98.7767 78.2695 94.6191 77.8666 91.7086Z" fill="#B3EDFF"/>
<path d="M38.9568 85.6172L34.8433 90.3104L36.9165 102.93H40.9969L43.0701 90.3104L38.9568 85.6172Z" fill="#091E26"/>
<path d="M42.491 84.2025C42.491 82.0154 40.4326 81.2612 38.9573 81.2583L38.9571 81.2581C38.9557 81.2581 38.9542 81.2583 38.953 81.2583C38.9518 81.2583 38.9501 81.2581 38.9489 81.2581L38.9487 81.2583C37.4733 81.2612 35.415 82.0152 35.415 84.2025C35.415 86.1597 37.328 87.8292 38.6056 88.1644C38.6938 88.2052 39.2124 88.2052 39.3004 88.1644C40.5782 87.8292 42.491 86.1597 42.491 84.2025Z" fill="#091E26"/>
<path d="M38.9568 81.2063L51.6242 72.7822L54.4268 76.6858L46.6917 87.6359L38.9568 81.2063Z" fill="#D2F7FF"/>
<path d="M38.9568 81.2063L26.4548 72.7822L23.4868 76.6858L31.2217 87.6359L38.9568 81.2063Z" fill="#D2F7FF"/>
<path d="M15.4934 35.0794C17.3256 36.1584 18.5479 38.6409 18.8173 40.9309C20.1787 41.7145 20.1787 35.4698 20.1787 32.7221C20.1787 29.9744 21.4277 28.7256 22.4269 26.4774C23.426 24.2293 22.7063 17.2354 27.4374 14.9872C32.1685 12.739 36.3857 15.4868 39.0231 17.2354C41.6605 18.9839 44.7295 16.7358 45.6928 15.7367C46.6561 14.7375 49.7084 12.2397 54.6767 15.2371C59.6451 18.2345 59.1455 23.7297 58.6459 25.728C58.1464 27.7262 60.944 36.859 60.1697 39.2867C61.244 39.7473 61.287 35.2572 62.6715 35.181C64.0559 35.1048 65.8898 29.5792 65.8898 27.4037C65.8898 25.2282 68.8457 21.7314 67.1181 18.7338C65.3902 15.7364 67.6601 4.99566 56.0479 5.85898C53.023 3.11127 52.901 0 48.4047 0C44.1583 0 40.3825 2.74772 39.0231 2.74772C37.6639 2.74772 32.6681 -0.24968 29.9206 1.24902C27.1728 2.74772 24.2972 4.4963 23.4871 4.4963C22.6767 4.4963 16.3035 2.99761 15.4936 10.9907C13.9342 13.4885 9.71452 12.4894 10.8252 20.982C11.9358 29.4748 15.8037 33.4401 15.4934 35.0794Z" fill="#240703"/>
<path d="M63.8729 34.3433L57.7572 33.5787C57.257 31.866 55.6751 30.6101 53.8029 30.6101H46.1843C43.9571 30.6101 42.1412 32.3873 42.0696 34.5973C40.1484 34.1706 38.5546 34.3476 37.5584 34.5698C37.4725 32.3726 35.663 30.6101 33.4451 30.6101H25.8266C23.9544 30.6101 22.3727 31.866 21.8723 33.5787L15.7566 34.3433C15.4143 34.3859 15.1717 34.6981 15.2143 35.0404C15.2537 35.3563 15.5228 35.5876 15.8332 35.5876C15.8588 35.5876 15.8851 35.5859 15.9114 35.5826L21.705 34.8584V39.2278C21.705 41.5004 23.554 43.3492 25.8263 43.3492H33.4449C35.7173 43.3492 37.5663 41.5004 37.5663 39.2278V35.8528C38.4091 35.6327 40.0413 35.3739 42.0624 35.8797V39.2278C42.0624 41.5004 43.9114 43.3492 46.1839 43.3492H53.8025C56.0749 43.3492 57.9238 41.5004 57.9238 39.2278V34.8584L63.7172 35.5826C63.7435 35.5859 63.7696 35.5876 63.7955 35.5876C64.1058 35.5876 64.3747 35.3563 64.4143 35.0404C64.4578 34.6981 64.2149 34.3859 63.8729 34.3433ZM35.8183 39.2278C35.8183 40.5362 34.7537 41.6008 33.4453 41.6008H25.8268C24.5183 41.6008 23.4538 40.5362 23.4538 39.2278V34.7317C23.4538 33.4232 24.5183 32.3587 25.8268 32.3587H33.4453C34.7537 32.3587 35.8183 33.4232 35.8183 34.7317V39.2278ZM56.1759 39.2278C56.1759 40.5362 55.1113 41.6008 53.8029 41.6008H46.1843C44.8759 41.6008 43.8114 40.5362 43.8114 39.2278V34.7317C43.8114 33.4232 44.8759 32.3587 46.1843 32.3587H53.8029C55.1113 32.3587 56.1759 33.4232 56.1759 34.7317V39.2278Z" fill="black"/>
<path d="M60.8738 40.9307L62.671 35.1811C62.671 35.1811 65.8334 34.3033 67.5013 37.7048C69.1691 41.1063 64.8047 48.0955 61.0398 48.6828C59.996 46.0221 60.8738 40.9307 60.8738 40.9307Z" fill="#FFDBBD"/>
<path d="M18.8172 40.9307L17.02 35.1811C17.02 35.1811 13.8576 34.3033 12.1897 37.7048C10.5219 41.1063 14.8863 48.0955 18.6512 48.6828C19.695 46.0221 18.8172 40.9307 18.8172 40.9307Z" fill="#FFDBBD"/>
</svg>
