<svg width="106" height="106" viewBox="0 0 106 106" fill="none" xmlns="http://www.w3.org/2000/svg">
<g clip-path="url(#clip0_179_1620)">
<path d="M72.3574 43.2993L74.1455 37.8475C74.1455 37.8475 77.2917 37.015 78.951 40.2405C80.6103 43.4658 76.2682 50.093 72.5224 50.6499C71.4842 48.1269 72.3574 43.2993 72.3574 43.2993Z" fill="#FFDBBD"/>
<path d="M32.969 43.2993L31.1808 37.8475C31.1808 37.8475 28.0346 37.015 26.3753 40.2405C24.716 43.466 29.0582 50.093 32.804 50.6499C33.8424 48.1269 32.969 43.2993 32.969 43.2993Z" fill="#FFDBBD"/>
<path d="M94.0983 95.6562C94.0983 95.6562 93.2478 92.3961 92.3974 89.2776C89.9877 79.497 86.94 78.7883 83.1128 77.7252C79.2856 76.6621 66.7409 72.6222 63.5516 71.9844H42.4482C39.2588 72.6222 26.7141 76.6621 22.8869 77.7252C19.0597 78.7883 16.0122 79.497 13.6026 89.2776C12.7521 92.3961 11.9016 95.6562 11.9016 95.6562C11.9016 95.6562 20.6355 105.711 51.8837 105.997C52.1693 106.001 53.8309 106.001 54.1162 105.997C85.3645 105.711 94.0983 95.6562 94.0983 95.6562Z" fill="#F4F4F4"/>
<path d="M64.132 69.2743C62.8774 66.0784 62.5888 62.635 62.5888 62.635H43.2747C43.2747 62.635 42.9861 66.0784 41.7314 69.2743C42.796 71.2532 51.9688 76.3744 52.8465 77.1801H52.9341C53.8118 76.3744 63.0674 71.2532 64.132 69.2743Z" fill="#FFDBBD"/>
<path d="M62.9771 65.1658C62.6869 63.6866 62.5984 62.635 62.5984 62.635H43.2843C43.2843 62.635 43.1756 63.9263 42.804 65.6604C44.5632 67.1077 48.97 70.3426 53.2222 70.3426C57.5459 70.3426 61.5019 66.7006 62.9771 65.1658Z" fill="#EABEA0"/>
<path d="M52.7637 16.6034L52.763 16.6023C52.7481 16.6023 52.6867 16.6023 52.6718 16.6023L52.6712 16.6034C44.9813 16.6491 28.9058 22.4909 30.8317 41.9751C31.8703 53.1461 39.8532 68.1243 52.6699 68.1968C52.6705 68.1972 52.671 68.1978 52.6716 68.1985H52.7628C52.7634 68.1978 52.7639 68.1974 52.7645 68.1968C65.5812 68.1243 73.5643 53.1461 74.6027 41.9751C76.5291 22.4909 60.4536 16.6491 52.7637 16.6034Z" fill="#FFDBBD"/>
<path d="M31.9022 47.7217C32.3667 41.4636 33.0652 32.7616 41.7315 31.5922C50.3977 30.4227 60.1941 25.391 61.4539 22.2368C61.7728 25.4261 64.1116 30.529 67.8325 33.931C71.5534 37.333 73.7075 40.0373 73.5342 47.7217C74.3471 43.9855 77.7898 34.3562 72.014 25.2135C66.2381 16.0707 50.7167 9.9047 37.2152 20.6421C33.0688 24.5756 27.4399 35.0407 31.9022 47.7217Z" fill="#513E36"/>
<path d="M57.0748 80.2256C57.0748 80.2256 53.5261 77.126 52.9569 77.126L52.9561 77.1273L52.9552 77.126C52.3863 77.126 48.8376 80.2256 48.8376 80.2256L48.1389 83.5646C48.1389 83.5646 50.6345 87.5925 52.9552 87.5925C52.9557 87.5923 52.9559 87.5919 52.9561 87.5917C52.9563 87.5919 52.9565 87.5923 52.9569 87.5925C55.2779 87.5925 57.7735 83.5646 57.7735 83.5646L57.0748 80.2256Z" fill="#2B3841"/>
<path d="M52.9556 85.3789H52.9548H52.9539C51.4311 85.3793 50.54 85.7219 50.3472 86.6623C50.1917 87.4201 46.5597 100.614 45.1526 105.718C47.2714 105.844 49.5118 105.923 51.884 105.944C52.1695 105.949 53.8312 105.949 54.1165 105.944C56.3355 105.924 58.4368 105.853 60.4335 105.741C59.2329 101.08 55.7235 87.4435 55.5636 86.6642C55.3708 85.7238 54.4782 85.3795 52.9556 85.3789Z" fill="#2B3841"/>
<path d="M41.8638 68.9014L38.4729 73.0333L46.1162 86.2832L52.9554 77.1405L41.8638 68.9014Z" fill="white"/>
<path d="M64.0957 68.9014L67.4863 73.0333L59.8432 86.2832L52.9817 77.1405L64.0957 68.9014Z" fill="white"/>
<path d="M92.3973 89.2774C89.9876 79.4968 86.9399 78.7881 83.1127 77.725C80.7409 77.0661 75.0227 75.2648 70.2565 73.8376C67.7463 79.0528 61.1816 91.0907 53.0014 93.6462C53.0008 93.6491 53.0003 93.6521 52.9997 93.6551C52.9954 93.6538 52.9914 93.6523 52.9874 93.6508C52.9831 93.6521 52.9791 93.6536 52.9748 93.6551C52.9742 93.6521 52.9738 93.6491 52.9731 93.6462C44.7963 91.0917 38.2335 79.0628 35.7212 73.844C30.9593 75.2701 25.2549 77.0669 22.8867 77.7248C19.0595 78.7879 16.012 79.4966 13.6021 89.2772C12.7516 92.3957 11.9011 95.6559 11.9011 95.6559C11.9011 95.6559 20.635 105.711 51.8832 105.997C52.1688 106.001 53.8304 106.001 54.1157 105.997C85.364 105.711 94.0979 95.6559 94.0979 95.6559C94.0979 95.6559 93.2478 92.3959 92.3973 89.2774Z" fill="#333841"/>
<path d="M83.9403 90.2422C83.9167 92.7903 83.6712 99.3784 83.113 101.774C83.9355 101.479 84.4583 101.283 84.4583 101.283C84.612 99.3407 84.9947 94.8012 83.9403 90.2422Z" fill="#3D454E"/>
<path d="M22.0029 90.2422C22.0265 92.7903 22.272 99.3784 22.8302 101.774C22.0077 101.479 21.4849 101.283 21.4849 101.283C21.3312 99.3407 20.9483 94.8012 22.0029 90.2422Z" fill="#3D454E"/>
<path d="M18.8018 14.4365H20.3082V32.8607H18.8018V14.4365Z" fill="#FBB342"/>
<path d="M22.3937 33.8455C22.3937 32.2776 21.1226 31.0066 19.5548 31.0066C17.9869 31.0066 16.7158 32.2776 16.7158 33.8455V53.6861H22.3937V33.8455Z" fill="#FDD148"/>
<path d="M19.5548 29.7156C21.1724 29.7156 22.4837 28.3575 22.4837 26.6822C22.4837 25.0068 21.1724 23.6487 19.5548 23.6487C17.9373 23.6487 16.626 25.0068 16.626 26.6822C16.626 28.3575 17.9373 29.7156 19.5548 29.7156Z" fill="#FDD148"/>
<path d="M52.9734 26.0141L93.267 13.2776L52.9541 0L12.6411 13.2776L52.9347 26.0141L52.9426 26.0239L52.9541 26.0203L52.9655 26.0239L52.9734 26.0141Z" fill="#333841"/>
<path d="M53.1152 9.37689C53.1075 9.37689 53.1001 9.37646 53.0924 9.37646C53.0886 9.37646 53.085 9.37646 53.0814 9.37646C53.0778 9.37646 53.0739 9.37646 53.0703 9.37646C53.0627 9.37646 53.0552 9.37668 53.0476 9.37689C43.5761 9.38369 36.0884 11.5448 30.988 14.7841V30.6976C30.988 30.6976 40.5399 26.8417 53.0623 31.6133C53.065 31.6172 53.0676 31.6208 53.0703 31.6246C53.0742 31.6231 53.0778 31.6218 53.0814 31.6206C53.0852 31.6221 53.0888 31.6233 53.0924 31.6246C53.0952 31.6208 53.0978 31.6172 53.1005 31.6133C65.6231 26.8417 75.1747 30.6976 75.1747 30.6976V14.7841C70.0746 11.5448 62.5869 9.38391 53.1152 9.37689Z" fill="#3D454E"/>
</g>
<defs>
<clipPath id="clip0_179_1620">
<rect width="106" height="106" fill="white"/>
</clipPath>
</defs>
</svg>
