<svg width="383" height="24" viewBox="0 0 383 24" fill="none" xmlns="http://www.w3.org/2000/svg">
<path d="M360.033 12.3424C359.509 12.3628 358.979 12.3771 358.466 12.4072C358.132 12.426 357.988 12.3727 357.765 12.3451C357.691 12.3355 357.611 12.3161 357.542 12.3187C357.023 12.3391 356.504 12.3619 355.985 12.3847C355.827 12.4325 355.727 12.496 355.483 12.5195C355.245 12.5418 354.964 12.5423 354.7 12.5538C354.35 12.5678 354 12.5818 353.651 12.5945C353.476 12.6009 353.333 12.6243 353.275 12.6683C353.265 12.6756 353.382 12.6936 353.445 12.7045C353.658 12.7406 353.865 12.7817 354.099 12.8093C354.321 12.8357 354.597 12.7914 354.835 12.8251C355.372 12.9008 355.377 12.8996 355.785 12.8843C356.134 12.8703 356.484 12.8551 356.833 12.8447C356.902 12.8422 356.982 12.8603 357.056 12.8699C357.279 12.8963 357.423 12.957 357.751 12.9333C358 12.9146 358.276 12.9104 358.535 12.9002C358.753 12.9352 358.955 12.975 359.188 13.0026C359.406 13.029 359.47 13.0496 359.354 13.0851C359.248 13.1182 359.1 13.1318 358.904 13.1346C358.729 13.1361 358.554 13.1474 358.379 13.1538C358.289 13.1576 358.205 13.1602 358.12 13.164C357.786 13.1779 357.786 13.1779 357.176 13.1011C356.937 13.071 356.667 13.1141 356.439 13.0853C356.285 13.0661 356.152 13.0371 356.004 13.0167C355.94 13.0082 355.839 13.0072 355.76 13.0098C355.495 13.0187 355.23 13.0253 354.976 13.0416C354.796 13.0528 354.69 13.0871 354.712 13.1212C354.717 13.1346 354.845 13.1538 354.919 13.1549C355.088 13.1571 355.268 13.1397 355.433 13.1479C355.592 13.1562 355.756 13.1802 355.873 13.2068C356.113 13.2624 356.382 13.212 356.61 13.2263C356.849 13.2417 357.046 13.29 357.274 13.3189C357.332 13.3261 357.443 13.3137 357.533 13.3099C357.793 13.3009 358.053 13.2932 358.312 13.2842C358.53 13.3191 358.763 13.3504 358.96 13.3902C359.316 13.4627 359.698 13.49 360.158 13.4539C360.418 13.434 360.672 13.4408 360.879 13.488C361.092 13.5363 361.336 13.531 361.606 13.5208C361.855 13.5106 362.109 13.4834 362.364 13.517C362.916 13.5916 362.921 13.5952 363.572 13.5649C363.768 13.556 363.917 13.5533 364.065 13.5811C364.204 13.6064 364.352 13.6281 364.496 13.6522C364.755 13.6432 365.02 13.6342 365.28 13.624C365.613 13.61 365.799 13.6268 365.879 13.6948C365.927 13.7361 365.949 13.7738 366.066 13.8016C366.204 13.8355 366.353 13.834 366.554 13.8239C366.744 13.8151 366.882 13.8014 366.961 13.7575C366.993 13.7392 367.056 13.722 367.114 13.7073C367.162 13.6962 367.236 13.6791 367.278 13.6814C367.358 13.6862 367.464 13.6994 367.49 13.7151C367.752 13.862 367.752 13.8633 368.017 13.9054C368.309 13.9524 368.612 13.9945 368.878 14.0476C369.117 14.0947 369.355 14.0736 369.615 14.0731C369.811 14.0728 369.938 14.1042 369.923 14.1359C369.912 14.1542 369.838 14.1811 369.775 14.1836C369.256 14.2089 368.732 14.2305 368.207 14.2485C368.144 14.251 368.064 14.2292 367.99 14.2184C367.841 14.1967 367.708 14.1629 367.549 14.1558C367.39 14.1488 367.205 14.1674 367.03 14.1738C366.855 14.1802 366.67 14.1964 366.511 14.1869C366.352 14.1774 366.224 14.1423 366.075 14.1194C366.006 14.1086 365.911 14.0929 365.852 14.0967C365.466 14.1266 365.179 14.0869 364.903 14.0338C364.845 14.0229 364.744 14.0158 364.67 14.0184C364.055 14.0401 363.446 14.0656 362.832 14.0898C362.583 14.0999 362.381 14.0577 362.327 13.9859C362.3 13.9458 362.246 13.9057 362.246 13.8655C362.245 13.7924 361.953 13.7528 361.741 13.7617C361.392 13.7744 361.037 13.7848 360.693 13.8037C360.412 13.8188 360.173 13.8046 359.982 13.7611C359.759 13.7115 359.504 13.7217 359.25 13.7355C359.06 13.7456 359.007 13.7859 359.019 13.8869C359.03 13.9685 358.941 13.9942 358.596 14.0082C358.162 14.026 357.722 14.0438 357.283 14.058C357.214 14.0605 357.134 14.04 357.065 14.0291C356.916 14.0075 356.784 13.9724 356.624 13.9654C356.465 13.9571 356.28 13.9757 356.105 13.9833C355.931 13.9897 355.745 14.0071 355.586 13.9988C355.427 13.9906 355.294 13.9543 355.151 13.9314C355.082 13.9206 354.997 13.9049 354.928 13.9074C354.578 13.9178 354.229 13.933 353.879 13.947C353.487 13.9623 353.487 13.9623 352.93 13.8878C352.675 13.8541 352.421 13.8813 352.172 13.8915C351.907 13.9017 351.658 13.907 351.451 13.8587C351.313 13.8272 351.159 13.808 350.995 13.8144C350.555 13.8298 350.121 13.8488 349.681 13.8642C349.607 13.8667 349.506 13.8608 349.448 13.85C349.166 13.7993 348.89 13.7596 348.498 13.7859C348.16 13.8084 347.794 13.8102 347.455 13.8315C347.27 13.8428 347.185 13.8819 347.223 13.9123C347.244 13.9281 347.356 13.9461 347.43 13.946C347.599 13.9469 347.785 13.9283 347.944 13.9354C348.273 13.9494 348.438 14.0514 348.867 14.0227C349.121 14.0052 349.386 13.9986 349.651 13.9933C349.72 13.992 349.794 14.015 349.869 14.027C350.081 14.0595 350.267 14.1018 350.574 14.0794C350.828 14.0619 351.098 14.0565 351.358 14.0464C351.771 14.0298 351.771 14.031 352.307 14.1044C352.562 14.1392 352.816 14.1108 353.065 14.1018C353.25 14.0954 353.425 14.083 353.574 14.0997C353.802 14.1249 353.967 14.1831 354.248 14.1789C354.513 14.1748 354.772 14.1573 355.037 14.1508C355.201 14.1468 355.355 14.1661 355.488 14.1987C355.626 14.2313 355.775 14.2457 355.955 14.2381C356.214 14.2279 356.479 14.2152 356.744 14.2087C356.818 14.2073 356.903 14.2182 356.972 14.2278C357.121 14.2494 357.264 14.2748 357.408 14.2977C357.667 14.2899 357.932 14.287 358.186 14.272C358.382 14.2607 358.52 14.2653 358.679 14.2894C358.881 14.3219 359.046 14.3801 359.374 14.3515C359.538 14.3378 359.729 14.3411 359.893 14.3287C360.095 14.3125 360.232 14.3183 360.376 14.3546C360.647 14.4235 360.986 14.4242 361.336 14.3968C361.717 14.3669 362.003 14.4005 362.29 14.4536C362.593 14.5091 362.593 14.5078 362.828 14.6426C362.897 14.6814 363.093 14.6994 363.258 14.6918C363.533 14.6791 363.772 14.6848 363.974 14.7307C364.186 14.7803 364.44 14.7737 364.7 14.7599C365.044 14.741 365.388 14.7246 365.67 14.7947C365.808 14.8286 365.957 14.8369 366.142 14.828C366.667 14.8052 367.196 14.7909 367.71 14.7632C368.022 14.7456 368.203 14.7843 368.415 14.8168C368.702 14.8613 369.015 14.901 369.016 14.9972C369.017 15.013 369.091 15.0311 369.155 15.0432C369.293 15.0685 369.442 15.0902 369.585 15.1143C369.797 15.1504 370.004 15.1805 370.296 15.1605C370.55 15.1443 370.82 15.1389 371.079 15.1275C371.339 15.1161 371.577 15.1096 371.811 15.1555C372.082 15.2074 372.369 15.2568 372.677 15.2952C372.894 15.3229 373.18 15.2749 373.414 15.3122C373.557 15.3351 373.695 15.3617 373.849 15.3809C373.912 15.3893 374.013 15.383 374.098 15.3804C374.273 15.3753 374.453 15.3713 374.622 15.3588C374.818 15.3451 374.967 15.3473 375.115 15.375C375.253 15.4004 375.392 15.4354 375.551 15.4425C375.789 15.453 376.054 15.4038 376.293 15.4594C376.415 15.4872 376.569 15.5138 376.728 15.522C376.887 15.5302 377.072 15.5117 377.242 15.5126C377.316 15.5124 377.407 15.5318 377.449 15.5475C377.476 15.556 377.439 15.5792 377.402 15.5915C377.355 15.6061 377.286 15.6258 377.217 15.6283C376.693 15.6511 376.168 15.6703 375.644 15.6919C375.331 15.7046 375.331 15.7046 374.7 15.629C374.551 15.611 374.387 15.6149 374.202 15.6238C373.953 15.6352 373.699 15.6563 373.439 15.6349C373.098 15.5527 372.68 15.5461 372.235 15.5785C372.05 15.5922 371.88 15.5925 371.742 15.5696C371.45 15.5238 371.142 15.4818 370.882 15.4274C370.68 15.3852 370.584 15.3817 370.5 15.4403C370.474 15.4586 370.448 15.4781 370.453 15.4951C370.486 15.556 370.545 15.6155 370.577 15.6764C370.588 15.6934 370.546 15.7129 370.52 15.7313C370.436 15.7825 370.324 15.7791 370.138 15.7368C369.952 15.6945 369.729 15.6669 369.433 15.6869C369.179 15.7044 368.903 15.7024 368.649 15.7211C368.257 15.7486 367.981 15.7101 367.7 15.6582C367.641 15.6474 367.541 15.6414 367.466 15.644C366.677 15.6734 365.893 15.7064 365.104 15.7358C364.934 15.7422 364.78 15.7242 364.648 15.6915C364.509 15.6589 364.356 15.6421 364.186 15.6485C363.487 15.6753 362.788 15.6996 362.088 15.7325C361.802 15.7464 361.575 15.7309 361.378 15.6887C361.229 15.6573 361.091 15.6478 360.906 15.6517C360.704 15.6557 360.562 15.6682 360.461 15.7037C360.366 15.7379 360.435 15.7585 360.648 15.7849C360.876 15.8137 361.088 15.8511 361.306 15.8848C361.481 15.8797 361.656 15.8696 361.825 15.8705C361.899 15.8704 361.969 15.8922 362.043 15.9043C362.255 15.9392 362.452 15.9742 362.754 15.9542C363.008 15.9367 363.278 15.9326 363.538 15.9212C363.898 15.9071 363.898 15.9071 364.482 15.9828C364.63 16.0021 364.789 16.0006 364.98 15.9893C365.144 15.9805 365.314 15.9972 365.431 16.0335C365.479 16.0481 365.463 16.0725 365.363 16.153C365.364 16.2127 365.475 16.1857 365.512 16.1467C365.569 16.0905 365.458 16.0725 365.246 16.1033C365.098 16.1255 365.024 16.1572 365.062 16.1828C365.083 16.1961 365.184 16.213 365.363 16.153C365.829 16.0791 366.184 16.07 366.523 16.0499C366.724 16.0386 366.851 16.0433 367.01 16.0746C367.202 16.1121 367.393 16.1519 367.705 16.1319C368.044 16.1094 368.405 16.1063 368.749 16.0874C369.067 16.0699 369.232 16.1231 369.433 16.1545C369.678 16.1918 369.947 16.1487 370.17 16.1702C370.403 16.1917 370.568 16.245 370.839 16.2543C371.231 16.2207 371.48 16.2812 371.778 16.3209C372.011 16.3509 372.286 16.3236 372.535 16.3098C372.816 16.2947 373.049 16.3077 373.246 16.3512C373.469 16.4007 373.718 16.3893 373.972 16.3779C374.566 16.3526 374.587 16.3489 374.932 16.4152C375.182 16.4635 375.42 16.4412 375.669 16.4347C375.886 16.4672 376.099 16.5021 376.327 16.5309C376.385 16.5381 376.497 16.5258 376.587 16.522C376.846 16.5118 377.111 16.5016 377.371 16.4914C377.545 16.485 377.731 16.4664 377.89 16.4734C378.049 16.4817 378.182 16.5168 378.325 16.5397C378.468 16.5625 378.617 16.5854 378.755 16.6095C378.968 16.6457 379.169 16.6758 379.466 16.657C379.72 16.6407 379.985 16.6354 380.25 16.624C380.583 16.61 380.573 16.6137 381.194 16.6857C381.528 16.7253 381.872 16.676 382.211 16.6705C382.381 16.6678 382.545 16.6809 382.662 16.716C382.71 16.7305 382.694 16.7549 382.711 16.7756C381.837 16.81 380.957 16.8395 380.094 16.8812C379.76 16.8976 379.585 16.8541 379.404 16.8178C379.107 16.7599 378.716 16.8458 378.434 16.7708C378.264 16.7261 378.02 16.7009 377.728 16.7233C377.559 16.7358 377.379 16.7349 377.204 16.7462C376.759 16.7737 376.351 16.7757 375.995 16.6923C375.873 16.6632 375.698 16.6477 375.57 16.6199C375.422 16.5897 375.278 16.5729 375.103 16.5793C374.314 16.6099 373.53 16.6405 372.746 16.6735C372.678 16.6761 372.609 16.6945 372.551 16.708C372.403 16.7423 372.451 16.769 372.69 16.7905C372.769 16.7977 372.833 16.8134 372.907 16.8255C373.051 16.8483 373.184 16.8847 373.343 16.8929C373.502 16.9011 373.687 16.8838 373.862 16.8774C374.037 16.871 374.222 16.8524 374.381 16.8594C374.54 16.8677 374.673 16.9028 374.822 16.9244C374.891 16.9353 374.976 16.9534 375.045 16.952C375.394 16.9441 375.738 16.9301 376.088 16.9186C376.306 16.9511 376.492 16.9982 376.752 17.0088C376.916 17.0158 377.091 17.0021 377.26 17.0042C377.334 17.0053 377.43 17.0234 377.467 17.0392C377.489 17.0489 377.42 17.0733 377.367 17.0856C377.166 17.1322 376.891 17.1242 376.642 17.1392C376.372 17.1555 376.128 17.1511 375.921 17.104C375.783 17.0725 375.629 17.0558 375.459 17.0621C375.019 17.0787 374.585 17.0978 374.145 17.1119C374.071 17.1145 373.981 17.1037 373.912 17.0953C373.355 17.022 373.355 17.0195 372.963 17.036C372.385 17.0602 372.386 17.0602 371.998 16.9963C371.924 16.9842 371.844 16.9613 371.78 16.9626C371.166 16.9831 370.557 17.0037 369.947 17.0327C369.746 17.0416 369.608 17.0419 369.46 17.0104C369.332 16.9839 369.183 16.9537 369.024 16.9467C368.86 16.9396 368.68 16.9582 368.505 16.9646C368.33 16.971 368.145 16.9872 367.991 16.9777C367.832 16.9682 367.694 16.9344 367.556 16.9103C367.413 16.8849 367.259 16.8864 367.063 16.8965C366.459 16.9255 366.454 16.9219 365.854 16.8474C365.785 16.839 365.695 16.8295 365.621 16.832C365.181 16.8474 364.747 16.8664 364.307 16.8818C364.138 16.8882 363.973 16.8726 363.856 16.8375C363.808 16.823 363.824 16.7986 363.791 16.7512C363.754 16.7403 363.797 16.7597 363.808 16.7779C363.887 16.7754 363.983 16.7776 364.041 16.7678C364.189 16.7444 364.263 16.7138 364.225 16.6883C364.204 16.675 364.103 16.6581 364.039 16.6582C363.923 16.6584 363.822 16.6854 363.791 16.7512C363.458 16.7919 363.103 16.8011 362.759 16.8212C362.558 16.8337 362.43 16.8278 362.271 16.7964C362.08 16.7578 361.883 16.7204 361.571 16.7404C361.232 16.7629 360.872 16.7672 360.522 16.7849C360.12 16.805 359.943 16.6957 359.604 16.6988C359.255 16.7018 358.905 16.7231 358.555 16.7383C358.248 16.7511 358.248 16.751 357.611 16.673C357.378 16.6442 357.103 16.6873 356.875 16.6572C356.721 16.638 356.588 16.609 356.439 16.5886C356.376 16.5802 356.275 16.5803 356.195 16.5829C355.756 16.5983 355.311 16.6088 354.887 16.6363C354.405 16.6688 354.039 16.6354 353.694 16.5641C353.259 16.5783 352.82 16.5863 352.391 16.6102C352.078 16.6278 351.898 16.5879 351.685 16.5554C351.611 16.5446 351.547 16.5264 351.468 16.5217C351.388 16.517 351.293 16.5269 351.208 16.5307C350.858 16.5447 350.498 16.5514 350.159 16.5739C349.741 16.6026 349.581 16.5031 349.257 16.4915C349.041 16.5515 348.925 16.6333 348.496 16.6401C348.146 16.6456 347.797 16.6657 347.447 16.6797C347.273 16.6861 347.098 16.6937 346.923 16.7001C346.642 16.7115 346.51 16.7592 346.569 16.8322C346.602 16.8723 346.629 16.9125 346.656 16.9526C346.71 17.0244 346.578 17.0855 346.355 17.0944C345.741 17.1186 345.132 17.144 344.517 17.1657C344.353 17.1721 344.194 17.1517 344.061 17.1191C343.923 17.0864 343.769 17.0721 343.599 17.0785C342.985 17.1027 342.376 17.1281 341.762 17.1498C341.693 17.1524 341.602 17.1404 341.533 17.1307C341.385 17.1091 341.241 17.0838 341.098 17.0609C340.748 17.0724 340.404 17.0803 340.06 17.0956C339.504 17.1184 339.504 17.1197 339.095 17.0534C339.02 17.0413 338.946 17.0183 338.877 17.0197C338.612 17.025 338.353 17.0376 338.088 17.0491C337.309 17.0821 337.309 17.0821 337.081 17.0459C336.874 17.0122 336.688 16.9711 336.375 16.9911C336.036 17.0137 335.676 17.0216 335.327 17.0344C335.067 17.0433 334.808 17.0535 334.548 17.0564C334.479 17.0578 334.405 17.0347 334.33 17.0227C334.118 16.9853 333.911 16.9552 333.619 16.9764C333.45 16.9889 333.27 16.9917 333.095 16.9981C332.64 17.0159 332.64 17.0159 331.891 16.9441C331.817 16.9369 331.727 16.9286 331.653 16.9324C331.038 16.9553 330.429 16.9808 329.815 17.0025C329.741 17.0051 329.651 16.9979 329.576 16.992C328.738 16.9228 328.738 16.9228 327.848 16.9585C327.509 16.9712 327.499 16.9761 327.143 16.9122C326.984 16.8845 326.851 16.8713 326.666 16.8801C325.966 16.9106 325.262 16.9313 324.568 16.9666C324.256 16.9817 324.075 16.9455 323.863 16.913C323.788 16.9022 323.709 16.878 323.645 16.8793C322.946 16.9036 322.247 16.9329 321.547 16.9572C321.484 16.9598 321.404 16.9355 321.33 16.9247C321.186 16.903 321.048 16.8704 320.889 16.8634C320.725 16.8563 320.545 16.8749 320.365 16.8813C319.925 16.8979 319.925 16.8967 319.415 16.8257C319.346 16.8161 319.256 16.8029 319.187 16.8054C318.488 16.831 317.784 16.8529 317.09 16.8895C316.692 16.9096 316.422 16.8748 316.14 16.8241C316.082 16.8133 315.981 16.8086 315.907 16.8111C315.118 16.8405 314.334 16.8735 313.545 16.9029C313.38 16.9093 313.221 16.8888 313.088 16.8574C312.876 16.8079 312.627 16.8144 312.362 16.8258C311.753 16.8524 311.747 16.8512 311.386 16.7934C311.312 16.7814 311.248 16.7656 311.169 16.7597C311.095 16.7537 310.999 16.7575 310.92 16.7601C310.57 16.7729 310.221 16.7869 309.871 16.8009C309.521 16.8149 309.166 16.8228 308.822 16.8441C308.398 16.8704 308.196 16.7916 307.899 16.7556C307.465 16.7722 307.02 16.7827 306.591 16.809C306.262 16.8291 306.108 16.7758 305.89 16.7481C305.816 16.7385 305.736 16.718 305.667 16.7205C304.878 16.7487 304.089 16.7793 303.305 16.8135C303.114 16.8211 302.987 16.8116 302.828 16.7827C302.472 16.7175 302.456 16.72 301.863 16.7454C301.603 16.7568 301.354 16.767 301.131 16.7174C300.935 16.6727 300.696 16.6622 300.415 16.6773C300.071 16.6961 299.716 16.7065 299.367 16.7193C299.017 16.7333 298.667 16.7521 298.318 16.7588C298.037 16.7654 297.867 16.7085 297.644 16.6797C297.575 16.6713 297.479 16.6702 297.4 16.6728C297.05 16.6843 296.69 16.6935 296.351 16.7148C295.938 16.7411 295.709 16.6745 295.418 16.636C295.354 16.6276 295.248 16.6327 295.168 16.6365C294.554 16.6594 293.945 16.6848 293.33 16.7091C293.113 16.6766 292.89 16.6453 292.672 16.6128C292.322 16.6256 291.973 16.6396 291.623 16.6523C291.358 16.6625 291.088 16.6667 290.839 16.6854C290.516 16.7103 290.357 16.6533 290.139 16.6257C290.065 16.6161 289.985 16.5955 289.916 16.5981C289.477 16.6122 289.037 16.6276 288.603 16.6491C288.19 16.6705 288.024 16.5612 287.685 16.563C287.335 16.5648 286.975 16.5813 286.636 16.6038C286.244 16.63 285.968 16.5915 285.687 16.5397C285.628 16.5288 285.527 16.5229 285.453 16.5255C285.014 16.5408 284.579 16.5599 284.14 16.5752C284.066 16.5778 283.975 16.5719 283.901 16.5647C283.063 16.4943 283.063 16.4931 282.697 16.5083C282.438 16.5185 282.173 16.5312 281.908 16.5377C281.834 16.5403 281.744 16.5295 281.675 16.5198C281.123 16.4465 281.123 16.4453 280.725 16.4606C280.376 16.4746 280.026 16.4886 279.677 16.5026C279.459 16.4701 279.236 16.4388 279.018 16.4063C278.584 16.4229 278.139 16.4359 277.71 16.4585C277.509 16.4686 277.376 16.4652 277.222 16.435C277.031 16.3988 276.84 16.3565 276.522 16.3778C276.183 16.4003 275.823 16.4034 275.479 16.4222C275.066 16.4449 274.895 16.3343 274.561 16.3361C274.211 16.338 273.851 16.3544 273.512 16.3769C273.12 16.4032 272.844 16.3647 272.563 16.3128C272.504 16.302 272.403 16.296 272.329 16.2986C271.365 16.3356 270.407 16.3726 269.443 16.412C268.849 16.4361 268.849 16.4374 267.72 16.3724C267.64 16.3676 267.555 16.3629 267.476 16.3655C267.126 16.377 266.766 16.3862 266.427 16.4075C266.014 16.4338 265.785 16.3684 265.493 16.3287C265.43 16.3203 265.329 16.3254 265.244 16.3279C264.98 16.3369 264.72 16.3483 264.455 16.3586C264.106 16.3726 263.756 16.3865 263.406 16.4005C263.189 16.3693 262.966 16.3368 262.748 16.3055C262.314 16.3221 261.869 16.3314 261.44 16.3577C261.111 16.3777 260.957 16.3269 260.74 16.298C260.665 16.2884 260.586 16.2678 260.517 16.2692C259.727 16.2973 258.938 16.3267 258.154 16.3622C257.831 16.3773 257.682 16.3228 257.465 16.2952C257.39 16.2868 257.305 16.2711 257.236 16.2737C256.712 16.2916 256.188 16.3132 255.663 16.3348C255.367 16.3475 255.367 16.3475 254.719 16.2731C254.645 16.2648 254.56 16.2564 254.486 16.2589C252.823 16.3227 251.165 16.3901 249.501 16.4539C249.332 16.4603 249.178 16.4423 249.045 16.4096C248.907 16.377 248.753 16.3602 248.584 16.3666C247.884 16.3934 247.18 16.4178 246.486 16.4506C246.2 16.4645 245.972 16.4491 245.775 16.4068C245.627 16.3754 245.489 16.3635 245.303 16.3711C244.954 16.3863 244.604 16.3991 244.255 16.4131C243.905 16.4271 243.555 16.4411 243.206 16.4551C242.856 16.4691 242.501 16.477 242.157 16.4983C241.734 16.5246 241.526 16.4495 241.234 16.4122C240.71 16.4314 240.185 16.4506 239.666 16.471C238.967 16.4978 238.268 16.527 237.568 16.5525C237.505 16.5551 237.425 16.5333 237.351 16.5225C237.133 16.4924 236.974 16.4501 236.651 16.464C235.083 16.5313 233.504 16.5888 231.931 16.6549C231.603 16.6688 231.459 16.6167 231.236 16.5891C231.162 16.5807 231.077 16.5638 231.008 16.5664C230.134 16.5983 229.26 16.6339 228.386 16.6683C228.031 16.6823 228.031 16.6823 227.437 16.6079C227.368 16.5995 227.277 16.5887 227.203 16.5912C226.064 16.6346 224.931 16.6804 223.792 16.725C223.623 16.7314 223.469 16.7146 223.331 16.682C223.198 16.6493 223.039 16.6313 222.874 16.6377C221.826 16.6785 220.771 16.7181 219.728 16.7625C219.447 16.7752 219.214 16.7646 219.012 16.7211C218.869 16.6897 218.725 16.6766 218.545 16.6842C216.972 16.7466 215.399 16.8065 213.826 16.8726C213.524 16.8853 213.312 16.8625 213.12 16.8227C212.966 16.7913 212.834 16.7854 212.643 16.7906C212.442 16.7971 212.32 16.8107 212.209 16.8474C212.067 16.8951 211.977 16.9549 211.638 16.9592C211.289 16.9634 210.934 16.9787 210.59 17C210.261 17.0213 210.107 16.9667 209.9 16.9342C209.746 16.9113 209.603 16.9079 209.407 16.9192C209.227 16.9293 209.116 16.9502 209.01 16.9893C208.778 17.0725 208.757 17.0726 208.47 17.0207C208.316 16.993 208.178 16.9713 208.008 16.9764C207.309 17.002 206.61 17.03 205.911 17.0592C205.508 17.0758 205.503 17.0782 205.2 17.0178C205.052 16.9877 204.908 16.9733 204.733 16.9809C202.811 17.0573 200.888 17.1313 198.965 17.2113C198.669 17.224 198.467 17.1988 198.255 17.1626C198.186 17.1506 198.116 17.1336 198.037 17.1289C197.957 17.1242 197.867 17.1292 197.783 17.1318C196.384 17.1866 194.98 17.2389 193.587 17.2998C193.27 17.3138 193.1 17.2751 192.882 17.2438C192.808 17.233 192.744 17.216 192.664 17.2113C192.585 17.2078 192.489 17.2165 192.405 17.2203C191.006 17.2751 189.603 17.3274 188.21 17.3883C187.876 17.4023 187.732 17.3514 187.515 17.325C187.44 17.3153 187.361 17.2972 187.292 17.2998C186.852 17.3139 186.418 17.3329 185.978 17.3495C184.929 17.3915 183.881 17.4311 182.832 17.4743C182.429 17.4909 182.253 17.3828 181.914 17.3882C181.474 17.3951 181.04 17.4202 180.6 17.438C180.251 17.452 179.901 17.4648 179.552 17.48C179.207 17.494 179.207 17.494 178.348 17.4249C178.274 17.4189 178.184 17.4106 178.109 17.4131C176.886 17.4603 175.657 17.5075 174.439 17.5583C174.158 17.5698 173.925 17.5641 173.723 17.5194C173.579 17.488 173.431 17.4724 173.256 17.48C171.418 17.5526 169.585 17.6252 167.747 17.6966C167.678 17.6991 167.588 17.6871 167.519 17.6775C167.371 17.6558 167.227 17.6305 167.084 17.6076C166.978 17.6358 166.841 17.6616 166.772 17.6934C166.677 17.7362 166.55 17.7486 166.349 17.7562C166.148 17.7639 166.021 17.7617 165.861 17.7303C165.67 17.6916 165.473 17.6615 165.161 17.6742C163.238 17.7543 161.315 17.8271 159.393 17.9059C159.075 17.9186 158.926 17.8653 158.703 17.8377C158.629 17.8293 158.544 17.816 158.475 17.8186C157.686 17.848 156.902 17.8798 156.112 17.9104C153.925 17.997 151.737 18.0799 149.555 18.1714C149.158 18.1879 148.887 18.1579 148.606 18.106C148.547 18.0952 148.446 18.0893 148.372 18.0918C145.311 18.2116 142.249 18.3326 139.193 18.4536C139.029 18.46 138.869 18.4407 138.737 18.4093C138.598 18.3767 138.445 18.3611 138.275 18.3675C136.877 18.4223 135.478 18.4771 134.08 18.5331C133.73 18.5471 133.725 18.5483 133.364 18.4905C133.29 18.4784 133.21 18.4554 133.152 18.458C133.03 18.4643 132.914 18.4949 132.829 18.5365C132.745 18.5804 132.613 18.5929 132.417 18.6017C132.215 18.6106 132.083 18.6072 131.929 18.5782C131.732 18.542 131.552 18.507 131.234 18.5198C127.214 18.6826 123.193 18.8393 119.173 19.001C118.85 19.0137 118.701 18.9628 118.478 18.9352C118.404 18.9268 118.33 18.9147 118.25 18.9125C118.165 18.9102 118.075 18.9176 117.99 18.9214C111.433 19.18 104.876 19.4398 98.3181 19.6984C97.9261 19.7137 97.9314 19.7136 97.5035 19.8264C97.4507 19.8399 97.382 19.8583 97.3078 19.8608C95.3003 19.9423 93.2876 20.0212 91.2748 20.1002C90.4008 20.1346 89.5269 20.1702 88.6529 20.2034C88.3404 20.2149 88.3404 20.2149 87.5948 20.3477C87.5313 20.3588 87.4572 20.3735 87.3831 20.3761C83.8872 20.5149 80.3912 20.6537 76.89 20.7901C76.6146 20.8003 76.3923 20.8226 76.2658 20.8813C76.1763 20.9228 76.06 20.9474 75.8852 20.955C73.4381 21.0518 70.991 21.1498 68.5385 21.2441C68.2472 21.2556 68.0727 21.29 67.9302 21.3414C67.8827 21.3585 67.8406 21.3781 67.7718 21.3904C67.7084 21.4014 67.613 21.4053 67.5336 21.409C65.4361 21.4918 63.3386 21.5771 61.2357 21.6562C60.9232 21.6677 60.7965 21.713 60.6434 21.7607C60.5906 21.7767 60.5537 21.7986 60.485 21.8097C60.4162 21.8196 60.3155 21.8198 60.2308 21.8223C58.4828 21.8911 56.7349 21.9611 54.987 22.0299C54.6477 22.0244 54.5744 22.0952 54.4106 22.1381C54.3525 22.1528 54.3104 22.1723 54.2417 22.1822C54.1676 22.1921 54.0721 22.191 53.982 22.1936C52.5836 22.2484 51.1854 22.3068 49.7816 22.358C49.4585 22.3695 49.3957 22.4317 49.2213 22.4746C49.1632 22.4881 49.1052 22.5089 49.0364 22.5127C48.1624 22.5495 47.2885 22.5839 46.4145 22.6171C46.1231 22.6286 46.1231 22.6274 45.6106 22.7488C45.5524 22.7623 45.4837 22.777 45.4095 22.7808C44.1012 22.8342 42.7876 22.8852 41.474 22.9374C41.3045 22.9438 41.1883 22.9732 41.104 23.0148C41.0197 23.0563 40.8982 23.0833 40.7287 23.0897C39.6799 23.1317 38.6311 23.1749 37.5823 23.2133C37.2909 23.2235 37.1006 23.2543 36.9741 23.3093C36.8792 23.3509 36.7629 23.3718 36.5775 23.3794C35.5287 23.4202 34.48 23.4646 33.4258 23.5006C33.1186 23.5108 32.9601 23.5525 32.8335 23.6039C32.7333 23.6454 32.6169 23.6603 32.4209 23.6679C30.4982 23.7419 28.5701 23.8158 26.6528 23.8971C26.3297 23.911 26.1648 23.8687 25.9525 23.8386C25.6499 23.7965 25.3686 23.7508 25.3674 23.6558C25.3672 23.6412 25.2769 23.6243 25.2132 23.6122C24.7404 23.5217 24.7404 23.5217 24.665 23.4244C24.6219 23.3648 24.5735 23.304 24.5357 23.2432C24.4655 23.1435 24.2956 23.1182 23.8083 23.1373C23.6335 23.1437 23.4587 23.1525 23.2839 23.1577C23.0243 23.1667 22.8278 23.1268 22.7792 23.0539C22.7522 23.0137 22.72 22.9736 22.693 22.9335C22.9579 22.9233 22.9525 22.9221 23.417 22.7739C23.6123 22.7115 23.6124 22.7115 23.2354 22.65C23.092 22.6271 22.9539 22.6018 22.8 22.5802C22.731 22.5705 22.6408 22.5646 22.5667 22.5672C22.127 22.5825 21.6927 22.6003 21.2584 22.6181C20.5592 22.6461 20.5591 22.6461 19.8475 22.5232C19.7891 22.5135 19.6988 22.4954 19.7092 22.4857C19.767 22.4405 19.9098 22.4208 20.0899 22.4156C20.3548 22.4078 20.6143 22.3952 20.8739 22.385C21.0487 22.3786 21.2234 22.371 21.3982 22.3646C21.562 22.3181 21.7311 22.2727 21.8842 22.225C22.127 22.1515 22.1269 22.149 21.7924 22.0985C21.5801 22.0648 21.3518 22.0347 21.1342 22.0034C20.8746 22.0136 20.6098 22.025 20.3502 22.034C20.0218 22.0455 19.889 22.0226 19.8033 21.9436C19.7283 21.8743 19.8176 21.8145 20.0718 21.7995C20.3313 21.7844 20.575 21.7743 20.7068 21.7119C20.8332 21.652 21.0555 21.6285 21.331 21.6232C21.5058 21.6192 21.6806 21.6104 21.8554 21.6028C22.0831 21.5926 22.2043 21.5303 22.1557 21.461C22.1287 21.416 22.0752 21.3783 21.8684 21.369C20.9511 21.3279 20.9405 21.3292 20.4838 21.2472C20.4413 21.2399 20.4093 21.2181 20.425 21.2071C20.4513 21.1888 20.5093 21.1619 20.5728 21.1581C21.1819 21.1303 21.791 21.1049 22.4002 21.0855C22.6015 21.0791 22.7498 21.0703 22.8182 21.0251C22.9128 20.9629 22.8697 20.9057 22.6837 20.8634C22.6252 20.8501 22.5296 20.8332 22.466 20.8346C21.7668 20.8577 21.0729 20.8869 20.3737 20.91C20.3101 20.9126 20.1933 20.8921 20.1667 20.8763C20.1133 20.8472 20.1923 20.8081 20.3776 20.7944C20.6211 20.7757 20.8702 20.774 21.0337 20.7129C21.2605 20.626 21.5404 20.5464 21.7937 20.4631C21.836 20.4485 21.9046 20.4203 21.8887 20.4179C21.7559 20.3913 21.6019 20.3709 21.4638 20.3456C21.2301 20.3034 21.2294 20.2437 21.2817 20.1864C21.3235 20.14 21.4822 20.1215 21.6783 20.1212C21.7631 20.121 21.8691 20.1208 21.9378 20.1098C22.1177 20.0827 22.1756 20.0484 22.0852 20.023C22.032 20.0085 21.9364 19.988 21.8729 19.9905C20.7393 20.0327 19.6003 20.0736 18.4722 20.1255C18.1385 20.1407 17.9844 20.0947 17.7826 20.0622C17.6286 20.0369 17.4854 20.0274 17.2948 20.046C17.1148 20.0633 16.9399 20.0539 16.8281 20.0139C16.7376 19.9812 16.8962 19.9529 17.3251 19.9205C17.4045 19.9143 17.4945 19.9105 17.5527 19.8982C18.1658 19.7656 18.1657 19.7644 18.5895 19.7466C19.0026 19.7301 19.0027 19.7288 19.2191 19.6578C19.3194 19.6248 19.4302 19.5917 19.5252 19.5574C19.5621 19.544 19.6255 19.5195 19.6042 19.5123C19.4871 19.4747 19.328 19.4665 19.1426 19.4753C18.7295 19.4967 18.2419 19.4805 18.026 19.5966C17.9418 19.6406 17.8094 19.653 17.6187 19.6606C15.7013 19.7346 13.7838 19.8134 11.861 19.8849C11.5485 19.8964 11.406 19.9417 11.2847 19.9919C11.1793 20.0334 11.0628 20.0458 10.8615 20.0535C10.6602 20.0611 10.5012 20.0651 10.3841 20.0251C10.315 20.0008 10.3728 19.9667 10.5314 19.9323C10.7587 19.8832 10.7155 19.8224 10.6406 19.7653C10.5872 19.7276 10.4226 19.7011 10.2477 19.7038C9.98814 19.7092 9.7393 19.723 9.52144 19.6747C9.39392 19.6469 9.23467 19.6277 9.09129 19.6036C8.81512 19.5541 8.53893 19.5035 8.15248 19.537C7.88737 19.5253 7.70136 19.4818 7.48898 19.448C7.13324 19.3927 7.10134 19.3842 7.35498 19.3241C7.64033 19.2566 7.41665 19.1693 7.57482 19.1033C7.74354 19.0324 7.97603 18.9699 8.1819 18.9038C8.23468 18.8866 8.2822 18.8707 8.33499 18.8536C8.21281 18.8294 8.10117 18.7992 7.95789 18.7824C7.77215 18.7608 7.67643 18.7342 7.68611 18.6587C7.64888 18.6478 7.66501 18.6757 7.70749 18.683C7.75527 18.6902 7.87187 18.6839 7.93006 18.6753C8.07816 18.6519 8.1519 18.6213 8.11449 18.5958C8.09313 18.5824 7.99232 18.5656 7.92872 18.5657C7.81214 18.5659 7.7118 18.5928 7.6808 18.6587C7.08789 18.7096 6.47338 18.735 5.8589 18.7556C5.79534 18.7581 5.7156 18.7339 5.64126 18.7219C5.39699 18.6809 5.39697 18.6821 4.68142 18.6712C4.60722 18.6701 4.50638 18.6532 4.46908 18.6362C4.31449 18.5622 4.31884 18.4806 4.24368 18.4016C4.38084 18.3502 4.51791 18.3001 4.66038 18.2499C4.94531 18.1483 5.31526 18.0588 5.53648 17.9476C5.48805 17.888 5.42373 17.8285 5.6563 17.7793C6.31797 17.7173 6.31271 17.7173 6.49217 17.6586C7.00418 17.4921 7.51085 17.3244 8.04409 17.1603C8.18665 17.1174 8.18639 17.0943 7.9318 17.0765C7.85225 17.0717 7.76733 17.0706 7.68257 17.0732C7.41772 17.0822 7.15302 17.1046 6.8933 17.1002C6.63359 17.097 6.44217 17.0437 6.2298 17.0112C6.01211 16.9775 5.79442 16.9426 5.57672 16.9076C5.3277 16.9117 5.0791 16.9462 4.82936 16.8919C4.63807 16.8496 4.39925 16.8196 4.18155 16.7846C4.3447 16.6918 4.65124 16.6206 4.88871 16.5386C5.10508 16.464 5.11027 16.4652 5.6925 16.407C5.96773 16.3797 6.06145 16.2419 5.82779 16.2021C5.54634 16.1539 5.24909 16.1094 4.96237 16.0636C4.71335 16.0677 4.45943 16.101 4.2203 16.0466C4.03432 16.0056 3.82197 15.9779 3.5148 15.9943C2.9958 16.022 2.46605 16.0363 1.94169 16.0591C1.76161 16.0667 1.56542 16.0622 1.48542 16.0209C1.43208 15.9918 1.58528 15.9514 1.76005 15.9425C2.02486 15.9299 2.26313 15.9149 2.39487 15.8538C2.52131 15.7927 2.75422 15.774 3.02968 15.765C3.10384 15.7624 3.18851 15.7477 3.22543 15.733C3.41534 15.662 3.62659 15.6008 4.03466 15.6025C4.20394 15.5779 4.2936 15.5473 4.24025 15.5181C4.20826 15.5023 4.09678 15.4818 4.03322 15.4844C3.59353 15.4973 3.15386 15.5103 2.72488 15.5329C2.52363 15.543 2.3699 15.5457 2.24227 15.5094C2.15189 15.4852 2.19918 15.4523 2.36832 15.4166C2.51633 15.3859 2.55834 15.3506 2.54724 15.3092C2.51957 15.213 2.36022 15.1853 1.85156 15.1923C1.48597 15.1978 1.39569 15.1821 1.31519 15.0994C1.29376 15.08 1.24053 15.0533 1.27746 15.0398C1.50432 14.9566 1.65147 14.8541 2.08023 14.8144C2.24963 14.7995 2.42973 14.7992 2.53533 14.7673C2.64093 14.7355 2.73592 14.6988 2.84683 14.6682C2.98417 14.6314 3.07905 14.5971 3.01517 14.5741C2.90868 14.5329 2.73912 14.5295 2.54323 14.5445C2.3738 14.557 2.19364 14.5585 2.01886 14.5661C1.70636 14.58 1.45167 14.5488 1.41392 14.4953C1.31151 14.3542 1.20379 14.2144 1.11198 14.0733C1.10118 14.0563 1.12733 14.0343 1.16955 14.0196C1.31731 13.9682 1.47575 13.9192 1.62882 13.869C1.8083 13.8115 2.09464 13.822 2.33827 13.8106C2.68253 13.7942 2.68243 13.7954 3.14204 13.6777C3.32165 13.6311 3.63455 13.6488 3.81952 13.6071C3.87765 13.5936 3.96747 13.5715 3.95142 13.5594C3.93003 13.5436 3.82395 13.5316 3.74438 13.5244C3.6701 13.5172 3.57999 13.5137 3.50054 13.5175C2.5365 13.5545 1.57782 13.5939 0.613774 13.6297C0.449571 13.6361 0.269064 13.6096 0.210312 13.572C0.15159 13.5367 0.166917 13.4941 0.155829 13.4539C0.308899 13.4037 0.483144 13.3572 0.614973 13.3034C0.715154 13.2618 0.831536 13.2433 1.03288 13.2405C1.2978 13.2364 1.55731 13.2213 1.85393 13.2099C2.40289 13.0311 2.94111 12.8439 3.53246 12.6651C3.77005 12.5928 3.71096 12.5199 3.75772 12.4431C3.80456 12.3724 4.15972 12.3827 4.39794 12.3616C4.5885 12.3442 4.65153 12.3052 4.57702 12.2785C4.53443 12.2627 4.43887 12.2446 4.36468 12.2448C4.18981 12.2451 4.01507 12.2563 3.84027 12.2627C3.66547 12.2691 3.46406 12.2658 3.32123 12.2868C3.18369 12.3065 3.09406 12.348 3.0044 12.3835C2.90419 12.4226 2.77196 12.4363 2.57062 12.4391C2.31099 12.4419 2.05147 12.4533 1.79191 12.4623C1.50517 12.4153 1.20779 12.3696 0.931617 12.3201C0.878506 12.3105 0.867509 12.2825 0.872586 12.2642C0.882606 12.2167 0.802782 12.1876 0.627624 12.1648C0.479007 12.1456 0.356773 12.1178 0.218695 12.0937C0.32428 12.0606 0.440519 12.0287 0.524877 11.9933C0.709447 11.9187 0.941988 11.8647 1.34476 11.8664C1.50316 11.8187 1.62959 11.76 1.83587 11.7268C2.03155 11.6948 2.36581 11.7258 2.51331 11.6537C2.58707 11.6183 2.69793 11.5779 2.84083 11.5631C3.06842 11.5395 3.36532 11.5512 3.49697 11.4828C3.57598 11.4437 3.69209 11.4082 3.84565 11.3982C4.02039 11.3869 4.20049 11.3842 4.32739 11.3608C4.39613 11.3485 4.4701 11.3289 4.46989 11.3118C4.46976 11.3009 4.36364 11.284 4.28937 11.2768C4.22037 11.2684 4.13011 11.2625 4.05065 11.2651C3.78577 11.2728 3.52628 11.2867 3.2614 11.2945C3.18724 11.297 3.10238 11.2886 3.0228 11.2815C2.78939 11.2624 2.80496 11.238 2.9899 11.1939C3.17486 11.1509 3.30675 11.0959 3.45982 11.0457C3.62929 11.0369 3.84127 11.0402 3.95757 11.0168C4.15319 10.9787 4.29026 10.9237 4.44866 10.8759C4.62345 10.8683 4.80359 10.8656 4.9677 10.8519C5.03653 10.8469 5.06803 10.8201 5.12612 10.8041C5.23174 10.7735 5.32137 10.7295 5.46427 10.7147C5.69717 10.6923 5.98343 10.7004 6.12039 10.6332C6.19941 10.5941 6.32074 10.5525 6.46909 10.5498C6.88237 10.5442 7.05644 10.4769 7.26764 10.4132C7.42603 10.3654 7.76549 10.3892 7.93979 10.3414C8.056 10.3108 8.14038 10.2729 8.25661 10.2434C8.30416 10.2312 8.40473 10.2249 8.48418 10.2211C8.91849 10.2021 9.35815 10.188 9.79246 10.1677C9.8613 10.1639 9.92472 10.1456 9.97754 10.1309C10.0884 10.099 10.1567 10.0551 10.2942 10.0341C10.4318 10.0132 10.6278 10.0128 10.7973 10.0065C11.3429 9.98725 11.3854 9.99204 11.6332 9.8881C11.8336 9.80374 12.3272 9.86255 12.4903 9.76972C12.5851 9.71598 12.7593 9.67185 13.0719 9.66521C13.5117 9.65593 13.9459 9.63204 14.3855 9.61544C14.7775 9.60015 14.7722 9.60015 15.1948 9.48618C15.3849 9.4347 15.666 9.44153 15.9149 9.43136C16.1797 9.42115 16.4233 9.40613 16.5497 9.34502C16.6762 9.28514 16.9091 9.26524 17.1793 9.25624C17.4282 9.24729 17.7092 9.2529 17.9047 9.20385C18.3802 9.08613 18.3749 9.08491 18.7086 9.07216C19.233 9.05176 19.7574 9.03137 20.2817 9.00976C20.6313 8.99576 20.9969 8.99269 21.3252 8.96534C21.5634 8.94544 21.6685 8.87707 21.8216 8.82931C22.2559 8.81029 22.6902 8.79127 23.1246 8.77347C23.7337 8.74805 24.3481 8.72508 24.9625 8.70087C25.2269 8.65414 25.2629 8.55179 25.708 8.54615C25.9729 8.54326 26.2324 8.52698 26.4972 8.51678C26.9368 8.49897 27.3711 8.47629 27.8108 8.46701C28.1446 8.46034 28.202 8.39448 28.3764 8.35277C28.4345 8.33806 28.4873 8.31727 28.5561 8.3135C29.2446 8.27821 29.9546 8.26967 30.627 8.21858C30.6958 8.21359 30.7591 8.18791 30.7748 8.16962C30.7853 8.15986 30.6949 8.14176 30.6365 8.13333C30.5675 8.12371 30.4774 8.11413 30.4032 8.11669C28.2156 8.20207 26.0281 8.28867 23.8405 8.37405C23.5333 8.38676 23.5333 8.38554 22.7877 8.52078C22.7242 8.53185 22.6501 8.54415 22.5707 8.54794C22.2211 8.56316 21.8662 8.57231 21.5219 8.59117C21.2412 8.60627 21.008 8.59205 20.8061 8.54856C20.6626 8.51715 20.514 8.50767 20.3339 8.51042C20.1326 8.51443 20.0003 8.52805 19.8841 8.56113C19.731 8.60645 19.6522 8.66503 19.3291 8.67777C17.8406 8.73271 16.3522 8.79374 14.8691 8.85233C14.6622 8.83564 14.5612 8.81025 14.6138 8.77972C14.6454 8.7614 14.7087 8.73693 14.7723 8.73439C15.3814 8.70776 15.9958 8.68478 16.6049 8.65937C16.6897 8.65557 16.8063 8.65779 16.8538 8.64553C17.0863 8.59033 17.1701 8.5013 17.6099 8.49444C17.8642 8.49035 18.1236 8.47164 18.3672 8.45417C18.436 8.44918 18.4993 8.4235 18.515 8.4052C18.5201 8.39545 18.4351 8.37733 18.3714 8.36892C18.1378 8.33401 17.8681 8.37711 17.6347 8.35316C17.5551 8.34477 17.4436 8.33279 17.4275 8.3182C17.4167 8.30483 17.5066 8.28275 17.57 8.26924C17.6281 8.25697 17.7074 8.24587 17.7869 8.24208C18.486 8.21286 19.1853 8.18242 19.8845 8.15929C20.1706 8.15027 20.3716 8.11948 20.4981 8.06324C20.5929 8.02168 20.7092 7.99956 20.8893 7.99316C22.1129 7.94598 23.3364 7.89394 24.5653 7.8504C24.8726 7.84013 25.0311 7.79967 25.1577 7.74709C25.2579 7.70552 25.3743 7.6907 25.5703 7.68306C27.3235 7.61669 29.0661 7.54305 30.8194 7.47912C31.1425 7.4676 31.2373 7.41507 31.4011 7.36973C31.4592 7.3538 31.4959 7.33426 31.57 7.32439C31.6441 7.31452 31.7395 7.31556 31.8295 7.31297C33.2279 7.25818 34.6263 7.19975 36.03 7.14861C36.3584 7.13708 36.4212 7.07608 36.5902 7.03316C36.6484 7.01967 36.7011 6.99767 36.77 6.99389C37.8187 6.95067 38.8675 6.90989 39.9163 6.86788C40.6154 6.83988 41.3146 6.81188 42.0138 6.78509C42.3581 6.77232 42.3581 6.77109 42.823 6.65461C42.8758 6.64112 42.9499 6.62516 43.0187 6.62139C45.0315 6.53996 47.039 6.46221 49.0518 6.38201C49.2213 6.37562 49.3428 6.34739 49.4271 6.30584C49.5114 6.2643 49.633 6.23608 49.7972 6.22971C51.3703 6.16609 52.9435 6.1037 54.5219 6.04373C54.808 6.03349 55.0089 6.00392 55.1355 5.9489C55.2303 5.90734 55.3467 5.88522 55.5268 5.87882C57.0999 5.81764 58.6731 5.7528 60.2516 5.69405C60.5536 5.68257 60.7014 5.64091 60.8492 5.59195C60.9019 5.57481 60.944 5.54673 61.0076 5.54418C61.7915 5.50873 62.57 5.47206 63.3593 5.44756C63.6877 5.43724 63.7984 5.38591 63.9303 5.33697C64.0358 5.29782 64.1576 5.28422 64.3589 5.279C64.7986 5.26728 65.2329 5.24583 65.6619 5.22439C65.7254 5.22062 65.8046 5.19369 65.8097 5.17664C65.8199 5.14496 65.6977 5.12325 65.4962 5.11264C63.3986 5.19543 61.2959 5.27822 59.1983 5.36101C58.854 5.375 58.854 5.37501 58.3891 5.4915C58.3363 5.50499 58.2622 5.52095 58.188 5.52473C56.1753 5.60493 54.1678 5.68392 52.155 5.76412C51.9855 5.7705 51.864 5.79872 51.7797 5.84027C51.6954 5.88182 51.5738 5.91003 51.4096 5.91641C49.4868 5.9928 47.5642 6.07042 45.6361 6.14318C45.35 6.15342 45.1491 6.18176 45.0226 6.23799C44.9277 6.27956 44.8114 6.30169 44.6313 6.30809C42.7932 6.37947 40.9605 6.45448 39.1172 6.52344C38.9318 6.52985 38.7936 6.49477 38.8038 6.46188C38.8089 6.44482 38.8879 6.41669 38.9515 6.41414C39.9102 6.3723 40.8636 6.32924 41.8277 6.29712C42.1509 6.28682 42.2455 6.23308 42.4093 6.18774C42.4621 6.17181 42.5042 6.15104 42.573 6.1424C42.6471 6.13253 42.7425 6.13358 42.8325 6.13099C45.1049 6.04059 47.3773 5.94898 49.6549 5.86344C49.9834 5.8507 50.0461 5.79091 50.2152 5.748C50.2733 5.73329 50.3261 5.71128 50.3949 5.70873C51.0941 5.67829 51.7932 5.6515 52.4924 5.62472C53.716 5.57632 54.9395 5.52793 56.1684 5.47952C56.5233 5.46551 56.5233 5.46551 56.9776 5.35025C57.0305 5.33677 57.1045 5.3196 57.1734 5.31705C60.4097 5.18845 63.6461 5.05984 66.8825 4.93246C67.052 4.92608 67.1735 4.89786 67.2578 4.85631C67.3421 4.81598 67.4636 4.78655 67.6278 4.77895C72.003 4.60576 76.3728 4.43256 80.748 4.2618C81.0341 4.25034 81.2351 4.22442 81.3616 4.16697C81.4512 4.12541 81.5728 4.10329 81.7529 4.09567C86.5624 3.90589 91.3719 3.71611 96.1867 3.5251C99.4231 3.39772 102.659 3.2679 105.896 3.14295C106.192 3.13148 106.351 3.09345 106.499 3.04326C106.546 3.02613 106.594 2.99804 106.657 2.9955C107.351 2.96385 108.045 2.93465 108.739 2.90543C108.956 2.93793 109.174 2.96922 109.392 3.00172C109.555 2.95517 109.714 2.9074 109.878 2.86084C110.926 2.82371 111.959 2.76712 113.019 2.74823C113.088 2.7469 113.162 2.76991 113.236 2.78196C113.73 2.85781 114.011 2.85124 114.322 2.74841C114.433 2.71169 114.528 2.67865 114.698 2.67226C115.222 2.64943 115.752 2.6339 116.271 2.60743C116.552 2.59355 116.785 2.60532 116.987 2.6488C117.13 2.68021 117.279 2.69336 117.454 2.68575C118.418 2.64755 119.376 2.61056 120.34 2.56993C120.409 2.56737 120.472 2.54655 120.525 2.53185C120.636 2.5 120.731 2.46574 120.837 2.43268C120.98 2.45314 121.139 2.46869 121.256 2.49528C121.405 2.52668 121.543 2.52643 121.744 2.51756C125.589 2.36355 129.44 2.21318 133.286 2.05795C133.614 2.0452 133.758 2.0961 133.981 2.1225C134.055 2.13212 134.129 2.14416 134.209 2.14646C134.294 2.14874 134.384 2.14129 134.468 2.13749C137.355 2.02289 140.242 1.9095 143.129 1.79489C143.51 1.77962 143.51 1.77962 144.078 1.85413C144.147 1.86375 144.237 1.87456 144.311 1.87078C145.625 1.82101 146.939 1.76759 148.247 1.71661C148.416 1.71023 148.56 1.72946 148.714 1.7572C149.017 1.81147 149.038 1.81144 149.259 1.73069C149.365 1.69275 149.476 1.66941 149.651 1.65815C149.841 1.64564 149.995 1.64904 150.144 1.6707C150.356 1.70078 150.51 1.75165 150.833 1.73769C152.232 1.67803 153.635 1.62811 155.028 1.56724C155.346 1.5533 155.516 1.5944 155.729 1.62448C155.803 1.63531 155.872 1.65224 155.952 1.65575C156.031 1.65927 156.126 1.65057 156.211 1.64677C157.959 1.57798 159.712 1.51041 161.455 1.43676C161.783 1.4228 161.927 1.4749 162.15 1.5013C162.224 1.51091 162.309 1.52782 162.378 1.52527C163.427 1.4857 164.481 1.44368 165.53 1.40167C165.906 1.38641 165.906 1.38762 166.479 1.46091C166.548 1.47053 166.638 1.48012 166.712 1.47755C167.936 1.43038 169.165 1.38197 170.388 1.33358C170.764 1.31831 170.764 1.31831 171.852 1.37975C171.931 1.38448 172.016 1.39165 172.095 1.38907C173.494 1.33429 174.897 1.2807 176.296 1.22226C176.577 1.21082 176.81 1.22015 177.012 1.26364C177.155 1.29505 177.304 1.30819 177.478 1.30058C179.052 1.23818 180.63 1.17822 182.198 1.11218C182.5 1.09948 182.696 1.12591 182.909 1.16086C182.978 1.17291 183.047 1.18985 183.126 1.19458C183.206 1.19931 183.296 1.19428 183.381 1.19048C184.954 1.12808 186.532 1.06933 188.1 1.00208C188.418 0.98813 188.588 1.02923 188.8 1.05931C188.875 1.07014 188.954 1.09192 189.018 1.09059C189.632 1.06882 190.247 1.0495 190.856 1.018C191.184 1.00038 191.328 1.05614 191.551 1.08254C191.625 1.09093 191.71 1.10906 191.779 1.1065C193.093 1.05674 194.406 1.00453 195.715 0.951121C195.9 0.943494 196.038 0.954204 196.187 0.985605C196.383 1.02788 196.611 1.04454 196.897 1.03064C197.507 1.00158 198.121 0.981037 198.735 0.956835C199.096 0.942815 199.096 0.942819 200.199 1.00422C200.278 1.00896 200.363 1.01611 200.443 1.01354C201.491 0.972752 202.545 0.933177 203.589 0.888747C203.87 0.876083 204.103 0.886635 204.305 0.930121C204.448 0.961532 204.591 0.974685 204.772 0.967066C205.736 0.928863 206.694 0.890666 207.658 0.852462C208.008 0.838461 208.357 0.814713 208.707 0.814106C208.962 0.814882 209.148 0.873006 209.376 0.901834C209.44 0.910247 209.546 0.900333 209.63 0.897751C210.854 0.849356 212.083 0.8046 213.301 0.750126C213.619 0.73618 213.789 0.777283 214.001 0.807357C214.075 0.818187 214.155 0.839968 214.219 0.83864C214.658 0.824483 215.093 0.805462 215.532 0.788869C216.057 0.768476 216.587 0.752945 217.106 0.725255C217.529 0.702602 217.689 0.808259 218.029 0.811323C218.288 0.814526 218.553 0.793369 218.813 0.783177C219.337 0.762784 219.861 0.739958 220.386 0.722001C220.571 0.715591 220.714 0.695851 220.772 0.651914C220.782 0.643372 220.692 0.625272 220.634 0.614414C219.927 0.491435 219.927 0.49143 219.217 0.51945C218.778 0.537261 218.344 0.555065 217.904 0.57044C217.83 0.573004 217.745 0.563411 217.671 0.556234C217.458 0.535901 217.479 0.511514 217.659 0.467365C217.838 0.423217 217.976 0.369405 218.129 0.319215C218.346 0.350497 218.559 0.381777 218.776 0.413059C218.951 0.406667 219.126 0.399068 219.301 0.392677C220.175 0.3595 221.049 0.325104 221.923 0.294363C221.986 0.291817 222.066 0.316036 222.14 0.328084C222.353 0.363028 222.544 0.39313 222.851 0.379202C223.635 0.342529 224.424 0.315588 225.208 0.283786C225.552 0.269794 225.553 0.269795 226.158 0.344242C226.227 0.352646 226.317 0.362231 226.391 0.359667C227.18 0.330291 227.964 0.298492 228.753 0.267898C228.923 0.261515 229.087 0.277059 229.21 0.31216C229.257 0.326689 229.247 0.351056 229.451 0.550403C230.078 0.711266 230.507 0.693483 230.942 0.678117C231.127 0.671707 231.291 0.665327 231.413 0.640763C231.476 0.627258 231.555 0.607635 231.555 0.591805C231.555 0.579628 231.438 0.560344 231.364 0.558038C230.839 0.534595 230.342 0.586608 229.828 0.598459C229.589 0.603744 229.382 0.561484 229.339 0.492151C229.328 0.472686 229.312 0.452015 229.296 0.43256C229.28 0.413105 229.269 0.392424 229.253 0.372969C229.046 0.36724 228.924 0.389365 228.835 0.430922C228.761 0.465145 228.655 0.504295 228.513 0.522808C228.37 0.542539 228.174 0.539232 227.999 0.545624C227.829 0.552007 227.644 0.568156 227.485 0.559909C227.326 0.550443 227.198 0.515346 227.05 0.493685C226.981 0.482846 226.896 0.467169 226.827 0.469724C226.218 0.491482 225.614 0.513223 225.01 0.54106C224.692 0.556223 224.533 0.505365 224.331 0.474056C224.172 0.449978 224.013 0.456335 223.987 0.512393C223.92 0.646455 224.164 0.702042 224.704 0.675533C225.149 0.652842 225.552 0.648502 225.903 0.730696C225.95 0.741572 226.062 0.746248 226.131 0.743693C226.565 0.728327 226.994 0.709315 227.428 0.693949C227.508 0.691376 227.593 0.696092 227.667 0.700834C228.749 0.764711 228.749 0.765936 229.114 0.750689C229.289 0.74308 229.459 0.736697 229.44 0.55164C229.772 0.352582 230.302 0.338271 230.815 0.308155C231.149 0.289311 231.293 0.342642 231.51 0.370271C231.584 0.379884 231.664 0.399224 231.733 0.39667C232.872 0.35451 234.005 0.309918 235.139 0.262897C235.33 0.25526 235.467 0.262328 235.616 0.293729C235.808 0.333581 236.02 0.358789 236.322 0.343653C236.925 0.313381 237.54 0.294054 238.154 0.268634C238.467 0.255915 238.467 0.255902 239.098 0.330303C239.167 0.338707 239.258 0.348293 239.332 0.345728C239.946 0.323962 240.555 0.297341 241.165 0.274365C241.334 0.267983 241.488 0.284762 241.621 0.317409C241.754 0.350056 241.913 0.366825 242.077 0.360452C242.692 0.337467 243.301 0.312064 243.91 0.289089C243.984 0.286525 244.074 0.294891 244.143 0.303296C244.791 0.377669 244.791 0.377656 245.087 0.364964C245.521 0.345946 245.967 0.336659 246.395 0.311561C246.814 0.286481 247.032 0.356723 247.319 0.395191C248.103 0.365824 248.892 0.341324 249.67 0.305878C249.988 0.290714 250.158 0.330599 250.371 0.361891C250.445 0.372721 250.519 0.39573 250.588 0.394393C250.853 0.389062 251.113 0.37522 251.372 0.365028C251.632 0.354836 251.897 0.344636 252.156 0.334444C252.453 0.369241 252.65 0.451701 253.074 0.422959C253.328 0.40547 253.598 0.401349 253.858 0.391157C254.118 0.380965 254.382 0.370765 254.642 0.360573C254.817 0.354181 254.997 0.35021 255.166 0.338957C255.479 0.32015 255.633 0.379555 255.856 0.405958C255.93 0.414353 256.015 0.428808 256.084 0.426253C256.609 0.408295 257.138 0.392765 257.652 0.363867C258.049 0.341259 258.32 0.377325 258.601 0.427979C258.66 0.438837 258.761 0.44475 258.835 0.442186C259.449 0.420419 260.058 0.393784 260.667 0.370808C260.832 0.364435 260.991 0.383641 261.124 0.41507C261.262 0.447708 261.416 0.463283 261.585 0.4569C262.194 0.433925 262.809 0.408498 263.418 0.385522C263.492 0.382958 263.582 0.392545 263.651 0.402167C264.246 0.476632 264.246 0.477851 264.595 0.462632C264.68 0.458832 264.77 0.456231 264.855 0.45243C265.289 0.434629 265.74 0.427768 266.163 0.397808C266.65 0.364085 267.006 0.404871 267.351 0.47368C267.786 0.458314 268.231 0.449016 268.654 0.423928C268.972 0.405111 269.142 0.451085 269.354 0.481159C269.429 0.491989 269.508 0.513769 269.572 0.511224C270.186 0.489457 270.801 0.470132 271.405 0.438642C271.733 0.421024 271.877 0.475561 272.1 0.503181C272.174 0.512793 272.254 0.529711 272.323 0.527157C272.672 0.516808 273.022 0.501582 273.371 0.487581C273.779 0.471043 273.779 0.47226 274.321 0.545599C274.575 0.58047 274.83 0.552021 275.079 0.543065C275.343 0.532864 275.592 0.525129 275.805 0.574685C275.938 0.606114 276.097 0.625321 276.261 0.620166C276.611 0.6086 276.966 0.59703 277.31 0.578167C277.585 0.563077 277.824 0.5724 278.026 0.617104C278.169 0.648515 278.318 0.664096 278.493 0.656487C279.277 0.625902 280.066 0.594079 280.85 0.564712C280.919 0.562157 281.014 0.572954 281.078 0.583803C281.227 0.605463 281.37 0.629563 281.513 0.653668C281.858 0.642111 282.213 0.636637 282.552 0.619001C282.912 0.601329 283.24 0.594668 283.522 0.661152C283.58 0.675663 283.665 0.696205 283.734 0.694868C283.999 0.689537 284.259 0.676914 284.518 0.666722C284.778 0.65653 285.043 0.64633 285.302 0.636138C285.604 0.666056 285.796 0.753395 286.22 0.724653C286.474 0.707164 286.744 0.703042 287.004 0.69285C287.264 0.682659 287.528 0.671241 287.788 0.662267C287.873 0.659684 287.968 0.653427 288.042 0.658169C288.122 0.662902 288.191 0.679833 288.26 0.69189C288.472 0.726834 288.669 0.76181 288.971 0.740586C289.225 0.723097 289.495 0.718974 289.754 0.707565C290.109 0.693554 290.109 0.693557 290.699 0.769249C290.937 0.800494 291.207 0.758626 291.435 0.785019C291.589 0.803018 291.722 0.833223 291.871 0.853665C291.934 0.862079 292.035 0.865552 292.109 0.862988C292.459 0.851422 292.814 0.839852 293.158 0.820989C293.439 0.80589 293.672 0.820096 293.869 0.863591C294.012 0.895002 294.155 0.908155 294.335 0.900537C295.209 0.864925 296.084 0.834174 296.952 0.794918C297.249 0.781009 297.487 0.801301 297.652 0.844852C297.934 0.919859 298.33 0.830282 298.623 0.890659C298.803 0.928094 298.984 0.97162 299.312 0.952785C299.916 0.920077 300.53 0.901954 301.14 0.878978C301.357 0.911478 301.575 0.943985 301.798 0.976476C302.148 0.962475 302.497 0.948465 302.847 0.935682C303.106 0.92549 303.371 0.914072 303.631 0.905098C303.715 0.902515 303.805 0.897487 303.885 0.903438C303.965 0.909388 304.028 0.925111 304.103 0.937159C304.469 0.996189 304.469 0.997413 305.073 0.972012C305.332 0.960602 305.581 0.952864 305.799 1.00119C306.001 1.0459 306.24 1.054 306.515 1.04013C307.034 1.01488 307.559 0.995701 308.088 0.977734C308.253 0.971361 308.406 0.991795 308.545 1.02321C308.752 1.07278 309.006 1.06747 309.266 1.05362C309.61 1.03598 309.949 1.01835 310.241 1.08603C310.3 1.10054 310.39 1.12107 310.454 1.11975C310.888 1.10925 311.328 1.10119 311.751 1.07732C312.175 1.05344 312.383 1.12858 312.675 1.1646C313.109 1.14802 313.549 1.13142 313.983 1.11484C314.068 1.11104 314.168 1.09991 314.242 1.10587C314.555 1.1309 314.737 1.22191 315.166 1.19316C315.414 1.1769 315.685 1.17156 315.944 1.16746C316.013 1.16612 316.104 1.18666 316.151 1.2024C316.178 1.21088 316.152 1.23406 316.12 1.24629C316.025 1.28055 315.909 1.31242 315.825 1.34788C315.814 1.35277 315.915 1.37451 315.973 1.38415C316.117 1.40582 316.281 1.40189 316.472 1.39181C316.636 1.38301 316.806 1.39976 316.923 1.43609C316.971 1.45061 316.955 1.47499 316.855 1.55553C316.856 1.6152 316.967 1.58821 317.003 1.54918C317.061 1.49307 316.95 1.475 316.738 1.50581C316.59 1.52798 316.516 1.55977 316.554 1.58528C316.575 1.59864 316.676 1.61551 316.855 1.55553C317.321 1.48166 317.67 1.46767 318.02 1.45367C318.11 1.44986 318.216 1.43749 318.279 1.44469C318.508 1.47351 318.72 1.50846 318.943 1.54096C319.197 1.53321 319.436 1.51452 319.685 1.56158C320.036 1.62794 320.052 1.62183 320.391 1.60785C320.565 1.60024 320.74 1.59385 320.915 1.58746C321.09 1.58107 321.228 1.59909 321.382 1.62683C321.695 1.68352 321.722 1.68347 321.927 1.60518C322.049 1.55748 322.133 1.54151 322.287 1.56316C322.797 1.63655 322.802 1.64141 323.236 1.61874C323.597 1.59985 323.936 1.59439 324.201 1.66334C324.382 1.71173 324.44 1.70067 324.583 1.64928C324.963 1.51346 325.138 1.51559 325.854 1.61176C326.189 1.65745 326.533 1.60693 326.872 1.60026C327.158 1.59489 327.359 1.62376 327.382 1.70043C327.398 1.74789 327.446 1.78191 327.637 1.79741C327.711 1.80337 327.802 1.81173 327.876 1.80917C328.315 1.7938 328.75 1.77599 329.189 1.75818C329.412 1.74927 329.533 1.69184 329.49 1.61642C329.441 1.53614 329.525 1.50675 329.843 1.48307C330.034 1.46934 330.187 1.47152 330.341 1.49317C330.511 1.51723 330.464 1.53923 330.316 1.58332C329.962 1.69109 330.005 1.75676 330.462 1.83025C330.621 1.85554 330.749 1.87847 330.786 1.91615C330.808 1.9356 330.787 1.9612 330.835 1.97573C331.095 2.05687 331.456 2.10861 331.86 2.14687C332.246 2.11332 332.512 2.16765 332.809 2.21097C333.043 2.24466 333.318 2.21496 333.567 2.20236C333.847 2.18847 334.081 2.19781 334.283 2.24251C334.426 2.27392 334.575 2.28827 334.749 2.28188C335.099 2.26788 335.454 2.25874 335.798 2.23866C336.095 2.2211 336.318 2.24507 336.504 2.28615C336.737 2.3381 336.997 2.30233 337.241 2.30922C337.569 2.31717 337.735 2.42525 338.164 2.39529C338.418 2.3778 338.683 2.37125 338.948 2.36592C339.017 2.36458 339.101 2.38514 339.16 2.39965C339.442 2.46613 339.77 2.46191 340.13 2.4418C340.379 2.42798 340.623 2.41538 340.867 2.46123C341.271 2.53846 341.717 2.60588 342.142 2.67699C342.201 2.7329 342.159 2.79871 342.461 2.83107C342.621 2.84784 342.769 2.87316 342.892 2.90096C343.04 2.93357 343.178 2.94186 343.369 2.93301C343.713 2.91536 344.073 2.91107 344.412 2.88857C344.725 2.86854 344.921 2.9084 345.113 2.94581C345.267 2.97599 345.41 2.99034 345.595 2.9681C345.786 2.94707 345.924 2.96022 346.078 2.99283C346.295 3.03751 346.311 3.03262 347.032 3.04476C347.106 3.04585 347.197 3.06395 347.239 3.07971C347.26 3.08819 347.213 3.11264 347.176 3.12488C347.129 3.13958 347.055 3.15674 346.986 3.16052C346.202 3.19354 345.413 3.22291 344.629 3.25593C344.549 3.25972 344.465 3.2684 344.407 3.28068C344.343 3.29419 344.264 3.31258 344.264 3.32962C344.264 3.3418 344.37 3.35623 344.445 3.36463C344.678 3.39223 344.953 3.34914 345.181 3.3804C345.335 3.40083 345.463 3.42983 345.617 3.44905C345.68 3.45746 345.781 3.45607 345.861 3.4535C346.126 3.44451 346.385 3.43189 346.65 3.42412C346.724 3.42278 346.809 3.43481 346.878 3.44443C347.388 3.51661 347.388 3.51661 347.827 3.50001C348.002 3.49362 348.187 3.47503 348.352 3.48206C348.511 3.48909 348.649 3.52172 348.792 3.54218C349.09 3.5855 349.371 3.62763 349.393 3.72257C349.404 3.75908 349.58 3.79043 349.754 3.79256C349.924 3.7947 350.104 3.78101 350.279 3.7734C350.692 3.75807 350.692 3.75807 351.228 3.83141C351.377 3.85186 351.536 3.85401 351.726 3.8415C351.801 3.83651 351.891 3.84123 351.97 3.84718C352.23 3.86499 352.23 3.88812 352.061 3.93225C351.824 3.9972 351.845 4.00325 352.513 4.05689C352.768 4.07715 352.965 4.11578 353.177 4.1495C353.522 4.2037 353.517 4.2037 353.29 4.27594C353.237 4.29186 353.19 4.30899 353.137 4.32613C352.984 4.37389 352.862 4.42524 352.544 4.43066C352.195 4.43614 351.845 4.45623 351.496 4.47024C351.157 4.48422 351.067 4.51359 351.1 4.59633C351.138 4.69612 351.207 4.70696 351.816 4.70468C351.991 4.70438 352.145 4.71385 352.278 4.7465C352.215 4.78557 352.099 4.81622 351.929 4.82382C351.495 4.84284 351.055 4.85944 350.621 4.87602C350.271 4.89002 349.922 4.90402 349.572 4.91802C349.355 4.92692 349.218 4.99048 349.277 5.061C349.309 5.10113 349.336 5.14127 349.363 5.1814C349.423 5.26167 349.534 5.28218 349.889 5.27791C349.979 5.27654 350.064 5.26664 350.149 5.26893C350.493 5.27686 350.659 5.37763 351.072 5.35622C351.416 5.33857 351.776 5.3343 352.115 5.31179C352.428 5.29176 352.603 5.33531 352.821 5.36781C352.895 5.37864 352.975 5.40162 353.039 5.4003C353.478 5.38614 353.918 5.37199 354.347 5.34811C354.548 5.33802 354.67 5.34511 354.829 5.37406C355.212 5.44402 355.222 5.44035 355.789 5.41745C356.202 5.39968 356.208 5.40211 356.738 5.47546C356.887 5.49591 357.046 5.49563 357.237 5.48556C357.486 5.47295 357.745 5.45301 358.005 5.47083C358.084 5.47556 358.185 5.49 358.212 5.50579C358.228 5.51672 358.154 5.54364 358.091 5.55227C357.625 5.6164 357.079 5.60639 356.571 5.63284C356.412 5.64042 356.252 5.61756 356.12 5.58491C355.981 5.55228 355.833 5.53915 355.653 5.54555C355.303 5.55955 354.948 5.56868 354.604 5.58876C354.308 5.60633 354.101 5.57867 353.893 5.54129C353.824 5.52923 353.745 5.50623 353.676 5.50756C352.892 5.53328 352.102 5.55901 351.324 5.59446C351.011 5.60961 350.831 5.57096 350.618 5.53845C350.544 5.52762 350.47 5.50461 350.401 5.50595C350.136 5.51128 349.876 5.52512 349.612 5.53532C348.647 5.57353 347.689 5.61172 346.725 5.64749C346.661 5.65004 346.581 5.6246 346.507 5.61377C346.364 5.5921 346.215 5.57165 346.066 5.55121C345.801 5.56141 345.542 5.57404 345.277 5.5818C345.086 5.58701 344.917 5.60435 344.891 5.65067C344.876 5.68114 345.051 5.70884 345.236 5.70608C345.416 5.70333 345.596 5.68841 345.745 5.70398C346.483 5.78063 346.483 5.78185 346.943 5.76522C347.346 5.74991 347.303 5.7378 347.659 5.80416C347.813 5.83312 347.951 5.84993 348.126 5.84232C348.56 5.82452 349 5.80671 349.44 5.79133C349.509 5.78878 349.599 5.8008 349.668 5.81042C350.188 5.88258 350.188 5.88501 350.617 5.866C351.179 5.84311 351.2 5.83699 351.577 5.91061C351.837 5.9613 352.075 5.92558 352.324 5.92271C352.611 5.9697 352.924 6.01178 353.184 6.06491C353.493 6.12769 353.816 6.11616 354.165 6.09729C354.425 6.08345 354.679 6.07813 354.892 6.12769C355.094 6.17361 355.337 6.17807 355.613 6.16541C355.862 6.15402 356.116 6.13044 356.376 6.15678C356.445 6.16396 356.551 6.18205 356.546 6.19302C356.541 6.21007 356.472 6.23455 356.403 6.24198C355.916 6.29275 355.381 6.29245 354.867 6.31648C354.799 6.32025 354.708 6.30701 354.639 6.29739C354.491 6.27573 354.347 6.25041 354.204 6.22752C353.944 6.23528 353.679 6.23817 353.425 6.25322C353.229 6.26452 353.081 6.26357 352.937 6.2346C352.805 6.20804 352.661 6.1754 352.502 6.16715C352.343 6.15891 352.158 6.1775 351.983 6.1851C351.808 6.19271 351.607 6.1894 351.469 6.20913C351.332 6.22885 351.247 6.27162 351.158 6.30587C351.057 6.34379 350.92 6.35621 350.718 6.36022C350.533 6.36419 350.385 6.35957 350.246 6.32572C350.188 6.31121 350.108 6.30038 350.029 6.29078C349.954 6.28238 349.869 6.26913 349.801 6.27169C349.011 6.30106 348.227 6.33288 347.438 6.36347C347.046 6.37876 347.051 6.37874 346.235 6.30832C346.16 6.30236 346.07 6.29399 345.996 6.29656C345.556 6.31193 345.122 6.32974 344.682 6.34755C344.237 6.36537 344.243 6.36292 343.484 6.28752C343.346 6.27315 343.145 6.29298 342.981 6.29083C342.636 6.28534 342.465 6.18336 342.063 6.20354C341.718 6.22118 341.358 6.22546 341.014 6.24797C340.701 6.268 340.521 6.2257 340.308 6.19319C340.234 6.18236 340.154 6.15814 340.091 6.16069C339.301 6.18885 338.518 6.22065 337.468 6.22612C337.209 6.22657 337.326 6.25195 337.495 6.26017C337.739 6.27315 337.818 6.24744 337.685 6.19896C337.59 6.16503 337.452 6.14821 337.34 6.15693C337.282 6.1619 337.208 6.18517 337.468 6.22612C337.744 6.27192 337.729 6.29751 337.777 6.31204C337.894 6.34715 338.058 6.36147 338.228 6.35631C338.493 6.34733 338.752 6.3347 339.017 6.32694C339.091 6.32437 339.181 6.33274 339.25 6.34236C339.834 6.41684 339.84 6.42171 340.459 6.39141C340.655 6.38255 340.798 6.3823 340.952 6.40517C341.165 6.43646 341.319 6.48976 341.642 6.47215C342.071 6.44827 342.511 6.43413 342.95 6.41997C343.019 6.41741 343.094 6.4392 343.173 6.44881C343.391 6.47765 343.551 6.53217 343.873 6.50847C344.122 6.48978 344.393 6.48443 344.657 6.48031C344.726 6.47898 344.832 6.49828 344.864 6.51405C344.928 6.54195 344.849 6.57497 344.669 6.59842C344.595 6.60829 344.495 6.60602 344.41 6.60982C344.06 6.62383 343.711 6.63904 343.361 6.6506C343.176 6.65701 343.001 6.67559 342.98 6.72068C342.965 6.75115 343.156 6.7776 343.336 6.77485C343.601 6.77074 343.866 6.76054 344.12 6.74427C344.57 6.7167 344.962 6.72332 345.329 6.7994C345.589 6.85253 345.573 6.83308 345.851 6.9909C345.92 7.03096 346.127 7.03425 346.307 7.0315C346.741 7.02466 346.943 7.04258 346.906 7.08039C346.859 7.12675 346.706 7.14162 346.51 7.14805C346.16 7.15839 345.811 7.17484 345.461 7.18884C345.376 7.19264 345.281 7.2001 345.201 7.19781C345.122 7.19551 345.048 7.18103 344.979 7.17019C344.83 7.14731 344.702 7.11221 344.543 7.10397C344.384 7.09572 344.199 7.11431 344.024 7.12192C343.849 7.12831 343.664 7.1469 343.505 7.13865C343.346 7.1304 343.213 7.09411 343.07 7.07244C343.001 7.0616 342.916 7.04469 342.847 7.04603C342.497 7.05637 342.148 7.07282 341.798 7.0856C341.369 7.10218 341.369 7.10218 340.849 7.02758C340.7 7.00592 340.546 7.00741 340.35 7.01749C339.927 7.03771 339.921 7.03406 339.147 6.96478C339.072 6.9576 338.982 6.94924 338.908 6.95302C338.119 6.98239 337.335 7.01419 336.551 7.04478C335.878 7.07152 335.878 7.07153 335.509 7.19394C335.234 7.28452 335.229 7.28452 335.5 7.32546C335.717 7.35917 335.914 7.40875 336.153 7.4266C336.376 7.44326 336.651 7.38799 336.895 7.44358C337.017 7.47138 337.177 7.50155 337.33 7.50615C337.574 7.51182 337.833 7.47605 338.067 7.52922C338.184 7.55581 338.359 7.58352 338.508 7.58448C338.767 7.58646 339.032 7.56651 339.292 7.55754C339.371 7.55496 339.461 7.55481 339.536 7.56077C339.615 7.56794 339.684 7.58243 339.753 7.59449C339.966 7.63552 340.194 7.65461 340.469 7.63343C340.919 7.59855 341.322 7.6149 341.673 7.69222C341.721 7.7031 341.837 7.70412 341.911 7.69912C342.102 7.68662 342.266 7.68511 342.41 7.70799C342.468 7.71763 342.553 7.73453 342.542 7.7455C342.527 7.7638 342.464 7.78826 342.395 7.79447C341.897 7.83674 341.362 7.84254 340.848 7.86535C340.779 7.86791 340.694 7.85222 340.625 7.84138C340.477 7.81972 340.349 7.78342 340.19 7.77517C340.031 7.76692 339.846 7.78307 339.671 7.78946C339.496 7.79585 339.311 7.81444 339.152 7.80741C338.993 7.79916 338.844 7.76898 338.716 7.74241C338.568 7.71222 338.424 7.70883 338.229 7.72134C337.974 7.73761 337.709 7.74051 337.45 7.74948C337.307 7.72659 337.163 7.70126 337.014 7.6796C336.945 7.66876 336.861 7.65552 336.786 7.65687C336.437 7.66722 336.087 7.68243 335.737 7.69643C335.388 7.71043 335.388 7.71044 334.794 7.63598C334.725 7.62757 334.634 7.61799 334.56 7.62055C334.12 7.63593 333.686 7.65493 333.246 7.67031C333.077 7.67669 332.923 7.65991 332.785 7.62728C332.652 7.59463 332.493 7.57664 332.329 7.58301C331.629 7.6098 330.93 7.63537 330.231 7.66702C329.95 7.67969 329.712 7.66915 329.52 7.62564C329.297 7.5761 329.048 7.58871 328.789 7.59891C328.201 7.62428 328.196 7.62306 327.819 7.56162C327.744 7.54957 327.67 7.52656 327.601 7.52789C326.992 7.54722 326.377 7.56533 325.774 7.59561C325.456 7.61199 325.286 7.56967 325.073 7.53838C324.999 7.52755 324.919 7.50455 324.856 7.50709C324.416 7.52125 323.976 7.53419 323.547 7.55929C323.118 7.58439 322.953 7.47144 322.629 7.47321C322.19 7.4752 321.755 7.50396 321.321 7.52176C320.971 7.53576 320.622 7.54975 320.272 7.56376C319.923 7.57776 319.573 7.58932 319.224 7.60575C319.038 7.6146 318.9 7.60388 318.746 7.5737C318.55 7.53386 318.316 7.50262 318.104 7.46646C317.78 7.41466 317.78 7.41465 317.388 7.42994C317.303 7.43374 317.213 7.43633 317.128 7.44013C316.487 7.46803 316.487 7.4656 315.67 7.39031C315.633 7.38672 315.538 7.40028 315.501 7.41009C315.39 7.44194 315.29 7.4762 315.19 7.50925C315.046 7.49002 314.871 7.47937 314.776 7.45153C314.504 7.37285 314.082 7.48195 313.805 7.4045C313.704 7.37545 313.529 7.35018 313.37 7.34315C313.205 7.33613 313.02 7.3535 312.851 7.3611C312.411 7.38013 312.411 7.37892 312.036 7.48794C311.846 7.54185 311.57 7.53258 311.321 7.54519C311.062 7.55903 310.813 7.56677 310.595 7.51723C310.398 7.47251 310.16 7.46197 309.879 7.47707C309.535 7.49593 309.18 7.5075 308.83 7.51907C308.756 7.52163 308.666 7.51571 308.592 7.50853C307.78 7.43809 307.78 7.43688 307.388 7.45339C307.213 7.461 307.033 7.46374 306.864 7.47499C306.578 7.49497 306.36 7.46978 306.153 7.43117C306.084 7.41911 306.004 7.39613 305.935 7.39746C305.586 7.40416 305.241 7.41571 304.897 7.42727C304.632 7.43625 304.367 7.44158 304.113 7.45907C303.69 7.48781 303.482 7.40901 303.19 7.37299C302.756 7.38957 302.316 7.4013 301.882 7.42397C301.681 7.43406 301.548 7.43065 301.394 7.40169C301.197 7.3655 301.017 7.32441 300.699 7.34323C300.275 7.36832 299.83 7.37762 299.396 7.39298C299.104 7.35574 298.891 7.27938 298.473 7.30812C298.219 7.32561 297.949 7.32973 297.689 7.33992C297.339 7.35392 296.99 7.36671 296.64 7.38193C296.264 7.3972 296.269 7.39354 295.691 7.3227C295.357 7.28066 295.013 7.32874 294.674 7.33664C294.409 7.34318 294.277 7.39942 294.341 7.47115C294.406 7.54289 294.263 7.59915 294.02 7.60931C293.411 7.6335 292.796 7.65892 292.187 7.68067C292.113 7.68324 292.023 7.67487 291.954 7.66647C291.301 7.59089 291.301 7.59212 291.01 7.60358C290.575 7.6226 290.13 7.6331 289.701 7.65698C289.405 7.67333 289.187 7.64814 288.996 7.60707C288.847 7.57567 288.709 7.5686 288.519 7.57624C286.421 7.66147 284.323 7.7406 282.231 7.82825C281.919 7.84097 281.738 7.80598 281.526 7.77347C281.452 7.76264 281.382 7.73962 281.308 7.73975C281.133 7.74005 280.959 7.75131 280.784 7.75892C280 7.78951 279.216 7.82618 278.427 7.84946C278.093 7.85979 278.003 7.91596 277.861 7.96248C277.75 7.99798 277.623 8.01281 277.427 8.01802C277.236 8.02322 277.099 8.01737 276.95 7.98597C276.758 7.9449 276.541 7.9197 276.244 7.93726C275.9 7.95734 275.55 7.96649 275.196 7.9805C275.015 7.9869 274.878 8.00905 274.82 8.05299C274.81 8.06031 274.921 8.07839 274.985 8.08924C275.197 8.1254 275.399 8.16767 275.638 8.19282C275.882 8.21797 276.147 8.18828 276.401 8.18053C276.491 8.17794 276.576 8.17049 276.661 8.17156C276.74 8.17264 276.836 8.17857 276.894 8.18943C277.17 8.24374 277.462 8.28098 277.843 8.24744C278.172 8.2627 278.343 8.36347 278.761 8.33596C279.015 8.31969 279.28 8.31192 279.545 8.30537C279.614 8.30404 279.688 8.32583 279.763 8.33666C279.975 8.36673 280.145 8.41514 280.463 8.39389C280.802 8.37138 281.162 8.36711 281.506 8.34946C281.697 8.33939 281.835 8.34768 281.984 8.37908C282.175 8.41893 282.393 8.44898 282.689 8.42899C282.943 8.4115 283.213 8.40737 283.473 8.39596C283.812 8.38198 283.812 8.3832 284.417 8.45765C284.486 8.46605 284.576 8.47564 284.65 8.47307C285.09 8.4577 285.524 8.43868 285.964 8.4233C286.134 8.41692 286.298 8.43246 286.415 8.46757C286.463 8.4821 286.447 8.5065 286.463 8.52717C285.589 8.56156 284.715 8.59108 283.847 8.63277C283.518 8.64917 283.369 8.59951 283.152 8.57188C283.078 8.56226 282.998 8.5417 282.929 8.54426C282.314 8.56603 281.705 8.58899 281.096 8.61684C280.906 8.6257 280.763 8.62107 280.619 8.58601C280.252 8.49288 279.808 8.5448 279.394 8.55891C279.077 8.5692 278.976 8.60713 279.015 8.68743C279.063 8.78233 279.254 8.81122 279.742 8.79333C279.917 8.78694 280.091 8.7781 280.266 8.77293C280.436 8.76776 280.59 8.78333 280.728 8.81596C280.861 8.84861 281.02 8.86538 281.184 8.86023C281.534 8.84866 281.889 8.83709 282.227 8.81824C282.508 8.80314 282.741 8.81491 282.938 8.85962C283.156 8.90917 283.41 8.89776 283.665 8.88636C284.258 8.86098 284.263 8.8622 284.635 8.92244C284.709 8.93448 284.784 8.95749 284.852 8.95616C285.462 8.93683 286.076 8.91994 286.675 8.88967C286.987 8.87452 287.168 8.91316 287.375 8.94447C287.449 8.9553 287.524 8.97952 287.592 8.97697C288.032 8.96281 288.472 8.94865 288.901 8.92477C289.102 8.91346 289.224 8.92055 289.389 8.94949C289.781 9.02065 289.792 9.0182 290.348 8.9941C290.518 8.9865 290.703 8.97278 290.862 8.98225C291.021 8.99171 291.149 9.02681 291.298 9.04847C291.367 9.05809 291.451 9.07133 291.526 9.06877C291.875 9.05842 292.225 9.04321 292.574 9.02921C292.903 9.01524 292.903 9.01646 293.518 9.09089C293.768 9.12212 294.027 9.09487 294.276 9.0847C294.546 9.07327 294.79 9.07286 294.997 9.11999C295.205 9.16712 295.454 9.16424 295.719 9.15404C295.967 9.14386 296.221 9.11665 296.476 9.14908C297.06 9.22356 297.06 9.22477 297.42 9.20953C297.945 9.18792 298.464 9.16754 298.993 9.14835C299.062 9.1458 299.153 9.16026 299.222 9.16988C299.37 9.19154 299.498 9.22784 299.657 9.23609C299.816 9.24556 300.001 9.23063 300.171 9.22303C300.716 9.19894 300.753 9.19036 301.12 9.27009C301.428 9.33531 301.809 9.23967 302.096 9.31467C302.26 9.357 302.483 9.39071 302.79 9.36947C303.045 9.35198 303.31 9.34665 303.574 9.33645C303.993 9.31989 303.993 9.32112 304.524 9.39327C304.593 9.40289 304.683 9.4149 304.752 9.41234C305.101 9.40199 305.456 9.39286 305.795 9.37035C306.192 9.34409 306.447 9.38993 306.745 9.43446C306.978 9.46937 307.253 9.43966 307.502 9.42706C307.772 9.41441 308.016 9.41763 308.218 9.46477C308.431 9.51311 308.68 9.50659 308.945 9.49639C309.194 9.48744 309.448 9.45899 309.702 9.49264C310.249 9.56719 310.249 9.56719 310.646 9.55189C310.996 9.53788 311.346 9.52267 311.695 9.51233C311.764 9.50977 311.849 9.52545 311.918 9.53629C312.067 9.55795 312.194 9.59426 312.353 9.60251C312.512 9.61076 312.698 9.59461 312.873 9.58822C313.047 9.58182 313.233 9.56323 313.392 9.57026C313.551 9.5773 313.7 9.60748 313.827 9.63405C313.976 9.66545 314.114 9.66886 314.315 9.65633C314.569 9.64006 314.834 9.63595 315.093 9.62698C315.237 9.64987 315.385 9.67274 315.524 9.69807C315.667 9.72461 315.821 9.72191 316.017 9.71305C316.668 9.68269 316.673 9.68634 317.22 9.76089C317.47 9.79455 317.729 9.76609 317.978 9.75713C318.243 9.74693 318.492 9.74163 318.699 9.78998C318.901 9.8359 319.15 9.84155 319.415 9.82648C319.584 9.81644 319.764 9.81005 319.939 9.8061C320.019 9.80474 320.114 9.80944 320.173 9.81909C320.454 9.86974 320.73 9.91554 321.117 9.88199C321.456 9.89114 321.627 9.99069 322.035 9.9705C322.379 9.95286 322.739 9.94857 323.078 9.92606C323.39 9.90604 323.613 9.93976 323.773 9.9821C324.06 10.0571 324.461 9.95412 324.749 10.0279C324.913 10.0702 325.126 10.104 325.443 10.0851C325.793 10.065 325.905 10.0904 326.006 10.167C326.065 10.2107 326.055 10.246 325.949 10.2803C325.844 10.3158 325.727 10.3099 325.557 10.27C325.36 10.2253 325.127 10.2172 324.846 10.2274C324.571 10.2376 324.401 10.1746 324.172 10.1507C323.944 10.1255 323.675 10.1686 323.436 10.1361C322.873 10.0604 322.873 10.0604 322.492 10.0756C322.232 10.0858 321.962 10.0912 321.708 10.1087C321.406 10.1299 321.209 10.0925 321.002 10.0587C320.928 10.0467 320.853 10.0237 320.79 10.025C320.181 10.0443 319.566 10.0625 318.962 10.0939C318.645 10.1103 318.475 10.0668 318.262 10.0367C318.188 10.0259 318.108 10.0041 318.045 10.0066C317.52 10.0246 317.001 10.0474 316.477 10.069C316.376 10.1021 316.265 10.1339 316.171 10.1694C316.07 10.2061 315.933 10.2222 315.731 10.2213C315.398 10.2219 315.07 10.2736 314.735 10.2097C314.39 10.1445 314.363 10.1482 314.03 10.1646C313.606 10.186 313.155 10.182 312.758 10.2301C312.69 10.2388 312.616 10.262 312.616 10.2791C312.611 10.29 312.722 10.3057 312.791 10.3153C313.025 10.3441 313.295 10.301 313.528 10.3311C313.682 10.3503 313.81 10.3793 313.964 10.3997C314.027 10.4081 314.123 10.4068 314.207 10.4054C314.297 10.404 314.382 10.3954 314.467 10.3964C314.546 10.3975 314.631 10.4047 314.695 10.4155C314.987 10.4613 315.295 10.5034 315.555 10.5577C315.81 10.6108 316.048 10.5739 316.303 10.571C317.321 10.6545 317.321 10.6557 318.004 10.6277C318.174 10.6214 318.349 10.6137 318.524 10.6147C318.598 10.6145 318.667 10.6363 318.741 10.6484C318.954 10.6845 319.156 10.7171 319.452 10.6971C319.706 10.6796 319.976 10.6755 320.236 10.664C320.586 10.65 320.586 10.65 321.18 10.7257C321.329 10.745 321.488 10.7422 321.678 10.7322C321.842 10.7234 322.012 10.7413 322.129 10.7764C322.177 10.791 322.161 10.8154 322.178 10.836C321.653 10.8564 321.123 10.8707 320.615 10.9008C320.287 10.9197 320.138 10.8676 319.92 10.8399C319.846 10.8303 319.766 10.8098 319.697 10.8123C319.178 10.8315 318.659 10.8531 318.14 10.8783C318.076 10.8809 317.997 10.909 317.992 10.9261C317.982 10.9578 318.115 10.988 318.306 10.9864C318.56 10.9848 318.809 10.9636 319.037 11.0132C319.229 11.0567 319.467 11.0757 319.748 11.0558C319.917 11.0445 320.097 11.0442 320.267 11.0342C320.717 11.0042 321.125 11.0095 321.465 11.0918C321.725 11.1132 321.979 11.0921 322.228 11.0807C322.414 11.0718 322.594 11.063 322.726 11.0859C323.008 11.1341 323.284 11.1824 323.671 11.1488C324.09 11.1822 324.408 11.2535 324.759 11.3113C324.924 11.339 325.051 11.3546 325.241 11.3361C325.321 11.3286 325.416 11.3284 325.501 11.3246C325.676 11.3182 325.861 11.2997 326.02 11.3067C326.179 11.3149 326.312 11.35 326.455 11.3717C326.524 11.3825 326.604 11.4007 326.673 11.3993C326.938 11.3928 327.197 11.3801 327.457 11.3699C327.716 11.361 327.976 11.352 328.236 11.343C328.453 11.3743 328.676 11.4056 328.894 11.4369C329.243 11.4229 329.593 11.4089 329.937 11.3961C330.324 11.3808 330.324 11.382 330.881 11.4566C331.131 11.4902 331.396 11.4678 331.634 11.4516C332.031 11.4253 332.297 11.4711 332.578 11.5194C332.636 11.529 332.742 11.5349 332.811 11.5299C333.087 11.5124 333.325 11.5254 333.527 11.5701C333.671 11.6015 333.814 11.6159 333.989 11.6095C334.598 11.5853 335.207 11.5599 335.816 11.5381C335.89 11.5355 335.975 11.5463 336.044 11.556C336.586 11.6293 336.591 11.6329 336.988 11.6128C337.343 11.5951 337.671 11.5872 337.953 11.6537C338.012 11.6682 338.102 11.6888 338.165 11.6874C338.6 11.6745 339.04 11.6604 339.469 11.6389C339.665 11.6288 339.802 11.6323 339.956 11.66C340.153 11.695 340.328 11.7373 340.651 11.7209C341.546 11.6743 341.552 11.6816 342.613 11.7637C342.687 11.7697 342.787 11.7598 342.872 11.7548C343.052 11.7423 343.185 11.7591 343.344 11.7868C343.7 11.8495 343.711 11.8459 344.05 11.8319C344.309 11.8205 344.579 11.8176 344.834 11.7989C345.225 11.7714 345.486 11.8184 345.778 11.863C346.011 11.8979 346.281 11.8682 346.53 11.8568C346.8 11.8442 347.044 11.8474 347.246 11.8933C347.384 11.9247 347.533 11.9415 347.707 11.9351C348.317 11.9122 348.926 11.8867 349.535 11.8638C349.609 11.8612 349.699 11.8708 349.768 11.8792C350.373 11.9536 350.373 11.9573 350.972 11.9283C351.162 11.9194 351.321 11.9167 351.465 11.942C351.603 11.9661 351.752 11.989 351.895 12.0119C352.154 12.0029 352.419 12 352.674 11.985C352.869 11.9737 353.007 11.9783 353.161 12.0036C353.363 12.0361 353.533 12.0931 353.851 12.0645C354.015 12.0508 354.206 12.0541 354.37 12.0417C354.566 12.0255 354.699 12.035 354.853 12.0664C355.044 12.1038 355.24 12.1425 355.547 12.1224C355.886 12.0999 356.247 12.0957 356.591 12.078C356.782 12.0679 356.914 12.0774 357.068 12.1088C357.26 12.1487 357.477 12.1739 357.774 12.1575C358.377 12.1261 358.383 12.1321 358.972 12.2078C359.121 12.227 359.28 12.2243 359.47 12.2143C359.634 12.2055 359.804 12.2234 359.921 12.2585C360.033 12.2973 360.023 12.3217 360.033 12.3424ZM312.678 1.44223C312.503 1.44862 312.328 1.45623 312.073 1.35074C312.057 1.3325 312.067 1.31057 312.03 1.2948C311.944 1.26207 311.812 1.23917 311.653 1.23579C311.366 1.23142 311.022 1.27341 311.028 1.30506C311.034 1.33184 311.124 1.35481 311.299 1.37643C311.374 1.38482 311.432 1.39934 311.501 1.40896C311.703 1.43661 311.862 1.49114 312.154 1.46263C312.127 1.42493 312.1 1.38723 312.154 1.46263C312.128 1.50895 312.207 1.54169 312.398 1.55475C312.451 1.55831 312.531 1.55573 312.573 1.54835C312.737 1.52128 312.763 1.48471 312.64 1.38873C312.619 1.40459 312.635 1.43256 312.683 1.43979C312.731 1.44701 312.847 1.44073 312.906 1.4321C313.054 1.40871 313.128 1.37813 313.09 1.35263C313.069 1.33927 312.968 1.3224 312.904 1.32251C312.793 1.3227 312.693 1.34966 312.678 1.44223ZM355.7 15.4891C355.313 15.5129 354.868 15.5051 354.482 15.5533C354.413 15.5619 354.344 15.584 354.339 15.601C354.334 15.612 354.44 15.6276 354.504 15.6361C354.647 15.6553 354.806 15.6489 354.992 15.6425C355.272 15.6335 355.437 15.6892 355.655 15.7169C355.724 15.7253 355.814 15.7312 355.888 15.7286C356.317 15.7133 356.741 15.6967 357.17 15.6789C357.244 15.6751 357.324 15.6665 357.387 15.6554C357.599 15.6197 357.577 15.5966 357.37 15.5702C357.142 15.5414 356.961 15.493 356.728 15.4702C356.393 15.4379 356.055 15.4824 355.7 15.4891ZM325.616 16.4302C325.357 16.4404 325.102 16.4506 324.843 16.4608C324.758 16.4646 324.668 16.4659 324.588 16.4709C324.424 16.4797 324.303 16.5055 324.224 16.5458C324.346 16.5773 324.495 16.5953 324.659 16.5914C324.918 16.5836 325.173 16.5673 325.432 16.5632C325.713 16.5579 325.878 16.6124 326.096 16.64C326.165 16.6484 326.249 16.6495 326.329 16.6506C326.721 16.6548 326.959 16.591 326.884 16.5023C326.83 16.433 326.628 16.3919 326.384 16.4009C326.13 16.4098 325.87 16.42 325.616 16.4302ZM357.49 13.6862C357.554 13.6654 357.622 13.6507 357.654 13.6324C357.749 13.5701 357.711 13.5239 357.535 13.4755C357.323 13.4162 357.064 13.4568 356.825 13.4633C356.767 13.4646 356.704 13.4903 356.672 13.5062C356.651 13.5172 356.651 13.5404 356.683 13.5464C356.943 13.5946 357.219 13.6392 357.49 13.6862ZM311.475 10.169C311.221 10.1792 310.962 10.187 310.707 10.2008C310.644 10.2046 310.586 10.2278 310.549 10.2437C310.48 10.273 310.555 10.3131 310.772 10.3164C311.021 10.3208 311.281 10.2997 311.54 10.2895C311.869 10.2767 312.064 10.2313 311.942 10.1926C311.825 10.155 311.666 10.148 311.475 10.169ZM32.4956 8.05096C32.6651 8.04457 32.8399 8.03939 33.0094 8.03058C33.1683 8.02178 33.2899 7.99478 33.3689 7.95446C33.2361 7.92303 33.0874 7.90624 32.9232 7.91018C32.6636 7.91793 32.4094 7.92811 32.1552 7.94073C31.9963 7.94831 31.843 7.97537 31.8064 8.01683C31.7697 8.04856 32.1249 8.06621 32.4956 8.05096ZM289.031 7.41827C289.1 7.42911 289.169 7.45091 289.238 7.45079C289.407 7.45049 289.582 7.44288 289.741 7.43043C289.81 7.42544 289.863 7.40343 289.894 7.38633C289.915 7.37533 289.91 7.35586 289.878 7.34618C289.723 7.288 289.109 7.30976 289.009 7.37691C288.999 7.3891 289.025 7.40488 289.031 7.41827ZM272.23 0.779371C272.246 0.798826 272.252 0.818297 272.273 0.837743C272.316 0.874199 272.433 0.900791 272.603 0.918761C272.735 0.88809 272.804 0.853881 272.798 0.817361C272.792 0.797887 272.776 0.77842 272.755 0.758974C272.712 0.722518 272.595 0.695941 272.425 0.67797C272.293 0.707424 272.23 0.741624 272.23 0.779371ZM369.772 16.5654C369.725 16.5814 369.677 16.5973 369.624 16.612C369.768 16.647 369.901 16.6578 370.001 16.6381C370.064 16.6258 370.101 16.6075 370.149 16.5916C370.005 16.5565 369.878 16.547 369.772 16.5654ZM366.478 16.7368C366.547 16.7476 366.611 16.7621 366.685 16.7693C366.807 16.7813 366.918 16.7604 367.002 16.7164C366.933 16.7055 366.87 16.691 366.795 16.6839C366.673 16.6719 366.562 16.6928 366.478 16.7368ZM368.563 16.5103C368.526 16.5396 368.601 16.5638 368.797 16.5842C368.845 16.5683 368.908 16.5536 368.94 16.5365C368.993 16.5084 368.902 16.4829 368.711 16.4638C368.658 16.4785 368.611 16.4944 368.563 16.5103ZM357.361 15.2171C357.324 15.2464 357.398 15.2706 357.595 15.291C357.642 15.275 357.705 15.2603 357.737 15.2432C357.79 15.2151 357.699 15.1897 357.508 15.1706C357.456 15.1853 357.408 15.2012 357.361 15.2171ZM342.015 6.62737C341.967 6.64329 341.92 6.6592 341.867 6.6739C342.011 6.70897 342.143 6.71969 342.244 6.70003C342.307 6.68775 342.344 6.66942 342.391 6.65351C342.248 6.61844 342.121 6.60892 342.015 6.62737ZM327.36 2.08161C327.487 2.08991 327.593 2.07269 327.682 2.02748C327.613 2.01664 327.549 2.00213 327.475 1.99496C327.353 1.98299 327.242 2.00389 327.158 2.04787C327.227 2.05993 327.296 2.07076 327.36 2.08161ZM319.603 1.80891C319.556 1.82483 319.508 1.84074 319.456 1.85544C319.599 1.89051 319.732 1.90123 319.832 1.88157C319.896 1.86929 319.932 1.85096 319.98 1.83505C319.836 1.79998 319.709 1.79168 319.603 1.80891ZM267.016 0.787201C266.968 0.803113 266.921 0.819026 266.868 0.83373C267.012 0.868794 267.144 0.879519 267.245 0.859862C267.308 0.847575 267.345 0.829245 267.392 0.813333C267.249 0.778269 267.122 0.76997 267.016 0.787201ZM5.35816 11.1483C5.28913 11.1375 5.22017 11.1267 5.15643 11.1146C5.00315 11.1478 4.95585 11.1783 5.04091 11.2013C5.09409 11.2158 5.17362 11.2242 5.24264 11.235C5.40122 11.2019 5.43794 11.1726 5.35816 11.1483Z" fill="#14BEB6"/>
</svg>
